<?xml version="1.0" encoding="UTF-8" standalone="no"?>
<svg
   version="1.1"
   viewBox="-5 -10 99.997826 75.003616"
   id="svg16"
   sodipodi:docname="unconsious.svg"
   width="99.997826"
   height="75.003616"
   inkscape:version="1.2.2 (b0a8486541, 2022-12-01)"
   xmlns:inkscape="http://www.inkscape.org/namespaces/inkscape"
   xmlns:sodipodi="http://sodipodi.sourceforge.net/DTD/sodipodi-0.dtd"
   xmlns="http://www.w3.org/2000/svg"
   xmlns:svg="http://www.w3.org/2000/svg">
  <defs
     id="defs20" />
  <sodipodi:namedview
     id="namedview18"
     pagecolor="#ffffff"
     bordercolor="#666666"
     borderopacity="1.0"
     inkscape:showpageshadow="2"
     inkscape:pageopacity="0.0"
     inkscape:pagecheckerboard="0"
     inkscape:deskcolor="#d1d1d1"
     showgrid="false"
     inkscape:zoom="6.0074074"
     inkscape:cx="49.938348"
     inkscape:cy="45.194205"
     inkscape:window-width="1920"
     inkscape:window-height="1011"
     inkscape:window-x="0"
     inkscape:window-y="0"
     inkscape:window-maximized="1"
     inkscape:current-layer="svg16" />
  <path
     d="m 74.60899,14.7536 c -0.625,-0.08594 -1.1406,-0.53906 -1.3047,-1.1484 -0.26172,-0.98438 -0.65234,-1.9297 -1.1641,-2.8125 -0.32031,-0.54688 -0.27344,-1.2344 0.10938,-1.7344 l 1.9258,-2.5195 C 73.58162,5.82786 72.92147,5.1716 72.20657,4.57 l -2.5195,1.9258 c -0.5,0.38281 -1.1875,0.42969 -1.7344,0.10938 -0.88281,-0.51172 -1.8281,-0.90625 -2.8125,-1.1641 -0.60938,-0.16406 -1.0625,-0.67578 -1.1484,-1.3047 l -0.42188,-3.1445 c -0.92578,-0.08203 -1.8516,-0.08203 -2.7812,0 l -0.42187,3.1445 c -0.08594,0.625 -0.53906,1.1406 -1.1484,1.3047 -0.98438,0.26172 -1.9297,0.65234 -2.8125,1.1641 -0.54688,0.32031 -1.2305,0.27344 -1.7344,-0.10938 L 52.15202,4.57 c -0.71094,0.59375 -1.3672,1.2539 -1.9688,1.9688 l 1.9258,2.5195 c 0.38281,0.5 0.42969,1.1875 0.10938,1.7344 -0.51172,0.88281 -0.90625,1.8281 -1.1641,2.8125 -0.16406,0.60938 -0.67578,1.0625 -1.3047,1.1484 l -3.1445,0.42188 c -0.03906,0.46094 -0.0625,0.92969 -0.0625,1.3906 0,0.46484 0.02344,0.92969 0.0625,1.3906 l 3.1445,0.42188 c 0.625,0.08594 1.1406,0.53906 1.3047,1.1484 0.26172,0.98438 0.65234,1.9297 1.1641,2.8125 0.32031,0.54688 0.27344,1.2344 -0.10938,1.7344 l -1.9258,2.5195 c 0.29688,0.35938 0.61328,0.70312 0.9375,1.0273 0.32812,0.32812 0.67188,0.64062 1.0273,0.9375 l 2.5195,-1.9258 c 0.5,-0.38281 1.1875,-0.42969 1.7344,-0.10937 0.88281,0.51172 1.8281,0.90625 2.8125,1.1641 0.60938,0.16406 1.0625,0.67578 1.1484,1.3047 l 0.42188,3.1445 c 0.92578,0.08203 1.8516,0.08203 2.7812,0 l 0.42188,-3.1445 c 0.08594,-0.625 0.53906,-1.1406 1.1484,-1.3047 0.98438,-0.26172 1.9297,-0.65234 2.8125,-1.1641 0.54688,-0.32031 1.2344,-0.27344 1.7344,0.10937 l 2.5195,1.9258 c 0.35938,-0.29688 0.70312,-0.61328 1.0273,-0.9375 0.32812,-0.32812 0.64062,-0.67188 0.9375,-1.0273 l -1.9258,-2.5195 c -0.38281,-0.5 -0.42969,-1.1875 -0.10938,-1.7344 0.51172,-0.88281 0.90625,-1.8281 1.1641,-2.8125 0.16406,-0.60938 0.67578,-1.0625 1.3047,-1.1484 l 3.1445,-0.42188 c 0.03906,-0.46094 0.0625,-0.92969 0.0625,-1.3906 0,-0.46484 -0.02344,-0.92969 -0.0625,-1.3906 L 74.601,14.7536 Z m -12.422,9.6211 c -4.3086,0 -7.8125,-3.5039 -7.8125,-7.8125 0,-4.3086 3.5039,-7.8125 7.8125,-7.8125 4.3086,0 7.8125,3.5039 7.8125,7.8125 0,4.3086 -3.5039,7.8125 -7.8125,7.8125 z"
     id="path2"
     style="fill:#ffffff" />
  <path
     d="m 62.18799,11.8746 c -2.5859,0 -4.6875,2.1016 -4.6875,4.6875 0,2.582 2.1016,4.6875 4.6875,4.6875 2.5859,0 4.6875,-2.1016 4.6875,-4.6875 0,-2.582 -2.1016,-4.6875 -4.6875,-4.6875 z"
     id="path4"
     style="fill:#ffffff" />
  <path
     d="m 94.90599,36.3436 -6.1562,-16.93 V 16.562 c 0,-14.645 -11.914,-26.562 -26.562,-26.562 -14.648,0 -26.562,11.914 -26.562,26.562 0,9.1797 3.0547,15.156 5.7461,20.43 1.9492,3.8125 3.6289,7.1016 3.6289,10.82 0,10.219 -2.8398,14.723 -2.8633,14.758 -0.32031,0.48047 -0.35156,1.0938 -0.07813,1.6055 0.27344,0.50781 0.80078,0.82812 1.375,0.82812 h 28.125 c 0.86328,0 1.5625,-0.69922 1.5625,-1.5625 v -9.375 h 14.062 c 0.86328,0 1.5625,-0.69922 1.5625,-1.5625 v -14.062 h 4.6875 c 0.50781,0 0.98828,-0.25 1.2812,-0.66406 0.292975,-0.41797 0.363285,-0.95312 0.1875,-1.4297 z m -14.211,-16.75 c -0.10937,0.67969 -0.65234,1.207 -1.3359,1.2969 l -3.3438,0.44531 c -0.19141,0.55469 -0.41406,1.0977 -0.67188,1.625 l 2.0469,2.6797 c 0.41797,0.54688 0.42969,1.3047 0.02734,1.8594 -0.59375,0.82422 -1.2578,1.6055 -1.9688,2.3203 -0.71484,0.71484 -1.4922,1.375 -2.3203,1.9688 -0.55859,0.40234 -1.3125,0.39063 -1.8594,-0.02734 l -2.6797,-2.0469 c -0.52734,0.25781 -1.0703,0.48438 -1.625,0.67188 l -0.44531,3.3438 c -0.09375,0.68359 -0.61719,1.2266 -1.2969,1.3359 -1,0.16406 -2.0234,0.24219 -3.0312,0.24219 -1.0078,0 -2.0312,-0.08203 -3.0312,-0.24219 -0.67969,-0.10938 -1.207,-0.65234 -1.2969,-1.3359 l -0.44531,-3.3438 c -0.55469,-0.19141 -1.0977,-0.41406 -1.625,-0.67188 l -2.6797,2.0469 c -0.54688,0.41797 -1.3047,0.42969 -1.8594,0.02734 -0.82422,-0.59375 -1.6055,-1.2578 -2.3203,-1.9688 -0.71484,-0.71484 -1.375,-1.4922 -1.9688,-2.3203 -0.40234,-0.55859 -0.39062,-1.3125 0.02734,-1.8594 l 2.0469,-2.6797 c -0.25781,-0.52734 -0.48437,-1.0703 -0.67187,-1.625 L 45.023,20.8905 c -0.68359,-0.09375 -1.2266,-0.61719 -1.3359,-1.2969 -0.16406,-1 -0.24219,-2.0234 -0.24219,-3.0312 0,-1.0117 0.08203,-2.0312 0.24219,-3.0312 0.10938,-0.67969 0.65234,-1.207 1.3359,-1.2969 l 3.3438,-0.44531 c 0.19141,-0.55469 0.41406,-1.0977 0.67187,-1.625 l -2.0469,-2.6797 c -0.41797,-0.54688 -0.42969,-1.3047 -0.02734,-1.8594 1.1875,-1.6562 2.6328,-3.0977 4.2891,-4.2891 0.55859,-0.40234 1.3125,-0.39063 1.8594,0.02734 l 2.6797,2.0469 c 0.52734,-0.25781 1.0703,-0.48438 1.625,-0.67188 l 0.44531,-3.3438 c 0.09375,-0.68359 0.61719,-1.2266 1.2969,-1.3359 2,-0.32812 4.0586,-0.32812 6.0625,0 0.67969,0.10938 1.207,0.65234 1.2969,1.3359 l 0.44531,3.3438 c 0.55469,0.19141 1.0977,0.41406 1.625,0.67188 l 2.6797,-2.0469 c 0.54688,-0.41797 1.3047,-0.42969 1.8594,-0.02734 1.6562,1.1875 3.0977,2.6328 4.2891,4.2891 0.40234,0.55859 0.39062,1.3125 -0.02734,1.8594 l -2.0469,2.6797 c 0.25781,0.52734 0.48438,1.0703 0.67188,1.625 l 3.3438,0.44531 c 0.68359,0.09375 1.2266,0.61719 1.3359,1.2969 0.16406,1 0.24219,2.0234 0.24219,3.0312 0,1.0117 -0.08203,2.0312 -0.24219,3.0312 z"
     id="path6"
     style="fill:#ffffff" />
  <path
     d="m 19.99999,14.6636 c 0,-0.71875 -0.49219,-1.3438 -1.1914,-1.5156 l -5.1914,-1.2734 C 13.70313,11.36679 13.75,10.8434 13.75,10.3121 c 0,-5.1719 -4.2031,-9.375 -9.375,-9.375 -5.168,0 -9.375,4.2031 -9.375,9.375 0,2.3984 0.90625,4.5898 2.3945,6.25 C -4.0938,18.2223 -5,20.4137 -5,22.8121 c 0,5.1719 4.2031,9.375 9.375,9.375 5.1719,0 9.375,-4.2031 9.375,-9.375 0,-0.53125 -0.04687,-1.0547 -0.13281,-1.5625 l 5.1914,-1.2734 c 0.69922,-0.17187 1.1914,-0.79687 1.1914,-1.5156 v -0.33594 h 4.6875 v -3.125 h -4.6875 z m -15.625,11.273 c -1.7266,0 -3.125,-1.3984 -3.125,-3.125 0,-1.7266 1.3984,-3.125 3.125,-3.125 1.7266,0 3.125,1.3984 3.125,3.125 0,1.7266 -1.3984,3.125 -3.125,3.125 z m 0,-12.5 c -1.7266,0 -3.125,-1.3984 -3.125,-3.125 0,-1.7266 1.3984,-3.125 3.125,-3.125 1.7266,0 3.125,1.3984 3.125,3.125 0,1.7266 -1.3984,3.125 -3.125,3.125 z"
     id="path8"
     style="fill:#ffffff" />
  <path
     d="m 28.99599,11.9216 c -0.69531,0.17188 -1.1836,0.79688 -1.1836,1.5156 v 6.25 c 0,0.71875 0.48828,1.3438 1.1836,1.5156 l 3.8828,0.96875 c -0.24219,-1.7461 -0.37891,-3.6094 -0.37891,-5.6094 0,-2 0.1875,-3.8203 0.54297,-5.6523 z"
     id="path10"
     style="fill:#ffffff" />
</svg>
