<?xml version="1.0" encoding="UTF-8" standalone="no"?>
<!-- Created with Inkscape (http://www.inkscape.org/) -->

<svg
   xmlns:dc="http://purl.org/dc/elements/1.1/"
   xmlns:cc="http://creativecommons.org/ns#"
   xmlns:rdf="http://www.w3.org/1999/02/22-rdf-syntax-ns#"
   xmlns:svg="http://www.w3.org/2000/svg"
   xmlns="http://www.w3.org/2000/svg"
   xmlns:sodipodi="http://sodipodi.sourceforge.net/DTD/sodipodi-0.dtd"
   xmlns:inkscape="http://www.inkscape.org/namespaces/inkscape"
   width="179.22871"
   height="146.19023"
   id="svg2"
   version="1.1"
   inkscape:version="0.48.4 r9939"
   sodipodi:docname="janus.svg">
  <defs
     id="defs4">
    <filter
       inkscape:collect="always"
       id="filter3767"
       color-interpolation-filters="sRGB">
      <feGaussianBlur
         inkscape:collect="always"
         stdDeviation="0.42509181"
         id="feGaussianBlur3769" />
    </filter>
  </defs>
  <sodipodi:namedview
     id="base"
     pagecolor="#ffffff"
     bordercolor="#666666"
     borderopacity="1.0"
     inkscape:pageopacity="0.0"
     inkscape:pageshadow="2"
     inkscape:zoom="1.4"
     inkscape:cx="59.295521"
     inkscape:cy="15.193258"
     inkscape:document-units="px"
     inkscape:current-layer="layer1"
     showgrid="false"
     inkscape:window-width="1920"
     inkscape:window-height="1056"
     inkscape:window-x="0"
     inkscape:window-y="24"
     inkscape:window-maximized="1"
     fit-margin-top="2"
     fit-margin-left="2"
     fit-margin-right="2"
     fit-margin-bottom="2" />
  <metadata
     id="metadata7">
    <rdf:RDF>
      <cc:Work
         rdf:about="">
        <dc:format>image/svg+xml</dc:format>
        <dc:type
           rdf:resource="http://purl.org/dc/dcmitype/StillImage" />
        <dc:title />
      </cc:Work>
    </rdf:RDF>
  </metadata>
  <g
     inkscape:label="Calque 1"
     inkscape:groupmode="layer"
     id="layer1"
     transform="translate(-275.81122,-523.88672)">
    <path
       style="fill:#ed6e00;fill-opacity:1;filter:url(#filter3767)"
       d="m 229.69685,599.05566 c -6.5601,-2.65058 -8.3484,-12.26821 -4.01252,-21.57964 4.03639,-8.66825 12.38397,-13.55864 26.1244,-15.30486 l 4.01786,-0.189 6.0596,-32.1564 c -19.07233,-0.27322 -24.09219,0.90664 -26.26341,2.16104 -0.99775,0.57643 -2.93909,1.49372 -4.31409,2.03841 -1.375,0.54469 -3.58263,1.77133 -4.90584,2.72588 -2.33477,1.68427 -2.37441,1.67718 -1.34182,-0.23992 2.17351,-4.03533 8.52274,-8.53662 15.4393,-10.9457 3.41659,-1.19002 9.93159,-1.50365 31.47545,-1.51519 30.16858,-0.0162 32.09033,0.32152 39.66155,6.96914 5.31987,4.6709 7.18382,14.03032 4.62735,23.23525 -2.68294,9.66035 -11.25708,15.98858 -32.63204,16.79057 l -2.12248,7.13035 c -2.46269,8.27327 -5.74125,12.65741 -12.54127,18.03368 -5.1245,4.05155 -8.91591,5.3123 -4.64583,1.54486 4.2961,-3.79039 6.55652,-8.95843 7.74397,-16.2184 l 1.72576,-10.29863 -10.9841,0.29863 -0.62836,5.14805 c -0.76937,6.30337 -3.56976,14.13684 -6.05303,16.93202 -3.63527,4.09188 -10.03102,6.42459 -17.42814,6.35654 -3.78976,-0.0349 -7.84082,-0.44737 -9.00235,-0.91668 z m 16.52452,-5.76993 c 2.48142,-0.90656 2.95781,-2.32724 4.69259,-4.71238 1.6654,-1.66539 1.94926,-6.57345 3.05956,-17.20616 -4.71429,-0.29488 -15.95521,2.56773 -18.66479,4.53412 -5.48802,3.98275 -7.01324,12.36252 -3.02318,16.60975 2.89747,3.08422 9.25688,3.43773 13.93582,0.77467 z m 34.26882,-63.25 -4.25029,0 -4.75537,0 -6.28782,31.95521 c 4.41088,0.0999 4.50986,0.0448 9.66518,0.0448 z m 28.59045,15.5401 c -0.0612,-8.10198 -7.62217,-14.433 -14.05436,-14.85975 l -4.10153,-0.18035 -1.70838,10.5 c -1.06701,6.48492 -3.18958,17.54724 -3.622,20.16536 16.93137,-0.85971 23.26349,-5.99489 23.48627,-15.62526 z m -26.29466,52.38824 c -0.95463,-3.00778 2.09705,-6.18789 6.17774,-5.92834 l 2.80966,0.3371 -0.76881,4.1777 c -0.65454,3.55676 -7.29645,4.31894 -8.21859,1.41354 z"
       id="path3009"
       inkscape:connector-curvature="0"
       sodipodi:nodetypes="cssccsssssssscssssccssscccccsscccccccccccccsscss"
       transform="matrix(1.8230147,0,0,1.8230147,-127.44124,-427.60386)" />
  </g>
</svg>
