<?xml version="1.0" encoding="UTF-8" standalone="no"?>
<!-- Created with Inkscape (http://www.inkscape.org/) -->

<svg
   width="84.822556mm"
   height="22.457212mm"
   viewBox="0 0 84.822556 22.457213"
   version="1.1"
   id="svg5"
   inkscape:version="1.2.2 (b0a8486541, 2022-12-01)"
   sodipodi:docname="ciadlogo_green_background.svg"
   xmlns:inkscape="http://www.inkscape.org/namespaces/inkscape"
   xmlns:sodipodi="http://sodipodi.sourceforge.net/DTD/sodipodi-0.dtd"
   xmlns="http://www.w3.org/2000/svg"
   xmlns:svg="http://www.w3.org/2000/svg">
  <sodipodi:namedview
     id="namedview7"
     pagecolor="#ffffff"
     bordercolor="#666666"
     borderopacity="1.0"
     inkscape:pageshadow="2"
     inkscape:pageopacity="0.0"
     inkscape:pagecheckerboard="0"
     inkscape:document-units="mm"
     showgrid="false"
     inkscape:zoom="1.9108502"
     inkscape:cx="157.25984"
     inkscape:cy="85.04068"
     inkscape:window-width="1513"
     inkscape:window-height="991"
     inkscape:window-x="26"
     inkscape:window-y="23"
     inkscape:window-maximized="0"
     inkscape:current-layer="layer2"
     fit-margin-top="0"
     fit-margin-left="0"
     fit-margin-right="0"
     fit-margin-bottom="0"
     inkscape:showpageshadow="2"
     inkscape:deskcolor="#d1d1d1" />
  <defs
     id="defs2" />
  <g
     inkscape:groupmode="layer"
     id="layer3"
     inkscape:label="background"
     style="fill:#000000"
     sodipodi:insensitive="true">
    <path
       id="path938-7"
       style="fill:#000000;fill-opacity:1;fill-rule:nonzero;stroke:none;stroke-width:0.352778"
       d="m 11.773233,0.296045 c -0.918473,0.01907 -1.8146,0.234179 -2.714844,0.396485 1.024921,1.031716 1.877222,2.395203 1.690351,3.910529 -0.04391,0.57198 -0.249363,1.111308 -0.471601,1.634392 1.422598,1.111887 2.845323,2.223612 4.267578,3.335938 0.947156,-0.8315 2.200809,-1.222343 3.453125,-1.134766 0.14611,-0.815589 0.292133,-1.631198 0.435547,-2.447265 C 17.24771,5.480533 16.603391,3.938867 17.33378,2.809717 17.603022,2.35228 18.409638,1.839731 17.480565,1.662817 15.741229,0.711887 13.755129,0.231865 11.773233,0.296045 Z m 8.96875,5.111328 c -0.426686,0.471774 -1.062641,0.645538 -1.673828,0.712891 -0.148733,0.821863 -0.291858,1.644729 -0.439453,2.466797 1.839205,0.602031 3.217876,2.471121 2.985616,4.436035 -0.156421,2.444723 -2.756562,4.339496 -5.129878,3.699399 -1.113818,-0.247747 -2.042169,-1.006042 -2.676051,-1.934262 -1.774517,0.627695 -3.54752,1.259672 -5.322265,1.886718 0.144385,1.576075 -0.639591,3.094258 -1.865736,4.0561 -0.3863,0.403292 0.863305,0.539016 1.16847,0.828666 3.942009,1.745728 8.85574,0.893191 11.955837,-2.108786 3.223703,-2.952409 4.373165,-7.894268 2.782163,-11.96624 C 22.211208,6.582358 21.706433,5.766587 21.228311,4.944483 21.066202,5.09878 20.904092,5.253076 20.741983,5.407373 Z M 2.150186,6.614404 c -1.095937,2.249845 -1.325345,4.849607 -0.832031,7.289063 1.239531,-0.876503 2.866057,-1.355341 4.333977,-0.775728 0.994514,0.337092 1.787472,1.08954 2.34571,1.961275 1.752854,-0.622876 3.506811,-1.242645 5.259766,-1.865234 -0.04572,-0.774557 0.05384,-1.546305 0.316406,-2.277344 C 12.117171,9.80474 10.657668,8.666438 9.200967,7.524561 7.548489,8.831327 4.955883,8.686254 3.535238,7.105605 3.146002,6.699143 2.862293,6.207204 2.525186,5.758936 c -0.125,0.285156 -0.25,0.570312 -0.375,0.855468 z" />
    <path
       id="path838-6"
       style="fill:#000000;fill-opacity:1;fill-rule:nonzero;stroke:none;stroke-width:0.352778"
       d="m 57.388467,3.391748 c -1.411731,-0.02267 -2.563751,0.979919 -3.250797,2.132691 -1.597156,2.190227 -3.278001,4.330247 -4.825648,6.550184 -0.574743,1.16411 0.718626,2.590817 1.93072,2.100851 0.970204,-0.412397 1.356556,-1.532993 2.047295,-2.269653 1.347529,-1.738355 2.601582,-3.557587 4.008587,-5.244541 0.379755,-0.192279 0.664615,0.576974 0.916393,0.792685 1.633,2.143214 3.199013,4.341924 4.872669,6.451455 0.956795,0.870373 2.684037,0.03629 2.560547,-1.261719 -0.13079,-1.045591 -1.08325,-1.730343 -1.600339,-2.595642 C 62.580232,8.137058 61.204452,6.147036 59.682126,4.282958 59.076171,3.697245 58.227886,3.380814 57.388467,3.391748 Z m -0.01367,6.154297 c -1.443472,-0.04666 -2.355438,1.810861 -1.480468,2.941406 0.791954,1.243115 2.927931,0.922382 3.297502,-0.510071 0.417411,-1.170047 -0.569459,-2.509788 -1.817034,-2.431335 z" />
    <path
       id="path836-6"
       style="display:inline;fill:#000000;fill-opacity:1;fill-rule:nonzero;stroke:none;stroke-width:0.352778"
       d="m 46.5,3.8222656 c -1.055614,-0.011456 -1.695994,1.0981287 -1.517578,2.0605469 0.02919,2.3907123 -0.05724,4.7903545 0.04102,7.1757815 0.235951,1.295342 2.14772,1.635791 2.826171,0.509765 0.50342,-0.934377 0.154112,-2.054777 0.257813,-3.06914 -0.02982,-1.8232982 0.05815,-3.6559637 -0.04102,-5.4738284 C 47.914653,4.31898 47.223426,3.7822309 46.5,3.8222656 Z" />
  </g>
  <g
     inkscape:groupmode="layer"
     id="layer2"
     inkscape:label="original-logo"
     style="display:inline">
    <path
       d="m 61.381614,64.308137 c 0,-0.543984 0.08537,-1.089731 0.257527,-1.634067 0.186267,-0.559506 0.452261,-1.062567 0.796572,-1.507772 0.344664,-0.458964 0.759531,-0.830792 1.24707,-1.119011 0.487892,-0.286456 1.040694,-0.429684 1.658055,-0.429684 h 12.545483 c 0.286809,0 0.530578,0.100542 0.731662,0.301625 0.201436,0.201084 0.301977,0.443795 0.301977,0.731661 0,0.286809 -0.100541,0.530578 -0.301977,0.732014 -0.201084,0.199673 -0.444853,0.300214 -0.731662,0.300214 H 65.792747 c -0.503061,0 -0.910872,0.09384 -1.226609,0.279753 -0.301625,0.172156 -0.545747,0.38735 -0.731661,0.646289 -0.172155,0.25788 -0.294922,0.544336 -0.366536,0.860072 -0.05644,0.301625 -0.08537,0.581378 -0.08537,0.838906 0,0.259291 0.02893,0.545747 0.08537,0.861483 0.07161,0.301625 0.194381,0.581378 0.366536,0.839258 0.185914,0.257528 0.430036,0.480836 0.731661,0.66675 0.315737,0.172509 0.723548,0.259292 1.226609,0.259292 h 12.093574 c 0.286809,0 0.530578,0.09913 0.731662,0.300214 0.201436,0.201436 0.301977,0.445205 0.301977,0.732014 0,0.286455 -0.100541,0.530225 -0.301977,0.731661 -0.201084,0.201083 -0.444853,0.301625 -0.731662,0.301625 H 65.125644 c -0.588433,0 -1.111956,-0.143228 -1.570919,-0.431095 -0.458964,-0.286808 -0.854428,-0.651933 -1.18357,-1.097139 -0.315736,-0.458963 -0.559505,-0.968727 -0.732014,-1.528233 -0.172155,-0.559505 -0.257527,-1.103841 -0.257527,-1.63583 z"
       style="fill:#000000;fill-opacity:1;fill-rule:nonzero;stroke:none;stroke-width:0.352778"
       id="path834"
       transform="translate(-35.539267,-55.268408)" />
    <path
       d="m 83.11731,67.967148 c 0,0.286455 -0.100541,0.530225 -0.301625,0.731661 -0.201083,0.201083 -0.445205,0.301625 -0.731661,0.301625 -0.286808,0 -0.530578,-0.100542 -0.732014,-0.301625 -0.201083,-0.201436 -0.300214,-0.445206 -0.300214,-0.731661 v -7.316259 c 0,-0.287866 0.09913,-0.530577 0.300214,-0.731661 0.201436,-0.201083 0.445206,-0.301625 0.732014,-0.301625 0.286456,0 0.530578,0.100542 0.731661,0.301625 0.201084,0.201084 0.301625,0.443795 0.301625,0.731661 z"
       style="fill:#95bc0f;fill-opacity:1;fill-rule:nonzero;stroke:none;stroke-width:0.352778"
       id="path836"
       transform="translate(-35.539267,-55.268408)" />
    <path
       d="m 91.624193,66.675628 c 0,-0.371828 0.12947,-0.688975 0.386998,-0.946503 0.25788,-0.25788 0.573263,-0.387349 0.946855,-0.387349 0.373239,0 0.688975,0.129469 0.946503,0.387349 0.259292,0.257528 0.38735,0.574675 0.38735,0.946503 0,0.373592 -0.128058,0.689328 -0.38735,0.946856 -0.257528,0.258939 -0.573264,0.38735 -0.946503,0.38735 -0.373592,0 -0.688975,-0.128411 -0.946855,-0.38735 -0.257528,-0.257528 -0.386998,-0.573264 -0.386998,-0.946856 z m -4.540955,1.937809 c -0.214842,0.257527 -0.480836,0.386997 -0.796219,0.386997 -0.286809,0 -0.530578,-0.100542 -0.732014,-0.301625 -0.201084,-0.201436 -0.300214,-0.445206 -0.300214,-0.731661 0,-0.257881 0.07161,-0.46602 0.214841,-0.624417 l 5.22852,-7.036153 c 0.243769,-0.330905 0.567619,-0.595488 0.968728,-0.796572 0.402166,-0.214841 0.832202,-0.322439 1.291166,-0.322439 0.430036,0 0.839258,0.09243 1.226256,0.279753 0.38735,0.185914 0.703086,0.445206 0.946855,0.774347 l 5.229573,6.993467 c 0.0854,0.100894 0.15734,0.215194 0.2152,0.344664 0.0579,0.1143 0.0868,0.243769 0.0868,0.38735 0,0.286455 -0.10089,0.530225 -0.30198,0.731661 -0.20108,0.201083 -0.445201,0.301625 -0.731656,0.301625 -0.344664,0 -0.617361,-0.136172 -0.817034,-0.409222 l -5.014736,-6.693253 c -0.100541,-0.1143 -0.228952,-0.235656 -0.38735,-0.365125 -0.143227,-0.143228 -0.293511,-0.214842 -0.451908,-0.214842 -0.157339,0 -0.315736,0.07161 -0.472722,0.214842 -0.144639,0.129469 -0.258939,0.250825 -0.344664,0.365125 z"
       style="fill:#95bc0f;fill-opacity:1;fill-rule:nonzero;stroke:none;stroke-width:0.352778"
       id="path838"
       transform="translate(-35.539267,-55.268408)" />
    <path
       d="m 104.88899,61.683117 v 5.251803 h 11.06029 c 0.48754,0 0.89006,-0.08678 1.20579,-0.259292 0.31539,-0.185914 0.55951,-0.409222 0.73166,-0.66675 0.18592,-0.25788 0.30869,-0.537633 0.36513,-0.839258 0.0716,-0.315736 0.1076,-0.602192 0.1076,-0.861483 0,-0.257528 -0.036,-0.537281 -0.1076,-0.838906 -0.0564,-0.315736 -0.17921,-0.602192 -0.36513,-0.860072 -0.17215,-0.258939 -0.41627,-0.474133 -0.73166,-0.646289 -0.31573,-0.185914 -0.71825,-0.279753 -1.20579,-0.279753 z m 15.47283,2.62502 c 0,0.531989 -0.0871,1.069622 -0.25929,1.615369 -0.17215,0.544336 -0.42298,1.038931 -0.75247,1.484136 -0.31539,0.444853 -0.70274,0.818445 -1.16311,1.119011 -0.45861,0.286456 -0.98249,0.444853 -1.57092,0.473781 h -12.76068 c -0.28645,0 -0.53022,-0.100542 -0.73166,-0.301625 -0.20108,-0.201436 -0.30021,-0.445206 -0.30021,-0.731661 v -7.316259 c 0,-0.287866 0.0991,-0.530577 0.30021,-0.731661 0.20144,-0.201083 0.44521,-0.301625 0.73166,-0.301625 h 12.54584 c 0.61736,0 1.16981,0.143228 1.6577,0.429684 0.48789,0.288219 0.90417,0.660047 1.24707,1.119011 0.34466,0.445205 0.6036,0.948266 0.77611,1.507772 0.18591,0.544336 0.27975,1.090083 0.27975,1.634067 z"
       style="fill:#000000;fill-opacity:1;fill-rule:nonzero;stroke:none;stroke-width:0.352778"
       id="path840"
       transform="translate(-35.539267,-55.268408)" />
    <path
       d="m 64.799325,72.28162 c -0.07338,0.03845 -0.150284,0.06738 -0.228953,0.08678 -0.08008,0.0194 -0.162631,0.02893 -0.248003,0.02893 -0.257881,0 -0.460375,-0.07161 -0.610658,-0.214842 -0.149931,-0.144639 -0.225778,-0.339019 -0.225778,-0.585611 0,-0.246944 0.07585,-0.440972 0.225778,-0.584553 0.150283,-0.144639 0.352777,-0.216252 0.610658,-0.216252 0.08537,0 0.167922,0.0095 0.248003,0.02893 0.07867,0.0194 0.155575,0.04833 0.228953,0.08537 v 0.319969 c -0.07444,-0.05115 -0.147462,-0.08714 -0.219428,-0.110419 -0.07161,-0.02328 -0.14605,-0.03563 -0.225778,-0.03563 -0.142169,0 -0.253647,0.04516 -0.334786,0.136172 -0.08149,0.09102 -0.121356,0.216606 -0.121356,0.376414 0,0.159808 0.03986,0.283633 0.121356,0.37465 0.08114,0.09102 0.192617,0.136525 0.334786,0.136525 0.07973,0 0.154164,-0.01094 0.225778,-0.03457 0.07197,-0.02328 0.144991,-0.06068 0.219428,-0.110067 z"
       style="fill:#88878a;fill-opacity:1;fill-rule:nonzero;stroke:none;stroke-width:0.352778"
       id="path842"
       transform="translate(-35.539267,-55.268408)" />
    <path
       d="m 65.583197,71.343231 c -0.101953,0 -0.183092,0.03986 -0.242359,0.119944 -0.05927,0.07832 -0.08819,0.187325 -0.08819,0.326673 0,0.137583 0.02893,0.246591 0.08819,0.326319 0.05927,0.08008 0.138995,0.119944 0.242359,0.119944 0.100541,0 0.182033,-0.03986 0.2413,-0.119944 0.05927,-0.07973 0.08819,-0.188736 0.08819,-0.326319 0,-0.137937 -0.02893,-0.246945 -0.08819,-0.326673 -0.05927,-0.08008 -0.140759,-0.119944 -0.2413,-0.119944 z m 0,-0.16122 c 0.165453,0 0.294922,0.05362 0.390172,0.16122 0.09349,0.107597 0.140406,0.256117 0.140406,0.446617 0,0.188736 -0.04692,0.337608 -0.140406,0.446263 -0.09525,0.107598 -0.224719,0.16122 -0.390172,0.16122 -0.166511,0 -0.296334,-0.05362 -0.391231,-0.16122 -0.09384,-0.108655 -0.140758,-0.257527 -0.140758,-0.446263 0,-0.1905 0.04692,-0.33902 0.140758,-0.446617 0.0949,-0.107597 0.22472,-0.16122 0.391231,-0.16122 z"
       style="fill:#88878a;fill-opacity:1;fill-rule:nonzero;stroke:none;stroke-width:0.352778"
       id="path844"
       transform="translate(-35.539267,-55.268408)" />
    <path
       d="m 67.391183,71.668492 v 0.6985 h -0.190147 v -0.693208 c 0,-0.108656 -0.02187,-0.191559 -0.06491,-0.245181 -0.04269,-0.05503 -0.105834,-0.08114 -0.191206,-0.08114 -0.103364,0 -0.184856,0.0314 -0.244122,0.09772 -0.05927,0.06491 -0.08819,0.154164 -0.08819,0.267405 v 0.654403 H 66.42105 v -1.157464 h 0.191558 v 0.179211 c 0.04551,-0.06914 0.09913,-0.121355 0.159809,-0.155928 0.06209,-0.03422 0.133702,-0.0508 0.213783,-0.0508 0.133703,0 0.234244,0.04127 0.301625,0.123825 0.06914,0.08149 0.103364,0.202848 0.103364,0.362656 z"
       style="fill:#88878a;fill-opacity:1;fill-rule:nonzero;stroke:none;stroke-width:0.352778"
       id="path846"
       transform="translate(-35.539267,-55.268408)" />
    <path
       d="m 68.734913,71.668492 v 0.6985 h -0.190147 v -0.693208 c 0,-0.108656 -0.02222,-0.191559 -0.06491,-0.245181 -0.04269,-0.05503 -0.106186,-0.08114 -0.191558,-0.08114 -0.103364,0 -0.184503,0.0314 -0.24377,0.09772 -0.05927,0.06491 -0.08819,0.154164 -0.08819,0.267405 v 0.654403 h -0.191559 v -1.157464 h 0.191559 v 0.179211 c 0.04551,-0.06914 0.09913,-0.121355 0.159808,-0.155928 0.06209,-0.03422 0.133703,-0.0508 0.213431,-0.0508 0.133702,0 0.234244,0.04127 0.301977,0.123825 0.06879,0.08149 0.103364,0.202848 0.103364,0.362656 z"
       style="fill:#88878a;fill-opacity:1;fill-rule:nonzero;stroke:none;stroke-width:0.352778"
       id="path848"
       transform="translate(-35.539267,-55.268408)" />
    <path
       d="m 69.641552,71.785614 c -0.153105,0 -0.26035,0.01658 -0.319616,0.05221 -0.05927,0.03457 -0.08819,0.09525 -0.08819,0.179211 0,0.06738 0.02187,0.121356 0.06597,0.16122 0.0441,0.03986 0.104775,0.05927 0.182033,0.05927 0.104775,0 0.190147,-0.03704 0.253647,-0.111478 0.06315,-0.07444 0.0949,-0.174978 0.0949,-0.299156 v -0.04127 z m 0.378884,-0.07867 v 0.660047 h -0.190148 v -0.176389 c -0.04269,0.0702 -0.09631,0.122767 -0.161219,0.157339 -0.06456,0.03281 -0.144639,0.04939 -0.238478,0.04939 -0.118533,0 -0.212019,-0.03316 -0.282222,-0.09913 -0.07056,-0.06738 -0.104775,-0.156986 -0.104775,-0.268816 0,-0.12947 0.04269,-0.227189 0.129469,-0.293511 0.08819,-0.06597 0.217664,-0.09913 0.391231,-0.09913 h 0.265994 v -0.0194 c 0,-0.08678 -0.02893,-0.154164 -0.08678,-0.202494 -0.05644,-0.04833 -0.137936,-0.07161 -0.240947,-0.07161 -0.06632,0 -0.131234,0.0067 -0.19297,0.02328 -0.0635,0.01517 -0.124177,0.04022 -0.182033,0.07161 v -0.176389 c 0.0702,-0.02611 0.137936,-0.04657 0.202494,-0.05927 0.06632,-0.01376 0.12947,-0.02046 0.191559,-0.02046 0.168275,0 0.2921,0.04269 0.375003,0.12947 0.08255,0.08678 0.123825,0.219075 0.123825,0.395464 z"
       style="fill:#88878a;fill-opacity:1;fill-rule:nonzero;stroke:none;stroke-width:0.352778"
       id="path850"
       transform="translate(-35.539267,-55.268408)" />
    <path
       d="m 70.41343,71.209528 h 0.190147 v 1.157464 H 70.41343 Z m 0,-0.450497 h 0.190147 v 0.240947 H 70.41343 Z"
       style="fill:#88878a;fill-opacity:1;fill-rule:nonzero;stroke:none;stroke-width:0.352778"
       id="path852"
       transform="translate(-35.539267,-55.268408)" />
    <path
       d="m 71.738816,71.2441 v 0.178859 c -0.05362,-0.02752 -0.110067,-0.04798 -0.167922,-0.06174 -0.05786,-0.01376 -0.117122,-0.02081 -0.179211,-0.02081 -0.09525,0 -0.165453,0.01517 -0.213431,0.0441 -0.04692,0.02893 -0.07055,0.07161 -0.07055,0.129469 0,0.0441 0.01799,0.07867 0.05115,0.104775 0.03422,0.02469 0.101953,0.04833 0.203906,0.07161 l 0.06491,0.01376 c 0.134761,0.02893 0.231422,0.07055 0.287867,0.122766 0.05644,0.05221 0.08537,0.126647 0.08537,0.220486 0,0.107598 -0.04269,0.19297 -0.128058,0.255059 -0.08537,0.06315 -0.201084,0.0949 -0.349956,0.0949 -0.06209,0 -0.127,-0.0067 -0.19438,-0.0194 -0.06738,-0.01094 -0.137937,-0.02893 -0.212373,-0.05362 v -0.195792 c 0.07056,0.03598 0.139348,0.0635 0.208139,0.0829 0.06773,0.01799 0.135114,0.02611 0.202495,0.02611 0.0896,0 0.15875,-0.01517 0.206727,-0.04551 0.04833,-0.03034 0.07161,-0.07444 0.07161,-0.129469 0,-0.05221 -0.01764,-0.09243 -0.05221,-0.119945 -0.03457,-0.02752 -0.110066,-0.05362 -0.2286,-0.07867 l -0.06632,-0.01623 c -0.117122,-0.02505 -0.202494,-0.06209 -0.255058,-0.113242 -0.05221,-0.05221 -0.07832,-0.122413 -0.07832,-0.212019 0,-0.109008 0.03845,-0.192969 0.115711,-0.252236 0.07726,-0.05927 0.185914,-0.08819 0.328083,-0.08819 0.0702,0 0.136173,0.0042 0.198262,0.01517 0.06209,0.0095 0.119944,0.02611 0.172155,0.04692 z"
       style="fill:#88878a;fill-opacity:1;fill-rule:nonzero;stroke:none;stroke-width:0.352778"
       id="path854"
       transform="translate(-35.539267,-55.268408)" />
    <path
       d="m 72.842658,71.2441 v 0.178859 c -0.05362,-0.02752 -0.110067,-0.04798 -0.167923,-0.06174 -0.05786,-0.01376 -0.117122,-0.02081 -0.179211,-0.02081 -0.09525,0 -0.165452,0.01517 -0.213783,0.0441 -0.04657,0.02893 -0.0702,0.07161 -0.0702,0.129469 0,0.0441 0.01799,0.07867 0.05115,0.104775 0.03422,0.02469 0.101953,0.04833 0.203906,0.07161 l 0.06456,0.01376 c 0.135114,0.02893 0.231775,0.07055 0.288219,0.122766 0.05645,0.05221 0.08537,0.126647 0.08537,0.220486 0,0.107598 -0.04269,0.19297 -0.128059,0.255059 -0.08537,0.06315 -0.201436,0.0949 -0.349955,0.0949 -0.06209,0 -0.127,-0.0067 -0.194381,-0.0194 -0.06773,-0.01094 -0.137936,-0.02893 -0.212372,-0.05362 v -0.195792 c 0.0702,0.03598 0.139347,0.0635 0.208139,0.0829 0.06773,0.01799 0.135114,0.02611 0.202494,0.02611 0.08961,0 0.15875,-0.01517 0.206728,-0.04551 0.04833,-0.03034 0.07161,-0.07444 0.07161,-0.129469 0,-0.05221 -0.01764,-0.09243 -0.05221,-0.119945 -0.03457,-0.02752 -0.11042,-0.05362 -0.228953,-0.07867 l -0.06597,-0.01623 c -0.117123,-0.02505 -0.202495,-0.06209 -0.255059,-0.113242 -0.05221,-0.05221 -0.07832,-0.122413 -0.07832,-0.212019 0,-0.109008 0.03845,-0.192969 0.115711,-0.252236 0.07726,-0.05927 0.185914,-0.08819 0.328083,-0.08819 0.0702,0 0.136172,0.0042 0.198261,0.01517 0.06209,0.0095 0.119945,0.02611 0.172156,0.04692 z"
       style="fill:#88878a;fill-opacity:1;fill-rule:nonzero;stroke:none;stroke-width:0.352778"
       id="path856"
       transform="translate(-35.539267,-55.268408)" />
    <path
       d="m 73.73448,71.785614 c -0.153106,0 -0.260703,0.01658 -0.31997,0.05221 -0.05927,0.03457 -0.08819,0.09525 -0.08819,0.179211 0,0.06738 0.02222,0.121356 0.06632,0.16122 0.0441,0.03986 0.104775,0.05927 0.181681,0.05927 0.104775,0 0.1905,-0.03704 0.253647,-0.111478 0.0635,-0.07444 0.09525,-0.174978 0.09525,-0.299156 v -0.04127 z m 0.378883,-0.07867 v 0.660047 h -0.190147 v -0.176389 c -0.04269,0.0702 -0.09666,0.122767 -0.161219,0.157339 -0.06491,0.03281 -0.144639,0.04939 -0.238478,0.04939 -0.118534,0 -0.212372,-0.03316 -0.282575,-0.09913 -0.0702,-0.06738 -0.104775,-0.156986 -0.104775,-0.268816 0,-0.12947 0.04269,-0.227189 0.129822,-0.293511 0.08819,-0.06597 0.217664,-0.09913 0.391231,-0.09913 h 0.265994 v -0.0194 c 0,-0.08678 -0.02893,-0.154164 -0.08678,-0.202494 -0.05644,-0.04833 -0.137936,-0.07161 -0.2413,-0.07161 -0.06597,0 -0.130881,0.0067 -0.19297,0.02328 -0.06315,0.01517 -0.123825,0.04022 -0.18168,0.07161 v -0.176389 c 0.0702,-0.02611 0.137583,-0.04657 0.202494,-0.05927 0.06597,-0.01376 0.12947,-0.02046 0.191558,-0.02046 0.167923,0 0.2921,0.04269 0.37465,0.12947 0.0829,0.08678 0.124178,0.219075 0.124178,0.395464 z"
       style="fill:#88878a;fill-opacity:1;fill-rule:nonzero;stroke:none;stroke-width:0.352778"
       id="path858"
       transform="translate(-35.539267,-55.268408)" />
    <path
       d="m 75.469441,71.668492 v 0.6985 h -0.190147 v -0.693208 c 0,-0.108656 -0.02222,-0.191559 -0.06491,-0.245181 -0.04269,-0.05503 -0.106186,-0.08114 -0.191559,-0.08114 -0.103364,0 -0.184502,0.0314 -0.243769,0.09772 -0.05927,0.06491 -0.08819,0.154164 -0.08819,0.267405 v 0.654403 h -0.191558 v -1.157464 h 0.191558 v 0.179211 c 0.04516,-0.06914 0.09913,-0.121355 0.159809,-0.155928 0.06174,-0.03422 0.133703,-0.0508 0.21343,-0.0508 0.133703,0 0.234245,0.04127 0.301978,0.123825 0.06879,0.08149 0.103364,0.202848 0.103364,0.362656 z"
       style="fill:#88878a;fill-opacity:1;fill-rule:nonzero;stroke:none;stroke-width:0.352778"
       id="path860"
       transform="translate(-35.539267,-55.268408)" />
    <path
       d="m 76.683349,71.253625 v 0.1778 c -0.05362,-0.02893 -0.107597,-0.05115 -0.16263,-0.06632 -0.05362,-0.01517 -0.107597,-0.02187 -0.162631,-0.02187 -0.123825,0 -0.219075,0.03845 -0.287866,0.117122 -0.06773,0.07867 -0.101953,0.187325 -0.101953,0.329495 0,0.140405 0.03422,0.250472 0.101953,0.329141 0.06879,0.07726 0.164041,0.117122 0.287866,0.117122 0.05503,0 0.109009,-0.0081 0.162631,-0.02187 0.05503,-0.01517 0.109008,-0.03739 0.16263,-0.06773 v 0.176389 c -0.05362,0.02505 -0.109008,0.04269 -0.165452,0.05503 -0.05645,0.0127 -0.117123,0.0194 -0.18027,0.0194 -0.17533,0 -0.312914,-0.05503 -0.416278,-0.165453 -0.101952,-0.108655 -0.154516,-0.256117 -0.154516,-0.44203 0,-0.189089 0.05256,-0.337962 0.155927,-0.446617 0.103364,-0.107597 0.246592,-0.16122 0.427214,-0.16122 0.05786,0 0.115711,0.0053 0.170745,0.01799 0.05644,0.01235 0.110419,0.03034 0.16263,0.05362 z"
       style="fill:#88878a;fill-opacity:1;fill-rule:nonzero;stroke:none;stroke-width:0.352778"
       id="path862"
       transform="translate(-35.539267,-55.268408)" />
    <path
       d="m 78.006266,71.740106 v 0.09384 h -0.874889 c 0.0081,0.13088 0.04798,0.230011 0.118181,0.298803 0.07056,0.06879 0.169686,0.103363 0.294922,0.103363 0.07303,0 0.144991,-0.0095 0.212372,-0.02752 0.06879,-0.01799 0.137936,-0.0441 0.205317,-0.08008 v 0.179211 c -0.06879,0.02893 -0.139348,0.05115 -0.210961,0.06632 -0.07161,0.01517 -0.143228,0.02328 -0.217664,0.02328 -0.184503,0 -0.330553,-0.05362 -0.439561,-0.16122 -0.107598,-0.107597 -0.16122,-0.253647 -0.16122,-0.436738 0,-0.188737 0.05115,-0.33902 0.153106,-0.450498 0.103364,-0.11183 0.240947,-0.166864 0.414514,-0.166864 0.155927,0 0.278341,0.04939 0.369358,0.150284 0.09102,0.100541 0.136525,0.235655 0.136525,0.407811 z m -0.190147,-0.05503 c -0.0014,-0.104775 -0.03034,-0.187678 -0.08819,-0.249414 -0.05644,-0.06209 -0.13088,-0.09243 -0.224719,-0.09243 -0.106186,0 -0.191558,0.02893 -0.256117,0.0896 -0.0635,0.05927 -0.09948,0.144639 -0.109008,0.253648 z"
       style="fill:#88878a;fill-opacity:1;fill-rule:nonzero;stroke:none;stroke-width:0.352778"
       id="path864"
       transform="translate(-35.539267,-55.268408)" />
    <path
       d="m 79.982527,71.740106 v 0.09384 h -0.875242 c 0.0085,0.13088 0.04833,0.230011 0.118534,0.298803 0.0702,0.06879 0.169333,0.103363 0.294922,0.103363 0.07303,0 0.144639,-0.0095 0.212372,-0.02752 0.06879,-0.01799 0.137583,-0.0441 0.205317,-0.08008 v 0.179211 c -0.06914,0.02893 -0.139347,0.05115 -0.210961,0.06632 -0.07161,0.01517 -0.143228,0.02328 -0.217664,0.02328 -0.184856,0 -0.330906,-0.05362 -0.439561,-0.16122 -0.107598,-0.107597 -0.16122,-0.253647 -0.16122,-0.436738 0,-0.188737 0.0508,-0.33902 0.152753,-0.450498 0.103364,-0.11183 0.2413,-0.166864 0.414867,-0.166864 0.155575,0 0.278341,0.04939 0.369358,0.150284 0.09102,0.100541 0.136525,0.235655 0.136525,0.407811 z m -0.190147,-0.05503 c -0.0014,-0.104775 -0.03034,-0.187678 -0.08819,-0.249414 -0.0568,-0.06209 -0.131233,-0.09243 -0.224719,-0.09243 -0.106186,0 -0.191558,0.02893 -0.25647,0.0896 -0.06315,0.05927 -0.09913,0.144639 -0.108655,0.253648 z"
       style="fill:#88878a;fill-opacity:1;fill-rule:nonzero;stroke:none;stroke-width:0.352778"
       id="path866"
       transform="translate(-35.539267,-55.268408)" />
    <path
       d="m 80.482766,70.880034 v 0.329494 h 0.39123 v 0.147461 h -0.39123 v 0.628297 c 0,0.09525 0.01235,0.155928 0.03845,0.182034 0.02611,0.02752 0.07867,0.03986 0.156986,0.03986 h 0.195791 v 0.159808 h -0.195791 c -0.14605,0 -0.248003,-0.02752 -0.303036,-0.08114 -0.05644,-0.05503 -0.08396,-0.155928 -0.08396,-0.300567 V 71.356989 H 80.15186 v -0.147461 h 0.139348 v -0.329494 z"
       style="fill:#88878a;fill-opacity:1;fill-rule:nonzero;stroke:none;stroke-width:0.352778"
       id="path868"
       transform="translate(-35.539267,-55.268408)" />
    <path
       d="m 81.794394,70.823589 h 0.396875 v 1.543403 h -0.396875 z"
       style="fill:#88878a;fill-opacity:1;fill-rule:nonzero;stroke:none;stroke-width:0.352778"
       id="path870"
       transform="translate(-35.539267,-55.268408)" />
    <path
       d="m 83.55158,71.668492 v 0.6985 h -0.190148 v -0.693208 c 0,-0.108656 -0.02222,-0.191559 -0.06491,-0.245181 -0.04269,-0.05503 -0.106186,-0.08114 -0.191558,-0.08114 -0.103364,0 -0.184503,0.0314 -0.243769,0.09772 -0.05927,0.06491 -0.08819,0.154164 -0.08819,0.267405 v 0.654403 h -0.191558 v -1.157464 h 0.191558 v 0.179211 c 0.04551,-0.06914 0.09913,-0.121355 0.159808,-0.155928 0.06209,-0.03422 0.133703,-0.0508 0.213431,-0.0508 0.133703,0 0.234244,0.04127 0.301978,0.123825 0.06879,0.08149 0.103364,0.202848 0.103364,0.362656 z"
       style="fill:#88878a;fill-opacity:1;fill-rule:nonzero;stroke:none;stroke-width:0.352778"
       id="path872"
       transform="translate(-35.539267,-55.268408)" />
    <path
       d="m 84.12061,70.880034 v 0.329494 h 0.391231 v 0.147461 H 84.12061 v 0.628297 c 0,0.09525 0.01235,0.155928 0.03845,0.182034 0.02646,0.02752 0.07867,0.03986 0.157339,0.03986 h 0.195439 v 0.159808 h -0.195439 c -0.14605,0 -0.248003,-0.02752 -0.303389,-0.08114 -0.05644,-0.05503 -0.08396,-0.155928 -0.08396,-0.300567 v -0.628297 h -0.138995 v -0.147461 h 0.138995 v -0.329494 z"
       style="fill:#88878a;fill-opacity:1;fill-rule:nonzero;stroke:none;stroke-width:0.352778"
       id="path874"
       transform="translate(-35.539267,-55.268408)" />
    <path
       d="m 85.753619,71.740106 v 0.09384 h -0.875242 c 0.0085,0.13088 0.04833,0.230011 0.118533,0.298803 0.07056,0.06879 0.169686,0.103363 0.294922,0.103363 0.07303,0 0.144992,-0.0095 0.212373,-0.02752 0.06879,-0.01799 0.137936,-0.0441 0.205316,-0.08008 v 0.179211 c -0.06879,0.02893 -0.139347,0.05115 -0.210961,0.06632 -0.07161,0.01517 -0.143228,0.02328 -0.217664,0.02328 -0.184502,0 -0.330552,-0.05362 -0.439561,-0.16122 -0.107597,-0.107597 -0.161219,-0.253647 -0.161219,-0.436738 0,-0.188737 0.05115,-0.33902 0.153105,-0.450498 0.103364,-0.11183 0.240948,-0.166864 0.414514,-0.166864 0.155928,0 0.278342,0.04939 0.369359,0.150284 0.09102,0.100541 0.136525,0.235655 0.136525,0.407811 z m -0.190148,-0.05503 c -0.0014,-0.104775 -0.03034,-0.187678 -0.08819,-0.249414 -0.05645,-0.06209 -0.130881,-0.09243 -0.22472,-0.09243 -0.106186,0 -0.191558,0.02893 -0.256116,0.0896 -0.0635,0.05927 -0.09948,0.144639 -0.109009,0.253648 z"
       style="fill:#88878a;fill-opacity:1;fill-rule:nonzero;stroke:none;stroke-width:0.352778"
       id="path876"
       transform="translate(-35.539267,-55.268408)" />
    <path
       d="m 86.065121,70.759031 h 0.190148 v 1.608314 h -0.190148 z"
       style="fill:#88878a;fill-opacity:1;fill-rule:nonzero;stroke:none;stroke-width:0.352778"
       id="path878"
       transform="translate(-35.539267,-55.268408)" />
    <path
       d="m 86.652144,70.759031 h 0.190147 v 1.608314 h -0.190147 z"
       style="fill:#88878a;fill-opacity:1;fill-rule:nonzero;stroke:none;stroke-width:0.352778"
       id="path880"
       transform="translate(-35.539267,-55.268408)" />
    <path
       d="m 87.239166,71.209528 h 0.190147 v 1.157464 h -0.190147 z m 0,-0.450497 h 0.190147 v 0.240947 h -0.190147 z"
       style="fill:#88878a;fill-opacity:1;fill-rule:nonzero;stroke:none;stroke-width:0.352778"
       id="path882"
       transform="translate(-35.539267,-55.268408)" />
    <path
       d="m 88.588188,71.774678 c 0,-0.137936 -0.02893,-0.244122 -0.08537,-0.319969 -0.05644,-0.07585 -0.136525,-0.1143 -0.238478,-0.1143 -0.101953,0 -0.181681,0.03845 -0.239889,0.1143 -0.05644,0.07585 -0.08396,0.182033 -0.08396,0.319969 0,0.137583 0.02752,0.24377 0.08396,0.319617 0.05821,0.07585 0.137936,0.112889 0.239889,0.112889 0.101953,0 0.182033,-0.03704 0.238478,-0.112889 0.05644,-0.07585 0.08537,-0.182034 0.08537,-0.319617 z m 0.190147,0.449086 c 0,0.197203 -0.0441,0.343253 -0.13088,0.43815 -0.08819,0.09666 -0.221898,0.144639 -0.40252,0.144639 -0.06597,0 -0.129469,-0.0039 -0.188736,-0.01517 -0.05927,-0.0095 -0.117122,-0.02469 -0.172156,-0.04551 v -0.184502 c 0.05503,0.03034 0.11042,0.05221 0.165453,0.06738 0.05362,0.01376 0.108656,0.02081 0.1651,0.02081 0.125589,0 0.219428,-0.03175 0.281164,-0.09772 0.06209,-0.06491 0.09243,-0.162631 0.09243,-0.294923 v -0.09384 c -0.03845,0.06879 -0.08961,0.119945 -0.150283,0.153106 -0.06174,0.03422 -0.135114,0.0508 -0.220487,0.0508 -0.141816,0 -0.256116,-0.05362 -0.3429,-0.162631 -0.08678,-0.107244 -0.13088,-0.250825 -0.13088,-0.429683 0,-0.179211 0.0441,-0.322792 0.13088,-0.431447 0.08678,-0.107597 0.201084,-0.16122 0.3429,-0.16122 0.08537,0 0.15875,0.01658 0.220487,0.04939 0.06068,0.03457 0.11183,0.08573 0.150283,0.153106 v -0.174978 h 0.190147 z"
       style="fill:#88878a;fill-opacity:1;fill-rule:nonzero;stroke:none;stroke-width:0.352778"
       id="path884"
       transform="translate(-35.539267,-55.268408)" />
    <path
       d="m 90.160518,71.740106 v 0.09384 H 89.28563 c 0.0081,0.13088 0.04798,0.230011 0.118533,0.298803 0.0702,0.06879 0.169333,0.103363 0.294922,0.103363 0.07303,0 0.144639,-0.0095 0.21202,-0.02752 0.06879,-0.01799 0.137936,-0.0441 0.205316,-0.08008 v 0.179211 c -0.06879,0.02893 -0.138994,0.05115 -0.210961,0.06632 -0.07161,0.01517 -0.143228,0.02328 -0.217664,0.02328 -0.184503,0 -0.330553,-0.05362 -0.439561,-0.16122 -0.107244,-0.107597 -0.161219,-0.253647 -0.161219,-0.436738 0,-0.188737 0.05115,-0.33902 0.153105,-0.450498 0.103364,-0.11183 0.240947,-0.166864 0.414867,-0.166864 0.155575,0 0.278342,0.04939 0.369005,0.150284 0.09102,0.100541 0.136525,0.235655 0.136525,0.407811 z m -0.190147,-0.05503 c -0.0014,-0.104775 -0.03034,-0.187678 -0.08819,-0.249414 -0.05644,-0.06209 -0.130881,-0.09243 -0.22472,-0.09243 -0.105833,0 -0.191558,0.02893 -0.256116,0.0896 -0.0635,0.05927 -0.09913,0.144639 -0.109009,0.253648 z"
       style="fill:#88878a;fill-opacity:1;fill-rule:nonzero;stroke:none;stroke-width:0.352778"
       id="path886"
       transform="translate(-35.539267,-55.268408)" />
    <path
       d="m 91.435105,71.668492 v 0.6985 h -0.190148 v -0.693208 c 0,-0.108656 -0.02187,-0.191559 -0.06456,-0.245181 -0.04269,-0.05503 -0.106186,-0.08114 -0.191558,-0.08114 -0.103364,0 -0.184856,0.0314 -0.244123,0.09772 -0.05927,0.06491 -0.08819,0.154164 -0.08819,0.267405 v 0.654403 h -0.191558 v -1.157464 h 0.191558 v 0.179211 c 0.04551,-0.06914 0.09948,-0.121355 0.160161,-0.155928 0.06174,-0.03422 0.13335,-0.0508 0.213431,-0.0508 0.133702,0 0.234244,0.04127 0.301625,0.123825 0.06914,0.08149 0.103364,0.202848 0.103364,0.362656 z"
       style="fill:#88878a;fill-opacity:1;fill-rule:nonzero;stroke:none;stroke-width:0.352778"
       id="path888"
       transform="translate(-35.539267,-55.268408)" />
    <path
       d="m 92.649366,71.253625 v 0.1778 c -0.05397,-0.02893 -0.107598,-0.05115 -0.162631,-0.06632 -0.05362,-0.01517 -0.107597,-0.02187 -0.16263,-0.02187 -0.124178,0 -0.219075,0.03845 -0.287867,0.117122 -0.06773,0.07867 -0.102306,0.187325 -0.102306,0.329495 0,0.140405 0.03457,0.250472 0.102306,0.329141 0.06879,0.07726 0.163689,0.117122 0.287867,0.117122 0.05503,0 0.109008,-0.0081 0.16263,-0.02187 0.05503,-0.01517 0.108656,-0.03739 0.162631,-0.06773 v 0.176389 c -0.05397,0.02505 -0.109009,0.04269 -0.165453,0.05503 -0.05644,0.0127 -0.117122,0.0194 -0.180622,0.0194 -0.174978,0 -0.312561,-0.05503 -0.415925,-0.165453 -0.101953,-0.108655 -0.154517,-0.256117 -0.154517,-0.44203 0,-0.189089 0.05256,-0.337962 0.155928,-0.446617 0.103364,-0.107597 0.246591,-0.16122 0.427214,-0.16122 0.05786,0 0.115711,0.0053 0.170744,0.01799 0.05644,0.01235 0.110067,0.03034 0.162631,0.05362 z"
       style="fill:#88878a;fill-opacity:1;fill-rule:nonzero;stroke:none;stroke-width:0.352778"
       id="path890"
       transform="translate(-35.539267,-55.268408)" />
    <path
       d="m 93.972282,71.740106 v 0.09384 h -0.875241 c 0.0085,0.13088 0.04833,0.230011 0.118533,0.298803 0.07055,0.06879 0.169686,0.103363 0.294922,0.103363 0.07303,0 0.144639,-0.0095 0.212372,-0.02752 0.06879,-0.01799 0.137584,-0.0441 0.205317,-0.08008 v 0.179211 c -0.06914,0.02893 -0.139347,0.05115 -0.210961,0.06632 -0.07161,0.01517 -0.143228,0.02328 -0.217664,0.02328 -0.184503,0 -0.330906,-0.05362 -0.439561,-0.16122 -0.107597,-0.107597 -0.16122,-0.253647 -0.16122,-0.436738 0,-0.188737 0.0508,-0.33902 0.152753,-0.450498 0.103364,-0.11183 0.2413,-0.166864 0.414867,-0.166864 0.155928,0 0.278342,0.04939 0.369358,0.150284 0.09102,0.100541 0.136525,0.235655 0.136525,0.407811 z m -0.190147,-0.05503 c -0.0014,-0.104775 -0.03034,-0.187678 -0.08819,-0.249414 -0.05644,-0.06209 -0.130881,-0.09243 -0.22472,-0.09243 -0.106186,0 -0.191558,0.02893 -0.256469,0.0896 -0.06315,0.05927 -0.09913,0.144639 -0.108656,0.253648 z"
       style="fill:#88878a;fill-opacity:1;fill-rule:nonzero;stroke:none;stroke-width:0.352778"
       id="path892"
       transform="translate(-35.539267,-55.268408)" />
    <path
       d="m 95.888924,72.085828 h -0.621242 l -0.09948,0.281164 h -0.399345 l 0.571853,-1.543403 h 0.473781 l 0.572205,1.543403 h -0.399697 z m -0.522111,-0.286455 h 0.421569 l -0.210608,-0.613128 z"
       style="fill:#88878a;fill-opacity:1;fill-rule:nonzero;stroke:none;stroke-width:0.352778"
       id="path894"
       transform="translate(-35.539267,-55.268408)" />
    <path
       d="m 97.265816,71.387328 c -0.02081,-0.01235 -0.0441,-0.02222 -0.0702,-0.02752 -0.02505,-0.0056 -0.05256,-0.0085 -0.0829,-0.0085 -0.107597,0 -0.190147,0.03457 -0.248003,0.104775 -0.05644,0.0702 -0.08537,0.169686 -0.08537,0.300566 v 0.610306 h -0.191558 v -1.157464 h 0.191558 v 0.179211 c 0.03986,-0.0702 0.09243,-0.121355 0.155575,-0.155928 0.06491,-0.03422 0.142169,-0.0508 0.234244,-0.0508 0.01235,0 0.02752,0 0.04269,0.0028 0.01658,0.0014 0.03316,0.0039 0.05256,0.0067 z"
       style="fill:#88878a;fill-opacity:1;fill-rule:nonzero;stroke:none;stroke-width:0.352778"
       id="path896"
       transform="translate(-35.539267,-55.268408)" />
    <path
       d="m 97.655635,70.880034 v 0.329494 h 0.391583 v 0.147461 h -0.391583 v 0.628297 c 0,0.09525 0.01235,0.155928 0.0388,0.182034 0.02611,0.02752 0.07832,0.03986 0.156987,0.03986 h 0.195791 v 0.159808 h -0.195791 c -0.14605,0 -0.248003,-0.02752 -0.303036,-0.08114 -0.0568,-0.05503 -0.08431,-0.155928 -0.08431,-0.300567 v -0.628297 h -0.138995 v -0.147461 h 0.138995 v -0.329494 z"
       style="fill:#88878a;fill-opacity:1;fill-rule:nonzero;stroke:none;stroke-width:0.352778"
       id="path898"
       transform="translate(-35.539267,-55.268408)" />
    <path
       d="m 98.298043,71.209528 h 0.190147 v 1.157464 h -0.190147 z m 0,-0.450497 h 0.190147 v 0.240947 h -0.190147 z"
       style="fill:#88878a;fill-opacity:1;fill-rule:nonzero;stroke:none;stroke-width:0.352778"
       id="path900"
       transform="translate(-35.539267,-55.268408)" />
    <path
       d="m 99.820632,71.209528 v 1.157464 h -0.191558 v -1.010003 h -0.521053 v 1.010003 h -0.191558 v -1.010003 h -0.181681 v -0.147461 h 0.181681 v -0.08114 c 0,-0.125589 0.02893,-0.219428 0.08819,-0.278694 0.06068,-0.06032 0.151695,-0.09066 0.275872,-0.09066 h 0.191559 v 0.158397 H 99.29005 c -0.06879,0 -0.115711,0.01376 -0.143227,0.04127 -0.02611,0.02752 -0.03881,0.07726 -0.03881,0.148872 v 0.101953 z m -0.191558,-0.449086 h 0.191558 v 0.240947 h -0.191558 z"
       style="fill:#88878a;fill-opacity:1;fill-rule:nonzero;stroke:none;stroke-width:0.352778"
       id="path902"
       transform="translate(-35.539267,-55.268408)" />
    <path
       d="m 101.05394,71.253625 v 0.1778 c -0.0536,-0.02893 -0.10759,-0.05115 -0.16263,-0.06632 -0.0536,-0.01517 -0.10759,-0.02187 -0.16263,-0.02187 -0.12382,0 -0.21907,0.03845 -0.28786,0.117122 -0.0677,0.07867 -0.10196,0.187325 -0.10196,0.329495 0,0.140405 0.0342,0.250472 0.10196,0.329141 0.0688,0.07726 0.16404,0.117122 0.28786,0.117122 0.055,0 0.10901,-0.0081 0.16263,-0.02187 0.055,-0.01517 0.10901,-0.03739 0.16263,-0.06773 v 0.176389 c -0.0536,0.02505 -0.10901,0.04269 -0.16545,0.05503 -0.0564,0.0127 -0.11712,0.0194 -0.18027,0.0194 -0.17533,0 -0.31291,-0.05503 -0.41628,-0.165453 -0.10195,-0.108655 -0.15451,-0.256117 -0.15451,-0.44203 0,-0.189089 0.0526,-0.337962 0.15592,-0.446617 0.10337,-0.107597 0.2466,-0.16122 0.42722,-0.16122 0.0579,0 0.11571,0.0053 0.17074,0.01799 0.0564,0.01235 0.11042,0.03034 0.16263,0.05362 z"
       style="fill:#88878a;fill-opacity:1;fill-rule:nonzero;stroke:none;stroke-width:0.352778"
       id="path904"
       transform="translate(-35.539267,-55.268408)" />
    <path
       d="m 101.38591,71.209528 h 0.1905 v 1.157464 h -0.1905 z m 0,-0.450497 h 0.1905 v 0.240947 h -0.1905 z"
       style="fill:#88878a;fill-opacity:1;fill-rule:nonzero;stroke:none;stroke-width:0.352778"
       id="path906"
       transform="translate(-35.539267,-55.268408)" />
    <path
       d="m 102.96388,71.740106 v 0.09384 h -0.87489 c 0.008,0.13088 0.048,0.230011 0.11854,0.298803 0.0702,0.06879 0.16933,0.103363 0.29457,0.103363 0.0734,0 0.14499,-0.0095 0.21237,-0.02752 0.0688,-0.01799 0.13793,-0.0441 0.20531,-0.08008 v 0.179211 c -0.0688,0.02893 -0.13899,0.05115 -0.21096,0.06632 -0.0716,0.01517 -0.14322,0.02328 -0.21766,0.02328 -0.1845,0 -0.33055,-0.05362 -0.43956,-0.16122 -0.1076,-0.107597 -0.16122,-0.253647 -0.16122,-0.436738 0,-0.188737 0.0512,-0.33902 0.1531,-0.450498 0.10337,-0.11183 0.24095,-0.166864 0.41487,-0.166864 0.15558,0 0.27834,0.04939 0.36901,0.150284 0.091,0.100541 0.13652,0.235655 0.13652,0.407811 z m -0.19015,-0.05503 c -0.001,-0.104775 -0.0303,-0.187678 -0.0882,-0.249414 -0.0564,-0.06209 -0.13088,-0.09243 -0.22472,-0.09243 -0.10583,0 -0.19156,0.02893 -0.25612,0.0896 -0.0635,0.05927 -0.0991,0.144639 -0.109,0.253648 z"
       style="fill:#88878a;fill-opacity:1;fill-rule:nonzero;stroke:none;stroke-width:0.352778"
       id="path908"
       transform="translate(-35.539267,-55.268408)" />
    <path
       d="m 103.27538,70.759031 h 0.19015 v 1.608314 h -0.19015 z"
       style="fill:#88878a;fill-opacity:1;fill-rule:nonzero;stroke:none;stroke-width:0.352778"
       id="path910"
       transform="translate(-35.539267,-55.268408)" />
    <path
       d="m 103.86241,70.759031 h 0.19014 v 1.608314 h -0.19014 z"
       style="fill:#88878a;fill-opacity:1;fill-rule:nonzero;stroke:none;stroke-width:0.352778"
       id="path912"
       transform="translate(-35.539267,-55.268408)" />
    <path
       d="m 105.44038,71.740106 v 0.09384 h -0.87524 c 0.008,0.13088 0.0483,0.230011 0.11853,0.298803 0.0702,0.06879 0.16969,0.103363 0.29493,0.103363 0.073,0 0.14463,-0.0095 0.21237,-0.02752 0.0688,-0.01799 0.13758,-0.0441 0.20531,-0.08008 v 0.179211 c -0.0691,0.02893 -0.13934,0.05115 -0.21096,0.06632 -0.0716,0.01517 -0.14322,0.02328 -0.21766,0.02328 -0.18486,0 -0.33091,-0.05362 -0.43956,-0.16122 -0.1076,-0.107597 -0.16122,-0.253647 -0.16122,-0.436738 0,-0.188737 0.0508,-0.33902 0.15275,-0.450498 0.10337,-0.11183 0.2413,-0.166864 0.41487,-0.166864 0.15557,0 0.27834,0.04939 0.36936,0.150284 0.091,0.100541 0.13652,0.235655 0.13652,0.407811 z m -0.19015,-0.05503 c -0.001,-0.104775 -0.0303,-0.187678 -0.0882,-0.249414 -0.0568,-0.06209 -0.13123,-0.09243 -0.22472,-0.09243 -0.10619,0 -0.19156,0.02893 -0.25647,0.0896 -0.0632,0.05927 -0.0991,0.144639 -0.10865,0.253648 z"
       style="fill:#88878a;fill-opacity:1;fill-rule:nonzero;stroke:none;stroke-width:0.352778"
       id="path914"
       transform="translate(-35.539267,-55.268408)" />
    <path
       d="m 106.81833,71.124156 v 0.942622 h 0.14323 c 0.16263,0 0.28681,-0.04163 0.37218,-0.121355 0.0854,-0.08149 0.12947,-0.198614 0.12947,-0.351367 0,-0.153106 -0.0427,-0.270228 -0.12806,-0.349956 -0.0854,-0.08008 -0.21096,-0.119944 -0.37359,-0.119944 z m -0.39687,-0.300567 h 0.41874 c 0.23425,0 0.40958,0.01658 0.52388,0.05115 0.1143,0.03316 0.21343,0.08961 0.29492,0.169333 0.073,0.06914 0.12665,0.150284 0.16122,0.2413 0.0356,0.09102 0.0522,0.19297 0.0522,0.308681 0,0.115711 -0.0166,0.220486 -0.0522,0.311503 -0.0346,0.09066 -0.0882,0.172155 -0.16122,0.240947 -0.0829,0.08008 -0.18203,0.136525 -0.29774,0.171097 -0.11571,0.03281 -0.28928,0.04939 -0.52106,0.04939 h -0.41874 z"
       style="fill:#88878a;fill-opacity:1;fill-rule:nonzero;stroke:none;stroke-width:0.352778"
       id="path916"
       transform="translate(-35.539267,-55.268408)" />
    <path
       d="m 108.18252,71.209528 h 0.19015 v 1.157464 h -0.19015 z m 0,-0.450497 h 0.19015 v 0.240947 h -0.19015 z"
       style="fill:#88878a;fill-opacity:1;fill-rule:nonzero;stroke:none;stroke-width:0.352778"
       id="path918"
       transform="translate(-35.539267,-55.268408)" />
    <path
       d="m 109.50826,71.2441 v 0.178859 c -0.0536,-0.02752 -0.11042,-0.04798 -0.16827,-0.06174 -0.0579,-0.01376 -0.11712,-0.02081 -0.17886,-0.02081 -0.0952,0 -0.16545,0.01517 -0.21378,0.0441 -0.0469,0.02893 -0.0702,0.07161 -0.0702,0.129469 0,0.0441 0.018,0.07867 0.0508,0.104775 0.0346,0.02469 0.10196,0.04833 0.20391,0.07161 l 0.0649,0.01376 c 0.13511,0.02893 0.23142,0.07055 0.28787,0.122766 0.0568,0.05221 0.0857,0.126647 0.0857,0.220486 0,0.107598 -0.0427,0.19297 -0.12841,0.255059 -0.0854,0.06315 -0.20108,0.0949 -0.34996,0.0949 -0.0621,0 -0.12664,-0.0067 -0.19438,-0.0194 -0.0674,-0.01094 -0.13758,-0.02893 -0.21202,-0.05362 v -0.195792 c 0.0702,0.03598 0.139,0.0635 0.20814,0.0829 0.0674,0.01799 0.13476,0.02611 0.2025,0.02611 0.0896,0 0.1584,-0.01517 0.20673,-0.04551 0.0483,-0.03034 0.0716,-0.07444 0.0716,-0.129469 0,-0.05221 -0.018,-0.09243 -0.0522,-0.119945 -0.0346,-0.02752 -0.11042,-0.05362 -0.22895,-0.07867 l -0.066,-0.01623 c -0.11713,-0.02505 -0.20285,-0.06209 -0.25506,-0.113242 -0.0522,-0.05221 -0.0787,-0.122413 -0.0787,-0.212019 0,-0.109008 0.0388,-0.192969 0.11571,-0.252236 0.0773,-0.05927 0.18627,-0.08819 0.32808,-0.08819 0.0702,0 0.13653,0.0042 0.19862,0.01517 0.0617,0.0095 0.11959,0.02611 0.17215,0.04692 z"
       style="fill:#88878a;fill-opacity:1;fill-rule:nonzero;stroke:none;stroke-width:0.352778"
       id="path920"
       transform="translate(-35.539267,-55.268408)" />
    <path
       d="m 110.06212,70.880034 v 0.329494 h 0.39159 v 0.147461 h -0.39159 v 0.628297 c 0,0.09525 0.0124,0.155928 0.0388,0.182034 0.0261,0.02752 0.0783,0.03986 0.15699,0.03986 h 0.19579 v 0.159808 h -0.19579 c -0.14605,0 -0.24801,-0.02752 -0.30304,-0.08114 -0.0568,-0.05503 -0.0843,-0.155928 -0.0843,-0.300567 v -0.628297 h -0.139 v -0.147461 h 0.139 v -0.329494 z"
       style="fill:#88878a;fill-opacity:1;fill-rule:nonzero;stroke:none;stroke-width:0.352778"
       id="path922"
       transform="translate(-35.539267,-55.268408)" />
    <path
       d="m 111.37552,71.387328 c -0.0208,-0.01235 -0.0441,-0.02222 -0.0702,-0.02752 -0.025,-0.0056 -0.0526,-0.0085 -0.0829,-0.0085 -0.10724,0 -0.19015,0.03457 -0.248,0.104775 -0.0565,0.0702 -0.0854,0.169686 -0.0854,0.300566 v 0.610306 h -0.19155 v -1.157464 h 0.19155 v 0.179211 c 0.0399,-0.0702 0.0924,-0.121355 0.15558,-0.155928 0.0649,-0.03422 0.14217,-0.0508 0.23424,-0.0508 0.0127,0 0.0279,0 0.0427,0.0028 0.0166,0.0014 0.0332,0.0039 0.0526,0.0067 z"
       style="fill:#88878a;fill-opacity:1;fill-rule:nonzero;stroke:none;stroke-width:0.352778"
       id="path924"
       transform="translate(-35.539267,-55.268408)" />
    <path
       d="m 111.5766,71.209528 h 0.19015 v 1.157464 h -0.19015 z m 0,-0.450497 h 0.19015 v 0.240947 h -0.19015 z"
       style="fill:#88878a;fill-opacity:1;fill-rule:nonzero;stroke:none;stroke-width:0.352778"
       id="path926"
       transform="translate(-35.539267,-55.268408)" />
    <path
       d="m 112.99477,71.789848 c 0,-0.140759 -0.0289,-0.249767 -0.0868,-0.329495 -0.0568,-0.08008 -0.13511,-0.119944 -0.23565,-0.119944 -0.1009,0 -0.18063,0.03986 -0.23848,0.119944 -0.0565,0.07973 -0.0854,0.188736 -0.0854,0.329495 0,0.138994 0.0289,0.249413 0.0854,0.329141 0.0578,0.07867 0.13758,0.118534 0.23848,0.118534 0.10054,0 0.17885,-0.03986 0.23565,-0.118534 0.0579,-0.07973 0.0868,-0.190147 0.0868,-0.329141 z m -0.64629,-0.405342 c 0.0399,-0.06879 0.0896,-0.119945 0.14993,-0.153106 0.0621,-0.03281 0.13511,-0.04939 0.21942,-0.04939 0.14041,0 0.25471,0.05503 0.3429,0.166864 0.0882,0.111478 0.1323,0.258939 0.1323,0.440973 0,0.18168 -0.0441,0.32773 -0.1323,0.439561 -0.0882,0.111477 -0.20249,0.167922 -0.3429,0.167922 -0.0843,0 -0.15733,-0.01658 -0.21942,-0.04939 -0.0603,-0.03457 -0.11007,-0.08572 -0.14993,-0.154517 v 0.173567 h -0.19156 v -1.607961 h 0.19156 z"
       style="fill:#88878a;fill-opacity:1;fill-rule:nonzero;stroke:none;stroke-width:0.352778"
       id="path928"
       transform="translate(-35.539267,-55.268408)" />
    <path
       d="m 113.48795,71.909439 v -0.699911 h 0.19015 v 0.693208 c 0,0.110067 0.0222,0.191559 0.0649,0.246592 0.0427,0.05503 0.10618,0.08255 0.19156,0.08255 0.10336,0 0.18309,-0.03281 0.24235,-0.09913 0.0607,-0.06456 0.091,-0.154164 0.091,-0.267406 v -0.655814 h 0.19015 v 1.157464 h -0.19015 v -0.1778 c -0.0469,0.07056 -0.10054,0.122767 -0.16122,0.157339 -0.0607,0.03281 -0.13229,0.0508 -0.21237,0.0508 -0.13335,0 -0.23425,-0.04127 -0.30304,-0.123825 -0.0688,-0.0829 -0.10336,-0.204258 -0.10336,-0.364067 z m 0.47837,-0.727428 z"
       style="fill:#88878a;fill-opacity:1;fill-rule:nonzero;stroke:none;stroke-width:0.352778"
       id="path930"
       transform="translate(-35.539267,-55.268408)" />
    <path
       d="m 115.84168,71.740106 v 0.09384 h -0.87489 c 0.008,0.13088 0.048,0.230011 0.11818,0.298803 0.0706,0.06879 0.16969,0.103363 0.29493,0.103363 0.073,0 0.14499,-0.0095 0.21237,-0.02752 0.0688,-0.01799 0.13793,-0.0441 0.20531,-0.08008 v 0.179211 c -0.0688,0.02893 -0.13934,0.05115 -0.21096,0.06632 -0.0716,0.01517 -0.14322,0.02328 -0.21766,0.02328 -0.1845,0 -0.33055,-0.05362 -0.43956,-0.16122 -0.1076,-0.107597 -0.16122,-0.253647 -0.16122,-0.436738 0,-0.188737 0.0511,-0.33902 0.1531,-0.450498 0.10337,-0.11183 0.24095,-0.166864 0.41452,-0.166864 0.15593,0 0.27834,0.04939 0.36936,0.150284 0.091,0.100541 0.13652,0.235655 0.13652,0.407811 z m -0.19015,-0.05503 c -10e-4,-0.104775 -0.0303,-0.187678 -0.0882,-0.249414 -0.0564,-0.06209 -0.13088,-0.09243 -0.22472,-0.09243 -0.10619,0 -0.19156,0.02893 -0.25612,0.0896 -0.0635,0.05927 -0.0995,0.144639 -0.109,0.253648 z m -0.18344,-1.011767 h 0.20532 l -0.3362,0.388761 h -0.1584 z"
       style="fill:#88878a;fill-opacity:1;fill-rule:nonzero;stroke:none;stroke-width:0.352778"
       id="path932"
       transform="translate(-35.539267,-55.268408)" />
    <path
       d="m 117.14378,71.740106 v 0.09384 h -0.87488 c 0.008,0.13088 0.0483,0.230011 0.11853,0.298803 0.0702,0.06879 0.16933,0.103363 0.29492,0.103363 0.073,0 0.14464,-0.0095 0.21202,-0.02752 0.0692,-0.01799 0.13794,-0.0441 0.20532,-0.08008 v 0.179211 c -0.0688,0.02893 -0.139,0.05115 -0.21061,0.06632 -0.0716,0.01517 -0.14323,0.02328 -0.21766,0.02328 -0.18486,0 -0.33091,-0.05362 -0.43992,-0.16122 -0.10724,-0.107597 -0.16122,-0.253647 -0.16122,-0.436738 0,-0.188737 0.0512,-0.33902 0.15311,-0.450498 0.10336,-0.11183 0.2413,-0.166864 0.41486,-0.166864 0.15558,0 0.27835,0.04939 0.36936,0.150284 0.091,0.100541 0.13617,0.235655 0.13617,0.407811 z m -0.19014,-0.05503 c -10e-4,-0.104775 -0.0303,-0.187678 -0.0882,-0.249414 -0.0564,-0.06209 -0.13088,-0.09243 -0.22436,-0.09243 -0.10619,0 -0.19156,0.02893 -0.25647,0.0896 -0.0635,0.05927 -0.0991,0.144639 -0.10901,0.253648 z"
       style="fill:#88878a;fill-opacity:1;fill-rule:nonzero;stroke:none;stroke-width:0.352778"
       id="path934"
       transform="translate(-35.539267,-55.268408)" />
    <path
       d="m 118.194,71.2441 v 0.178859 c -0.0536,-0.02752 -0.11042,-0.04798 -0.16827,-0.06174 -0.0579,-0.01376 -0.11712,-0.02081 -0.17886,-0.02081 -0.0952,0 -0.16545,0.01517 -0.21378,0.0441 -0.0469,0.02893 -0.0702,0.07161 -0.0702,0.129469 0,0.0441 0.018,0.07867 0.0508,0.104775 0.0346,0.02469 0.10231,0.04833 0.20426,0.07161 l 0.0646,0.01376 c 0.13512,0.02893 0.23142,0.07055 0.28822,0.122766 0.0564,0.05221 0.0854,0.126647 0.0854,0.220486 0,0.107598 -0.0427,0.19297 -0.12841,0.255059 -0.0854,0.06315 -0.20108,0.0949 -0.34995,0.0949 -0.0617,0 -0.12665,-0.0067 -0.19438,-0.0194 -0.0674,-0.01094 -0.13759,-0.02893 -0.21202,-0.05362 v -0.195792 c 0.0702,0.03598 0.13899,0.0635 0.20814,0.0829 0.0674,0.01799 0.13511,0.02611 0.20249,0.02611 0.0896,0 0.1584,-0.01517 0.20673,-0.04551 0.0483,-0.03034 0.0716,-0.07444 0.0716,-0.129469 0,-0.05221 -0.018,-0.09243 -0.0522,-0.119945 -0.0346,-0.02752 -0.11042,-0.05362 -0.22895,-0.07867 l -0.066,-0.01623 c -0.11712,-0.02505 -0.20285,-0.06209 -0.25506,-0.113242 -0.0522,-0.05221 -0.0787,-0.122413 -0.0787,-0.212019 0,-0.109008 0.0388,-0.192969 0.11571,-0.252236 0.0773,-0.05927 0.18627,-0.08819 0.32808,-0.08819 0.0702,0 0.13653,0.0042 0.19862,0.01517 0.0617,0.0095 0.11994,0.02611 0.17215,0.04692 z"
       style="fill:#88878a;fill-opacity:1;fill-rule:nonzero;stroke:none;stroke-width:0.352778"
       id="path936"
       transform="translate(-35.539267,-55.268408)" />
    <path
       d="m 47.845178,56.088415 c -0.351367,-0.0056 -0.702734,0.0067 -1.0541,0.03704 l -0.0085,0.0014 c -0.399697,0.03845 -0.797983,0.100542 -1.190625,0.184856 0.680861,0.742597 1.134181,1.704622 1.225197,2.779183 0.06879,0.792692 -0.06773,1.556103 -0.361244,2.243667 l 3.639608,2.845505 c 0.69462,-0.540102 1.543403,-0.895702 2.478969,-0.976841 h 0.0042 c 0.172155,-0.01376 0.343253,-0.01799 0.512586,-0.01376 l 0.299155,-1.677105 c -0.740127,-0.425803 -1.269294,-1.193447 -1.347963,-2.101497 -0.06597,-0.771878 0.206727,-1.495425 0.690386,-2.031295 -1.500717,-0.819855 -3.17747,-1.262239 -4.887736,-1.291166 z m 8.801452,4.970638 c -0.412044,0.420159 -0.963083,0.709436 -1.583266,0.788106 l -0.301978,1.696508 c 1.586089,0.652992 2.770011,2.146653 2.925586,3.964517 0.220486,2.586566 -1.716969,4.887736 -4.303536,5.109633 -1.700389,0.144639 -3.272719,-0.644878 -4.216753,-1.936044 l -4.613627,1.63583 c 0.02893,1.463322 -0.620184,2.808464 -1.66617,3.716514 1.757186,0.903817 3.733095,1.2954 5.7023,1.131358 5.809897,-0.497416 10.114844,-5.610225 9.618839,-11.418358 -0.141817,-1.664758 -0.678039,-3.271661 -1.561395,-4.688064 z m -18.472502,1.03752 c -0.815975,1.695097 -1.161697,3.578577 -1.004711,5.452886 0.02222,0.26035 0.05503,0.519641 0.09807,0.777169 0.614539,-0.378883 1.320094,-0.626886 2.086328,-0.693208 l 0.0025,-0.0014 c 1.783292,-0.151342 3.430058,0.706966 4.375503,2.094794 L 48.266747,68.1199 c -0.02752,-0.595136 0.05644,-1.172633 0.238478,-1.709913 L 44.70475,63.437481 c -0.635353,0.420158 -1.382183,0.693208 -2.191103,0.763411 -1.773766,0.151342 -3.413477,-0.712611 -4.339519,-2.104319 z"
       style="fill:#95bc0f;fill-opacity:1;fill-rule:nonzero;stroke:none;stroke-width:0.352778"
       id="path938"
       transform="translate(-35.539267,-55.268408)" />
    <path
       d="M 52.604855,67.123656 39.604642,71.73305 40.169439,73.329017 53.170005,68.71927 Z"
       style="fill:#000000;fill-opacity:1;fill-rule:evenodd;stroke:none;stroke-width:0.352778"
       id="path940"
       transform="translate(-35.539267,-55.268408)" />
    <path
       d="m 42.276581,58.725781 -1.043164,1.334206 11.117791,8.695266 1.043164,-1.333853 z"
       style="fill:#000000;fill-opacity:1;fill-rule:evenodd;stroke:none;stroke-width:0.352778"
       id="path942"
       transform="translate(-35.539267,-55.268408)" />
    <path
       d="m 54.321825,58.727192 -1.414992,7.954081 0.833614,0.148872 1.413933,-7.95408 z"
       style="fill:#000000;fill-opacity:1;fill-rule:evenodd;stroke:none;stroke-width:0.352778"
       id="path944"
       transform="translate(-35.539267,-55.268408)" />
    <g
       id="g946"
       transform="matrix(0.35277777,0,0,0.35277777,-0.96876399,-0.95501399)">
      <path
         d="m 51.391,29.246 c 5.132,-0.441 9.652,3.367 10.089,8.5 0.442,5.137 -3.367,9.652 -8.5,10.094 -5.132,0.437 -9.652,-3.367 -10.093,-8.5 -0.442,-5.133 3.363,-9.652 8.496,-10.094"
         style="fill:#ffffff;fill-opacity:1;fill-rule:nonzero;stroke:#000000;stroke-width:5.29088;stroke-linecap:butt;stroke-linejoin:miter;stroke-miterlimit:1;stroke-dasharray:none;stroke-opacity:1"
         id="path948" />
    </g>
    <g
       id="g950"
       transform="matrix(0.35277777,0,0,0.35277777,-0.96876399,-0.95501399)">
      <path
         d="m 56.684,8.496 c 2.925,-0.25 5.5,1.918 5.75,4.844 0.25,2.926 -1.922,5.5 -4.844,5.75 -2.926,0.25 -5.504,-1.918 -5.754,-4.84 -0.25,-2.926 1.918,-5.504 4.844,-5.754"
         style="fill:#ffffff;fill-opacity:1;fill-rule:nonzero;stroke:#000000;stroke-width:3.015;stroke-linecap:butt;stroke-linejoin:miter;stroke-miterlimit:1;stroke-dasharray:none;stroke-opacity:1"
         id="path952" />
    </g>
    <g
       id="g954"
       transform="matrix(0.35277777,0,0,0.35277777,-0.96876399,-0.95501399)">
      <path
         d="m 20.582,5.387 c 5.133,-0.442 9.652,3.367 10.09,8.5 0.437,5.136 -3.367,9.652 -8.5,10.093 -5.133,0.438 -9.652,-3.367 -10.094,-8.5 -0.441,-5.132 3.363,-9.652 8.496,-10.093"
         style="fill:#ffffff;fill-opacity:1;fill-rule:nonzero;stroke:#000000;stroke-width:5.29088;stroke-linecap:butt;stroke-linejoin:miter;stroke-miterlimit:1;stroke-dasharray:none;stroke-opacity:1"
         id="path956" />
    </g>
    <g
       id="g958"
       transform="matrix(0.35277777,0,0,0.35277777,-0.96876399,-0.95501399)">
      <path
         d="m 13.93,42 c 5.136,-0.438 9.652,3.371 10.09,8.504 0.441,5.133 -3.364,9.652 -8.5,10.094 -5.133,0.437 -9.653,-3.368 -10.094,-8.5 -0.442,-5.133 3.363,-9.653 8.496,-10.094"
         style="fill:#ffffff;fill-opacity:1;fill-rule:nonzero;stroke:#000000;stroke-width:5.29088;stroke-linecap:butt;stroke-linejoin:miter;stroke-miterlimit:1;stroke-dasharray:none;stroke-opacity:1"
         id="path960" />
    </g>
  </g>
</svg>
