<?xml version="1.0" encoding="UTF-8" standalone="no"?>
<!-- Generator: Adobe Illustrator 22.0.1, SVG Export Plug-In . SVG Version: 6.00 Build 0)  -->

<svg
   version="1.1"
   id="Calque_1"
   x="0px"
   y="0px"
   width="170px"
   height="101.4px"
   viewBox="0 0 170 101.4"
   style="enable-background:new 0 0 170 101.4;"
   xml:space="preserve"
   sodipodi:docname="opmlogo.svg"
   inkscape:version="1.2.2 (b0a8486541, 2022-12-01)"
   xmlns:inkscape="http://www.inkscape.org/namespaces/inkscape"
   xmlns:sodipodi="http://sodipodi.sourceforge.net/DTD/sodipodi-0.dtd"
   xmlns="http://www.w3.org/2000/svg"
   xmlns:svg="http://www.w3.org/2000/svg"><defs
   id="defs42" /><sodipodi:namedview
   id="namedview40"
   pagecolor="#ffffff"
   bordercolor="#666666"
   borderopacity="1.0"
   inkscape:showpageshadow="2"
   inkscape:pageopacity="0.0"
   inkscape:pagecheckerboard="0"
   inkscape:deskcolor="#d1d1d1"
   showgrid="false"
   inkscape:zoom="7.9980275"
   inkscape:cx="85.020963"
   inkscape:cy="50.825032"
   inkscape:window-width="1920"
   inkscape:window-height="1011"
   inkscape:window-x="0"
   inkscape:window-y="0"
   inkscape:window-maximized="1"
   inkscape:current-layer="Calque_1" />
<style
   type="text/css"
   id="style2">
	.st0{fill:#72267A;}
	.st1{fill:#2B3184;}
</style>
<g
   id="opm-oncodesign-precision-medicine-dijon-logo"
   transform="translate(-251.818 -169.184)">
	<g
   id="Groupe_1"
   transform="translate(313.877 223.582)">
		<path
   id="Tracé_1"
   class="st0"
   d="M19.4,23c0-3.1,2.4-5.6,5.5-5.6c3.1,0,5.6,2.4,5.6,5.5c0,3.1-2.4,5.6-5.5,5.6c0,0,0,0-0.1,0    C22,28.5,19.5,26.1,19.4,23z M28.6,23c-0.1-2-1.7-3.5-3.7-3.4c-2,0.1-3.5,1.7-3.4,3.7c0.1,1.9,1.7,3.5,3.6,3.5    C27,26.7,28.6,25.1,28.6,23L28.6,23z" />
		<path
   id="Tracé_2"
   class="st0"
   d="M39.5,23.3v5.1h-1.8v-4.7c0.1-0.9-0.6-1.8-1.5-1.8c0,0-0.1,0-0.1,0c-0.9,0-1.7,0.6-1.9,1.5v5    h-1.9v-8h1.9v1.1c0.6-0.8,1.5-1.3,2.5-1.2c1.6,0,2.9,1.2,3,2.8C39.5,23.1,39.5,23.2,39.5,23.3z" />
		<path
   id="Tracé_3"
   class="st0"
   d="M41.1,24.4c0.1-2.3,2-4.2,4.3-4.2c1.1,0,2.2,0.5,3,1.3l-1.3,1.1c-0.5-0.5-1.1-0.8-1.8-0.8    c-1.4,0.1-2.5,1.3-2.4,2.7c0.1,1.3,1.1,2.3,2.4,2.4c0.7,0,1.4-0.3,1.8-0.8l1.3,1.1c-0.8,0.9-1.9,1.3-3.1,1.3    C43.1,28.5,41.2,26.7,41.1,24.4z" />
		<path
   id="Tracé_4"
   class="st0"
   d="M49.4,24.4c-0.1-2.4,1.8-4.3,4.2-4.4c2.4-0.1,4.3,1.8,4.4,4.2c0.1,2.4-1.8,4.3-4.2,4.4    c0,0-0.1,0-0.1,0C51.3,28.5,49.4,26.7,49.4,24.4z M56.1,24.4C56,23,54.8,22,53.5,22.1s-2.4,1.2-2.3,2.6c0.1,1.3,1.1,2.3,2.4,2.3    C55,26.9,56.1,25.7,56.1,24.4L56.1,24.4z" />
		<path
   id="Tracé_5"
   class="st0"
   d="M67.5,17.6v10.8h-1.9v-1.2c-0.6,0.9-1.7,1.4-2.8,1.4c-2.3-0.3-3.9-2.4-3.6-4.7    c0.3-1.9,1.7-3.3,3.6-3.6c1.1,0,2.1,0.5,2.8,1.4v-4L67.5,17.6z M65.6,24.4c0.1-1.3-0.8-2.4-2.1-2.5c-0.1,0-0.1,0-0.2,0    c-1.4-0.2-2.7,0.8-2.9,2.2c-0.2,1.4,0.8,2.7,2.2,2.9c1.4,0.2,2.7-0.8,2.9-2.2C65.6,24.6,65.6,24.5,65.6,24.4z" />
		<path
   id="Tracé_6"
   class="st0"
   d="M75.3,26.1l1.2,1.2c-0.9,0.8-2,1.2-3.2,1.2c-2.3,0-4.1-1.8-4.2-4c0,0,0-0.1,0-0.1    c-0.1-2.2,1.7-4.1,3.9-4.1c0.1,0,0.1,0,0.2,0c2.5,0,3.9,1.9,3.9,4.8h-6c0.2,1.1,1.1,1.9,2.2,1.9C74,26.9,74.8,26.6,75.3,26.1z     M71.1,23.6h4.2c-0.1-1-1-1.7-2-1.7C72.2,21.8,71.3,22.6,71.1,23.6L71.1,23.6z" />
		<path
   id="Tracé_7"
   class="st0"
   d="M78.2,27.3L79,26c0.8,0.6,1.7,0.9,2.7,0.9c0.8,0,1.3-0.3,1.3-0.8c0-0.6-0.7-0.8-1.6-1.1    c-1.7-0.4-2.8-0.9-2.8-2.4c0.1-1.5,1.3-2.6,2.8-2.5c0.1,0,0.1,0,0.2,0c1.1,0,2.1,0.4,3,1l-0.8,1.4c-0.7-0.4-1.5-0.7-2.3-0.7    c-0.7,0-1.2,0.3-1.2,0.7c0,0.5,0.4,0.7,1.6,1c1.3,0.4,2.8,0.8,2.8,2.5c0,1.5-1.3,2.5-3.1,2.5C80.4,28.5,79.2,28.1,78.2,27.3z" />
		<path
   id="Tracé_8"
   class="st0"
   d="M86.3,18.1c0-0.6,0.5-1.1,1.1-1.1c0.6,0,1.1,0.5,1.1,1.1c0,0.6-0.5,1.1-1.1,1.1    C86.8,19.2,86.3,18.7,86.3,18.1z M86.4,20.4h1.9v8h-1.9V20.4z" />
		<path
   id="Tracé_9"
   class="st0"
   d="M98.2,20.4v7.1c0,2-1.7,3.5-4.2,3.5c-1.2,0-2.4-0.4-3.4-1.1l0.7-1.4c0.7,0.6,1.6,0.8,2.4,0.8    c1.6,0,2.6-0.8,2.6-2v-1c-0.6,0.9-1.7,1.4-2.7,1.4c-2.1-0.1-3.7-1.9-3.6-4c0.1-1.9,1.6-3.5,3.6-3.6c1.1,0,2.1,0.5,2.7,1.4v-1.2    L98.2,20.4z M96.3,24c0-1.2-1-2.2-2.2-2.2c-1.2,0-2.2,1-2.2,2.2c0,1.2,1,2.2,2.2,2.2c1.2,0,2.1-0.9,2.2-2    C96.3,24.1,96.3,24,96.3,24L96.3,24z" />
		<path
   id="Tracé_10"
   class="st0"
   d="M107.6,23.3v5.1h-1.8v-4.7c0.1-0.9-0.6-1.8-1.5-1.8c0,0-0.1,0-0.1,0c-0.9,0-1.7,0.6-1.9,1.5v5    h-1.9v-8h1.9v1.1c0.6-0.8,1.5-1.3,2.5-1.2c1.6,0,2.9,1.2,3,2.8C107.6,23.1,107.6,23.2,107.6,23.3z" />
	</g>
	<g
   id="Groupe_2"
   transform="translate(275.972 237.639)">
		<path
   id="Tracé_11"
   class="st0"
   d="M7.6,22.2h4.6c1.9-0.2,3.7,1.1,3.9,3.1c0.2,1.9-1.1,3.7-3.1,3.9c-0.3,0-0.6,0-0.8,0H9.5v3.6    H7.6V22.2z M12,27.4c1.3,0,2.2-0.7,2.2-1.7s-0.9-1.7-2.2-1.7H9.5v3.5L12,27.4z" />
		<path
   id="Tracé_12"
   class="st0"
   d="M22.3,24.6v1.6c-1.4-0.2-2.7,0.8-2.8,2.2c0,0.1,0,0.2,0,0.3v4h-1.9v-8h1.9v1.5    C20,25.2,21.1,24.6,22.3,24.6z" />
		<path
   id="Tracé_13"
   class="st0"
   d="M29.5,30.5l1.2,1.2c-0.9,0.8-2,1.2-3.2,1.2c-2.3,0-4.1-1.8-4.2-4c0,0,0-0.1,0-0.1    c-0.1-2.2,1.7-4.1,3.9-4.1c0.1,0,0.1,0,0.2,0c2.5,0,3.9,1.9,3.9,4.8h-6c0.2,1.1,1.1,1.9,2.2,1.9C28.2,31.3,28.9,31,29.5,30.5z     M25.2,28h4.2c-0.1-1-1-1.7-2-1.7C26.4,26.3,25.5,27,25.2,28L25.2,28z" />
		<path
   id="Tracé_14"
   class="st0"
   d="M32.4,28.8c0.1-2.3,2-4.2,4.3-4.2c1.1,0,2.2,0.5,3,1.3L38.5,27c-0.5-0.5-1.1-0.8-1.8-0.8    c-1.4,0.1-2.5,1.3-2.4,2.7c0.1,1.3,1.1,2.3,2.4,2.4c0.7,0,1.4-0.3,1.8-0.8l1.3,1.1c-0.8,0.9-1.9,1.3-3.1,1.3    C34.4,32.9,32.5,31.1,32.4,28.8z" />
		<path
   id="Tracé_15"
   class="st0"
   d="M41.1,22.5c0-0.6,0.5-1.1,1.1-1.1c0.6,0,1.1,0.5,1.1,1.1c0,0.6-0.5,1.1-1.1,1.1    C41.6,23.6,41.1,23.1,41.1,22.5z M41.3,24.8h1.9v8h-1.9V24.8z" />
		<path
   id="Tracé_16"
   class="st0"
   d="M44.7,31.7l0.8-1.3c0.8,0.6,1.7,0.9,2.7,0.9c0.8,0,1.3-0.3,1.3-0.8c0-0.6-0.7-0.8-1.6-1.1    C46.1,29,45,28.5,45,27.1c0.1-1.5,1.3-2.6,2.8-2.5c0.1,0,0.2,0,0.2,0c1.1,0,2.1,0.4,3,1l-0.8,1.4c-0.7-0.4-1.5-0.7-2.3-0.7    c-0.7,0-1.2,0.3-1.2,0.7c0,0.5,0.4,0.7,1.6,1c1.3,0.4,2.8,0.8,2.8,2.5c0,1.5-1.3,2.5-3.1,2.5C46.9,32.9,45.7,32.5,44.7,31.7z" />
		<path
   id="Tracé_17"
   class="st0"
   d="M52.8,22.5c0-0.6,0.5-1.1,1.1-1.1c0.6,0,1.1,0.5,1.1,1.1c0,0.6-0.5,1.1-1.1,1.1    C53.3,23.6,52.8,23.1,52.8,22.5z M52.9,24.8h1.9v8h-1.9V24.8z" />
		<path
   id="Tracé_18"
   class="st0"
   d="M56.4,28.8c-0.1-2.4,1.8-4.3,4.2-4.4c2.4-0.1,4.3,1.8,4.4,4.2c0.1,2.4-1.8,4.3-4.2,4.4    c0,0-0.1,0-0.1,0C58.4,32.9,56.5,31.1,56.4,28.8z M63.1,28.8c-0.1-1.3-1.2-2.4-2.6-2.3c-1.3,0.1-2.4,1.2-2.3,2.6    c0.1,1.3,1.1,2.3,2.4,2.3C62.1,31.3,63.1,30.1,63.1,28.8z" />
		<path
   id="Tracé_19"
   class="st0"
   d="M73.9,27.7v5.1h-1.8v-4.7c0.1-0.9-0.6-1.8-1.5-1.8c0,0-0.1,0-0.1,0c-0.9,0-1.7,0.6-1.9,1.5v5    h-1.9v-8h1.9v1.1c0.6-0.8,1.5-1.3,2.5-1.2c1.6,0,2.9,1.2,3,2.8C73.9,27.5,73.9,27.6,73.9,27.7z" />
		<path
   id="Tracé_20"
   class="st0"
   d="M80.5,22.2h1.9l3.5,6.4l3.5-6.4h1.9v10.6h-1.9v-7.1l-3.5,6.4l-3.5-6.4v7.1h-1.9L80.5,22.2z" />
		<path
   id="Tracé_21"
   class="st0"
   d="M99.3,30.5l1.2,1.2c-0.9,0.8-2,1.2-3.2,1.2c-2.3,0-4.1-1.8-4.2-4c0,0,0-0.1,0-0.1    c-0.1-2.2,1.7-4.1,3.9-4.1c0.1,0,0.1,0,0.2,0c2.5,0,3.9,1.9,3.9,4.8h-6c0.2,1.1,1.1,1.9,2.2,1.9C98,31.3,98.7,31,99.3,30.5z     M95.1,28h4.2c-0.1-1-1-1.7-2-1.7C96.2,26.3,95.3,27,95.1,28L95.1,28z" />
		<path
   id="Tracé_22"
   class="st0"
   d="M110.6,22v10.8h-1.9v-1.2c-0.6,0.9-1.7,1.4-2.8,1.4c-2.3-0.3-3.9-2.4-3.6-4.7    c0.3-1.9,1.7-3.3,3.6-3.6c1.1,0,2.1,0.5,2.8,1.4v-4L110.6,22z M108.7,28.8c0.1-1.3-0.8-2.4-2.1-2.5c-0.1,0-0.1,0-0.2,0    c-1.4-0.2-2.7,0.8-2.9,2.2c-0.2,1.4,0.8,2.7,2.2,2.9c1.4,0.2,2.7-0.8,2.9-2.2C108.7,29,108.7,28.9,108.7,28.8z" />
		<path
   id="Tracé_23"
   class="st0"
   d="M112.6,22.5c0-0.6,0.5-1.1,1.1-1.1c0.6,0,1.1,0.5,1.1,1.1c0,0.6-0.5,1.1-1.1,1.1    C113.1,23.6,112.6,23.1,112.6,22.5z M112.7,24.8h1.9v8h-1.9V24.8z" />
		<path
   id="Tracé_24"
   class="st0"
   d="M116.2,28.8c0.1-2.3,2-4.2,4.3-4.2c1.1,0,2.2,0.5,3,1.3l-1.3,1.1c-0.5-0.5-1.1-0.8-1.8-0.8    c-1.4,0.1-2.5,1.3-2.4,2.7c0.1,1.3,1.1,2.3,2.4,2.4c0.7,0,1.4-0.3,1.8-0.8l1.3,1.1c-0.8,0.9-1.9,1.3-3.1,1.3    C118.2,32.9,116.3,31.1,116.2,28.8z" />
		<path
   id="Tracé_25"
   class="st0"
   d="M124.9,22.5c0-0.6,0.5-1.1,1.1-1.1c0.6,0,1.1,0.5,1.1,1.1c0,0.6-0.5,1.1-1.1,1.1    C125.4,23.6,124.9,23.1,124.9,22.5z M125.1,24.8h1.9v8h-1.9V24.8z" />
		<path
   id="Tracé_26"
   class="st0"
   d="M136.3,27.7v5.1h-1.8v-4.7c0.1-0.9-0.6-1.8-1.5-1.8c0,0-0.1,0-0.1,0c-0.9,0-1.7,0.6-1.9,1.5v5    H129v-8h1.9v1.1c0.6-0.8,1.5-1.3,2.5-1.2c1.6,0,2.9,1.2,3,2.8C136.3,27.5,136.3,27.6,136.3,27.7z" />
		<path
   id="Tracé_27"
   class="st0"
   d="M144.1,30.5l1.2,1.2c-0.9,0.8-2,1.2-3.2,1.2c-2.3,0-4.1-1.8-4.2-4c0,0,0-0.1,0-0.1    c-0.1-2.2,1.7-4.1,3.9-4.1c0.1,0,0.1,0,0.2,0c2.5,0,3.9,1.9,3.9,4.8h-6c0.2,1.1,1.1,1.9,2.2,1.9C142.8,31.3,143.5,31,144.1,30.5z     M139.9,28h4.2c-0.1-1-1-1.7-2-1.7C141,26.3,140.1,27,139.9,28L139.9,28z" />
	</g>
	<path
   id="Tracé_28"
   class="st0"
   d="M357.1,188.5l19.3-14.8l-4.5-4.5L357.1,188.5z" />
	<path
   id="Tracé_29"
   class="st1"
   d="M337.1,208.5l4.5-5.9c-3.1-2.6-7.8-2.2-10.5,0.9s-2.2,7.8,0.9,10.5c3.1,2.6,7.8,2.2,10.5-0.9   c2.2-2.6,2.3-6.3,0.4-9L337.1,208.5z" />
	<path
   id="Tracé_30"
   class="st1"
   d="M296.1,194.2l-0.1-0.1c-10.9-9-26.6-9-37.5,0l-0.1,0.1c-7.8,6.6-8.8,18.2-2.2,26   c0.7,0.8,1.4,1.6,2.2,2.2l0.1,0.1c10.9,9,26.6,9,37.5,0l0.1-0.1c7.8-6.6,8.8-18.2,2.2-26C297.7,195.6,296.9,194.8,296.1,194.2    M277.3,219.4c-4.7,0-9.2-1.7-12.7-4.7c-3.5-3-3.9-8.4-0.8-11.9c0.3-0.3,0.5-0.6,0.8-0.8c7.3-6.3,18.2-6.3,25.5,0   c3.5,3,3.9,8.4,0.8,11.9c-0.3,0.3-0.5,0.6-0.8,0.8C286.5,217.7,281.9,219.4,277.3,219.4" />
	<path
   id="Tracé_31"
   class="st1"
   d="M355.7,194.2l-0.1-0.1c-10.9-9-26.6-9-37.5,0l-0.1,0.1c-4.2,3.5-6.6,8.7-6.6,14.2l0,0v37l5-1.7   c2.8-0.9,4.7-3.6,4.7-6.5v-12.4c10.8,6.8,24.6,5.9,34.5-2.2l0.1-0.1c7.8-6.6,8.8-18.2,2.2-26C357.3,195.6,356.5,194.8,355.7,194.2    M349.6,214.6c-7.3,6.3-18.2,6.3-25.5,0c-3.5-3-3.9-8.4-0.8-11.9c0.3-0.3,0.5-0.6,0.8-0.8c7.3-6.3,18.2-6.3,25.5,0   c3.5,3,3.9,8.4,0.8,11.9C350.2,214.1,349.9,214.4,349.6,214.6" />
	<path
   id="Tracé_32"
   class="st1"
   d="M413.1,188.7h-2.5c-4.1,0-7.8,2.6-9.2,6.6l-5.8,14l-5.8-14c-1.3-3.9-5-6.6-9.2-6.6h-2.5   c-4,0-7.2,3.2-7.2,7.2V230l0,0l4.9-1.6c2.8-0.9,4.7-3.5,4.7-6.4v-7.8l0,0v-15.9h0.1c0,0,0.1,0,0.1,0.1l0.1,0.3l6.5,15.6   c2,4.6,7.3,6.7,11.8,4.7c2.1-0.9,3.8-2.6,4.7-4.7l6.5-15.6l0.1-0.3c0,0,0-0.1,0.1-0.1h0.1v29.8h9.6v-32.2   C420.2,191.9,417,188.7,413.1,188.7z" />
</g>
</svg>
