<?xml version="1.0" encoding="UTF-8" standalone="no"?>
<svg
   version="1.1"
   viewBox="-5 -10 79.703697 80.000336"
   id="svg8"
   sodipodi:docname="prj-tools.svg"
   width="79.703697"
   height="80.000336"
   inkscape:version="1.2.2 (b0a8486541, 2022-12-01)"
   xmlns:inkscape="http://www.inkscape.org/namespaces/inkscape"
   xmlns:sodipodi="http://sodipodi.sourceforge.net/DTD/sodipodi-0.dtd"
   xmlns="http://www.w3.org/2000/svg"
   xmlns:svg="http://www.w3.org/2000/svg">
  <defs
     id="defs12" />
  <sodipodi:namedview
     id="namedview10"
     pagecolor="#ffffff"
     bordercolor="#666666"
     borderopacity="1.0"
     inkscape:showpageshadow="2"
     inkscape:pageopacity="0.0"
     inkscape:pagecheckerboard="0"
     inkscape:deskcolor="#d1d1d1"
     showgrid="false"
     inkscape:zoom="6.0074074"
     inkscape:cx="39.784217"
     inkscape:cy="48.024044"
     inkscape:window-width="1920"
     inkscape:window-height="1011"
     inkscape:window-x="0"
     inkscape:window-y="0"
     inkscape:window-maximized="1"
     inkscape:current-layer="svg8" />
  <path
     d="m 1.5583,1.94779 c -0.54688,-1.4297 -0.73047,-2.9453 -0.57422,-4.4297 0.14062,-1.3125 0.55078,-2.5938 1.2188,-3.7578 l 3.7969,6.5742 -4.4414,1.6094 z m 33.348,8.6055 V 9.94782 l -4.9297,-1.5859 v 2.1914 l 2.4648,1.4219 z m 7.3008,1.7422 c -0.01953,1.7383 -0.49219,3.3711 -1.3125,4.7812 -0.78125,1.3477 -1.875,2.4922 -3.1797,3.332 v 2.5859 l 5.3789,-2.0625 v -8.3477 l -0.88672,-0.28516 z m -13.371,14.102 2.7109,-1.0391 4.5039,-1.7266 v -3.6914 c 0,-0.28906 0.15234,-0.57031 0.41797,-0.72266 1.2383,-0.71094 2.2734,-1.7383 2.9883,-2.9766 0.69141,-1.1914 1.0859,-2.5742 1.0859,-4.0547 0,-1.6875 -0.51172,-3.2539 -1.3906,-4.543 -0.67188,-0.98828 -1.5508,-1.8164 -2.5781,-2.4297 v 5.8164 c 0,0.29688 -0.16016,0.57031 -0.41797,0.71875 l -3.2969,1.9023 c -0.25781,0.14844 -0.57031,0.14844 -0.82812,0 l -3.2734,-1.8906 C 28.49626,11.61996 28.31657,11.34652 28.31657,11.0262 V 5.2059 c -1.0312,0.60938 -1.9102,1.4414 -2.582,2.4297 -0.87891,1.293 -1.3906,2.8555 -1.3906,4.543 0,1.4805 0.39453,2.8633 1.0859,4.0547 0.71094,1.2227 1.7305,2.2461 2.9609,2.957 0.26562,0.14062 0.44922,0.41797 0.44922,0.73828 v 6.457 z m -4.8477,-9.3203 c -0.83594,-1.4414 -1.3125,-3.1094 -1.3125,-4.8906 0,-1.0039 0.15234,-1.9727 0.4375,-2.8867 l -3.6719,1.1797 c -0.52344,0.67188 -1.1016,1.3047 -1.7383,1.9062 -0.27344,0.25781 -0.47656,0.55078 -0.60938,0.87109 -0.13281,0.32422 -0.19141,0.67578 -0.17578,1.0547 l 0.32422,8.2734 6.5664,2.5195 3.3633,1.2891 v -5.9922 c -1.3047,-0.83984 -2.3984,-1.9844 -3.1797,-3.332 z m -19.062,-1.9297 -3.8477,1.2383 3.7422,1.4375 z m 21.867,12.891 c -9.2695,-3.5586 -18.539,-7.1133 -27.809,-10.672 L -5,25.44459 l 26.48,11.727 z m 24.887,-10.406 3.25,-1.2461 -3.25,-1.0469 z m -16.152,-18.23 h 4.6445 c 0.22656,0 0.41016,-0.1875 0.41016,-0.41016 v -0.84375 c 0,-0.46094 0.37109,-0.83203 0.83203,-0.83203 h 2.5078 c 0.46094,0 0.83203,0.37109 0.83203,0.83203 v 22.141 l 5.2539,-2.0156 v -20.113 c 0,-0.46875 0.39844,-0.84766 0.86328,-0.82812 2.2734,0.08203 4.6055,0.62109 6.6758,1.6406 1.3281,0.65625 2.5508,1.5117 3.582,2.5742 -0.38281,-2.6016 -1.3477,-4.8945 -2.9883,-6.5664 -1.7656,-1.793 -4.3477,-2.8867 -7.8867,-2.8867 H 41.419 c -0.46094,0 -0.83203,-0.37109 -0.83203,-0.83203 v -0.84375 c 0,-0.22656 -0.18359,-0.41016 -0.41016,-0.41016 h -4.6445 c -0.22656,0 -0.41016,0.1875 -0.41016,0.41016 v 8.5742 c 0,0.22656 0.1875,0.41016 0.41016,0.41016 z m -1.0039,37.77 26.48,-11.727 -3.9844,-8.0781 -27.809,10.672 z m 9.1562,23.07 -1.2539,-3.0234 -3.1953,-0.62891 C 38.83306,56.51205 38.55572,56.1644 38.55572,55.77377 v -6.0195 c 0,-0.41797 0.30859,-0.76562 0.71094,-0.82422 l 3.1602,-0.62109 1.2539,-3.0234 -1.8164,-2.707 c -0.22656,-0.33594 -0.17578,-0.77734 0.10156,-1.0508 l 4.2578,-4.2578 c 0.30469,-0.30469 0.78125,-0.32422 1.1055,-0.0625 l 2.6523,1.7773 3.0234,-1.2539 0.62891,-3.1953 c 0.07813,-0.39844 0.42578,-0.67188 0.81641,-0.67188 h 2.1406 v -4.6328 l -22.078,9.7773 c -0.38672,0.17188 -0.84375,0.01953 -1.0547,-0.34375 l -4.625,-7.9531 v 38.836 l 12.895,-6.0195 c -0.02734,-0.21484 0.03125,-0.44141 0.17578,-0.61719 l 1.7773,-2.6523 z m 31.023,-9.8086 v 4.6484 l -2.9609,0.58594 c -0.29688,0.05859 -0.52734,0.26562 -0.62109,0.53125 l -1.582,3.8125 c -0.11719,0.28125 -0.06641,0.59375 0.10547,0.82031 l 1.6562,2.4727 -3.2891,3.2891 -2.5117,-1.6836 C 65.27011,64.75424 64.97714,64.7269 64.71933,64.83236 l -3.8477,1.5977 c -0.25781,0.10547 -0.44531,0.33594 -0.49609,0.60937 l -0.58594,2.9609 h -4.6484 l -0.58594,-2.9609 c -0.05859,-0.29687 -0.26562,-0.52734 -0.53125,-0.62109 l -3.8125,-1.582 c -0.28125,-0.11719 -0.59375,-0.06641 -0.82031,0.10547 l -2.4727,1.6562 -3.2891,-3.2891 1.6836,-2.5117 c 0.15625,-0.23047 0.18359,-0.52344 0.07813,-0.78125 l -1.5977,-3.8477 c -0.10547,-0.25781 -0.33594,-0.44531 -0.60938,-0.49609 l -2.9609,-0.58594 v -4.6484 l 2.9609,-0.58594 c 0.29688,-0.05859 0.52734,-0.26562 0.62109,-0.53125 l 1.582,-3.8125 c 0.11719,-0.28125 0.06641,-0.59375 -0.10547,-0.82031 l -1.6562,-2.4727 3.2891,-3.2891 2.5117,1.6836 c 0.23047,0.15625 0.52344,0.18359 0.78125,0.07813 l 3.8477,-1.5977 c 0.25781,-0.10547 0.44531,-0.33594 0.49609,-0.60938 l 0.58594,-2.9609 h 4.6484 l 0.58594,2.9609 c 0.05859,0.29688 0.26562,0.52734 0.53125,0.62109 l 3.8125,1.582 c 0.28125,0.11719 0.59375,0.06641 0.82031,-0.10547 l 2.4727,-1.6562 3.2891,3.2891 -1.6836,2.5117 c -0.15625,0.23047 -0.18359,0.52344 -0.07812,0.78125 l 1.5977,3.8477 c 0.10547,0.25781 0.33594,0.44531 0.60938,0.49609 z m -8.8047,2.3242 c 0,-2.3281 -0.94531,-4.4375 -2.4727,-5.9648 -1.5273,-1.5273 -3.6367,-2.4727 -5.9648,-2.4727 -2.3281,0 -4.4375,0.94531 -5.9648,2.4727 -1.5273,1.5273 -2.4727,3.6367 -2.4727,5.9648 0,2.3281 0.94531,4.4375 2.4727,5.9648 1.52739,1.5273 3.6367,2.4727 5.9648,2.4727 2.3281,0 4.4375,-0.94531 5.9648,-2.4727 1.5273,-1.5273 2.4727,-3.6367 2.4727,-5.9648 z m -44.41,-13.766 -22.078,-9.7773 v 27.355 l 27.762,12.957 v -38.836 l -4.625,7.9531 c -0.21484,0.37109 -0.67188,0.51562 -1.0547,0.34375 z m -20.82,-34.5 C 0.54009,4.30459 0.61822,4.0585 0.83306,3.98037 l 10.227,-3.707 c 0.20703,-0.07422 0.36328,-0.22266 0.45703,-0.40625 l 2.1797,-3.7773 c 0.14844,-0.25781 0.14844,-0.57422 0,-0.82812 L 10.66159,-10 c 1.1914,0.03125 2.3633,0.25781 3.4688,0.66016 1.5117,0.55469 2.9023,1.4414 4.0547,2.625 1.1524,1.1836 2.0078,2.5977 2.5234,4.125 1.1016,3.2734 0.46094,6.7305 -1.0938,9.7422 -0.76953,1.4922 -1.7852,2.832 -3.043,4.0234 -0.90234,0.85547 -1.3555,1.9531 -1.3047,3.1953 l 0.29688,7.5664 -3.7812,-1.4492 v -1.7812 c 0,-0.46094 -0.37109,-0.83203 -0.83203,-0.83203 -0.46094,0 -0.83203,0.37109 -0.83203,0.83203 v 1.1406 l -3.6445,-1.3984 0.12891,-3.3281 c 0.05078,-1.3086 -0.28906,-2.4727 -1.0312,-3.5508 l -4.8945,-7.0781 z m 14.234,-1.9766 1.0625,3.0625 c 0.14844,0.43359 0.62109,0.66406 1.0547,0.51562 0.43359,-0.14844 0.66406,-0.62109 0.51563,-1.0547 l -1.0625,-3.0625 C 16.32489,1.54282 15.85224,1.31235 15.41863,1.46079 14.98504,1.60923 14.75457,2.08188 14.90301,2.51549 Z m -3.0625,1.0625 1.0625,3.0625 c 0.14844,0.43359 0.62109,0.66406 1.0547,0.51562 0.43359,-0.14844 0.66406,-0.62109 0.51563,-1.0547 l -1.0625,-3.0625 C 13.26239,2.60532 12.78974,2.37485 12.35613,2.52329 11.92254,2.67173 11.69207,3.14438 11.84051,3.57799 Z m -3.0703,1.0664 1.0703,3.0586 c 0.15234,0.43359 0.625,0.66016 1.0586,0.51172 0.43359,-0.15234 0.66016,-0.625 0.51172,-1.0586 l -1.0703,-3.0586 C 10.18818,3.66392 9.71552,3.43735 9.28192,3.58579 8.84833,3.73813 8.62176,4.21079 8.7702,4.64439 Z M 5.7077,5.70689 6.778,8.76549 C 6.93034,9.19908 7.403,9.42565 7.8366,9.27721 8.27019,9.12487 8.49676,8.65221 8.34832,8.21861 L 7.27802,5.16001 C 7.12568,4.72642 6.65302,4.49985 6.21942,4.64829 5.78583,4.80063 5.55926,5.27329 5.7077,5.70689 Z"
     fill-rule="evenodd"
     id="path2"
     style="fill:#ffffff" />
</svg>
