<?xml version="1.0" encoding="UTF-8" standalone="no"?>
<svg
   version="1.1"
   viewBox="-5 -10 63.414101 73.030701"
   id="svg8"
   sodipodi:docname="prj-inputs.svg"
   width="63.414101"
   height="73.030701"
   inkscape:version="1.2.2 (b0a8486541, 2022-12-01)"
   xmlns:inkscape="http://www.inkscape.org/namespaces/inkscape"
   xmlns:sodipodi="http://sodipodi.sourceforge.net/DTD/sodipodi-0.dtd"
   xmlns="http://www.w3.org/2000/svg"
   xmlns:svg="http://www.w3.org/2000/svg">
  <defs
     id="defs12" />
  <sodipodi:namedview
     id="namedview10"
     pagecolor="#ffffff"
     bordercolor="#666666"
     borderopacity="1.0"
     inkscape:showpageshadow="2"
     inkscape:pageopacity="0.0"
     inkscape:pagecheckerboard="0"
     inkscape:deskcolor="#d1d1d1"
     showgrid="false"
     inkscape:zoom="6.0074074"
     inkscape:cx="36.621455"
     inkscape:cy="44.694821"
     inkscape:window-width="1920"
     inkscape:window-height="1011"
     inkscape:window-x="0"
     inkscape:window-y="0"
     inkscape:window-maximized="1"
     inkscape:current-layer="svg8" />
  <path
     d="m -5,26.5163 c 0,-3.730502 3.0273,-6.75 6.7539,-6.7539 h 28.945 c 1.418,0 2.5625,-1.1484 2.5625,-2.5625 v -6.6953 l 15.957,16.012 -15.957,16.012 v -6.6914 c 0,-1.418 -1.1484,-2.5664 -2.5625,-2.5664 H 1.7539 C -1.9766,33.266894 -5,30.247402 -5,26.5169 Z m 63.414,33.945 V -7.4297 C 58.414,-8.8477 57.2656,-10 55.8437,-10 H 9.3827 c -1.418,0 -2.5703,1.1484 -2.5742,2.5703 v 22.062 h 21.328 v -4.4453 0.0039 c 0.0039,-2.0234 1.2266,-3.8398 3.0938,-4.6133 1.8672,-0.76953 4.0156,-0.34375 5.4414,1.0859 l 16.27,16.332 c 1.9414,1.9531 1.9414,5.1055 0,7.0547 l -16.27,16.32 c -1.4258,1.4336 -3.5781,1.8633 -5.4453,1.0898 -1.8711,-0.76953 -3.0898,-2.5938 -3.0898,-4.6172 v -4.4453 l -21.328,0.0039 v 22.059 c 0.0039,1.4219 1.1562,2.5703 2.5742,2.5703 h 46.461 c 1.418,0 2.5703,-1.1523 2.5703,-2.5703 z"
     fill-rule="evenodd"
     id="path2"
     style="fill:#ffffff"
     sodipodi:nodetypes="scsscccsscsscssscccccccccccscccsscc" />
</svg>
