<?xml version="1.0" encoding="UTF-8" standalone="no"?>
<svg
   version="1.1"
   viewBox="-5 -10 90.013138 90"
   id="svg8"
   sodipodi:docname="prj-goal.svg"
   width="90.013138"
   height="90"
   inkscape:version="1.2.2 (b0a8486541, 2022-12-01)"
   xmlns:inkscape="http://www.inkscape.org/namespaces/inkscape"
   xmlns:sodipodi="http://sodipodi.sourceforge.net/DTD/sodipodi-0.dtd"
   xmlns="http://www.w3.org/2000/svg"
   xmlns:svg="http://www.w3.org/2000/svg">
  <defs
     id="defs12" />
  <sodipodi:namedview
     id="namedview10"
     pagecolor="#ffffff"
     bordercolor="#666666"
     borderopacity="1.0"
     inkscape:showpageshadow="2"
     inkscape:pageopacity="0.0"
     inkscape:pagecheckerboard="0"
     inkscape:deskcolor="#d1d1d1"
     showgrid="false"
     inkscape:zoom="6.0074074"
     inkscape:cx="44.944513"
     inkscape:cy="53.017879"
     inkscape:window-width="1920"
     inkscape:window-height="1011"
     inkscape:window-x="0"
     inkscape:window-y="0"
     inkscape:window-maximized="1"
     inkscape:current-layer="svg8" />
  <path
     d="M 40,-10 C 15.207,-10 -5,10.207 -5,35 -5,59.793 15.207,80 40,80 64.793,80 85,59.793 85,35 85,28.3359 83.5391,22.004 80.9258,16.309 l -5.8242,5.8164 c -0.59375,0.59375 -1.2461,1.1289 -1.9375,1.6016 1.1953,3.5352 1.8438,7.3281 1.8438,11.273 0,19.391 -15.617,35.004 -35.008,35.004 -19.391,0 -35,-15.613 -35,-35.004 0,-19.391 15.609,-35 35,-35 3.9453,0 7.7383,0.64453 11.273,1.8398 0.47266,-0.69531 1.0078,-1.3477 1.6016,-1.9414 l 5.8242,-5.8203 C 52.9995,-8.5391 46.6637,-10 39.9997,-10 Z m 26.559,0.00391 c -0.65234,0.03125 -1.2695,0.30078 -1.7344,0.76953 l -10.535,10.535 c -2.4844,2.4844 -3.7227,5.9492 -3.375,9.4453 l 0.57031,5.7031 -9.7852,9.7812 c -0.55859,-0.10938 -1.125,-0.16406 -1.6914,-0.16406 -4.9297,0 -8.9297,3.9961 -8.9297,8.9297 0,4.9297 3.9961,8.9297 8.9297,8.9258 4.9297,0 8.9297,-3.9961 8.9297,-8.9258 0,-0.57031 -0.05469,-1.1367 -0.16406,-1.6953 l 9.7891,-9.7812 5.6953,0.56641 c 3.4961,0.34766 6.9609,-0.89062 9.4414,-3.3711 l 10.539,-10.539 c 1.5703,-1.5664 0.60938,-4.2539 -1.5977,-4.4727 l -12.133,-1.207 -1.207,-12.133 c -0.12891,-1.2852 -1.168,-2.2852 -2.4531,-2.3633 -0.09375,-0.00782 -0.1875,-0.00782 -0.28125,-0.00391 z M 40,8.483906 c -14.59,0 -26.523,11.926 -26.523,26.516 0,14.59 11.934,26.523 26.523,26.523 14.589,0 26.523,-11.934 26.523,-26.523 0,-3.1055 -0.53906,-6.0938 -1.5352,-8.8672 -0.3125,-0.0078 -0.62109,-0.02734 -0.92969,-0.05859 l -4.7617,-0.47266 -3.7539,3.7461 v 0.0039 c 0.63281,1.7578 0.97656,3.6602 0.97656,5.6484 0,9.1836 -7.3359,16.52 -16.523,16.52 -9.1836,0 -16.52,-7.3359 -16.52,-16.52 0,-9.1841 7.3359,-16.523 16.52,-16.523 1.9922,0 3.8945,0.34375 5.6602,0.98047 l 3.7461,-3.7383 -0.47656,-4.7695 c -0.03125,-0.30859 -0.05078,-0.62109 -0.05859,-0.93359 -2.7734,-0.99219 -5.7617,-1.5312 -8.8672,-1.5312 z"
     id="path2"
     style="fill:#ffffff" />
</svg>
