<?xml version="1.0" encoding="UTF-8" standalone="no"?>
<svg
   version="1.1"
   id="Calque_1"
   x="0px"
   y="0px"
   viewBox="0 0 242.797 116.308"
   xml:space="preserve"
   sodipodi:docname="sayenslogo.svg"
   inkscape:version="1.2.2 (b0a8486541, 2022-12-01)"
   xmlns:inkscape="http://www.inkscape.org/namespaces/inkscape"
   xmlns:sodipodi="http://sodipodi.sourceforge.net/DTD/sodipodi-0.dtd"
   xmlns:xlink="http://www.w3.org/1999/xlink"
   xmlns="http://www.w3.org/2000/svg"
   xmlns:svg="http://www.w3.org/2000/svg"><defs
     id="defs139" /><sodipodi:namedview
     id="namedview137"
     pagecolor="#ffffff"
     bordercolor="#666666"
     borderopacity="1.0"
     inkscape:showpageshadow="2"
     inkscape:pageopacity="0.0"
     inkscape:pagecheckerboard="0"
     inkscape:deskcolor="#d1d1d1"
     showgrid="false"
     inkscape:zoom="3.191967"
     inkscape:cx="121.55514"
     inkscape:cy="58.427922"
     inkscape:window-width="1920"
     inkscape:window-height="1011"
     inkscape:window-x="0"
     inkscape:window-y="0"
     inkscape:window-maximized="1"
     inkscape:current-layer="Calque_1" /><g
     id="g18"><defs
       id="defs3"><path
         id="SVGID_1_"
         d="M0 0h242.797v116.308H0z" /></defs><clipPath
       id="SVGID_2_"><use
         xlink:href="#SVGID_1_"
         overflow="visible"
         id="use5" /></clipPath><g
       clip-path="url(#SVGID_2_)"
       id="g16"><path
         fill="#616768"
         d="M57.07 41.697c13.44-29.138 47.955-41.864 77.093-28.425a58.1 58.1 0 0128.424 28.425h.96c-13.442-29.669-48.39-42.824-78.06-29.381a58.976 58.976 0 00-29.38 29.381h.963z"
         id="path8" /><path
         fill="#DE2509"
         d="M109.484 14.11a7.06 7.06 0 117.39-6.713v.004a7.06 7.06 0 01-7.39 6.71"
         id="path10" /><path
         fill="#616768"
         d="M93.082 14.091a4.136 4.136 0 11.005 0h-.005M126.165 14.091a4.136 4.136 0 114.332-3.93 4.133 4.133 0 01-4.326 3.93h-.006"
         id="path12" /><path
         fill="#00698A"
         d="M14.016 68.353l-1.1-.612c-2.5-1.4-4.75-2.858-4.9-5.21v-8.71c0-2.355.663-5.16 3.834-5.16 3.063 0 3.707 2.771 3.707 5.1v6.581h5.02v-6.649c0-5.9-3.508-9.864-8.726-9.864-5.54 0-8.981 3.827-8.981 9.988v8.9c.393 5.235 4.66 7.609 8.086 9.515l1.467.815c2.765 1.529 4.33 2.492 4.33 4.5v2.964c0 2.587-1.14 5.35-4.337 5.35a4.258 4.258 0 01-3.2-1.262 5.719 5.719 0 01-1.386-4.212v-5.19H2.744v5.185c-.115 2.78.89 5.49 2.789 7.524a9.556 9.556 0 006.887 2.722c5.686 0 9.357-3.97 9.357-10.117v-3.216c0-4.642-3.6-6.638-7.756-8.947M93.076 44.771c-.917 3.808-1.955 7.822-2.958 11.706a1168.77 1168.77 0 00-1.152 4.475l-1.7 7.916-1.661-7.888-4.339-16.9h-5.2l8.652 34.211V90.13H89.8V78.297l8.783-34.213h-5.344l-.163.687z"
         id="path14" /></g></g><path
     fill="#00698A"
     d="M6425.731 2524.883h17.137v-4.764h-11.992v-7.035h9.53v-4.7h-9.53v-24.772h11.992v-4.7h-17.137v45.971zM6476.851 2507.242l.066 1.2-.334-1.162-9.676-28.382h-4.7v45.983h5.144v-27.52l-.1-1.94.56 1.9 9.487 27.557h4.636v-45.983h-5.083v28.347z"
     transform="translate(-6309.012 -2434.755)"
     id="path20" /><g
     id="g32"><defs
       id="defs23"><path
         id="SVGID_3_"
         d="M0 0h242.797v116.308H0z" /></defs><clipPath
       id="SVGID_4_"><use
         xlink:href="#SVGID_3_"
         overflow="visible"
         id="use25" /></clipPath><g
       clip-path="url(#SVGID_4_)"
       id="g30"><path
         fill="#00698A"
         d="M204.483 68.353l-1.1-.612c-2.495-1.4-4.751-2.86-4.905-5.211v-8.71c0-2.354.667-5.159 3.833-5.159 3.065 0 3.71 2.771 3.71 5.1v6.581h5.02v-6.649c0-5.9-3.508-9.864-8.73-9.864-5.538 0-8.976 3.827-8.976 9.988v8.906c.392 5.233 4.659 7.607 8.09 9.513l1.46.815c2.769 1.529 4.332 2.492 4.332 4.5v2.964c0 2.587-1.14 5.35-4.336 5.35a4.256 4.256 0 01-3.2-1.262 5.733 5.733 0 01-1.389-4.212v-5.19h-5.084v5.185c-.115 2.78.889 5.49 2.788 7.524a9.562 9.562 0 006.888 2.722c5.685 0 9.357-3.97 9.357-10.117V77.3c0-4.642-3.593-6.638-7.756-8.947"
         id="path28" /></g></g><path
     fill="#00698A"
     d="M6356.059 2478.9l-7.1 45.983h5.17l2.338-15.6 1.632-10.753.683-5.665.35 2.886 1.492 10.066.387 2.433h-.026l2.519 16.634h5.105l-7.16-45.983h-5.39z"
     transform="translate(-6309.012 -2434.755)"
     id="path34" /><g
     id="g46"><defs
       id="defs37"><path
         id="SVGID_5_"
         d="M0 0h242.797v116.308H0z" /></defs><clipPath
       id="SVGID_6_"><use
         xlink:href="#SVGID_5_"
         overflow="visible"
         id="use39" /></clipPath><g
       clip-path="url(#SVGID_6_)"
       id="g44"><path
         fill="#DE2509"
         d="M52.022 77.692a2.217 2.217 0 110-.003v.003"
         id="path42" /></g></g><path
     fill="#616768"
     d="M6310.542 2529.09h241.183v.658h-241.183z"
     transform="translate(-6309.012 -2434.755)"
     id="path48" /><g
     id="g60"><defs
       id="defs51"><path
         id="SVGID_7_"
         d="M0 0h242.797v116.308H0z" /></defs><clipPath
       id="SVGID_8_"><use
         xlink:href="#SVGID_7_"
         overflow="visible"
         id="use53" /></clipPath><g
       clip-path="url(#SVGID_8_)"
       id="g58"><path
         fill="#00698A"
         d="M7.232 107.177H4.725v-2.114a.627.627 0 00-.128-.465.713.713 0 00-.474-.119H3.108a.726.726 0 00-.476.119.64.64 0 00-.128.465v8.848a.634.634 0 00.128.464c.14.094.308.136.476.119h1.015a.71.71 0 00.474-.119.62.62 0 00.128-.464v-2.071h2.507v2.331c0 1.424-.785 2.136-2.354 2.138H2.353c-1.57 0-2.354-.713-2.354-2.138v-9.37c0-1.423.785-2.135 2.354-2.136h2.525c1.568 0 2.352.712 2.354 2.136v2.376z"
         id="path56" /></g></g><path
     fill="#00698A"
     d="M6323.69 2539.818l1.187 6.518h-2.311l1.125-6.518zm-1.665-2.4l-2.738 13.621h2.483l.474-2.83h2.978l.518 2.83h2.5l-2.87-13.621h-3.345zM6330.685 2537.42v1.9h2.375v11.72h2.481v-11.72h2.4v-1.9h-7.256zM6344.779 2539.818l1.186 6.518h-2.306l1.12-6.518zm-1.662-2.4l-2.743 13.621h2.482l.476-2.83h2.98l.518 2.83h2.5l-2.869-13.621h-3.344zM6352.702 2537.42v13.622h6.107v-1.9h-3.626v-11.722h-2.48zM6367.23 2537.42l-1.749 6.994-1.855-6.994h-2.526l3.173 9.305v4.317h2.481v-4.383l3-9.24h-2.524z"
     transform="translate(-6309.012 -2434.755)"
     id="path62" /><g
     id="g74"><defs
       id="defs65"><path
         id="SVGID_9_"
         d="M0 0h242.797v116.308H0z" /></defs><clipPath
       id="SVGID_10_"><use
         xlink:href="#SVGID_9_"
         overflow="visible"
         id="use67" /></clipPath><g
       clip-path="url(#SVGID_10_)"
       id="g72"><path
         fill="#00698A"
         d="M68.32 113.804v-2.915a.638.638 0 00-.128-.462.72.72 0 00-.476-.119h-1.75a1.938 1.938 0 01-2.225-2.159v-3.345c0-1.423.78-2.136 2.332-2.136h2.377c1.552 0 2.33.712 2.33 2.136v1.9h-2.5v-1.552a.632.632 0 00-.13-.466.726.726 0 00-.477-.118h-.818a.766.766 0 00-.5.118.641.641 0 00-.129.466v2.74a.634.634 0 00.129.464.764.764 0 00.5.118h1.706c1.512 0 2.268.705 2.266 2.116v3.562c0 1.423-.784 2.135-2.352 2.136h-2.331c-1.57 0-2.354-.712-2.354-2.136v-1.88h2.484v1.533a.63.63 0 00.129.465c.145.096.32.138.494.119h.823a.72.72 0 00.476-.12.64.64 0 00.128-.464"
         id="path70" /></g></g><path
     fill="#00698A"
     d="M6383.783 2537.42v13.622h6.648v-1.9h-4.143v-4.124h3.342v-1.92h-3.342v-3.778h3.971v-1.9h-6.476z"
     transform="translate(-6309.012 -2434.755)"
     id="path76" /><g
     id="g88"><defs
       id="defs79"><path
         id="SVGID_11_"
         d="M0 0h242.797v116.308H0z" /></defs><clipPath
       id="SVGID_12_"><use
         xlink:href="#SVGID_11_"
         overflow="visible"
         id="use81" /></clipPath><g
       clip-path="url(#SVGID_12_)"
       fill="#00698A"
       id="g86"><path
         d="M89.84 102.665h2.481v11.485c0 1.423-.785 2.135-2.354 2.136h-2.632c-1.566 0-2.35-.712-2.352-2.136v-11.485h2.484v11.139a.625.625 0 00.13.465.7.7 0 00.472.119h1.145a.764.764 0 00.5-.119.64.64 0 00.128-.465l-.002-11.139zM99.007 104.565v4.575h1.792a.709.709 0 00.475-.118.629.629 0 00.129-.463v-3.41a.64.64 0 00-.13-.466.717.717 0 00-.474-.118h-1.792zm0 6.412v5.31h-2.481v-13.621h5.007c1.568 0 2.351.712 2.352 2.136v4.038a1.845 1.845 0 01-1.575 2.071l2.266 5.376h-2.67l-2.07-5.31h-.83zM118.744 113.889v-8.826a.621.621 0 00-.131-.465.707.707 0 00-.473-.119h-1.944v9.993h1.944a.7.7 0 00.473-.119.615.615 0 00.13-.464m-5.028-11.224h5.181c1.57 0 2.353.712 2.351 2.136v9.349c0 1.423-.784 2.135-2.351 2.136h-5.181v-13.621z"
         id="path84" /></g></g><path
     fill="#00698A"
     d="M6434.101 2537.42h2.657v1.555l-1.878 4.425h-.778v-5.98zM6440.816 2537.42h2.483v13.62h-2.483zM6452.924 2537.42v8.9l-2.871-8.9h-2.4v13.622h2.289v-9.024l2.914 9.024h2.33v-13.622h-2.262zM6464.712 2537.42v8.9l-2.873-8.9h-2.4v13.622h2.291v-9.024l2.914 9.024h2.33v-13.622h-2.262z"
     transform="translate(-6309.012 -2434.755)"
     id="path90" /><g
     id="g102"><defs
       id="defs93"><path
         id="SVGID_13_"
         d="M0 0h242.797v116.308H0z" /></defs><clipPath
       id="SVGID_14_"><use
         xlink:href="#SVGID_13_"
         overflow="visible"
         id="use95" /></clipPath><g
       clip-path="url(#SVGID_14_)"
       id="g100"><path
         fill="#00698A"
         d="M166.99 113.804v-8.655a.618.618 0 00-.132-.466.712.712 0 00-.474-.118h-1.14a.772.772 0 00-.5.118.63.63 0 00-.13.466v8.655a.63.63 0 00.13.465.764.764 0 00.5.119h1.14a.707.707 0 00.474-.119.617.617 0 00.132-.465m-2.507-11.139h2.635c1.569 0 2.353.712 2.354 2.136v9.35c0 1.422-.784 2.134-2.354 2.135h-2.635c-1.564 0-2.352-.713-2.352-2.136v-9.346c0-1.423.788-2.136 2.352-2.136"
         id="path98" /></g></g><path
     fill="#00698A"
     d="M6487.848 2537.42l-1.79 11.009-1.749-11.01h-2.569l2.7 13.623h3.26l2.7-13.622h-2.552zM6497.26 2539.818l1.187 6.518h-2.306l1.119-6.518zm-1.66-2.4l-2.742 13.621h2.48l.476-2.83h2.98l.518 2.83h2.5l-2.87-13.621h-3.342zM6504.254 2537.42v1.9h2.374v11.72h2.48v-11.72h2.4v-1.9h-7.254zM6514.94 2537.42h2.483v13.62h-2.483z"
     transform="translate(-6309.012 -2434.755)"
     id="path104" /><g
     id="g116"><defs
       id="defs107"><path
         id="SVGID_15_"
         d="M0 0h242.797v116.308H0z" /></defs><clipPath
       id="SVGID_16_"><use
         xlink:href="#SVGID_15_"
         overflow="visible"
         id="use109" /></clipPath><g
       clip-path="url(#SVGID_16_)"
       id="g114"><path
         fill="#00698A"
         d="M217.543 113.804v-8.655a.626.626 0 00-.13-.466.72.72 0 00-.476-.118h-1.143a.769.769 0 00-.5.118.637.637 0 00-.129.466v8.655a.637.637 0 00.129.465.762.762 0 00.5.119h1.143a.712.712 0 00.475-.119.626.626 0 00.131-.465m-2.507-11.139h2.635c1.568 0 2.352.712 2.352 2.136v9.35c0 1.422-.784 2.134-2.352 2.135h-2.635c-1.567 0-2.35-.712-2.352-2.136v-9.346c0-1.423.784-2.135 2.352-2.136"
         id="path112" /></g></g><path
     fill="#00698A"
     d="M6538.467 2537.42v8.9l-2.872-8.9h-2.394v13.622h2.287v-9.024l2.916 9.024h2.33v-13.622h-2.267z"
     transform="translate(-6309.012 -2434.755)"
     id="path118" /><g
     id="g132"><defs
       id="defs121"><path
         id="SVGID_17_"
         d="M0 0h242.797v116.308H0z" /></defs><clipPath
       id="SVGID_18_"><use
         xlink:href="#SVGID_17_"
         overflow="visible"
         id="use123" /></clipPath><g
       clip-path="url(#SVGID_18_)"
       id="g130"><path
         fill="#00698A"
         d="M240.292 113.804v-2.915a.615.615 0 00-.13-.462.7.7 0 00-.472-.119h-1.75a1.937 1.937 0 01-2.224-2.159v-3.345c0-1.423.777-2.135 2.332-2.136h2.373c1.555 0 2.333.712 2.333 2.136v1.9h-2.5v-1.552a.633.633 0 00-.13-.466.718.718 0 00-.473-.118h-.824a.757.757 0 00-.495.118.628.628 0 00-.13.466v2.74a.62.62 0 00.13.464.755.755 0 00.495.118h1.707c1.508 0 2.264.705 2.267 2.116v3.562c0 1.423-.784 2.135-2.353 2.136h-2.332c-1.568 0-2.351-.712-2.352-2.136v-1.88h2.474v1.533a.617.617 0 00.132.465c.147.098.324.14.5.119h.821a.7.7 0 00.473-.12.62.62 0 00.13-.464"
         id="path126" /><path
         fill="#616768"
         d="M220.153 88.506v-1.943a.421.421 0 00-.086-.31.476.476 0 00-.318-.08h-1.161a1.29 1.29 0 01-1.483-1.437v-2.23c0-.947.517-1.422 1.553-1.423h1.582c1.036 0 1.554.474 1.552 1.424v1.266h-1.667v-1.036a.428.428 0 00-.085-.31.482.482 0 00-.319-.078h-.546a.499.499 0 00-.328.079.422.422 0 00-.088.309v1.827a.422.422 0 00.088.309.5.5 0 00.328.08h1.137c1.007 0 1.51.47 1.508 1.407v2.373c0 .948-.522 1.423-1.565 1.424h-1.551c-1.044 0-1.566-.474-1.567-1.424v-1.252h1.654v1.022a.418.418 0 00.085.31.504.504 0 00.332.077h.542a.48.48 0 00.318-.078.426.426 0 00.086-.309"
         id="path128" /></g></g><path
     fill="#616768"
     d="M6535.077 2521.78h1.538l-.792-4.344-.746 4.343zm2.113 3.133l-.347-1.884h-1.982l-.314 1.884h-1.655l1.825-9.074h2.23l1.911 9.074h-1.668zM6545.312 2515.84v1.266h-1.594v7.808h-1.655v-7.808h-1.58v-1.266h4.829zM6546.894 2515.84v1.266h1.58v7.808h1.654v-7.808h1.6v-1.266h-4.834zM6526.118 2511.172h25.608v.675h-25.608z"
     transform="translate(-6309.012 -2434.755)"
     id="path134" /></svg>
