<?xml version="1.0" encoding="UTF-8" standalone="no"?>
<!-- Created with Inkscape (http://www.inkscape.org/) -->

<svg
   width="110.56454mm"
   height="26.978956mm"
   viewBox="0 0 110.56454 26.978956"
   version="1.1"
   id="svg5"
   xml:space="preserve"
   inkscape:version="1.2.2 (b0a8486541, 2022-12-01)"
   sodipodi:docname="tso.svg"
   xmlns:inkscape="http://www.inkscape.org/namespaces/inkscape"
   xmlns:sodipodi="http://sodipodi.sourceforge.net/DTD/sodipodi-0.dtd"
   xmlns="http://www.w3.org/2000/svg"
   xmlns:svg="http://www.w3.org/2000/svg"><sodipodi:namedview
     id="namedview7"
     pagecolor="#ffffff"
     bordercolor="#666666"
     borderopacity="1.0"
     inkscape:showpageshadow="2"
     inkscape:pageopacity="0.0"
     inkscape:pagecheckerboard="0"
     inkscape:deskcolor="#d1d1d1"
     inkscape:document-units="mm"
     showgrid="false"
     inkscape:zoom="0.72248176"
     inkscape:cx="188.24005"
     inkscape:cy="-40.831481"
     inkscape:window-width="1920"
     inkscape:window-height="1011"
     inkscape:window-x="0"
     inkscape:window-y="0"
     inkscape:window-maximized="1"
     inkscape:current-layer="layer1" /><defs
     id="defs2" /><g
     inkscape:label="Calque 1"
     inkscape:groupmode="layer"
     id="layer1"
     transform="translate(-52.220955,-160.31276)"><g
       id="g302"
       transform="translate(-8.9364933,60.815934)"><path
         style="fill:#fdfbf1;stroke-width:0.0846667"
         d="m 88.207412,112.99149 c 10e-7,-7.35753 0.01,-10.35491 0.0222,-6.66083 0.01221,3.69407 0.01221,9.71387 -4e-6,13.37733 -0.01221,3.66346 -0.0222,0.64104 -0.02219,-6.7165 z m -6.729963,-0.127 c -0.04984,-0.0931 -0.07157,-0.16933 -0.04829,-0.16933 0.02328,0 0.08311,0.0762 0.132958,0.16933 0.04984,0.0931 0.07157,0.16934 0.04829,0.16934 -0.02328,0 -0.08311,-0.0762 -0.132958,-0.16934 z m -1.280801,-2.01083 c -0.105314,-0.13429 -0.102319,-0.13728 0.03197,-0.032 0.08149,0.0639 0.148167,0.13059 0.148167,0.14817 0,0.0697 -0.06953,0.0248 -0.180134,-0.1162 z m -0.254,-0.33867 c -0.105314,-0.13428 -0.102319,-0.13728 0.03197,-0.032 0.08149,0.0639 0.148167,0.13058 0.148167,0.14816 0,0.0697 -0.06953,0.0248 -0.180134,-0.1162 z m -0.378244,-0.46566 -0.161289,-0.1905 0.1905,0.16129 c 0.179023,0.15157 0.229044,0.21971 0.161289,0.21971 -0.01607,0 -0.101791,-0.0857 -0.1905,-0.1905 z m -1.009721,-1.10067 -0.760234,-0.78317 0.783166,0.76024 c 0.430742,0.41813 0.783167,0.77055 0.783167,0.78316 0,0.0615 -0.10001,-0.0328 -0.806099,-0.76023 z m -1.106945,-1.016 -0.16129,-0.1905 0.1905,0.16129 c 0.179023,0.15157 0.229044,0.21971 0.16129,0.21971 -0.01607,0 -0.101792,-0.0857 -0.1905,-0.1905 z m -0.468423,-0.381 c -0.105314,-0.13429 -0.10232,-0.13728 0.03197,-0.032 0.141033,0.11061 0.185884,0.18014 0.1162,0.18014 -0.01758,0 -0.08426,-0.0667 -0.148167,-0.14817 z m -0.338667,-0.254 c -0.105314,-0.13429 -0.102319,-0.13728 0.03197,-0.032 0.141034,0.11061 0.185884,0.18014 0.1162,0.18014 -0.01758,0 -0.08426,-0.0667 -0.148167,-0.14817 z m -11.435075,-4.397 c 0.06112,-0.0245 0.134144,-0.0215 0.162278,0.007 0.02813,0.0281 -0.02187,0.0481 -0.111125,0.0445 -0.09863,-0.004 -0.118694,-0.0241 -0.05115,-0.0511 z"
         id="path418" /><path
         style="fill:#f3f5f8;stroke-width:0.0846667"
         d="m 139.47412,124.17786 c 0,-0.0176 0.0667,-0.0843 0.14816,-0.14817 0.13429,-0.10531 0.13728,-0.10232 0.032,0.032 -0.11061,0.14103 -0.18013,0.18588 -0.18013,0.1162 z m -18.21414,-0.45487 c -0.10531,-0.13428 -0.10232,-0.13728 0.032,-0.032 0.14103,0.1106 0.18588,0.18013 0.1162,0.18013 -0.0176,0 -0.0843,-0.0667 -0.14817,-0.14817 z m 26.37643,-0.381 -0.16129,-0.1905 0.1905,0.16129 c 0.10477,0.0887 0.1905,0.17444 0.1905,0.1905 0,0.0678 -0.0681,0.0177 -0.21971,-0.16129 z m -26.924,-0.0847 -0.16129,-0.1905 0.1905,0.16129 c 0.10477,0.0887 0.1905,0.17443 0.1905,0.1905 0,0.0677 -0.0681,0.0177 -0.21971,-0.16129 z m 46.78637,0.0739 c 0,-0.0176 0.0667,-0.0843 0.14817,-0.14816 0.13429,-0.10532 0.13728,-0.10232 0.032,0.032 -0.11061,0.14104 -0.18014,0.18589 -0.18014,0.1162 z m -26.83933,-0.33866 c 0,-0.0176 0.0667,-0.0843 0.14817,-0.14817 0.13428,-0.10531 0.13728,-0.10232 0.032,0.032 -0.1106,0.14103 -0.18013,0.18588 -0.18013,0.1162 z m 6.16986,-0.3702 c -0.1053,-0.13429 -0.10232,-0.13728 0.032,-0.032 0.14103,0.11061 0.18589,0.18013 0.1162,0.18013 -0.0176,0 -0.0843,-0.0667 -0.14817,-0.14816 z m 21.98181,-0.61384 c 0.0843,-0.0931 0.17229,-0.16933 0.19558,-0.16933 0.0233,0 -0.0266,0.0762 -0.11092,0.16933 -0.0843,0.0931 -0.17229,0.16934 -0.19558,0.16934 -0.0233,0 0.0266,-0.0762 0.11092,-0.16934 z m -49.31165,-0.0494 c 0.004,-0.0986 0.0241,-0.1187 0.0511,-0.0512 0.0245,0.0611 0.0215,0.13415 -0.007,0.16228 -0.0281,0.0281 -0.0482,-0.0219 -0.0445,-0.11112 z m 26.65251,-0.0988 c -0.10531,-0.13429 -0.10232,-0.13728 0.032,-0.032 0.14103,0.11061 0.18589,0.18013 0.1162,0.18013 -0.0176,0 -0.0842,-0.0667 -0.14817,-0.14816 z m -26.57453,-0.1378 c 0,-0.0176 0.0667,-0.0843 0.14817,-0.14817 0.13428,-0.10531 0.13728,-0.10232 0.032,0.032 -0.1106,0.14103 -0.18013,0.18588 -0.18013,0.1162 z m 0.635,-0.73004 c 0.0843,-0.0931 0.17229,-0.16933 0.19558,-0.16933 0.0233,0 -0.0266,0.0762 -0.11091,0.16933 -0.0843,0.0931 -0.1723,0.16934 -0.19558,0.16934 -0.0233,0 0.0266,-0.0762 0.11091,-0.16934 z m 0.59267,-0.67733 c 0.0843,-0.0931 0.17229,-0.16933 0.19557,-0.16933 0.0233,0 -0.0266,0.0762 -0.11091,0.16933 -0.0843,0.0931 -0.17229,0.16933 -0.19558,0.16933 -0.0233,0 0.0266,-0.0762 0.11092,-0.16933 z m 10.01335,-0.23069 c 0.15217,-0.0189 0.38077,-0.0185 0.508,8.6e-4 0.12722,0.0193 0.003,0.0347 -0.27669,0.0343 -0.2794,-5.1e-4 -0.38349,-0.0163 -0.23131,-0.0351 z m -1.35089,-0.0811 c 0.0611,-0.0245 0.13414,-0.0215 0.16227,0.007 0.0281,0.0281 -0.0219,0.0481 -0.11112,0.0445 -0.0986,-0.004 -0.1187,-0.0241 -0.0512,-0.0511 z m 27.34204,-0.0829 c 0.0582,-0.0235 0.15346,-0.0235 0.21166,0 0.0582,0.0235 0.0106,0.0427 -0.10583,0.0427 -0.11642,0 -0.16404,-0.0192 -0.10583,-0.0427 z m 1.44462,-0.002 c 0.0611,-0.0245 0.13415,-0.0215 0.16228,0.007 0.0281,0.0281 -0.0219,0.0481 -0.11112,0.0445 -0.0986,-0.004 -0.1187,-0.0241 -0.0512,-0.0511 z m -36.94112,-0.19617 c 0.0843,-0.0931 0.17229,-0.16933 0.19557,-0.16933 0.0233,0 -0.0266,0.0762 -0.11091,0.16933 -0.0843,0.0931 -0.17229,0.16934 -0.19558,0.16934 -0.0233,0 0.0266,-0.0762 0.11092,-0.16934 z m 12.827,-0.36516 c 0,-0.0146 0.12382,-0.13839 0.27516,-0.27516 l 0.27517,-0.24868 -0.24867,0.27517 c -0.2318,0.25649 -0.30166,0.31408 -0.30166,0.24867 z m -12.23434,-0.31217 c 0.0843,-0.0931 0.1723,-0.16933 0.19558,-0.16933 0.0233,0 -0.0266,0.0762 -0.11091,0.16933 -0.0843,0.0931 -0.1723,0.16933 -0.19558,0.16933 -0.0233,0 0.0266,-0.0762 0.11091,-0.16933 z m 0.508,-0.59267 c 0.0843,-0.0931 0.1723,-0.16933 0.19558,-0.16933 0.0233,0 -0.0266,0.0762 -0.11091,0.16933 -0.0843,0.0931 -0.1723,0.16934 -0.19558,0.16934 -0.0233,0 0.0266,-0.0762 0.11091,-0.16934 z m 30.68087,-0.0635 c -0.10531,-0.13428 -0.10232,-0.13728 0.032,-0.032 0.14103,0.1106 0.18588,0.18013 0.11619,0.18013 -0.0176,0 -0.0842,-0.0667 -0.14816,-0.14817 z m -18.26069,-0.3175 c 0.002,-0.1397 0.0207,-0.1866 0.0422,-0.10422 0.0215,0.0824 0.0201,0.19668 -0.003,0.254 -0.0232,0.0573 -0.0408,-0.0101 -0.039,-0.14978 z m -10.18731,-0.0212 c -0.10531,-0.13429 -0.10232,-0.13728 0.032,-0.032 0.14103,0.11061 0.18588,0.18013 0.1162,0.18013 -0.0176,0 -0.0843,-0.0667 -0.14817,-0.14816 z m -53.086002,-0.16934 c -0.105314,-0.13428 -0.102319,-0.13728 0.03197,-0.032 0.08149,0.0639 0.148167,0.13058 0.148167,0.14816 0,0.0697 -0.06953,0.0248 -0.180134,-0.1162 z m 51.445802,-0.10583 c 0.0843,-0.0931 0.17229,-0.16933 0.19558,-0.16933 0.0233,0 -0.0266,0.0762 -0.11091,0.16933 -0.0843,0.0931 -0.1723,0.16933 -0.19558,0.16933 -0.0233,0 0.0266,-0.0762 0.11091,-0.16933 z m 1.17729,-0.10583 -0.16129,-0.1905 0.1905,0.16129 c 0.10477,0.0887 0.1905,0.17443 0.1905,0.1905 0,0.0678 -0.0681,0.0177 -0.21971,-0.16129 z m 28.23357,0.0423 c -0.1053,-0.13429 -0.10232,-0.13728 0.032,-0.032 0.14103,0.11061 0.18589,0.18014 0.1162,0.18014 -0.0176,0 -0.0842,-0.0667 -0.14817,-0.14817 z m 10.25547,0.0315 c 0,-0.0176 0.0667,-0.0842 0.14817,-0.14816 0.13429,-0.10532 0.13728,-0.10232 0.032,0.032 -0.11061,0.14104 -0.18014,0.18589 -0.18014,0.1162 z m -92.119778,-0.79353 -0.547887,-0.5715 0.5715,0.54789 c 0.530834,0.5089 0.610204,0.59511 0.547887,0.59511 -0.01299,0 -0.270162,-0.25717 -0.5715,-0.5715 z m 63.834708,0.0847 -0.20526,-0.23284 0.23283,0.20526 c 0.12806,0.11289 0.23284,0.21767 0.23284,0.23284 0,0.0664 -0.0686,0.0123 -0.26041,-0.20526 z m 7.88709,-0.0706 c 0.004,-0.0986 0.0241,-0.11869 0.0512,-0.0511 0.0245,0.0611 0.0214,0.13414 -0.007,0.16228 -0.0281,0.0281 -0.0481,-0.0219 -0.0445,-0.11113 z m -72.661485,-1.03011 c -0.105314,-0.13429 -0.102319,-0.13728 0.03197,-0.032 0.08149,0.0639 0.148166,0.13059 0.148166,0.14817 0,0.0697 -0.06953,0.0248 -0.180133,-0.1162 z m 60.785595,-0.079 c 0.0611,-0.0245 0.13414,-0.0215 0.16228,0.007 0.0281,0.0281 -0.0219,0.0481 -0.11113,0.0445 -0.0986,-0.004 -0.11869,-0.0241 -0.0512,-0.0512 z m 12.89189,-1.34622 c 0.004,-0.0986 0.0241,-0.1187 0.0512,-0.0511 0.0245,0.0611 0.0215,0.13414 -0.007,0.16227 -0.0281,0.0281 -0.0481,-0.0219 -0.0445,-0.11112 z m 7.55871,-1.51695 c 0,-0.4191 0.014,-0.60122 0.0318,-0.40472 0.0178,0.19651 0.018,0.53941 8.4e-4,0.762 -0.0175,0.2226 -0.032,0.0618 -0.0323,-0.35728 z m -10.65838,-0.23283 -0.50535,-0.52917 0.52917,0.50535 c 0.29104,0.27795 0.52917,0.51607 0.52917,0.52917 0,0.0626 -0.0836,-0.0138 -0.55299,-0.50535 z m 24.11167,0.23283 c 9.4e-4,-0.18626 0.0183,-0.25249 0.0385,-0.14718 0.0203,0.10532 0.0195,0.25772 -0.002,0.33867 -0.0212,0.081 -0.0378,-0.005 -0.0368,-0.19149 z m -21.012,-1.53105 c 0.004,-0.0986 0.0241,-0.1187 0.0512,-0.0512 0.0245,0.0611 0.0215,0.13414 -0.007,0.16227 -0.0281,0.0281 -0.0481,-0.0219 -0.0445,-0.11112 z m -23.02265,-3.08328 c 0,-0.11642 0.0192,-0.16404 0.0427,-0.10583 0.0235,0.0582 0.0235,0.15346 0,0.21166 -0.0235,0.0582 -0.0427,0.0106 -0.0427,-0.10583 z m 42.4785,-0.14817 c -0.10531,-0.13428 -0.10232,-0.13728 0.032,-0.032 0.14103,0.1106 0.18588,0.18013 0.11619,0.18013 -0.0176,0 -0.0842,-0.0667 -0.14816,-0.14817 z m -9.6412,-0.6458 c 0,-0.0176 0.0667,-0.0842 0.14817,-0.14816 0.13429,-0.10532 0.13728,-0.10232 0.032,0.032 -0.11061,0.14104 -0.18014,0.18589 -0.18014,0.1162 z m 8.79453,-0.20086 c -0.10531,-0.13429 -0.10232,-0.13728 0.032,-0.032 0.14103,0.11061 0.18589,0.18013 0.1162,0.18013 -0.0176,0 -0.0842,-0.0667 -0.14817,-0.14816 z m -24.71186,0.0315 c 0,-0.0176 0.0667,-0.0843 0.14816,-0.14817 0.13429,-0.10531 0.13728,-0.10232 0.032,0.032 -0.11061,0.14103 -0.18013,0.18588 -0.18013,0.1162 z m -16.92665,-0.69476 c 0.004,-0.0986 0.0241,-0.11869 0.0511,-0.0511 0.0245,0.0611 0.0215,0.13415 -0.007,0.16228 -0.0281,0.0281 -0.0482,-0.0219 -0.0445,-0.11113 z m 7.95198,-0.16227 c 0.10937,-0.11642 0.2179,-0.21167 0.24118,-0.21167 0.0233,0 -0.0472,0.0952 -0.15651,0.21167 -0.10937,0.11641 -0.2179,0.21166 -0.24119,0.21166 -0.0233,0 0.0472,-0.0952 0.15652,-0.21166 z m -29.315834,-0.19041 c 0.989542,-0.0136 2.608794,-0.0136 3.598334,0 0.98954,0.0135 0.17992,0.0246 -1.79917,0.0246 -1.979081,0 -2.788706,-0.0111 -1.799164,-0.0246 z m 14.647334,0 c 0.98954,-0.0136 2.60879,-0.0136 3.59833,0 0.98954,0.0135 0.17992,0.0246 -1.79916,0.0246 -1.97909,0 -2.78871,-0.0111 -1.79917,-0.0246 z m 24.5745,-0.13789 c 0,-0.0176 0.0667,-0.0843 0.14817,-0.14817 0.13428,-0.10531 0.13728,-0.10232 0.032,0.032 -0.1106,0.14103 -0.18013,0.18588 -0.18013,0.1162 z m -5.94254,-0.44921 c 0.0611,-0.0245 0.13414,-0.0215 0.16228,0.007 0.0281,0.0281 -0.0219,0.0481 -0.11113,0.0445 -0.0986,-0.004 -0.11869,-0.0241 -0.0512,-0.0512 z m 13.81654,-1.41346 c 0,-0.0176 0.0667,-0.0843 0.14817,-0.14817 0.13429,-0.10531 0.13728,-0.10232 0.032,0.032 -0.11061,0.14103 -0.18014,0.18588 -0.18014,0.1162 z m -6.35,-0.0847 c 0,-0.0176 0.0667,-0.0842 0.14817,-0.14816 0.13428,-0.10532 0.13728,-0.10232 0.032,0.032 -0.1106,0.14104 -0.18013,0.18589 -0.18013,0.1162 z m 29.07496,-0.41253 -0.16129,-0.1905 0.1905,0.16129 c 0.17902,0.15157 0.22904,0.21971 0.16129,0.21971 -0.0161,0 -0.1018,-0.0857 -0.1905,-0.1905 z m -21.79363,-0.52917 c 0.25294,-0.25611 0.47894,-0.46566 0.50222,-0.46566 0.0233,0 -0.16462,0.20955 -0.41755,0.46566 -0.25293,0.25612 -0.47893,0.46567 -0.50222,0.46567 -0.0233,0 0.16462,-0.20955 0.41755,-0.46567 z m 20.73693,-0.52916 -0.20526,-0.23284 0.23283,0.20526 c 0.12806,0.11289 0.23284,0.21767 0.23284,0.23284 0,0.0664 -0.0686,0.0123 -0.26041,-0.20526 z m -45.62893,-0.0477 c 0,-0.0146 0.12383,-0.1384 0.27517,-0.27517 l 0.27517,-0.24867 -0.24868,0.27516 c -0.2318,0.2565 -0.30166,0.31409 -0.30166,0.24868 z m 25.654,-0.0901 c 0,-0.0176 0.0667,-0.0843 0.14817,-0.14817 0.13429,-0.10531 0.13728,-0.10232 0.032,0.032 -0.11061,0.14103 -0.18014,0.18588 -0.18014,0.1162 z m 19.46253,-0.28554 c -0.1053,-0.13428 -0.10232,-0.13728 0.032,-0.032 0.14103,0.1106 0.18589,0.18013 0.1162,0.18013 -0.0176,0 -0.0842,-0.0667 -0.14817,-0.14817 z"
         id="path416" /><path
         style="fill:#fdf8e7;stroke-width:0.0846667"
         d="m 79.434648,109.83766 c -0.105314,-0.13429 -0.102319,-0.13728 0.03197,-0.032 0.141034,0.11061 0.185884,0.18014 0.1162,0.18014 -0.01758,0 -0.08426,-0.0667 -0.148167,-0.14817 z m -0.842275,-0.93133 -0.205258,-0.23284 0.232834,0.20526 c 0.217617,0.19185 0.27166,0.26041 0.205258,0.26041 -0.01517,0 -0.119941,-0.10477 -0.232834,-0.23283 z m -0.935725,-0.84667 c -0.105314,-0.13429 -0.102319,-0.13728 0.03197,-0.032 0.141034,0.11061 0.185884,0.18014 0.1162,0.18014 -0.01758,0 -0.08426,-0.0667 -0.148167,-0.14817 z"
         id="path414" /><path
         style="fill:#f0f2f6;stroke-width:0.0846667"
         d="m 111.74436,115.99716 c 0,-5.28532 0.0102,-7.44749 0.0226,-4.80483 0.0124,2.64266 0.0124,6.96701 0,9.60966 -0.0124,2.64266 -0.0226,0.48049 -0.0226,-4.80483 z m 8.66896,6.96383 c -0.10532,-0.13428 -0.10232,-0.13728 0.032,-0.032 0.14104,0.1106 0.18589,0.18013 0.1162,0.18013 -0.0176,0 -0.0842,-0.0667 -0.14816,-0.14817 z m 47.33946,0.1162 c 0,-0.0176 0.0667,-0.0842 0.14817,-0.14816 0.13429,-0.10532 0.13728,-0.10232 0.032,0.032 -0.11061,0.14104 -0.18014,0.18589 -0.18014,0.1162 z m -37.35387,-2.9892 c 0.0611,-0.0245 0.13414,-0.0215 0.16228,0.007 0.0281,0.0281 -0.0219,0.0482 -0.11113,0.0445 -0.0986,-0.004 -0.11869,-0.0241 -0.0512,-0.0511 z m 31.85054,-1.8368 c 0,-0.0176 0.0667,-0.0842 0.14817,-0.14816 0.13429,-0.10532 0.13728,-0.10232 0.032,0.032 -0.11061,0.14104 -0.18014,0.18589 -0.18014,0.1162 z m 2.04537,-4.79403 c 0,-0.11642 0.0192,-0.16404 0.0427,-0.10583 0.0235,0.0582 0.0235,0.15346 0,0.21166 -0.0235,0.0582 -0.0427,0.0106 -0.0427,-0.10583 z m 0,-0.93133 c 0,-0.11642 0.0192,-0.16404 0.0427,-0.10584 0.0235,0.0582 0.0235,0.15346 0,0.21167 -0.0235,0.0582 -0.0427,0.0106 -0.0427,-0.10583 z M 127.7968,107.4811 c 0.004,-0.0986 0.0241,-0.11869 0.0511,-0.0511 0.0245,0.0611 0.0215,0.13415 -0.007,0.16228 -0.0281,0.0281 -0.0481,-0.0219 -0.0445,-0.11113 z m 40.41766,-4.12044 -0.33468,-0.35983 0.35984,0.33468 c 0.19791,0.18408 0.35983,0.346 0.35983,0.35983 0,0.0641 -0.0737,-4e-5 -0.38499,-0.33468 z"
         id="path412" /><path
         style="fill:#e9edf3;stroke-width:0.0846667"
         d="m 106.31162,125.83974 c 0.96938,-0.0136 2.53148,-0.0136 3.47133,4e-5 0.93986,0.0136 0.14673,0.0247 -1.7625,0.0247 -1.90923,-3e-5 -2.67821,-0.0112 -1.70883,-0.0248 z m 33.83983,-2.34958 c 0.15797,-0.16298 0.30627,-0.29633 0.32955,-0.29633 0.0233,0 -0.0869,0.13335 -0.24488,0.29633 -0.15797,0.16298 -0.30627,0.29633 -0.32955,0.29633 -0.0233,0 0.0869,-0.13335 0.24488,-0.29633 z m 6.97696,-0.65617 -0.16129,-0.1905 0.1905,0.16129 c 0.10477,0.0887 0.1905,0.17444 0.1905,0.1905 0,0.0678 -0.0681,0.0177 -0.21971,-0.16129 z m -27.21685,-0.381 -0.29178,-0.3175 0.3175,0.29178 c 0.29553,0.27158 0.35643,0.34322 0.29178,0.34322 -0.0142,0 -0.15702,-0.14287 -0.3175,-0.3175 z m 48.17989,0.28554 c 0,-0.0176 0.0667,-0.0843 0.14817,-0.14817 0.13429,-0.10531 0.13728,-0.10232 0.032,0.032 -0.11061,0.14103 -0.18014,0.18588 -0.18014,0.1162 z m -21.47104,-0.41254 -0.16129,-0.1905 0.1905,0.16129 c 0.10477,0.0887 0.1905,0.17444 0.1905,0.1905 0,0.0678 -0.0681,0.0177 -0.21971,-0.16129 z m -16.64483,-2.238 c 0.0611,-0.0245 0.13414,-0.0215 0.16227,0.007 0.0281,0.0281 -0.0219,0.0482 -0.11112,0.0445 -0.0986,-0.004 -0.1187,-0.0241 -0.0511,-0.0511 z m 22.74355,-1.99533 -0.24868,-0.27517 0.27517,0.24868 c 0.2565,0.2318 0.31409,0.30166 0.24867,0.30166 -0.0146,0 -0.13839,-0.12383 -0.27516,-0.27517 z m -28.83448,-0.635 c -0.10531,-0.13429 -0.10232,-0.13728 0.032,-0.032 0.14103,0.11061 0.18588,0.18014 0.1162,0.18014 -0.0176,0 -0.0843,-0.0667 -0.14817,-0.14817 z m 19.40615,-3.45722 c 0.004,-0.0986 0.0241,-0.1187 0.0512,-0.0511 0.0245,0.0611 0.0215,0.13414 -0.007,0.16227 -0.0281,0.0281 -0.0481,-0.0219 -0.0445,-0.11112 z m -21.00857,-1.03011 -0.29178,-0.3175 0.3175,0.29177 c 0.29552,0.27158 0.35643,0.34323 0.29178,0.34323 -0.0142,0 -0.15703,-0.14288 -0.3175,-0.3175 z m 42.0059,-0.83256 c 0.004,-0.0986 0.0241,-0.11869 0.0512,-0.0512 0.0245,0.0611 0.0214,0.13414 -0.007,0.16228 -0.0281,0.0281 -0.0482,-0.0219 -0.0445,-0.11113 z m -20.99064,-0.11994 c 0,-0.11642 0.0192,-0.16404 0.0427,-0.10584 0.0235,0.0582 0.0235,0.15346 0,0.21167 -0.0235,0.0582 -0.0427,0.0106 -0.0427,-0.10583 z m -15.17951,-3.53484 c -0.10531,-0.13428 -0.10232,-0.13728 0.032,-0.032 0.14103,0.1106 0.18588,0.18013 0.1162,0.18013 -0.0176,0 -0.0843,-0.0667 -0.14817,-0.14817 z m 24.31014,-0.30713 c 0,-0.0176 0.0667,-0.0843 0.14816,-0.14817 0.13429,-0.10531 0.13728,-0.10232 0.032,0.032 -0.1106,0.14103 -0.18013,0.18588 -0.18013,0.1162 z m -32.14797,-0.64537 c 0,-0.25611 0.0159,-0.36089 0.0353,-0.23283 0.0194,0.12806 0.0194,0.33761 0,0.46567 -0.0194,0.12806 -0.0353,0.0233 -0.0353,-0.23284 z m -23.440082,-4.318 c 0,-1.55998 0.01143,-2.19815 0.0254,-1.41816 0.01397,0.77999 0.01397,2.05634 0,2.83633 -0.01397,0.77999 -0.0254,0.14182 -0.0254,-1.41817 z m 22.352002,0 c 0,-1.55998 0.0114,-2.19815 0.0254,-1.41816 0.014,0.77999 0.014,2.05634 0,2.83633 -0.014,0.77999 -0.0254,0.14182 -0.0254,-1.41817 z m 38.12366,2.7329 c 0.1503,-0.0187 0.417,-0.019 0.59267,-6.9e-4 0.17566,0.0183 0.0527,0.0336 -0.27328,0.034 -0.32597,3.7e-4 -0.46969,-0.0146 -0.31939,-0.0333 z m -26.37178,-0.25354 c 0.12806,-0.0194 0.33761,-0.0194 0.46567,0 0.12806,0.0194 0.0233,0.0353 -0.23284,0.0353 -0.25611,0 -0.36089,-0.0159 -0.23283,-0.0353 z"
         id="path410" /><path
         style="fill:#fcf4d8;stroke-width:0.0846667"
         d="m 79.059122,109.37199 -0.248673,-0.27516 0.275166,0.24867 c 0.256494,0.2318 0.314084,0.30166 0.248674,0.30166 -0.01457,0 -0.138396,-0.12382 -0.275167,-0.27517 z m -0.931333,-0.93133 -0.248674,-0.27517 0.275167,0.24868 c 0.256494,0.2318 0.314084,0.30166 0.248673,0.30166 -0.01457,0 -0.138396,-0.12383 -0.275166,-0.27517 z m -0.725141,-0.635 c -0.105314,-0.13429 -0.102319,-0.13728 0.03197,-0.032 0.141034,0.11061 0.185884,0.18014 0.1162,0.18014 -0.01758,0 -0.08426,-0.0667 -0.148167,-0.14817 z"
         id="path408" /><path
         style="fill:#e3e8f0;stroke-width:0.0846667"
         d="m 104.29369,115.99716 c 0,-5.28532 0.0102,-7.44749 0.0226,-4.80483 0.0124,2.64266 0.0124,6.96701 0,9.60966 -0.0124,2.64266 -0.0226,0.48049 -0.0226,-4.80483 z m 53.15093,4.00564 c 0.0815,-0.0213 0.21484,-0.0213 0.29633,0 0.0815,0.0213 0.0148,0.0387 -0.14817,0.0387 -0.16298,0 -0.22965,-0.0174 -0.14816,-0.0387 z m -23.13517,-0.73561 c 0,-0.0176 0.0667,-0.0842 0.14817,-0.14816 0.13428,-0.10532 0.13728,-0.10232 0.032,0.032 -0.1106,0.14104 -0.18013,0.18589 -0.18013,0.1162 z m 7.96535,-0.61009 c 0.004,-0.0986 0.0241,-0.11869 0.0512,-0.0511 0.0245,0.0611 0.0214,0.13415 -0.007,0.16228 -0.0281,0.0281 -0.0481,-0.0219 -0.0445,-0.11113 z m 0.007,-1.05127 c 0,-0.11642 0.0192,-0.16404 0.0427,-0.10584 0.0235,0.0582 0.0235,0.15346 0,0.21167 -0.0235,0.0582 -0.0427,0.0106 -0.0427,-0.10583 z m 1.03395,-4.572 c 0,-0.48895 0.014,-0.68898 0.0311,-0.4445 0.0171,0.24447 0.0171,0.64452 0,0.889 -0.0171,0.24447 -0.0311,0.0444 -0.0311,-0.4445 z m -11.64653,-7.33917 c 0.0611,-0.0245 0.13414,-0.0215 0.16228,0.007 0.0281,0.0281 -0.0219,0.0481 -0.11113,0.0445 -0.0986,-0.004 -0.11869,-0.0241 -0.0511,-0.0512 z m 15.29821,-2.31283 c 0.22933,-0.23284 0.43601,-0.42334 0.4593,-0.42334 0.0233,0 -0.14531,0.1905 -0.37464,0.42334 -0.22932,0.23283 -0.43601,0.42333 -0.4593,0.42333 -0.0233,0 0.14531,-0.1905 0.37464,-0.42333 z m -24.68034,-0.80434 c 0.10937,-0.11641 0.2179,-0.21166 0.24119,-0.21166 0.0233,0 -0.0472,0.0952 -0.15652,0.21166 -0.10937,0.11642 -0.2179,0.21167 -0.24118,0.21167 -0.0233,0 0.0472,-0.0952 0.15651,-0.21167 z M 102.5872,100.101 c 3.01881,-0.0123 7.93371,-0.0123 10.922,1e-5 2.98829,0.0123 0.51835,0.0224 -5.48875,0.0224 -6.0071,0 -8.452064,-0.0101 -5.43325,-0.0224 z"
         id="path406" /><path
         style="fill:#e1e6ee;stroke-width:0.0846667"
         d="m 128.04412,106.65186 c 0,-0.0176 0.0667,-0.0843 0.14816,-0.14817 0.13429,-0.10531 0.13728,-0.10232 0.032,0.032 -0.11061,0.14103 -0.18013,0.18588 -0.18013,0.1162 z"
         id="path404" /><path
         style="fill:#fceec4;stroke-width:0.0846667"
         d="m 88.122745,112.99149 c 2e-6,-7.35753 0.01,-10.35491 0.0222,-6.66083 0.01221,3.69407 0.01221,9.71387 -3e-6,13.37733 -0.01221,3.66346 -0.0222,0.64104 -0.0222,-6.7165 z m -8.688097,-3.2385 c -0.105314,-0.13428 -0.102319,-0.13728 0.03197,-0.032 0.141034,0.1106 0.185884,0.18013 0.1162,0.18013 -0.01758,0 -0.08426,-0.0667 -0.148167,-0.14817 z m -1.693333,-1.69333 c -0.105314,-0.13429 -0.10232,-0.13728 0.03197,-0.032 0.141033,0.11061 0.185884,0.18014 0.1162,0.18014 -0.01758,0 -0.08426,-0.0667 -0.148167,-0.14817 z"
         id="path402" /><path
         style="fill:#dce2ec;stroke-width:0.0846667"
         d="m 70.883315,117.37299 c -0.105314,-0.13428 -0.10232,-0.13728 0.03197,-0.032 0.08149,0.0639 0.148166,0.13058 0.148166,0.14816 0,0.0697 -0.06953,0.0248 -0.180133,-0.1162 z m -0.762,-0.762 c -0.105314,-0.13428 -0.10232,-0.13728 0.03197,-0.032 0.08149,0.0639 0.148166,0.13058 0.148166,0.14816 0,0.0697 -0.06953,0.0248 -0.180133,-0.1162 z m 70.025575,-3.81 -0.29177,-0.3175 0.3175,0.29178 c 0.29552,0.27158 0.35643,0.34322 0.29177,0.34322 -0.0142,0 -0.15702,-0.14287 -0.3175,-0.3175 z"
         id="path400" /><path
         style="fill:#fbebb7;stroke-width:0.0846667"
         d="m 78.598782,108.84283 c -0.205658,-0.20955 -0.354874,-0.381 -0.33159,-0.381 0.02328,0 0.210599,0.17145 0.416257,0.381 0.205657,0.20955 0.354873,0.381 0.33159,0.381 -0.02328,0 -0.210599,-0.17145 -0.416257,-0.381 z"
         id="path398" /><path
         style="fill:#d4dbe7;stroke-width:0.0846667"
         d="m 120.41332,122.87633 c -0.10532,-0.13429 -0.10232,-0.13728 0.032,-0.032 0.14104,0.11061 0.18589,0.18013 0.1162,0.18013 -0.0176,0 -0.0842,-0.0667 -0.14816,-0.14816 z m 47.33946,0.1162 c 0,-0.0176 0.0667,-0.0843 0.14817,-0.14817 0.13429,-0.10531 0.13728,-0.10232 0.032,0.032 -0.11061,0.14103 -0.18014,0.18588 -0.18014,0.1162 z m 0.71967,-0.73004 c 0.0843,-0.0931 0.1723,-0.16933 0.19558,-0.16933 0.0233,0 -0.0266,0.0762 -0.11091,0.16933 -0.0843,0.0931 -0.1723,0.16934 -0.19558,0.16934 -0.0233,0 0.0266,-0.0762 0.11091,-0.16934 z m -37.56985,-2.09188 c 0.10532,-0.0202 0.25772,-0.0195 0.33867,0.002 0.081,0.0212 -0.005,0.0378 -0.19149,0.0368 -0.18626,-9.4e-4 -0.25249,-0.0183 -0.14718,-0.0385 z m 27.26698,-0.16729 c 0.0611,-0.0245 0.13414,-0.0215 0.16228,0.007 0.0281,0.0281 -0.0219,0.0481 -0.11113,0.0445 -0.0986,-0.004 -0.11869,-0.0241 -0.0512,-0.0511 z m 4.2492,-1.84716 c 0.10937,-0.11642 0.2179,-0.21167 0.24119,-0.21167 0.0233,0 -0.0472,0.0952 -0.15652,0.21167 -0.10936,0.11642 -0.2179,0.21167 -0.24118,0.21167 -0.0233,0 0.0471,-0.0952 0.15651,-0.21167 z m -20.14398,-0.007 c 0.004,-0.0986 0.0241,-0.1187 0.0512,-0.0512 0.0245,0.0611 0.0214,0.13415 -0.007,0.16228 -0.0281,0.0281 -0.0481,-0.0219 -0.0445,-0.11112 z m -7.366,-0.0847 c 0.004,-0.0986 0.0241,-0.11869 0.0511,-0.0512 0.0245,0.0611 0.0215,0.13414 -0.007,0.16228 -0.0281,0.0281 -0.0481,-0.0219 -0.0445,-0.11113 z m 15.85376,-5.07295 c 0,-0.32596 0.0157,-0.44894 0.034,-0.27328 0.0183,0.17567 0.018,0.44237 -8.4e-4,0.59267 -0.0187,0.15031 -0.0337,0.007 -0.0333,-0.31939 z m 13.61024,-0.007 c 0.004,-0.0986 0.0241,-0.11869 0.0511,-0.0512 0.0245,0.0611 0.0215,0.13414 -0.007,0.16228 -0.0281,0.0281 -0.0481,-0.0219 -0.0445,-0.11113 z m -1.96482,-5.26345 c -0.10531,-0.13428 -0.10232,-0.13728 0.032,-0.032 0.0815,0.0639 0.14817,0.13058 0.14817,0.14816 0,0.0697 -0.0695,0.0248 -0.18014,-0.1162 z m -63.510364,-1.43924 c 0.989542,-0.0135 2.608794,-0.0135 3.598334,0 0.98954,0.0135 0.17992,0.0246 -1.79917,0.0246 -1.979081,0 -2.788706,-0.0111 -1.799164,-0.0246 z m 14.647334,0 c 0.98954,-0.0135 2.60879,-0.0135 3.59833,0 0.98954,0.0135 0.17992,0.0246 -1.79916,0.0246 -1.97909,0 -2.78871,-0.0111 -1.79917,-0.0246 z m 54.63117,-2.85759 c -0.20566,-0.20955 -0.35487,-0.381 -0.33159,-0.381 0.0233,0 0.2106,0.17145 0.41625,0.381 0.20566,0.20955 0.35488,0.381 0.33159,0.381 -0.0233,0 -0.2106,-0.17145 -0.41625,-0.381 z m -35.66054,-3.740837 c 0.0611,-0.02446 0.13414,-0.02145 0.16227,0.0067 0.0281,0.02813 -0.0219,0.04815 -0.11112,0.04447 -0.0986,-0.0041 -0.1187,-0.02412 -0.0512,-0.05115 z"
         id="path396" /><path
         style="fill:#fae8a8;stroke-width:0.0846667"
         d="m 79.141071,109.37199 -0.161289,-0.1905 0.1905,0.16129 c 0.179022,0.15157 0.229044,0.21971 0.161289,0.21971 -0.01607,0 -0.101791,-0.0857 -0.1905,-0.1905 z m -1.061089,-1.05833 c -0.105315,-0.13429 -0.10232,-0.13728 0.03197,-0.032 0.141033,0.11061 0.185883,0.18014 0.116199,0.18014 -0.01758,0 -0.08426,-0.0667 -0.148166,-0.14817 z"
         id="path394" /><path
         style="fill:#cad3e2;stroke-width:0.0846667"
         d="m 140.10912,123.44783 c 0.18188,-0.18627 0.34975,-0.33867 0.37303,-0.33867 0.0233,0 -0.10648,0.1524 -0.28837,0.33867 -0.18188,0.18626 -0.34975,0.33866 -0.37303,0.33866 -0.0233,0 0.10648,-0.1524 0.28837,-0.33866 z m 7.14353,-0.5715 c -0.10531,-0.13429 -0.10232,-0.13728 0.032,-0.032 0.0815,0.0639 0.14816,0.13059 0.14816,0.14817 0,0.0697 -0.0695,0.0248 -0.18013,-0.1162 z m -27.29818,-0.46567 -0.33469,-0.35983 0.35984,0.33468 c 0.1979,0.18408 0.35983,0.346 0.35983,0.35983 0,0.0641 -0.0737,-4e-5 -0.38498,-0.33468 z m 48.17931,0.1905 c 0.0843,-0.0931 0.1723,-0.16933 0.19558,-0.16933 0.0233,0 -0.0266,0.0762 -0.11091,0.16933 -0.0843,0.0931 -0.1723,0.16933 -0.19558,0.16933 -0.0233,0 0.0266,-0.0762 0.11091,-0.16933 z m -21.55847,-0.40217 c -0.1053,-0.13428 -0.10232,-0.13728 0.032,-0.032 0.14103,0.1106 0.18589,0.18013 0.1162,0.18013 -0.0176,0 -0.0842,-0.0667 -0.14817,-0.14817 z m 6.096,-4.064 c -0.1053,-0.13428 -0.10232,-0.13728 0.032,-0.032 0.14103,0.1106 0.18589,0.18013 0.1162,0.18013 -0.0176,0 -0.0842,-0.0667 -0.14817,-0.14817 z m -30.34618,-5.207 -0.33468,-0.35983 0.35983,0.33468 c 0.33464,0.31125 0.39874,0.38499 0.33469,0.38499 -0.0138,0 -0.17576,-0.16193 -0.35984,-0.35984 z"
         id="path392" /><path
         style="fill:#c5cee0;stroke-width:0.0846667"
         d="m 111.65969,115.99716 c 0,-5.28532 0.0102,-7.44749 0.0226,-4.80483 0.0124,2.64266 0.0124,6.96701 0,9.60966 -0.0124,2.64266 -0.0226,0.48049 -0.0226,-4.80483 z m 18.82389,4.1755 c 0.0611,-0.0245 0.13414,-0.0214 0.16227,0.007 0.0281,0.0281 -0.0219,0.0481 -0.11112,0.0445 -0.0986,-0.004 -0.1187,-0.0241 -0.0512,-0.0512 z m 33.89591,-7.56217 c 0,-0.11641 0.0192,-0.16404 0.0427,-0.10583 0.0235,0.0582 0.0235,0.15346 0,0.21167 -0.0235,0.0582 -0.0427,0.0106 -0.0427,-0.10584 z"
         id="path390" /><path
         style="fill:#f9e293;stroke-width:0.0846667"
         d="m 79.434648,109.66833 c -0.105314,-0.13429 -0.102319,-0.13728 0.03197,-0.032 0.141034,0.11061 0.185884,0.18013 0.1162,0.18013 -0.01758,0 -0.08426,-0.0667 -0.148167,-0.14816 z m -1.608666,-1.60867 c -0.105315,-0.13429 -0.10232,-0.13728 0.03197,-0.032 0.141033,0.11061 0.185883,0.18014 0.116199,0.18014 -0.01758,0 -0.08426,-0.0667 -0.148166,-0.14817 z M 64.27424,102.56199 c 0.06112,-0.0245 0.134144,-0.0215 0.162278,0.007 0.02813,0.0281 -0.02187,0.0482 -0.111125,0.0445 -0.09863,-0.004 -0.118695,-0.0241 -0.05115,-0.0512 z"
         id="path388" /><path
         style="fill:#c2ccdd;stroke-width:0.0846667"
         d="m 129.88562,126.43608 c 0.10477,-0.0202 0.27622,-0.0202 0.381,0 0.10477,0.0202 0.0191,0.0367 -0.1905,0.0367 -0.20955,0 -0.29528,-0.0165 -0.1905,-0.0367 z m 1.73566,10e-4 c 0.0815,-0.0213 0.21485,-0.0213 0.29634,0 0.0815,0.0213 0.0148,0.0387 -0.14817,0.0387 -0.16298,0 -0.22966,-0.0174 -0.14817,-0.0387 z m 25.73867,-0.0869 c 0.12806,-0.0194 0.33761,-0.0194 0.46567,0 0.12806,0.0194 0.0233,0.0353 -0.23284,0.0353 -0.25611,0 -0.36089,-0.0159 -0.23283,-0.0353 z m -10.44597,-3.81286 c -0.10531,-0.13429 -0.10232,-0.13728 0.032,-0.032 0.14103,0.11061 0.18589,0.18014 0.1162,0.18014 -0.0176,0 -0.0842,-0.0667 -0.14817,-0.14817 z m 24.74015,-8.11389 c 0.004,-0.0986 0.0241,-0.11869 0.0512,-0.0512 0.0245,0.0611 0.0215,0.13414 -0.007,0.16228 -0.0281,0.0281 -0.0481,-0.0219 -0.0445,-0.11113 z m -24.68701,-10.95728 c 0.22933,-0.23283 0.43601,-0.42333 0.4593,-0.42333 0.0233,0 -0.14531,0.1905 -0.37464,0.42333 -0.22932,0.23284 -0.43601,0.42334 -0.4593,0.42334 -0.0233,0 0.14531,-0.1905 0.37464,-0.42334 z m -24.84967,-0.61916 c 0,-0.0146 0.12382,-0.13839 0.27517,-0.27516 l 0.27516,-0.24868 -0.24867,0.27517 c -0.2318,0.25649 -0.30166,0.31408 -0.30166,0.24867 z m 34.48211,-3.24951 c 0.0824,-0.02147 0.19668,-0.02005 0.254,0.0031 0.0573,0.02319 -0.0101,0.04076 -0.14978,0.03903 -0.1397,-0.0017 -0.18659,-0.0207 -0.10422,-0.04217 z m 1.778,0 c 0.0824,-0.02147 0.19668,-0.02005 0.254,0.0031 0.0573,0.02319 -0.0101,0.04076 -0.14978,0.03903 -0.1397,-0.0017 -0.18659,-0.0207 -0.10422,-0.04217 z"
         id="path386" /><path
         style="fill:#f9de83;stroke-width:0.0846667"
         d="m 78.633071,108.77933 -0.161289,-0.1905 0.1905,0.16129 c 0.179022,0.15157 0.229044,0.21971 0.161289,0.21971 -0.01607,0 -0.101791,-0.0857 -0.1905,-0.1905 z"
         id="path384" /><path
         style="fill:#b8c4d8;stroke-width:0.0846667"
         d="m 106.31162,125.75507 c 0.96938,-0.0136 2.53148,-0.0136 3.47133,4e-5 0.93986,0.0136 0.14673,0.0247 -1.7625,0.0247 -1.90923,-2e-5 -2.67821,-0.0112 -1.70883,-0.0248 z m -35.682305,-8.55141 c -0.105314,-0.13429 -0.10232,-0.13728 0.03197,-0.032 0.08149,0.0639 0.148166,0.13059 0.148166,0.14817 0,0.0697 -0.06953,0.0248 -0.180133,-0.1162 z m 63.838665,-0.254 c -0.10531,-0.13429 -0.10232,-0.13728 0.032,-0.032 0.14103,0.11061 0.18588,0.18014 0.1162,0.18014 -0.0176,0 -0.0843,-0.0667 -0.14817,-0.14817 z m -64.177332,-0.0847 c -0.105314,-0.13428 -0.102319,-0.13728 0.03197,-0.032 0.08149,0.0639 0.148167,0.13058 0.148167,0.14816 0,0.0697 -0.06953,0.0248 -0.180134,-0.1162 z m 73.084822,-2.77989 c 0.004,-0.0986 0.0241,-0.11869 0.0512,-0.0511 0.0245,0.0611 0.0214,0.13415 -0.007,0.16228 -0.0281,0.0281 -0.0481,-0.0219 -0.0445,-0.11113 z m 0,-2.20133 c 0.004,-0.0986 0.0241,-0.11869 0.0512,-0.0511 0.0245,0.0611 0.0214,0.13414 -0.007,0.16228 -0.0281,0.0281 -0.0481,-0.0219 -0.0445,-0.11113 z m -23.00892,-4.35328 c 0,-0.30268 0.0154,-0.4265 0.0341,-0.27516 0.0188,0.15134 0.0188,0.39899 0,0.55033 -0.0188,0.15134 -0.0341,0.0275 -0.0341,-0.27517 z m 7.67757,-0.9633 c 0,-0.0176 0.0667,-0.0842 0.14816,-0.14816 0.13429,-0.10532 0.13728,-0.10232 0.032,0.032 -0.11061,0.14104 -0.18013,0.18589 -0.18013,0.1162 z M 96.924789,103.2548 c 3.1e-5,-1.58327 0.01145,-2.21901 0.02538,-1.41275 0.01393,0.80626 0.0139,2.10166 -5.6e-5,2.87867 -0.01396,0.77701 -0.02536,0.11734 -0.02532,-1.46592 z m 22.182671,0 c 3e-5,-1.58327 0.0114,-2.21901 0.0254,-1.41275 0.0139,0.80626 0.0139,2.10166 -6e-5,2.87867 -0.014,0.77701 -0.0254,0.11734 -0.0253,-1.46592 z m 38.25249,2.60635 c 0.12806,-0.0194 0.33761,-0.0194 0.46567,0 0.12806,0.0194 0.0233,0.0353 -0.23284,0.0353 -0.25611,0 -0.36089,-0.0159 -0.23283,-0.0353 z m -26.37367,-0.25311 c 0.10478,-0.0202 0.27623,-0.0202 0.381,0 0.10478,0.0202 0.019,0.0367 -0.1905,0.0367 -0.20955,0 -0.29527,-0.0165 -0.1905,-0.0367 z m -0.254,-5.92933 c 0.24448,-0.0171 0.64453,-0.0171 0.889,0 0.24448,0.0171 0.0444,0.0311 -0.4445,0.0311 -0.48895,0 -0.68897,-0.01399 -0.4445,-0.0311 z"
         id="path382" /><path
         style="fill:#f9dc7e;stroke-width:0.0846667"
         d="m 88.038072,112.99149 c 10e-7,-7.31096 0.01,-10.28929 0.0222,-6.6185 0.01221,3.67079 0.01221,9.65249 -3e-6,13.29267 -0.01221,3.64017 -0.0222,0.6368 -0.0222,-6.67417 z m -9.066334,-3.8735 -0.161289,-0.1905 0.1905,0.16129 c 0.179022,0.15157 0.229043,0.21971 0.161289,0.21971 -0.01607,0 -0.101792,-0.0857 -0.1905,-0.1905 z m -0.677334,-0.67733 -0.161289,-0.1905 0.1905,0.16129 c 0.179023,0.15157 0.229044,0.21971 0.161289,0.21971 -0.01607,0 -0.101791,-0.0857 -0.1905,-0.1905 z m -2.531956,-8.868833 -12.276667,-0.04319 12.250504,-0.02074 c 8.098116,-0.01371 12.26824,0.008 12.30283,0.06393 0.02878,0.04657 0.04055,0.07533 0.02616,0.06393 -0.01439,-0.01141 -5.550664,-0.04017 -12.302831,-0.06393 z"
         id="path380" /><path
         style="fill:#b1bed4;stroke-width:0.0846667"
         d="m 140.10379,112.84333 -0.24867,-0.27517 0.27516,0.24867 c 0.15135,0.13677 0.27517,0.2606 0.27517,0.27517 0,0.0654 -0.0699,0.008 -0.30166,-0.24867 z"
         id="path378" /><path
         style="fill:#f8d768;stroke-width:0.0846667"
         d="m 79.310404,109.45666 -0.161289,-0.1905 0.1905,0.16129 c 0.179023,0.15157 0.229044,0.21971 0.161289,0.21971 -0.01607,0 -0.101791,-0.0857 -0.1905,-0.1905 z m -1.315089,-1.31233 c -0.105314,-0.13429 -0.10232,-0.13728 0.03197,-0.032 0.141033,0.11061 0.185884,0.18013 0.1162,0.18013 -0.01758,0 -0.08426,-0.0667 -0.148167,-0.14816 z"
         id="path376" /><path
         style="fill:#a4b4ce;stroke-width:0.0846667"
         d="m 104.37836,115.91249 c 0,-5.28531 0.0102,-7.44749 0.0226,-4.80483 0.0124,2.64266 0.0124,6.96701 0,9.60967 -0.0124,2.64266 -0.0226,0.48048 -0.0226,-4.80484 z m 16.03496,6.87917 c -0.10532,-0.13429 -0.10232,-0.13728 0.032,-0.032 0.14104,0.11061 0.18589,0.18014 0.1162,0.18014 -0.0176,0 -0.0842,-0.0667 -0.14816,-0.14817 z m 47.33946,0.1162 c 0,-0.0176 0.0667,-0.0843 0.14817,-0.14817 0.13429,-0.10531 0.13728,-0.10232 0.032,0.032 -0.11061,0.14103 -0.18014,0.18588 -0.18014,0.1162 z m 0.59267,-0.59267 c 0,-0.0176 0.0667,-0.0842 0.14817,-0.14816 0.13429,-0.10532 0.13728,-0.10232 0.032,0.032 -0.11061,0.14104 -0.18014,0.18589 -0.18014,0.1162 z m -10.9855,-2.23001 c 0.12806,-0.0194 0.33761,-0.0194 0.46567,0 0.12806,0.0194 0.0233,0.0353 -0.23284,0.0353 -0.25611,0 -0.36089,-0.0159 -0.23283,-0.0353 z m -15.16313,-1.54802 c 0,-0.11642 0.0192,-0.16404 0.0427,-0.10583 0.0235,0.0582 0.0235,0.15346 0,0.21166 -0.0235,0.0582 -0.0427,0.0106 -0.0427,-0.10583 z m 20.22196,-0.29633 c 0.10937,-0.11642 0.2179,-0.21167 0.24119,-0.21167 0.0233,0 -0.0472,0.0952 -0.15652,0.21167 -0.10936,0.11641 -0.2179,0.21166 -0.24118,0.21166 -0.0233,0 0.0471,-0.0952 0.15651,-0.21166 z m -20.22196,-0.46567 c 0,-0.11642 0.0192,-0.16404 0.0427,-0.10583 0.0235,0.0582 0.0235,0.15346 0,0.21166 -0.0235,0.0582 -0.0427,0.0106 -0.0427,-0.10583 z m -18.89404,-0.11663 c 0,-0.0176 0.0667,-0.0843 0.14817,-0.14817 0.13429,-0.10531 0.13728,-0.10232 0.032,0.032 -0.11061,0.14103 -0.18014,0.18588 -0.18014,0.1162 z m 20.09606,-4.66704 c -2.6e-4,-0.4191 0.0141,-0.60122 0.0318,-0.40472 0.0178,0.19651 0.018,0.53941 5.1e-4,0.762 -0.0175,0.2226 -0.0321,0.0618 -0.0323,-0.35728 z m 9.19861,-5.1543 c 0,-0.0176 0.0667,-0.0843 0.14817,-0.14816 0.13429,-0.10532 0.13728,-0.10232 0.032,0.032 -0.11061,0.14104 -0.18014,0.18589 -0.18014,0.1162 z m 9.85562,-0.15853 -0.16129,-0.1905 0.1905,0.16129 c 0.17902,0.15157 0.22904,0.21971 0.16129,0.21971 -0.0161,0 -0.10179,-0.0857 -0.1905,-0.1905 z m -30.61483,-2.06867 c 0.0611,-0.0245 0.13415,-0.0215 0.16228,0.007 0.0281,0.0281 -0.0219,0.0482 -0.11113,0.0445 -0.0986,-0.004 -0.11869,-0.0241 -0.0511,-0.0512 z m 36.29156,-2.16466 -0.33468,-0.35984 0.35983,0.33469 c 0.19791,0.18407 0.35983,0.346 0.35983,0.35983 0,0.0641 -0.0737,-4e-5 -0.38498,-0.33468 z m -65.50027,-3.25966 c 2.99552,-0.0123 7.87232,-0.0123 10.83733,0 2.96501,0.0123 0.51412,0.0224 -5.44641,0.0224 -5.96053,0 -8.386449,-0.0101 -5.39092,-0.0224 z"
         id="path374" /><path
         style="fill:#f7d04e;stroke-width:0.0846667"
         d="m 79.603982,109.75299 c -0.105315,-0.13428 -0.10232,-0.13728 0.03197,-0.032 0.141033,0.1106 0.185884,0.18013 0.116199,0.18013 -0.01758,0 -0.08426,-0.0667 -0.148166,-0.14817 z m -0.925091,-1.016 -0.291776,-0.3175 0.3175,0.29178 c 0.174625,0.16048 0.3175,0.30335 0.3175,0.3175 0,0.0647 -0.07165,0.004 -0.343224,-0.29178 z m -0.937576,-0.84666 c -0.105314,-0.13429 -0.10232,-0.13728 0.03197,-0.032 0.141033,0.11061 0.185884,0.18013 0.1162,0.18013 -0.01758,0 -0.08426,-0.0667 -0.148167,-0.14816 z M 64.27424,102.47732 c 0.06112,-0.0245 0.134144,-0.0215 0.162278,0.007 0.02813,0.0281 -0.02187,0.0481 -0.111125,0.0445 -0.09863,-0.004 -0.118695,-0.0241 -0.05115,-0.0512 z"
         id="path372" /><path
         style="fill:#96a7c6;stroke-width:0.0846667"
         d="m 140.02445,123.44783 c 0.18188,-0.18627 0.34975,-0.33867 0.37303,-0.33867 0.0233,0 -0.10648,0.1524 -0.28836,0.33867 -0.18189,0.18626 -0.34975,0.33866 -0.37304,0.33866 -0.0233,0 0.10649,-0.1524 0.28837,-0.33866 z m 7.2282,-0.65617 c -0.10531,-0.13429 -0.10232,-0.13728 0.032,-0.032 0.0815,0.0639 0.14816,0.13059 0.14816,0.14817 0,0.0697 -0.0695,0.0248 -0.18013,-0.1162 z m -27.25642,-0.42333 -0.29178,-0.3175 0.3175,0.29177 c 0.29552,0.27158 0.35643,0.34323 0.29178,0.34323 -0.0142,0 -0.15703,-0.14288 -0.3175,-0.3175 z m 48.13755,0.14816 c 0.0843,-0.0931 0.1723,-0.16933 0.19558,-0.16933 0.0233,0 -0.0266,0.0762 -0.11091,0.16933 -0.0843,0.0931 -0.1723,0.16934 -0.19558,0.16934 -0.0233,0 0.0266,-0.0762 0.11091,-0.16934 z m -21.4738,-0.3175 c -0.10531,-0.13428 -0.10232,-0.13728 0.032,-0.032 0.14103,0.1106 0.18589,0.18013 0.1162,0.18013 -0.0176,0 -0.0843,-0.0667 -0.14817,-0.14817 z m -15.6684,-1.94167 c 0.0611,-0.0245 0.13414,-0.0215 0.16227,0.007 0.0281,0.0281 -0.0219,0.0482 -0.11112,0.0445 -0.0986,-0.004 -0.1187,-0.0241 -0.0512,-0.0511 z m 27.09333,-0.16933 c 0.0611,-0.0245 0.13415,-0.0215 0.16228,0.007 0.0281,0.0281 -0.0219,0.0482 -0.11113,0.0445 -0.0986,-0.004 -0.11869,-0.0241 -0.0511,-0.0511 z m -15.88495,-1.93183 c 0.002,-0.1397 0.0207,-0.1866 0.0422,-0.10422 0.0215,0.0824 0.0201,0.19668 -0.003,0.254 -0.0232,0.0573 -0.0408,-0.0101 -0.039,-0.14978 z m 10.43178,0.0212 -0.16129,-0.1905 0.1905,0.16129 c 0.17902,0.15157 0.22904,0.21971 0.16129,0.21971 -0.0161,0 -0.10179,-0.0857 -0.1905,-0.1905 z m -1.95538,-5.18584 c 8.4e-4,-0.2794 0.0163,-0.38349 0.0351,-0.23131 0.0188,0.15217 0.0185,0.38077 -8.5e-4,0.508 -0.0193,0.12722 -0.0347,0.003 -0.0343,-0.27669 z m -28.30947,-0.10583 -0.29177,-0.3175 0.3175,0.29178 c 0.29552,0.27157 0.35643,0.34322 0.29177,0.34322 -0.0141,0 -0.15702,-0.14287 -0.3175,-0.3175 z m -23.469274,-6.68857 c 0.989542,-0.0136 2.608794,-0.0136 3.598334,0 0.98954,0.0135 0.17992,0.0246 -1.79917,0.0246 -1.979081,0 -2.788706,-0.0111 -1.799164,-0.0246 z m 14.647334,0 c 0.98954,-0.0136 2.60879,-0.0136 3.59833,0 0.98954,0.0135 0.17992,0.0246 -1.79916,0.0246 -1.97909,0 -2.78871,-0.0111 -1.79917,-0.0246 z"
         id="path370" /><path
         style="fill:#f6cb38;stroke-width:0.0846667"
         d="m 87.953405,112.99149 c 2e-6,-7.31096 0.01,-10.28929 0.0222,-6.6185 0.01221,3.67079 0.01221,9.65249 -4e-6,13.29267 -0.01221,3.64017 -0.0222,0.6368 -0.0222,-6.67417 z m -8.72495,-3.70416 -0.248673,-0.27517 0.275167,0.24867 c 0.256494,0.2318 0.314083,0.30166 0.248673,0.30166 -0.01457,0 -0.138396,-0.12382 -0.275167,-0.27516 z m -1.059415,-1.05834 -0.205258,-0.23283 0.232833,0.20526 c 0.217618,0.19184 0.271661,0.26041 0.205258,0.26041 -0.01516,0 -0.11994,-0.10478 -0.232833,-0.23284 z"
         id="path368" /><path
         style="fill:#8da0c2;stroke-width:0.0846667"
         d="m 134.99347,118.06444 c 0.004,-0.0986 0.0241,-0.1187 0.0512,-0.0512 0.0245,0.0611 0.0214,0.13414 -0.007,0.16227 -0.0281,0.0281 -0.0481,-0.0219 -0.0445,-0.11112 z m 29.46399,-5.08 c 0.004,-0.0986 0.0241,-0.1187 0.0512,-0.0512 0.0245,0.0611 0.0214,0.13414 -0.007,0.16227 -0.0281,0.0281 -0.0481,-0.0219 -0.0445,-0.11112 z"
         id="path366" /><path
         style="fill:#f6c627;stroke-width:0.0846667"
         d="m 79.603982,109.66833 c -0.105315,-0.13429 -0.10232,-0.13728 0.03197,-0.032 0.141033,0.11061 0.185884,0.18013 0.116199,0.18013 -0.01758,0 -0.08426,-0.0667 -0.148166,-0.14816 z m -0.842275,-0.93134 -0.205258,-0.23283 0.232833,0.20526 c 0.217618,0.19184 0.27166,0.26041 0.205258,0.26041 -0.01516,0 -0.11994,-0.10478 -0.232833,-0.23284 z m -0.935725,-0.84666 c -0.105315,-0.13429 -0.10232,-0.13728 0.03197,-0.032 0.141033,0.11061 0.185883,0.18013 0.116199,0.18013 -0.01758,0 -0.08426,-0.0667 -0.148166,-0.14816 z m -0.508,-0.42334 c -0.105315,-0.13428 -0.10232,-0.13728 0.03197,-0.032 0.141034,0.1106 0.185884,0.18013 0.1162,0.18013 -0.01758,0 -0.08426,-0.0667 -0.148166,-0.14817 z"
         id="path364" /><path
         style="fill:#8499bc;stroke-width:0.0846667"
         d="m 70.420404,117.07666 -0.161289,-0.1905 0.1905,0.16129 c 0.179023,0.15157 0.229044,0.21971 0.161289,0.21971 -0.01607,0 -0.101791,-0.0857 -0.1905,-0.1905 z m 76.589046,-13.56783 c 0.15797,-0.16299 0.30627,-0.29634 0.32955,-0.29634 0.0233,0 -0.0869,0.13335 -0.24488,0.29634 -0.15797,0.16298 -0.30627,0.29633 -0.32955,0.29633 -0.0233,0 0.0869,-0.13335 0.24488,-0.29633 z m -24.72267,-0.75164 c 0,-0.0176 0.0667,-0.0842 0.14817,-0.14816 0.13429,-0.10532 0.13728,-0.10232 0.032,0.032 -0.11061,0.14104 -0.18014,0.18589 -0.18014,0.1162 z"
         id="path362" /><path
         style="fill:#f5c217;stroke-width:0.0846667"
         d="m 86.282282,126.26381 c 0.291042,-0.0165 0.767292,-0.0165 1.058333,0 0.291042,0.0165 0.05292,0.0301 -0.529166,0.0301 -0.582084,0 -0.820209,-0.0135 -0.529167,-0.0301 z m -7.053827,-17.06115 -0.248673,-0.27517 0.275167,0.24868 c 0.256494,0.2318 0.314083,0.30166 0.248673,0.30166 -0.01457,0 -0.138396,-0.12383 -0.275167,-0.27517 z m -0.931333,-0.93133 -0.248673,-0.27517 0.275166,0.24867 c 0.256494,0.2318 0.314084,0.30166 0.248674,0.30166 -0.01457,0 -0.138396,-0.12382 -0.275167,-0.27516 z m -0.72514,-0.635 c -0.105315,-0.13429 -0.10232,-0.13728 0.03197,-0.032 0.141034,0.11061 0.185884,0.18013 0.1162,0.18013 -0.01758,0 -0.08426,-0.0667 -0.148166,-0.14816 z"
         id="path360" /><path
         style="fill:#7d93b9;stroke-width:0.0846667"
         d="m 130.7338,126.43447 c 0.15218,-0.0189 0.38078,-0.0185 0.508,8.6e-4 0.12722,0.0193 0.003,0.0347 -0.27668,0.0343 -0.2794,-5.1e-4 -0.3835,-0.0163 -0.23132,-0.0351 z m -1.94356,-0.0812 c 0.0611,-0.0245 0.13415,-0.0215 0.16228,0.007 0.0281,0.0281 -0.0219,0.0482 -0.11113,0.0445 -0.0986,-0.004 -0.11869,-0.0241 -0.0511,-0.0512 z m -17.21522,-10.44083 c 0,-5.28531 0.0102,-7.44749 0.0226,-4.80483 0.0124,2.64266 0.0124,6.96701 0,9.60967 -0.0124,2.64266 -0.0226,0.48048 -0.0226,-4.80484 z m 18.82389,4.34483 c 0.0611,-0.0245 0.13414,-0.0215 0.16228,0.007 0.0281,0.0281 -0.0219,0.0482 -0.11113,0.0445 -0.0986,-0.004 -0.11869,-0.0241 -0.0512,-0.0511 z m 41.25522,-6.17222 c 0.004,-0.0986 0.0241,-0.11869 0.0512,-0.0511 0.0245,0.0611 0.0215,0.13415 -0.007,0.16228 -0.0281,0.0281 -0.0481,-0.0219 -0.0445,-0.11113 z m -7.18998,-0.62794 c 0,-0.11642 0.0192,-0.16404 0.0427,-0.10583 0.0235,0.0582 0.0235,0.15346 0,0.21166 -0.0235,0.0582 -0.0427,0.0106 -0.0427,-0.10583 z m 0,-0.93133 c 0,-0.11642 0.0192,-0.16404 0.0427,-0.10584 0.0235,0.0582 0.0235,0.15346 0,0.21167 -0.0235,0.0582 -0.0427,0.0106 -0.0427,-0.10583 z m 7.18998,-0.64206 c 0.004,-0.0986 0.0241,-0.11869 0.0512,-0.0511 0.0245,0.0611 0.0215,0.13414 -0.007,0.16228 -0.0281,0.0281 -0.0481,-0.0219 -0.0445,-0.11113 z m -44.02666,-4.40267 c 0.004,-0.0986 0.0241,-0.11869 0.0511,-0.0511 0.0245,0.0611 0.0215,0.13415 -0.007,0.16228 -0.0281,0.0281 -0.0482,-0.0219 -0.0445,-0.11113 z m 4.46477,-7.71311 c 0.0611,-0.02446 0.13415,-0.02145 0.16228,0.0067 0.0281,0.02813 -0.0219,0.04814 -0.11113,0.04447 -0.0986,-0.0041 -0.11869,-0.02412 -0.0512,-0.05115 z m 25.18304,-0.173174 c 0.17463,-0.01827 0.46038,-0.01827 0.635,0 0.17463,0.01827 0.0317,0.03321 -0.3175,0.03321 -0.34925,0 -0.49212,-0.01494 -0.3175,-0.03321 z m -95.59237,-0.08569 c 0.312288,-0.01624 0.845688,-0.01635 1.185334,-2.41e-4 0.339645,0.01611 0.08414,0.0294 -0.567796,0.02953 -0.651933,1.32e-4 -0.929825,-0.01305 -0.617538,-0.02929 z"
         id="path358" /><path
         style="fill:#f5c00d;stroke-width:0.0846667"
         d="m 87.848348,113.01295 -0.0209,-13.271212 -12.086167,-0.02175 -12.086167,-0.02175 12.088824,-0.02088 c 9.608555,-0.01659 12.097084,8.38e-4 12.129079,0.08496 0.02214,0.05821 0.03035,6.049432 0.01824,13.313832 l -0.02201,13.208 z m -7.482366,-2.49796 c -0.105314,-0.13428 -0.10232,-0.13728 0.03197,-0.032 0.08149,0.0639 0.148166,0.13058 0.148166,0.14816 0,0.0697 -0.06953,0.0248 -0.180133,-0.1162 z m -0.293578,-0.381 -0.161289,-0.1905 0.1905,0.16129 c 0.179023,0.15157 0.229044,0.21971 0.161289,0.21971 -0.01607,0 -0.101791,-0.0857 -0.1905,-0.1905 z m -0.379364,-0.46566 -0.205258,-0.23284 0.232833,0.20526 c 0.128059,0.11289 0.232834,0.21767 0.232834,0.23284 0,0.0664 -0.06856,0.0124 -0.260409,-0.20526 z m -0.885242,-0.97367 -0.505349,-0.52917 0.529166,0.50535 c 0.291042,0.27795 0.529167,0.51607 0.529167,0.52917 0,0.0626 -0.08356,-0.0138 -0.552984,-0.50535 z m -0.977425,-0.889 -0.205258,-0.23283 0.232834,0.20526 c 0.128058,0.11289 0.232833,0.21766 0.232833,0.23283 0,0.0664 -0.06856,0.0124 -0.260409,-0.20526 z m -0.512391,-0.42333 c -0.105315,-0.13429 -0.10232,-0.13728 0.03197,-0.032 0.141034,0.11061 0.185884,0.18013 0.1162,0.18013 -0.01758,0 -0.08426,-0.0667 -0.148166,-0.14816 z m -0.338667,-0.254 c -0.105314,-0.13429 -0.10232,-0.13728 0.03197,-0.032 0.141033,0.11061 0.185884,0.18013 0.1162,0.18013 -0.01758,0 -0.08426,-0.0667 -0.148167,-0.14816 z m -0.338667,-0.254 c -0.105314,-0.13429 -0.102319,-0.13728 0.03197,-0.032 0.141034,0.11061 0.185884,0.18013 0.1162,0.18013 -0.01758,0 -0.08426,-0.0667 -0.148167,-0.14816 z"
         id="path356" /><path
         style="fill:#748bb4;stroke-width:0.0846667"
         d="m 140.05598,112.88566 c -0.10531,-0.13429 -0.10232,-0.13728 0.032,-0.032 0.14103,0.11061 0.18588,0.18014 0.1162,0.18014 -0.0176,0 -0.0843,-0.0667 -0.14817,-0.14817 z"
         id="path354" /><path
         style="fill:#f4bc00;stroke-width:0.0846667"
         d="m 86.236245,126.34846 c 0.312288,-0.0162 0.845688,-0.0164 1.185333,-2.5e-4 0.339645,0.0161 0.08414,0.0294 -0.567796,0.0295 -0.651933,1.7e-4 -0.929825,-0.0131 -0.617537,-0.0293 z m -0.520215,-0.6358 c -0.141268,-0.73685 -0.46443,-2.25878 -0.908728,-4.27965 -1.363593,-6.20222 -3.057644,-9.8207 -5.954078,-12.71785 -2.822499,-2.82319 -6.267803,-4.47722 -12.150109,-5.83306 -0.8382,-0.1932 -1.73355,-0.39962 -1.989667,-0.4587 l -0.465667,-0.10744 -0.152912,-0.7159 c -0.0841,-0.39374 -0.202049,-0.97307 -0.262106,-1.2874 l -0.109194,-0.5715 h 12.05194 12.05194 v 13.25033 13.25034 H 86.822465 85.81748 Z M 69.687615,99.593002 c 3.364442,-0.01226 8.869892,-0.01226 12.234334,0 3.364441,0.01226 0.611716,0.02229 -6.117167,0.02229 -6.728884,0 -9.481609,-0.01003 -6.117167,-0.02229 z"
         id="path352" /><path
         style="fill:#6c84b0;stroke-width:0.0846667"
         d="m 106.26362,125.67043 c 0.94297,-0.0136 2.48602,-0.0136 3.429,0 0.94297,0.0136 0.17145,0.0248 -1.7145,0.0248 -1.88595,0 -2.65748,-0.0112 -1.7145,-0.0248 z m 14.18587,-18.13994 c 0,-0.25611 0.0159,-0.36089 0.0353,-0.23283 0.0194,0.12806 0.0194,0.33761 0,0.46567 -0.0194,0.12806 -0.0353,0.0233 -0.0353,-0.23284 z m -23.440089,-4.318 c 0,-1.55998 0.01143,-2.19815 0.0254,-1.41816 0.01397,0.77999 0.01397,2.05634 0,2.83633 -0.01397,0.77999 -0.0254,0.14182 -0.0254,-1.41817 z m 22.013329,0 c 0,-1.55998 0.0114,-2.19815 0.0254,-1.41816 0.014,0.77999 0.014,2.05634 0,2.83633 -0.014,0.77999 -0.0254,0.14182 -0.0254,-1.41817 z m 38.33722,2.56403 c 0.12806,-0.0194 0.33761,-0.0194 0.46567,0 0.12806,0.0194 0.0233,0.0353 -0.23284,0.0353 -0.25611,0 -0.36089,-0.0159 -0.23283,-0.0353 z m -26.37367,-0.25311 c 0.10478,-0.0202 0.27623,-0.0202 0.381,0 0.10478,0.0202 0.019,0.0367 -0.1905,0.0367 -0.20955,0 -0.29527,-0.0165 -0.1905,-0.0367 z m -0.21166,-5.759817 c 0.22119,-0.01744 0.58314,-0.01744 0.80433,0 0.22119,0.01744 0.0402,0.03171 -0.40217,0.03171 -0.44238,0 -0.62335,-0.01427 -0.40216,-0.03171 z"
         id="path350" /><path
         style="fill:#6881ad;stroke-width:0.0846667"
         d="m 162.50345,118.24083 c 0.10936,-0.11642 0.2179,-0.21167 0.24118,-0.21167 0.0233,0 -0.0471,0.0952 -0.15651,0.21167 -0.10937,0.11641 -0.2179,0.21166 -0.24118,0.21166 -0.0233,0 0.0472,-0.0952 0.15651,-0.21166 z m -0.0108,-10.6045 c -0.10531,-0.13429 -0.10232,-0.13728 0.032,-0.032 0.14103,0.11061 0.18588,0.18013 0.11619,0.18013 -0.0176,0 -0.0842,-0.0667 -0.14816,-0.14816 z m 5.59239,-4.14867 -0.20526,-0.23283 0.23284,0.20526 c 0.12806,0.11289 0.23283,0.21766 0.23283,0.23283 0,0.0664 -0.0686,0.0124 -0.26041,-0.20526 z"
         id="path348" /><path
         style="fill:#d1a812;stroke-width:0.0846667"
         d="m 85.727288,126.11483 c 0.0017,-0.1397 0.0207,-0.1866 0.04217,-0.10423 0.02147,0.0824 0.02006,0.19668 -0.0031,0.254 -0.02319,0.0573 -0.04076,-0.0101 -0.03903,-0.14977 z m -0.08781,-0.46567 c 0,-0.11642 0.01922,-0.16404 0.0427,-0.10583 0.02349,0.0582 0.02349,0.15346 0,0.21166 -0.02349,0.0582 -0.0427,0.0106 -0.0427,-0.10583 z m -0.08467,-0.42333 c 0,-0.11642 0.01922,-0.16404 0.0427,-0.10584 0.02349,0.0582 0.02349,0.15346 0,0.21167 -0.02349,0.0582 -0.0427,0.0106 -0.0427,-0.10583 z m -0.08467,-0.42334 c 0,-0.11641 0.01922,-0.16404 0.0427,-0.10583 0.02349,0.0582 0.02349,0.15346 0,0.21167 -0.02349,0.0582 -0.0427,0.0106 -0.0427,-0.10584 z m -0.135664,-0.55503 c -0.03188,-0.16992 -0.04102,-0.32587 -0.02033,-0.34657 0.0207,-0.0207 0.06371,0.10139 0.09559,0.27131 0.03188,0.16991 0.04102,0.32586 0.02033,0.34656 -0.0207,0.0207 -0.06371,-0.10139 -0.09558,-0.2713 z m -0.12502,-0.59502 c 0.0041,-0.0986 0.02412,-0.1187 0.05115,-0.0511 0.02446,0.0611 0.02145,0.13414 -0.0067,0.16227 -0.02813,0.0281 -0.04815,-0.0219 -0.04447,-0.11112 z M 64.13415,102.11183 c 0,-0.11642 0.01922,-0.16404 0.0427,-0.10584 0.02349,0.0582 0.02349,0.15346 0,0.21167 -0.02349,0.0582 -0.0427,0.0106 -0.0427,-0.10583 z m -0.08467,-0.42334 c 0,-0.11641 0.01922,-0.16404 0.0427,-0.10583 0.02349,0.0582 0.02349,0.15346 0,0.21167 -0.02349,0.0582 -0.0427,0.0106 -0.0427,-0.10584 z m -0.135665,-0.55503 c -0.03187,-0.16992 -0.04102,-0.32587 -0.02033,-0.34657 0.0207,-0.0207 0.06371,0.10139 0.09559,0.27131 0.03188,0.16991 0.04102,0.32586 0.02033,0.34656 -0.0207,0.0207 -0.06371,-0.10139 -0.09559,-0.2713 z m -0.170188,-0.84582 c -0.03239,-0.21596 -0.04157,-0.409984 -0.0204,-0.431151 0.02117,-0.02117 0.06498,0.138217 0.09737,0.354191 0.03239,0.21596 0.04157,0.40998 0.0204,0.43115 -0.02117,0.0212 -0.06498,-0.13822 -0.09737,-0.35419 z"
         id="path346" /><path
         style="fill:#5874a5;stroke-width:0.0846667"
         d="m 156.68262,126.26813 c 0.0815,-0.0213 0.21484,-0.0213 0.29633,0 0.0815,0.0213 0.0148,0.0387 -0.14817,0.0387 -0.16298,0 -0.22965,-0.0174 -0.14816,-0.0387 z m 1.524,0 c 0.0815,-0.0213 0.21484,-0.0213 0.29633,0 0.0815,0.0213 0.0148,0.0387 -0.14817,0.0387 -0.16298,0 -0.22965,-0.0174 -0.14816,-0.0387 z m -53.74359,-10.3133 c 0,-5.3086 0.0101,-7.49276 0.0226,-4.85369 0.0124,2.63907 0.0124,6.98247 0,9.652 -0.0124,2.66953 -0.0226,0.51029 -0.0226,-4.79831 z m 35.51909,7.45066 c 0.10937,-0.11641 0.2179,-0.21166 0.24118,-0.21166 0.0233,0 -0.0471,0.0952 -0.15652,0.21166 -0.10936,0.11642 -0.2179,0.21167 -0.24118,0.21167 -0.0233,0 0.0471,-0.0952 0.15652,-0.21167 z m 7.27053,-0.6985 c -0.10531,-0.13428 -0.10232,-0.13728 0.032,-0.032 0.0815,0.0639 0.14816,0.13058 0.14816,0.14816 0,0.0697 -0.0695,0.0248 -0.18013,-0.1162 z m -27.25828,-0.42333 -0.20525,-0.23283 0.23283,0.20526 c 0.12806,0.11289 0.23283,0.21766 0.23283,0.23283 0,0.0664 -0.0686,0.0124 -0.26041,-0.20526 z m 37.40791,-2.11292 c 0.10478,-0.0202 0.27623,-0.0202 0.381,0 0.10478,0.0202 0.0191,0.0367 -0.1905,0.0367 -0.20955,0 -0.29527,-0.0165 -0.1905,-0.0367 z m -15.29013,-1.54891 c 0,-0.11642 0.0192,-0.16404 0.0427,-0.10584 0.0235,0.0582 0.0235,0.15346 0,0.21167 -0.0235,0.0582 -0.0427,0.0106 -0.0427,-0.10583 z m 10.43764,-0.4445 -0.24867,-0.27517 0.27516,0.24867 c 0.2565,0.2318 0.31409,0.30166 0.24868,0.30166 -0.0146,0 -0.1384,-0.12382 -0.27517,-0.27516 z m -10.43764,-0.48684 c 0,-0.11641 0.0192,-0.16404 0.0427,-0.10583 0.0235,0.0582 0.0235,0.15346 0,0.21167 -0.0235,0.0582 -0.0427,0.0106 -0.0427,-0.10584 z m 1.37222,-4.699 c 2.6e-4,-0.46566 0.0144,-0.64536 0.0316,-0.39933 0.0172,0.24604 0.017,0.62704 -4.2e-4,0.84667 -0.0174,0.21963 -0.0314,0.0183 -0.0312,-0.44734 z m -21.11933,-0.1905 -0.20526,-0.23283 0.23284,0.20526 c 0.12805,0.11289 0.23283,0.21767 0.23283,0.23283 0,0.0664 -0.0686,0.0124 -0.26041,-0.20526 z m 5.66828,-4.14866 c -0.10532,-0.13429 -0.10232,-0.13728 0.032,-0.032 0.14104,0.11061 0.18589,0.18013 0.1162,0.18013 -0.0176,0 -0.0842,-0.0667 -0.14816,-0.14816 z m 3.72026,-3.12701 c 0.0611,-0.0244 0.13414,-0.0214 0.16227,0.007 0.0281,0.0281 -0.0219,0.0481 -0.11112,0.0445 -0.0986,-0.004 -0.1187,-0.0241 -0.0512,-0.0512 z m -29.16638,-5.25498 c 3.01881,-0.0123 7.93371,-0.0123 10.922,0 2.98829,0.0123 0.51835,0.0224 -5.48875,0.0224 -6.0071,0 -8.452064,-0.0101 -5.43325,-0.0224 z"
         id="path344" /><path
         style="fill:#a99027;stroke-width:0.0846667"
         d="m 85.639483,125.98783 c 0,-0.11642 0.01922,-0.16404 0.0427,-0.10584 0.02349,0.0582 0.02349,0.15346 0,0.21167 -0.02349,0.0582 -0.0427,0.0106 -0.0427,-0.10583 z m -0.09135,-0.47272 c 0.0041,-0.0986 0.02412,-0.1187 0.05115,-0.0512 0.02446,0.0611 0.02145,0.13415 -0.0067,0.16228 -0.02813,0.0281 -0.04815,-0.0219 -0.04447,-0.11112 z m -0.08467,-0.42334 c 0.0041,-0.0986 0.02412,-0.11869 0.05115,-0.0511 0.02446,0.0611 0.02145,0.13414 -0.0067,0.16228 -0.02813,0.0281 -0.04814,-0.0219 -0.04447,-0.11113 z m -0.08467,-0.42333 c 0.0041,-0.0986 0.02412,-0.1187 0.05115,-0.0512 0.02446,0.0611 0.02145,0.13414 -0.0067,0.16227 -0.02813,0.0281 -0.04814,-0.0219 -0.04447,-0.11112 z m -0.169334,-0.762 c 0.0041,-0.0986 0.02412,-0.1187 0.05115,-0.0512 0.02446,0.0611 0.02145,0.13414 -0.0067,0.16227 -0.02813,0.0281 -0.04815,-0.0219 -0.04447,-0.11112 z m -0.128241,-0.43379 c -0.04595,-0.12067 -0.03622,-0.1304 0.0474,-0.0474 0.05786,0.0574 0.08388,0.12575 0.05781,0.15182 -0.02607,0.0261 -0.07341,-0.0209 -0.105205,-0.10442 z M 64.042799,101.97777 c 0.0041,-0.0986 0.02412,-0.11869 0.05115,-0.0512 0.02446,0.0611 0.02145,0.13414 -0.0067,0.16228 -0.02813,0.0281 -0.04814,-0.0219 -0.04447,-0.11113 z m -0.08467,-0.42333 c 0.0041,-0.0986 0.02412,-0.1187 0.05115,-0.0511 0.02446,0.0611 0.02145,0.13414 -0.0067,0.16227 -0.02813,0.0281 -0.04814,-0.0219 -0.04447,-0.11112 z m -0.169333,-0.762 c 0.0041,-0.0986 0.02413,-0.1187 0.05115,-0.0511 0.02446,0.0611 0.02145,0.13414 -0.0067,0.16227 -0.02813,0.0281 -0.04814,-0.0219 -0.04447,-0.11112 z m -0.08467,-0.42334 c 0.0041,-0.0986 0.02412,-0.11869 0.05115,-0.0512 0.02446,0.0611 0.02145,0.13415 -0.0067,0.16228 -0.02813,0.0281 -0.04814,-0.0219 -0.04447,-0.11113 z m -0.08467,-0.507996 c 0.0041,-0.09863 0.02412,-0.118694 0.05115,-0.05115 0.02446,0.06112 0.02145,0.134143 -0.0067,0.162277 -0.02813,0.02813 -0.04814,-0.02187 -0.04447,-0.111125 z"
         id="path342" /><path
         style="fill:#506ea1;stroke-width:0.0846667"
         d="m 146.99865,122.45299 c -0.10531,-0.13428 -0.10232,-0.13728 0.032,-0.032 0.0815,0.0639 0.14816,0.13058 0.14816,0.14816 0,0.0697 -0.0695,0.0248 -0.18013,-0.1162 z"
         id="path340" /><path
         style="fill:#4e6ca0;stroke-width:0.0846667"
         d="m 70.379707,117.11899 -0.205259,-0.23283 0.232834,0.20526 c 0.217618,0.19184 0.27166,0.26041 0.205258,0.26041 -0.01517,0 -0.119941,-0.10478 -0.232833,-0.23284 z m 76.714413,-13.61016 c 0.15797,-0.16299 0.30626,-0.29634 0.32955,-0.29634 0.0233,0 -0.0869,0.13335 -0.24489,0.29634 -0.15797,0.16298 -0.30626,0.29633 -0.32954,0.29633 -0.0233,0 0.0869,-0.13335 0.24488,-0.29633 z m -24.68034,-0.80434 c 0.0843,-0.0931 0.1723,-0.16933 0.19558,-0.16933 0.0233,0 -0.0266,0.0762 -0.11091,0.16933 -0.0843,0.0931 -0.1723,0.16934 -0.19558,0.16934 -0.0233,0 0.0266,-0.0762 0.11091,-0.16934 z"
         id="path338" /><path
         style="fill:#46659b;stroke-width:0.0846667"
         d="m 157.40228,126.26674 c 0.10478,-0.0202 0.27623,-0.0202 0.381,0 0.10478,0.0202 0.0191,0.0367 -0.1905,0.0367 -0.20955,0 -0.29527,-0.0165 -0.1905,-0.0367 z m -26.49968,-5.92679 c 0.10532,-0.0203 0.25772,-0.0195 0.33867,0.002 0.081,0.0212 -0.005,0.0378 -0.19149,0.0368 -0.18626,-9.4e-4 -0.25249,-0.0183 -0.14718,-0.0385 z m 4.17553,-2.27551 c 0.004,-0.0986 0.0241,-0.1187 0.0512,-0.0512 0.0245,0.0611 0.0215,0.13414 -0.007,0.16227 -0.0281,0.0281 -0.0482,-0.0219 -0.0445,-0.11112 z m 15.5151,-5.07295 c 0,-0.32596 0.0157,-0.44894 0.034,-0.27328 0.0183,0.17567 0.018,0.44237 -8.5e-4,0.59267 -0.0187,0.15031 -0.0337,0.007 -0.0333,-0.31939 z m 13.9489,-0.007 c 0.004,-0.0986 0.0241,-0.11869 0.0512,-0.0512 0.0245,0.0611 0.0215,0.13414 -0.007,0.16228 -0.0281,0.0281 -0.0481,-0.0219 -0.0445,-0.11113 z M 98.987982,106.1124 c 0.992676,-0.0135 2.592878,-0.0135 3.555998,4e-5 0.96313,0.0136 0.15094,0.0247 -1.80486,0.0246 -1.955804,-2e-5 -2.743815,-0.0111 -1.751138,-0.0247 z m 14.472298,2e-5 c 0.98954,-0.0135 2.60879,-0.0135 3.59834,0 0.98954,0.0135 0.17991,0.0246 -1.79917,0.0246 -1.97908,0 -2.78871,-0.0111 -1.79917,-0.0246 z m 43.18,-6.427333 c 0.0582,-0.02349 0.15346,-0.02349 0.21167,0 0.0582,0.02349 0.0106,0.0427 -0.10583,0.0427 -0.11642,0 -0.16404,-0.01922 -0.10584,-0.0427 z m 1.69334,0 c 0.0582,-0.02349 0.15346,-0.02349 0.21166,0 0.0582,0.02349 0.0106,0.0427 -0.10583,0.0427 -0.11642,0 -0.16404,-0.01922 -0.10583,-0.0427 z"
         id="path336" /><path
         style="fill:#887c36;stroke-width:0.0846667"
         d="m 63.619466,100.1151 c 0.0041,-0.0986 0.02412,-0.11869 0.05115,-0.0511 0.02446,0.0611 0.02145,0.13415 -0.0067,0.16228 -0.02813,0.0281 -0.04814,-0.0219 -0.04447,-0.11113 z"
         id="path334" /><path
         style="fill:#3f6098;stroke-width:0.0846667"
         d="m 129.03895,126.35509 c 0.0582,-0.0235 0.15346,-0.0235 0.21167,0 0.0582,0.0235 0.0106,0.0427 -0.10584,0.0427 -0.11641,0 -0.16404,-0.0192 -0.10583,-0.0427 z m -58.240302,-8.81276 c -0.105314,-0.13429 -0.102319,-0.13728 0.03197,-0.032 0.08149,0.0639 0.148167,0.13059 0.148167,0.14817 0,0.0697 -0.06953,0.0248 -0.180134,-0.1162 z m -0.846666,-0.84667 c -0.105315,-0.13429 -0.10232,-0.13728 0.03197,-0.032 0.08149,0.0639 0.148167,0.13059 0.148167,0.14817 0,0.0697 -0.06953,0.0248 -0.180133,-0.1162 z m 101.716818,-3.1115 c 9.4e-4,-0.18627 0.0183,-0.2525 0.0385,-0.14718 0.0203,0.10532 0.0195,0.25772 -0.002,0.33867 -0.0212,0.081 -0.0378,-0.005 -0.0368,-0.19149 z m -31.65239,-0.65617 -0.16129,-0.1905 0.1905,0.16129 c 0.17902,0.15157 0.22904,0.21971 0.16129,0.21971 -0.0161,0 -0.1018,-0.0857 -0.1905,-0.1905 z m 31.65239,-0.52916 c 9.4e-4,-0.18627 0.0183,-0.2525 0.0385,-0.14718 0.0203,0.10532 0.0195,0.25772 -0.002,0.33866 -0.0212,0.081 -0.0378,-0.005 -0.0368,-0.19148 z"
         id="path332" /><path
         style="fill:#3a5b95;stroke-width:0.0846667"
         d="m 111.49036,115.91249 c 0,-5.28531 0.0102,-7.44749 0.0226,-4.80483 0.0124,2.64266 0.0124,6.96701 0,9.60967 -0.0124,2.64266 -0.0226,0.48048 -0.0226,-4.80484 z m 18.90326,4.43126 c 0.0582,-0.0235 0.15346,-0.0235 0.21166,0 0.0582,0.0235 0.0106,0.0427 -0.10583,0.0427 -0.11642,0 -0.16404,-0.0192 -0.10583,-0.0427 z m 1.10596,-0.002 c 0.0611,-0.0245 0.13414,-0.0215 0.16227,0.007 0.0281,0.0281 -0.0219,0.0482 -0.11112,0.0445 -0.0986,-0.004 -0.1187,-0.0241 -0.0511,-0.0512 z m 33.04924,-6.9695 c 0,-0.11641 0.0192,-0.16404 0.0427,-0.10583 0.0235,0.0582 0.0235,0.15346 0,0.21167 -0.0235,0.0582 -0.0427,0.0106 -0.0427,-0.10584 z m 0,-0.762 c 0,-0.11641 0.0192,-0.16404 0.0427,-0.10583 0.0235,0.0582 0.0235,0.15346 0,0.21167 -0.0235,0.0582 -0.0427,0.0106 -0.0427,-0.10584 z M 127.5428,107.4811 c 0.004,-0.0986 0.0241,-0.11869 0.0512,-0.0511 0.0245,0.0611 0.0214,0.13415 -0.007,0.16228 -0.0281,0.0281 -0.0481,-0.0219 -0.0445,-0.11113 z m 2.51744,-7.628444 c 0.0611,-0.02446 0.13415,-0.02145 0.16228,0.0067 0.0281,0.02813 -0.0219,0.04814 -0.11113,0.04447 -0.0986,-0.0041 -0.11869,-0.02412 -0.0512,-0.05115 z m 2.11667,0 c 0.0611,-0.02446 0.13414,-0.02145 0.16228,0.0067 0.0281,0.02813 -0.0219,0.04814 -0.11113,0.04447 -0.0986,-0.0041 -0.11869,-0.02412 -0.0512,-0.05115 z m 25.09837,-0.173173 c 0.17463,-0.01827 0.46038,-0.01827 0.635,0 0.17463,0.01827 0.0317,0.03321 -0.3175,0.03321 -0.34925,0 -0.49212,-0.01495 -0.3175,-0.03321 z"
         id="path330" /><path
         style="fill:#6d6d46;stroke-width:0.0846667"
         d="m 85.548133,125.93844 c 0.0041,-0.0986 0.02412,-0.1187 0.05115,-0.0512 0.02446,0.0611 0.02145,0.13414 -0.0067,0.16227 -0.02813,0.0281 -0.04815,-0.0219 -0.04447,-0.11112 z M 63.534799,99.861104 c 0.0041,-0.09863 0.02412,-0.118694 0.05115,-0.05115 0.02446,0.06112 0.02145,0.134143 -0.0067,0.162277 -0.02813,0.02813 -0.04814,-0.02187 -0.04447,-0.111125 z"
         id="path328" /><path
         style="fill:#325591;stroke-width:0.0846667"
         d="m 168.17612,122.31519 c 0,-0.0176 0.0667,-0.0842 0.14816,-0.14816 0.13429,-0.10532 0.13728,-0.10232 0.032,0.032 -0.1106,0.14104 -0.18013,0.18589 -0.18013,0.1162 z m -5.842,-3.80452 c 0,-0.0146 0.12382,-0.1384 0.27516,-0.27517 l 0.27517,-0.24867 -0.24867,0.27516 c -0.2318,0.2565 -0.30166,0.31409 -0.30166,0.24868 z m -9.82134,-10.75814 c 0,-0.0176 0.0667,-0.0843 0.14817,-0.14817 0.13429,-0.10531 0.13728,-0.10232 0.032,0.032 -0.11061,0.14103 -0.18014,0.18588 -0.18014,0.1162 z m 10.02496,-0.15854 -0.16129,-0.1905 0.1905,0.16129 c 0.17902,0.15157 0.22904,0.21971 0.16129,0.21971 -0.0161,0 -0.10179,-0.0857 -0.1905,-0.1905 z m 5.50605,-4.064 -0.24867,-0.27516 0.27516,0.24867 c 0.2565,0.2318 0.31409,0.30166 0.24868,0.30166 -0.0146,0 -0.1384,-0.12382 -0.27517,-0.27517 z"
         id="path326" /><path
         style="fill:#294d8c;stroke-width:0.0846667"
         d="m 106.26362,125.58576 c 0.94297,-0.0136 2.48602,-0.0136 3.429,0 0.94297,0.0136 0.17145,0.0248 -1.7145,0.0248 -1.88595,0 -2.65748,-0.0112 -1.7145,-0.0248 z m 33.67616,-2.2226 c 0.0843,-0.0931 0.1723,-0.16933 0.19558,-0.16933 0.0233,0 -0.0266,0.0762 -0.11091,0.16933 -0.0843,0.0931 -0.17229,0.16933 -0.19558,0.16933 -0.0233,0 0.0266,-0.0762 0.11091,-0.16933 z m 7.31287,-0.74083 c -0.10531,-0.13429 -0.10232,-0.13728 0.032,-0.032 0.0815,0.0639 0.14816,0.13059 0.14816,0.14817 0,0.0697 -0.0695,0.0248 -0.18013,-0.1162 z m -27.21758,-0.381 -0.16129,-0.1905 0.1905,0.16129 c 0.10478,0.0887 0.1905,0.17443 0.1905,0.1905 0,0.0678 -0.0681,0.0177 -0.21971,-0.16129 z m 32.51472,-3.97934 -0.24867,-0.27516 0.27516,0.24867 c 0.2565,0.2318 0.31409,0.30166 0.24868,0.30166 -0.0146,0 -0.1384,-0.12382 -0.27517,-0.27517 z m -30.14405,-5.50333 -0.16129,-0.1905 0.1905,0.16129 c 0.10477,0.0887 0.1905,0.17443 0.1905,0.1905 0,0.0678 -0.0681,0.0177 -0.21971,-0.16129 z m 5.54291,-4.10633 c -0.10531,-0.13429 -0.10232,-0.13728 0.032,-0.032 0.14103,0.11061 0.18588,0.18013 0.1162,0.18013 -0.0176,0 -0.0843,-0.0667 -0.14817,-0.14816 z m -7.4145,-1.12184 c 0,-0.25611 0.0159,-0.36089 0.0353,-0.23283 0.0194,0.12806 0.0194,0.33761 0,0.46567 -0.0194,0.12806 -0.0353,0.0233 -0.0353,-0.23284 z m -23.440082,-4.318 c 0,-1.55998 0.01143,-2.19815 0.0254,-1.41816 0.01397,0.77999 0.01397,2.05634 0,2.83633 -0.01397,0.77999 -0.0254,0.14182 -0.0254,-1.41817 z m 21.844002,0 c 0,-1.55998 0.0114,-2.19815 0.0254,-1.41816 0.014,0.77999 0.014,2.05634 0,2.83633 -0.014,0.77999 -0.0254,0.14182 -0.0254,-1.41817 z m 38.46573,2.47864 c 0.15218,-0.0188 0.38078,-0.0185 0.508,8.7e-4 0.12723,0.0193 0.003,0.0347 -0.27668,0.0343 -0.2794,-4.8e-4 -0.38349,-0.0163 -0.23132,-0.0351 z m -26.41752,-0.25239 c 0.10478,-0.0202 0.27623,-0.0202 0.381,0 0.10478,0.0202 0.019,0.0367 -0.1905,0.0367 -0.20955,0 -0.29527,-0.0165 -0.1905,-0.0367 z m -0.20911,-5.590584 c 0.2226,-0.0175 0.5655,-0.01729 0.762,4.69e-4 0.1965,0.01776 0.0144,0.03207 -0.40472,0.03181 -0.4191,-2.58e-4 -0.57988,-0.01479 -0.35728,-0.03228 z"
         id="path324" /><path
         style="fill:#244989;stroke-width:0.0846667"
         d="m 134.47878,119.43653 c 0,-0.0176 0.0667,-0.0843 0.14817,-0.14817 0.13429,-0.10531 0.13728,-0.10232 0.032,0.032 -0.11061,0.14103 -0.18014,0.18588 -0.18014,0.1162 z m -64.140325,-2.2752 -0.248673,-0.27517 0.275166,0.24867 c 0.151342,0.13677 0.275167,0.2606 0.275167,0.27517 0,0.0654 -0.06986,0.008 -0.30166,-0.24867 z m 76.797995,-13.61017 c 0.22933,-0.23283 0.43602,-0.42333 0.4593,-0.42333 0.0233,0 -0.1453,0.1905 -0.37463,0.42333 -0.22933,0.23283 -0.43602,0.42333 -0.4593,0.42333 -0.0233,0 0.1453,-0.1905 0.37463,-0.42333 z m -24.68033,-0.80433 c 0.10936,-0.11642 0.2179,-0.21167 0.24118,-0.21167 0.0233,0 -0.0472,0.0952 -0.15652,0.21167 -0.10936,0.11641 -0.2179,0.21166 -0.24118,0.21166 -0.0233,0 0.0472,-0.0952 0.15652,-0.21166 z"
         id="path322" /><path
         style="fill:#495754;stroke-width:0.0846667"
         d="m 85.570666,126.28051 c -0.02758,-0.0719 -0.03122,-0.14957 -0.0081,-0.17269 0.02312,-0.0231 0.06236,0.0357 0.0872,0.13065 0.05276,0.20175 -0.0059,0.23291 -0.0791,0.042 z m -0.1072,-0.59607 c 0.0041,-0.0986 0.02412,-0.1187 0.05115,-0.0511 0.02446,0.0611 0.02145,0.13414 -0.0067,0.16227 -0.02813,0.0281 -0.04814,-0.0219 -0.04447,-0.11112 z m -0.08467,-0.42333 c 0.0041,-0.0986 0.02412,-0.1187 0.05115,-0.0512 0.02446,0.0611 0.02145,0.13415 -0.0067,0.16228 -0.02813,0.0281 -0.04814,-0.0219 -0.04447,-0.11112 z m -0.08467,-0.42334 c 0.0041,-0.0986 0.02412,-0.11869 0.05115,-0.0512 0.02446,0.0611 0.02145,0.13414 -0.0067,0.16228 -0.02813,0.0281 -0.04815,-0.0219 -0.04447,-0.11113 z M 63.958132,102.1471 c 0.0041,-0.0986 0.02412,-0.11869 0.05115,-0.0511 0.02446,0.0611 0.02145,0.13415 -0.0067,0.16228 -0.02813,0.0281 -0.04814,-0.0219 -0.04447,-0.11113 z m -0.08467,-0.42333 c 0.0041,-0.0986 0.02412,-0.11869 0.05115,-0.0512 0.02446,0.0611 0.02145,0.13414 -0.0067,0.16228 -0.02813,0.0281 -0.04815,-0.0219 -0.04447,-0.11113 z"
         id="path320" /><path
         style="fill:#1b4184;stroke-width:0.0846667"
         d="m 67.365907,126.263 c 3.344803,-0.0123 8.793103,-0.0123 12.107334,0 3.314231,0.0123 0.577574,0.0223 -6.081459,0.0223 -6.659034,0 -9.370677,-0.01 -6.025875,-0.0223 z m 62.096373,0.007 c 0.0582,-0.0235 0.15346,-0.0235 0.21167,0 0.0582,0.0235 0.0106,0.0427 -0.10583,0.0427 -0.11642,0 -0.16404,-0.0192 -0.10584,-0.0427 z m 2.62467,0 c 0.0582,-0.0235 0.15346,-0.0235 0.21167,0 0.0582,0.0235 0.0106,0.0427 -0.10584,0.0427 -0.11641,0 -0.16404,-0.0192 -0.10583,-0.0427 z m 24.63899,-0.0885 c 0.10532,-0.0203 0.25772,-0.0195 0.33867,0.002 0.0809,0.0212 -0.005,0.0378 -0.19149,0.0368 -0.18627,-9.4e-4 -0.2525,-0.0183 -0.14718,-0.0385 z m 1.43933,0 c 0.10532,-0.0203 0.25772,-0.0195 0.33867,0.002 0.0809,0.0212 -0.005,0.0378 -0.19149,0.0368 -0.18627,-9.4e-4 -0.2525,-0.0183 -0.14718,-0.0385 z m -53.61758,-10.26946 c 0,-5.28531 0.0102,-7.44749 0.0226,-4.80483 0.0124,2.64266 0.0124,6.96701 0,9.60967 -0.0124,2.64266 -0.0226,0.48048 -0.0226,-4.80484 z m 16.28896,7.0485 c -0.10531,-0.13428 -0.10232,-0.13728 0.032,-0.032 0.14103,0.1106 0.18588,0.18013 0.1162,0.18013 -0.0176,0 -0.0843,-0.0667 -0.14817,-0.14817 z m 36.5233,-2.70647 c 0.12806,-0.0194 0.33761,-0.0194 0.46567,0 0.12806,0.0194 0.0233,0.0353 -0.23284,0.0353 -0.25611,0 -0.36089,-0.0159 -0.23283,-0.0353 z m -15.32933,-1.67503 c 0.002,-0.1397 0.0207,-0.1866 0.0422,-0.10422 0.0215,0.0824 0.0201,0.19668 -0.003,0.254 -0.0232,0.0573 -0.0408,-0.0101 -0.039,-0.14978 z m 0,-0.84666 c 0.002,-0.1397 0.0207,-0.1866 0.0422,-0.10423 0.0215,0.0824 0.0201,0.19668 -0.003,0.254 -0.0232,0.0573 -0.0408,-0.0101 -0.039,-0.14977 z m -71.316638,-0.1905 c -0.105315,-0.13429 -0.10232,-0.13728 0.03197,-0.032 0.08149,0.0639 0.148167,0.13059 0.148167,0.14817 0,0.0697 -0.06953,0.0248 -0.180133,-0.1162 z m -0.762,-0.762 c -0.105315,-0.13429 -0.10232,-0.13728 0.03197,-0.032 0.08149,0.0639 0.148167,0.13059 0.148167,0.14817 0,0.0697 -0.06953,0.0248 -0.180133,-0.1162 z m 73.617058,-3.78884 c 2.5e-4,-0.46566 0.0144,-0.64536 0.0316,-0.39933 0.0172,0.24604 0.017,0.62704 -4.3e-4,0.84667 -0.0174,0.21963 -0.0314,0.0183 -0.0312,-0.44734 z m -3.59148,-0.0212 -0.29178,-0.3175 0.3175,0.29177 c 0.29553,0.27158 0.35643,0.34323 0.29178,0.34323 -0.0142,0 -0.15702,-0.14288 -0.3175,-0.3175 z m 18.27668,-7.27567 c 0.0611,-0.0245 0.13415,-0.0215 0.16228,0.007 0.0281,0.0281 -0.0219,0.0481 -0.11112,0.0445 -0.0986,-0.004 -0.1187,-0.0241 -0.0512,-0.0512 z m -27.77066,-0.254 c 0.0611,-0.0245 0.13414,-0.0214 0.16227,0.007 0.0281,0.0281 -0.0219,0.0482 -0.11112,0.0445 -0.0986,-0.004 -0.1187,-0.0241 -0.0512,-0.0512 z m 1.2647,0.002 c 0.0582,-0.0235 0.15346,-0.0235 0.21167,0 0.0582,0.0235 0.0106,0.0427 -0.10583,0.0427 -0.11642,0 -0.16404,-0.0192 -0.10584,-0.0427 z m 36.67103,-1.44676 c -0.1053,-0.13429 -0.10232,-0.13728 0.032,-0.032 0.0815,0.0639 0.14817,0.13059 0.14817,0.14817 0,0.0697 -0.0695,0.0248 -0.18014,-0.1162 z M 102.62953,100.355 c 2.99552,-0.0123 7.87232,-0.0123 10.83733,10e-6 2.96501,0.0123 0.51412,0.0224 -5.44641,0.0224 -5.96053,0 -8.386449,-0.0101 -5.39092,-0.0224 z m 53.59271,-0.58701 c 0.0611,-0.02446 0.13415,-0.02145 0.16228,0.0067 0.0281,0.02813 -0.0219,0.04814 -0.11112,0.04447 -0.0986,-0.0041 -0.1187,-0.02412 -0.0512,-0.05115 z m 2.62467,0 c 0.0611,-0.02446 0.13415,-0.02145 0.16228,0.0067 0.0281,0.02813 -0.0219,0.04814 -0.11113,0.04447 -0.0986,-0.0041 -0.11869,-0.02412 -0.0511,-0.05115 z"
         id="path318" /><path
         style="fill:#2e4763;stroke-width:0.0846667"
         d="m 85.463466,125.93844 c 0.0041,-0.0986 0.02412,-0.1187 0.05115,-0.0512 0.02446,0.0611 0.02145,0.13414 -0.0067,0.16227 -0.02813,0.0281 -0.04814,-0.0219 -0.04447,-0.11112 z m -0.08467,-0.42333 c 0.0041,-0.0986 0.02412,-0.1187 0.05115,-0.0512 0.02446,0.0611 0.02145,0.13415 -0.0067,0.16228 -0.02813,0.0281 -0.04814,-0.0219 -0.04447,-0.11112 z m -0.08467,-0.42334 c 0.0041,-0.0986 0.02412,-0.11869 0.05115,-0.0511 0.02446,0.0611 0.02145,0.13414 -0.0067,0.16228 -0.02813,0.0281 -0.04815,-0.0219 -0.04447,-0.11113 z m -0.08467,-0.42333 c 0.0041,-0.0986 0.02412,-0.1187 0.05115,-0.0512 0.02446,0.0611 0.02145,0.13414 -0.0067,0.16227 -0.02813,0.0281 -0.04815,-0.0219 -0.04447,-0.11112 z m -0.08467,-0.42333 c 0.0041,-0.0986 0.02413,-0.1187 0.05115,-0.0512 0.02446,0.0611 0.02145,0.13415 -0.0067,0.16228 -0.02813,0.0281 -0.04815,-0.0219 -0.04447,-0.11112 z m -0.08467,-0.42334 c 0.0041,-0.0986 0.02412,-0.11869 0.05115,-0.0512 0.02446,0.0611 0.02145,0.13414 -0.0067,0.16228 -0.02813,0.0281 -0.04814,-0.0219 -0.04447,-0.11113 z m -21.166667,-21.844 c 0.0041,-0.0986 0.02412,-0.11869 0.05115,-0.0512 0.02446,0.0611 0.02145,0.13414 -0.0067,0.16228 -0.02813,0.0281 -0.04815,-0.0219 -0.04447,-0.11113 z m -0.08467,-0.42333 c 0.0041,-0.0986 0.02413,-0.1187 0.05115,-0.0511 0.02446,0.0611 0.02145,0.13414 -0.0067,0.16227 -0.02813,0.0281 -0.04814,-0.0219 -0.04447,-0.11112 z m -0.08467,-0.42334 c 0.0041,-0.0986 0.02412,-0.11869 0.05115,-0.0512 0.02446,0.0611 0.02145,0.13415 -0.0067,0.16228 -0.02813,0.0281 -0.04814,-0.0219 -0.04447,-0.11113 z m -0.08467,-0.42333 c 0.0041,-0.0986 0.02412,-0.11869 0.05115,-0.0511 0.02446,0.0611 0.02145,0.13414 -0.0067,0.16228 -0.02813,0.0281 -0.04814,-0.0219 -0.04447,-0.11113 z m -0.08467,-0.42333 c 0.0041,-0.0986 0.02412,-0.1187 0.05115,-0.0512 0.02446,0.0611 0.02145,0.13414 -0.0067,0.16227 -0.02813,0.0281 -0.04814,-0.0219 -0.04447,-0.11112 z m -0.08467,-0.423336 c 0.0041,-0.09863 0.02412,-0.118694 0.05115,-0.05115 0.02446,0.06112 0.02145,0.134143 -0.0067,0.162277 -0.02813,0.02813 -0.04815,-0.02187 -0.04447,-0.111125 z"
         id="path316" /><path
         style="fill:#143c81;stroke-width:0.0846667"
         d="m 129.88562,126.26674 c 0.10477,-0.0202 0.27622,-0.0202 0.381,0 0.10477,0.0202 0.0191,0.0367 -0.1905,0.0367 -0.20955,0 -0.29528,-0.0165 -0.1905,-0.0367 z m 1.73566,0.001 c 0.0815,-0.0213 0.21485,-0.0213 0.29634,0 0.0815,0.0213 0.0148,0.0387 -0.14817,0.0387 -0.16298,0 -0.22966,-0.0174 -0.14817,-0.0387 z m 25.73867,-0.087 c 0.12806,-0.0194 0.33761,-0.0194 0.46567,0 0.12806,0.0194 0.0233,0.0353 -0.23284,0.0353 -0.25611,0 -0.36089,-0.0159 -0.23283,-0.0353 z m -36.81688,-3.51652 -0.16129,-0.1905 0.1905,0.16129 c 0.17903,0.15157 0.22905,0.21971 0.16129,0.21971 -0.0161,0 -0.10179,-0.0857 -0.1905,-0.1905 z m 47.04038,0.15853 c 0,-0.0176 0.0667,-0.0842 0.14817,-0.14816 0.13429,-0.10532 0.13728,-0.10232 0.032,0.032 -0.11061,0.14104 -0.18014,0.18589 -0.18014,0.1162 z m 0.59267,-0.59266 c 0,-0.0176 0.0667,-0.0843 0.14816,-0.14817 0.13429,-0.10531 0.13728,-0.10232 0.032,0.032 -0.1106,0.14103 -0.18013,0.18588 -0.18013,0.1162 z m -37.23056,-1.80471 c 0.0824,-0.0215 0.19668,-0.02 0.254,0.003 0.0573,0.0232 -0.0101,0.0408 -0.14978,0.039 -0.1397,-0.002 -0.1866,-0.0207 -0.10422,-0.0422 z m 26.03868,-0.1685 c 0.0611,-0.0245 0.13415,-0.0215 0.16228,0.007 0.0281,0.0281 -0.0219,0.0482 -0.11112,0.0445 -0.0986,-0.004 -0.1187,-0.0241 -0.0512,-0.0511 z m 1.10067,0 c 0.0611,-0.0245 0.13415,-0.0215 0.16228,0.007 0.0281,0.0281 -0.0219,0.0482 -0.11113,0.0445 -0.0986,-0.004 -0.11869,-0.0241 -0.0511,-0.0511 z m 4.24921,-1.66199 c 0,-0.0146 0.12382,-0.13839 0.27516,-0.27516 l 0.27517,-0.24868 -0.24867,0.27517 c -0.2318,0.25649 -0.30166,0.31408 -0.30166,0.24867 z m -20.3035,-0.43917 c 0.002,-0.1397 0.0207,-0.1866 0.0422,-0.10422 0.0215,0.0824 0.0201,0.19668 -0.003,0.254 -0.0232,0.0573 -0.0408,-0.0101 -0.039,-0.14978 z m -18.49641,-0.47617 c 0.0574,-0.0579 0.12575,-0.0839 0.15181,-0.0578 0.0261,0.0261 -0.0209,0.0734 -0.10442,0.1052 -0.12067,0.046 -0.13039,0.0362 -0.0474,-0.0474 z m -53.836228,-1.15366 c -0.105314,-0.13429 -0.10232,-0.13728 0.03197,-0.032 0.08149,0.0639 0.148167,0.13059 0.148167,0.14817 0,0.0697 -0.06953,0.0248 -0.180133,-0.1162 z m 80.810578,-3.53484 c 0,-0.32596 0.0157,-0.44894 0.034,-0.27328 0.0183,0.17567 0.018,0.44237 -8.4e-4,0.59267 -0.0187,0.15031 -0.0337,0.007 -0.0333,-0.31939 z m 20.97624,-1.44639 c 0.004,-0.0986 0.0241,-0.11869 0.0512,-0.0512 0.0245,0.0611 0.0215,0.13415 -0.007,0.16228 -0.0281,0.0281 -0.0481,-0.0219 -0.0445,-0.11113 z m -8.90749,-3.99344 c -0.1053,-0.13429 -0.10232,-0.13728 0.032,-0.032 0.14103,0.11061 0.18589,0.18014 0.1162,0.18014 -0.0176,0 -0.0842,-0.0667 -0.14817,-0.14817 z M 98.987982,106.0273 c 0.992676,-0.0136 2.592878,-0.0135 3.555998,3e-5 0.96313,0.0136 0.15094,0.0247 -1.80486,0.0246 -1.955804,-2e-5 -2.743815,-0.0111 -1.751138,-0.0247 z m 14.472298,1e-5 c 0.98954,-0.0135 2.60879,-0.0135 3.59834,0 0.98954,0.0136 0.17991,0.0246 -1.79917,0.0246 -1.97908,0 -2.78871,-0.0111 -1.79917,-0.0246 z m 54.50018,-2.49776 -0.33468,-0.35983 0.35984,0.33468 c 0.19791,0.18408 0.35983,0.346 0.35983,0.35984 0,0.064 -0.0737,-5e-5 -0.38499,-0.33469 z m -35.36022,-3.592667 c 0.0611,-0.02446 0.13415,-0.02145 0.16228,0.0067 0.0281,0.02813 -0.0219,0.04815 -0.11113,0.04447 -0.0986,-0.0041 -0.11869,-0.02413 -0.0511,-0.05115 z m 23.91304,-0.169859 c 0.0815,-0.0213 0.21485,-0.0213 0.29634,0 0.0815,0.0213 0.0148,0.03872 -0.14817,0.03872 -0.16298,0 -0.22966,-0.01742 -0.14817,-0.03872 z m 1.94895,-3.11e-4 c 0.0824,-0.02147 0.19668,-0.02005 0.254,0.0031 0.0573,0.02319 -0.0101,0.04076 -0.14978,0.03903 -0.1397,-0.0017 -0.1866,-0.0207 -0.10422,-0.04217 z"
         id="path314" /><path
         style="fill:#10387e;stroke-width:0.0846667"
         d="m 130.48358,126.26866 c 0.0611,-0.0245 0.13414,-0.0215 0.16227,0.007 0.0281,0.0281 -0.0219,0.0481 -0.11112,0.0445 -0.0986,-0.004 -0.1187,-0.0241 -0.0512,-0.0512 z m 0.84666,0 c 0.0611,-0.0245 0.13415,-0.0215 0.16228,0.007 0.0281,0.0281 -0.0219,0.0481 -0.11113,0.0445 -0.0986,-0.004 -0.11869,-0.0241 -0.0512,-0.0512 z m 8.60954,-2.99017 c 0.18189,-0.18626 0.34975,-0.33866 0.37304,-0.33866 0.0233,0 -0.10649,0.1524 -0.28837,0.33866 -0.18188,0.18627 -0.34975,0.33867 -0.37303,0.33867 -0.0233,0 0.10648,-0.1524 0.28836,-0.33867 z m 7.44263,-0.61383 -0.16129,-0.1905 0.1905,0.16129 c 0.17902,0.15157 0.22904,0.21971 0.16129,0.21971 -0.0161,0 -0.1018,-0.0857 -0.1905,-0.1905 z m 20.58204,-0.23283 c 0.0843,-0.0931 0.1723,-0.16934 0.19558,-0.16934 0.0233,0 -0.0266,0.0762 -0.11091,0.16934 -0.0843,0.0931 -0.1723,0.16933 -0.19558,0.16933 -0.0233,0 0.0266,-0.0762 0.11091,-0.16933 z m -47.84199,-0.1905 -0.24868,-0.27517 0.27517,0.24867 c 0.15134,0.13677 0.27517,0.2606 0.27517,0.27517 0,0.0654 -0.0699,0.008 -0.30166,-0.24867 z m 26.70685,-0.127 c -0.1053,-0.13429 -0.10232,-0.13728 0.032,-0.032 0.14103,0.11061 0.18589,0.18013 0.1162,0.18013 -0.0176,0 -0.0843,-0.0667 -0.14817,-0.14816 z m -16.1764,-1.68767 c 0.0611,-0.0245 0.13414,-0.0215 0.16228,0.007 0.0281,0.0281 -0.0219,0.0481 -0.11113,0.0445 -0.0986,-0.004 -0.11869,-0.0241 -0.0512,-0.0512 z m 0.67733,0 c 0.0611,-0.0245 0.13415,-0.0215 0.16228,0.007 0.0281,0.0281 -0.0219,0.0481 -0.11113,0.0445 -0.0986,-0.004 -0.11869,-0.0241 -0.0512,-0.0512 z m 21.17613,-2.12233 -0.20525,-0.23284 0.23283,0.20526 c 0.12806,0.11289 0.23283,0.21767 0.23283,0.23284 0,0.0664 -0.0686,0.0123 -0.26041,-0.20526 z m 18.97843,-4.04989 c 0.004,-0.0986 0.0241,-0.1187 0.0512,-0.0512 0.0245,0.0611 0.0215,0.13414 -0.007,0.16227 -0.0281,0.0281 -0.0481,-0.0219 -0.0445,-0.11112 z m -48.99033,-1.49578 -0.33469,-0.35983 0.35984,0.33468 c 0.33464,0.31125 0.39874,0.38498 0.33468,0.38498 -0.0138,0 -0.17576,-0.16192 -0.35983,-0.35983 z m 42.13233,0.0564 c 0.004,-0.0986 0.0241,-0.11869 0.0512,-0.0512 0.0245,0.0611 0.0215,0.13415 -0.007,0.16228 -0.0281,0.0281 -0.0481,-0.0219 -0.0445,-0.11113 z m -36.67815,-4.07811 c -0.10531,-0.13428 -0.10232,-0.13728 0.032,-0.032 0.14103,0.1106 0.18588,0.18013 0.1162,0.18013 -0.0176,0 -0.0843,-0.0667 -0.14817,-0.14817 z m -7.34852,-0.40922 c 0.004,-0.0986 0.0241,-0.11869 0.0512,-0.0512 0.0245,0.0611 0.0215,0.13414 -0.007,0.16228 -0.0281,0.0281 -0.0482,-0.0219 -0.0445,-0.11113 z m 31.65865,-0.40591 c 0,-0.0176 0.0667,-0.0843 0.14817,-0.14817 0.13429,-0.10531 0.13728,-0.10232 0.032,0.032 -0.11061,0.14103 -0.18014,0.18588 -0.18014,0.1162 z m -15.32466,-0.84797 c 0,-0.0183 0.0591,-0.056 0.13139,-0.0837 0.0754,-0.0289 0.10934,-0.0147 0.0797,0.0333 -0.0497,0.0804 -0.21106,0.119 -0.21106,0.0504 z m -7.04321,-7.136567 c 0.0611,-0.02446 0.13414,-0.02145 0.16228,0.0067 0.0281,0.02813 -0.0219,0.04815 -0.11113,0.04447 -0.0986,-0.0041 -0.11869,-0.02413 -0.0512,-0.05115 z m 2.45533,0 c 0.0611,-0.02446 0.13415,-0.02145 0.16228,0.0067 0.0281,0.02813 -0.0219,0.04815 -0.11113,0.04447 -0.0986,-0.0041 -0.11869,-0.02413 -0.0512,-0.05115 z m 25.82334,-0.169333 c 0.0611,-0.02446 0.13414,-0.02145 0.16228,0.0067 0.0281,0.02813 -0.0219,0.04814 -0.11113,0.04447 -0.0986,-0.0041 -0.11869,-0.02412 -0.0512,-0.05115 z"
         id="path312" /><path
         style="fill:#0b347c;stroke-width:0.0846667"
         d="m 130.81794,126.26661 c 0.10532,-0.0203 0.25772,-0.0195 0.33866,0.002 0.081,0.0212 -0.005,0.0378 -0.19148,0.0368 -0.18627,-9.4e-4 -0.2525,-0.0183 -0.14718,-0.0385 z m -1.94303,-0.0826 c 0.0611,-0.0245 0.13414,-0.0214 0.16228,0.007 0.0281,0.0281 -0.0219,0.0482 -0.11113,0.0445 -0.0986,-0.004 -0.11869,-0.0241 -0.0512,-0.0512 z m 27.178,-0.0847 c 0.0611,-0.0245 0.13415,-0.0215 0.16228,0.007 0.0281,0.0281 -0.0219,0.0482 -0.11113,0.0445 -0.0986,-0.004 -0.11869,-0.0241 -0.0512,-0.0511 z m 2.96333,0 c 0.0611,-0.0245 0.13415,-0.0215 0.16228,0.007 0.0281,0.0281 -0.0219,0.0482 -0.11112,0.0445 -0.0986,-0.004 -0.1187,-0.0241 -0.0512,-0.0511 z M 111.4057,115.87016 c -10e-6,-5.3086 0.0102,-7.49276 0.0226,-4.85369 0.0124,2.63907 0.0124,6.98247 0,9.652 -0.0124,2.66953 -0.0226,0.51029 -0.0226,-4.79831 z m 35.67761,6.49817 c -0.1053,-0.13429 -0.10232,-0.13728 0.032,-0.032 0.14103,0.11061 0.18589,0.18013 0.1162,0.18013 -0.0176,0 -0.0842,-0.0667 -0.14817,-0.14816 z m -26.74386,-0.98447 c 0,-0.0176 0.0667,-0.0843 0.14817,-0.14817 0.13428,-0.10531 0.13728,-0.10232 0.032,0.032 -0.1106,0.14103 -0.18013,0.18588 -0.18013,0.1162 z m 9.9695,-0.95544 c 0.0582,-0.0235 0.15346,-0.0235 0.21167,0 0.0582,0.0235 0.0106,0.0427 -0.10584,0.0427 -0.11641,0 -0.16404,-0.0192 -0.10583,-0.0427 z m 1.27,0 c 0.0582,-0.0235 0.15346,-0.0235 0.21167,0 0.0582,0.0235 0.0106,0.0427 -0.10584,0.0427 -0.11641,0 -0.16404,-0.0192 -0.10583,-0.0427 z m -10.13883,-0.31456 c 0,-0.0176 0.0667,-0.0843 0.14816,-0.14817 0.13429,-0.10531 0.13728,-0.10232 0.032,0.032 -0.11061,0.14103 -0.18013,0.18588 -0.18013,0.1162 z m 13.16566,-0.73003 c 0.0843,-0.0931 0.1723,-0.16934 0.19558,-0.16934 0.0233,0 -0.0266,0.0762 -0.11091,0.16934 -0.0843,0.0931 -0.17229,0.16933 -0.19558,0.16933 -0.0233,0 0.0266,-0.0762 0.11091,-0.16933 z m -11.47233,-1.2173 c 0,-0.0176 0.0667,-0.0843 0.14817,-0.14817 0.13428,-0.10531 0.13728,-0.10232 0.032,0.032 -0.1106,0.14103 -0.18013,0.18588 -0.18013,0.1162 z m 29.02986,-0.20087 c -0.1053,-0.13429 -0.10232,-0.13728 0.032,-0.032 0.0815,0.0639 0.14817,0.13059 0.14817,0.14817 0,0.0697 -0.0695,0.0248 -0.18014,-0.1162 z m -28.27866,-0.0847 c -0.10531,-0.13428 -0.10232,-0.13728 0.032,-0.032 0.14103,0.1106 0.18588,0.18013 0.1162,0.18013 -0.0176,0 -0.0843,-0.0667 -0.14817,-0.14817 z m -53.587759,-0.67733 -0.291776,-0.3175 0.3175,0.29178 c 0.174625,0.16047 0.3175,0.30335 0.3175,0.3175 0,0.0647 -0.07165,0.004 -0.343224,-0.29178 z m 64.340429,-0.42333 c -0.10532,-0.13429 -0.10232,-0.13728 0.032,-0.032 0.14104,0.11061 0.18589,0.18013 0.1162,0.18013 -0.0176,0 -0.0842,-0.0667 -0.14816,-0.14816 z m 36.84748,-2.77989 c 0.004,-0.0986 0.0241,-0.1187 0.0512,-0.0511 0.0245,0.0611 0.0215,0.13414 -0.007,0.16227 -0.0281,0.0281 -0.0481,-0.0219 -0.0445,-0.11112 z m -6.84818,-0.50095 c 0.002,-0.1397 0.0207,-0.1866 0.0422,-0.10422 0.0215,0.0824 0.0201,0.19668 -0.003,0.254 -0.0232,0.0573 -0.0408,-0.0101 -0.039,-0.14978 z m 0,-1.016 c 0.002,-0.1397 0.0207,-0.1866 0.0422,-0.10422 0.0215,0.0824 0.0201,0.19668 -0.003,0.254 -0.0232,0.0573 -0.0408,-0.0101 -0.039,-0.14978 z m 6.84818,-0.51505 c 0.004,-0.0986 0.0241,-0.1187 0.0512,-0.0512 0.0245,0.0611 0.0215,0.13414 -0.007,0.16227 -0.0281,0.0281 -0.0481,-0.0219 -0.0445,-0.11112 z m -27.85533,-0.254 c 0.004,-0.0986 0.0241,-0.1187 0.0512,-0.0511 0.0245,0.0611 0.0214,0.13414 -0.007,0.16227 -0.0281,0.0281 -0.0481,-0.0219 -0.0445,-0.11112 z m -23.02934,-3.64067 c 0.004,-0.0986 0.0241,-0.11869 0.0512,-0.0511 0.0245,0.0611 0.0215,0.13414 -0.007,0.16228 -0.0281,0.0281 -0.0482,-0.0219 -0.0445,-0.11113 z m 6.86783,-0.58561 c 0.002,-0.1397 0.0207,-0.1866 0.0422,-0.10422 0.0215,0.0824 0.0201,0.19668 -0.003,0.254 -0.0232,0.0573 -0.0408,-0.0101 -0.039,-0.14978 z m 0.40682,-1.0903 c 0,-0.0176 0.0667,-0.0843 0.14817,-0.14817 0.13429,-0.10531 0.13728,-0.10232 0.032,0.032 -0.11061,0.14103 -0.18014,0.18588 -0.18014,0.1162 z m 19.26167,-2.76203 c 0.22933,-0.23284 0.43602,-0.42334 0.4593,-0.42334 0.0233,0 -0.1453,0.1905 -0.37463,0.42334 -0.22933,0.23283 -0.43602,0.42333 -0.4593,0.42333 -0.0233,0 0.1453,-0.1905 0.37463,-0.42333 z m 20.1822,-0.65617 c -0.10531,-0.13429 -0.10232,-0.13728 0.032,-0.032 0.14103,0.11061 0.18588,0.18014 0.11619,0.18014 -0.0176,0 -0.0842,-0.0667 -0.14816,-0.14817 z m -45.03187,0.037 c 0,-0.0146 0.12383,-0.1384 0.27517,-0.27517 l 0.27517,-0.24867 -0.24868,0.27516 c -0.2318,0.2565 -0.30166,0.31409 -0.30166,0.24868 z m 7.85813,-3.079347 c 0.0611,-0.02446 0.13414,-0.02145 0.16228,0.0067 0.0281,0.02813 -0.0219,0.04815 -0.11113,0.04447 -0.0986,-0.0041 -0.11869,-0.02413 -0.0511,-0.05115 z m 1.85737,0.0018 c 0.0582,-0.02349 0.15346,-0.02349 0.21167,0 0.0582,0.02349 0.0106,0.0427 -0.10583,0.0427 -0.11642,0 -0.16404,-0.01922 -0.10584,-0.0427 z m 25.31534,-0.174508 c 0.15134,-0.01878 0.39899,-0.01878 0.55033,0 0.15134,0.01878 0.0275,0.03415 -0.27517,0.03415 -0.30268,0 -0.4265,-0.01537 -0.27516,-0.03415 z m -95.504005,-0.08611 c 0.291041,-0.01653 0.767291,-0.01653 1.058333,0 0.291042,0.01653 0.05292,0.03006 -0.529167,0.03006 -0.582083,0 -0.820208,-0.01353 -0.529166,-0.03006 z"
         id="path310" /><path
         style="fill:#063079;stroke-width:0.0846667"
         d="m 106.26362,125.50109 c 0.94297,-0.0136 2.48602,-0.0136 3.429,0 0.94297,0.0136 0.17145,0.0248 -1.7145,0.0248 -1.88595,0 -2.65748,-0.0112 -1.7145,-0.0248 z m 14.57303,-2.62476 c -0.10531,-0.13429 -0.10232,-0.13728 0.032,-0.032 0.14103,0.11061 0.18588,0.18013 0.1162,0.18013 -0.0176,0 -0.0843,-0.0667 -0.14817,-0.14816 z m 1.36547,-3.60914 c 0,-0.0176 0.0667,-0.0842 0.14816,-0.14816 0.13429,-0.10532 0.13728,-0.10232 0.032,0.032 -0.11061,0.14104 -0.18013,0.18589 -0.18013,0.1162 z m -51.443049,-1.59786 -0.161289,-0.1905 0.1905,0.16129 c 0.179022,0.15157 0.229043,0.21971 0.161289,0.21971 -0.01607,0 -0.101792,-0.0857 -0.1905,-0.1905 z m -0.931334,-0.93134 -0.161289,-0.1905 0.1905,0.16129 c 0.179023,0.15157 0.229044,0.21971 0.161289,0.21971 -0.01607,0 -0.101791,-0.0857 -0.1905,-0.1905 z m 73.801733,-2.65289 c 0.004,-0.0986 0.0241,-0.11869 0.0512,-0.0511 0.0245,0.0611 0.0214,0.13415 -0.007,0.16228 -0.0281,0.0281 -0.0481,-0.0219 -0.0445,-0.11113 z m 27.87,-0.50094 c 9.3e-4,-0.18627 0.0183,-0.2525 0.0385,-0.14718 0.0202,0.10532 0.0195,0.25772 -0.002,0.33867 -0.0212,0.081 -0.0378,-0.005 -0.0368,-0.19149 z m -31.56501,-0.5715 -0.24868,-0.27517 0.27517,0.24868 c 0.15134,0.13677 0.27517,0.26059 0.27517,0.27516 0,0.0654 -0.0699,0.008 -0.30166,-0.24867 z m 31.56501,-0.61383 c 9.3e-4,-0.18627 0.0183,-0.2525 0.0385,-0.14718 0.0202,0.10532 0.0195,0.25772 -0.002,0.33866 -0.0212,0.081 -0.0378,-0.005 -0.0368,-0.19148 z m -50.87978,-4.91067 c 5e-4,-0.2794 0.0163,-0.38349 0.0351,-0.23132 0.0188,0.15218 0.0185,0.38078 -8.6e-4,0.508 -0.0193,0.12723 -0.0347,0.003 -0.0343,-0.27668 z m -23.440956,-4.27567 c 0,-1.55998 0.01143,-2.19815 0.0254,-1.41816 0.01397,0.77999 0.01397,2.05634 0,2.83633 -0.01397,0.77999 -0.0254,0.14182 -0.0254,-1.41817 z m 21.674666,0 c 0,-1.55998 0.0114,-2.19815 0.0254,-1.41816 0.014,0.77999 0.014,2.05634 0,2.83633 -0.014,0.77999 -0.0254,0.14182 -0.0254,-1.41817 z m 38.5504,2.39398 c 0.15218,-0.0189 0.38078,-0.0185 0.508,8.6e-4 0.12723,0.0193 0.003,0.0347 -0.27668,0.0343 -0.2794,-4.7e-4 -0.38349,-0.0163 -0.23132,-0.0351 z m -26.41752,-0.2524 c 0.10478,-0.0202 0.27623,-0.0202 0.381,0 0.10478,0.0202 0.019,0.0367 -0.1905,0.0367 -0.20955,0 -0.29527,-0.0165 -0.1905,-0.0367 z m 37.34837,-1.35841 c -0.10531,-0.13429 -0.10232,-0.13728 0.032,-0.032 0.0815,0.0639 0.14816,0.13059 0.14816,0.14817 0,0.0697 -0.0695,0.0248 -0.18013,-0.1162 z m -37.59953,-4.063018 c 0.24604,-0.01716 0.62704,-0.01698 0.84667,4e-4 0.21963,0.01738 0.0183,0.03142 -0.44734,0.03119 -0.46567,-2.2e-4 -0.64536,-0.01444 -0.39933,-0.03159 z"
         id="path308" /><path
         style="fill:#042e78;stroke-width:0.0846667"
         d="m 139.85512,123.27849 c 0.22933,-0.23283 0.43602,-0.42333 0.4593,-0.42333 0.0233,0 -0.1453,0.1905 -0.37464,0.42333 -0.22933,0.23284 -0.43601,0.42334 -0.4593,0.42334 -0.0233,0 0.1453,-0.1905 0.37464,-0.42334 z m 7.57125,-0.65616 -0.20525,-0.23284 0.23283,0.20526 c 0.12806,0.11289 0.23283,0.21767 0.23283,0.23284 0,0.0664 -0.0686,0.0123 -0.26041,-0.20526 z m -27.13244,-0.29634 -0.42015,-0.4445 0.4445,0.42015 c 0.41304,0.39042 0.48333,0.46885 0.42015,0.46885 -0.0134,0 -0.21341,-0.20002 -0.4445,-0.4445 z m 47.62465,0.0847 c 0.35086,-0.37382 0.42687,-0.44104 0.42687,-0.37746 0,0.0136 -0.18097,0.19456 -0.40217,0.40217 l -0.40216,0.37746 z m -21.08487,-0.381 -0.20526,-0.23283 0.23283,0.20526 c 0.21762,0.19184 0.27167,0.2604 0.20526,0.2604 -0.0152,0 -0.11994,-0.10477 -0.23283,-0.23283 z m -26.66359,-0.3918 c 0,-0.0176 0.0667,-0.0843 0.14816,-0.14817 0.13429,-0.10531 0.13728,-0.10232 0.032,0.032 -0.11061,0.14103 -0.18013,0.18588 -0.18013,0.1162 z m 0.59266,-0.67733 c 0,-0.0176 0.0667,-0.0843 0.14817,-0.14817 0.13429,-0.10531 0.13728,-0.10232 0.032,0.032 -0.11061,0.14103 -0.18014,0.18588 -0.18014,0.1162 z m 0.508,-0.59267 c 0,-0.0176 0.0667,-0.0843 0.14817,-0.14817 0.13429,-0.10531 0.13728,-0.10232 0.032,0.032 -0.11061,0.14103 -0.18014,0.18588 -0.18014,0.1162 z m 0.59267,-0.67733 c 0,-0.0176 0.0667,-0.0843 0.14817,-0.14817 0.13428,-0.10531 0.13728,-0.10232 0.032,0.032 -0.1106,0.14103 -0.18013,0.18588 -0.18013,0.1162 z m 0.59267,-0.67734 c 0,-0.0176 0.0667,-0.0842 0.14816,-0.14816 0.13429,-0.10532 0.13728,-0.10232 0.032,0.032 -0.11061,0.14104 -0.18013,0.18589 -0.18013,0.1162 z m 40.12846,-0.58186 c 0.35086,-0.37382 0.42687,-0.44104 0.42687,-0.37746 0,0.0136 -0.18097,0.19456 -0.40217,0.40216 l -0.40216,0.37746 z m -10.11945,-0.0847 -0.24868,-0.27517 0.27517,0.24868 c 0.2565,0.2318 0.31409,0.30166 0.24867,0.30166 -0.0146,0 -0.13839,-0.12383 -0.27516,-0.27517 z m -29.50101,0.0739 c 0,-0.0176 0.0667,-0.0843 0.14816,-0.14817 0.13429,-0.10531 0.13728,-0.10232 0.032,0.032 -0.11061,0.14103 -0.18013,0.18588 -0.18013,0.1162 z m -51.911472,-0.45487 c -0.105314,-0.13429 -0.102319,-0.13728 0.03197,-0.032 0.08149,0.0639 0.148167,0.13059 0.148167,0.14817 0,0.0697 -0.06953,0.0248 -0.180134,-0.1162 z m 52.588802,-0.1905 c -0.0763,-0.0493 -0.0868,-0.0826 -0.0262,-0.0834 0.0555,-6.8e-4 0.12438,0.0368 0.15316,0.0834 0.065,0.10512 0.0357,0.10512 -0.127,0 z m -54.112801,-1.3335 c -0.105315,-0.13429 -0.10232,-0.13728 0.03197,-0.032 0.08149,0.0639 0.148167,0.13059 0.148167,0.14817 0,0.0697 -0.06953,0.0248 -0.180133,-0.1162 z m 70.866001,-2.87867 c -0.10531,-0.13428 -0.10232,-0.13728 0.032,-0.032 0.14103,0.1106 0.18588,0.18013 0.1162,0.18013 -0.0176,0 -0.0843,-0.0667 -0.14817,-0.14817 z m -17.85387,-0.8255 c -0.20565,-0.20955 -0.35487,-0.381 -0.33159,-0.381 0.0233,0 0.2106,0.17145 0.41626,0.381 0.20566,0.20955 0.35487,0.381 0.33159,0.381 -0.0233,0 -0.2106,-0.17145 -0.41626,-0.381 z m 16.83787,-0.1905 c -0.10531,-0.13428 -0.10232,-0.13728 0.032,-0.032 0.14103,0.1106 0.18588,0.18013 0.1162,0.18013 -0.0176,0 -0.0843,-0.0667 -0.14817,-0.14817 z m -11.46958,-3.76766 -0.16129,-0.1905 0.1905,0.16129 c 0.10478,0.0887 0.1905,0.17443 0.1905,0.1905 0,0.0678 -0.0681,0.0177 -0.21971,-0.16129 z m 24.56138,-1.16417 c 0.18188,-0.18627 0.34975,-0.33867 0.37303,-0.33867 0.0233,0 -0.10648,0.1524 -0.28836,0.33867 -0.18188,0.18627 -0.34975,0.33867 -0.37304,0.33867 -0.0233,0 0.10649,-0.1524 0.28837,-0.33867 z m 10.15601,-0.10583 -0.33468,-0.35984 0.35984,0.33469 c 0.33464,0.31125 0.39874,0.38498 0.33468,0.38498 -0.0138,0 -0.17575,-0.16192 -0.35984,-0.35983 z m -16.04034,-3.22814 c 0,-0.0176 0.0667,-0.0842 0.14816,-0.14816 0.13429,-0.10532 0.13728,-0.10232 0.032,0.032 -0.1106,0.14104 -0.18013,0.18589 -0.18013,0.1162 z m 21.33144,-0.70886 -0.29178,-0.3175 0.3175,0.29177 c 0.29553,0.27158 0.35643,0.34323 0.29178,0.34323 -0.0141,0 -0.15702,-0.14288 -0.3175,-0.3175 z m -45.80011,-0.30714 c 0,-0.0176 0.0667,-0.0842 0.14817,-0.14816 0.13428,-0.10532 0.13728,-0.10232 0.032,0.032 -0.1106,0.14104 -0.18013,0.18589 -0.18013,0.1162 z m 25.61167,-0.13736 c 0.0843,-0.0931 0.17229,-0.16934 0.19558,-0.16934 0.0233,0 -0.0266,0.0762 -0.11092,0.16934 -0.0843,0.0931 -0.17229,0.16933 -0.19558,0.16933 -0.0233,0 0.0266,-0.0762 0.11092,-0.16933 z m -24.93434,-0.53997 c 0,-0.0176 0.0667,-0.0843 0.14817,-0.14817 0.13429,-0.10531 0.13728,-0.10232 0.032,0.032 -0.11061,0.14103 -0.18014,0.18588 -0.18014,0.1162 z"
         id="path306" /><path
         style="fill:#002b76;stroke-width:0.0846667"
         d="M 61.157448,112.99149 V 99.571827 l 1.2065,0.0174 1.2065,0.0174 -1.143,0.04986 -1.143,0.04986 1.037167,0.0174 c 0.570441,0.0096 1.037166,0.03899 1.037166,0.06537 0,0.181709 1.173367,5.566393 1.445335,6.632773 1.326639,5.2017 2.981342,8.37732 5.76275,11.05958 2.963502,2.85785 6.45205,4.41751 13.146527,5.87752 0.647686,0.14125 1.186555,0.26665 1.197487,0.27866 0.01093,0.012 0.119478,0.51713 0.241213,1.1225 0.121735,0.60537 0.240817,1.18639 0.264626,1.29117 l 0.04329,0.1905 -12.08778,0.0207 -12.08778,0.0207 12.192,0.0432 12.192001,0.0432 -12.255501,0.0207 -12.2555,0.0207 z m 68.897502,13.35659 c 0.43074,-0.0154 1.13559,-0.0154 1.56633,0 0.43075,0.0154 0.0783,0.0279 -0.78316,0.0279 -0.86149,0 -1.21391,-0.0126 -0.78317,-0.0279 z m -1.4605,-0.19574 c -2.43032,-0.22092 -4.293,-0.85744 -6.15732,-2.10408 -0.84228,-0.56323 -2.46866,-1.99376 -2.41853,-2.1273 0.0473,-0.12598 3.56709,-4.1458 3.6301,-4.1458 0.035,0 0.28325,0.18734 0.55158,0.41632 1.83926,1.5695 4.47849,2.39275 7.27284,2.26859 1.08724,-0.0483 1.7763,-0.1956 2.45707,-0.52521 1.69414,-0.82026 1.7624,-2.80368 0.12526,-3.63929 -0.83171,-0.4245 -1.77508,-0.6231 -4.23333,-0.89118 -2.3582,-0.25717 -4.0998,-0.7168 -5.54011,-1.4621 -0.70982,-0.36729 -0.98788,-0.57555 -1.66403,-1.24622 -0.69395,-0.68835 -0.86956,-0.92201 -1.20969,-1.60958 -0.57917,-1.17079 -0.75702,-2.11512 -0.70957,-3.76766 0.0317,-1.10402 0.0667,-1.35853 0.2681,-1.94734 0.84777,-2.47891 3.30448,-4.35512 6.59616,-5.03752 1.24615,-0.25834 2.11624,-0.338856 3.65392,-0.338115 2.82562,0.0014 4.82822,0.400725 6.77555,1.351185 0.81169,0.39618 1.87063,1.05011 2.17757,1.34473 0.15687,0.15056 0.16188,0.14351 -2.39913,3.38105 l -0.7557,0.95534 -0.35804,-0.24545 c -1.15294,-0.79036 -2.51513,-1.20525 -4.51958,-1.37655 -1.21102,-0.10349 -2.28988,-0.009 -3.15957,0.27708 -0.76309,0.25091 -1.40057,0.87892 -1.48869,1.4666 -0.0764,0.50936 0.0699,1.17289 0.33518,1.52075 0.24926,0.32679 0.88384,0.67689 1.5383,0.84868 0.27591,0.0724 1.2386,0.22694 2.1393,0.34338 2.94659,0.38092 4.75324,0.85776 6.28507,1.65883 2.10502,1.10083 3.50707,2.75585 3.99046,4.71048 0.25355,1.02525 0.253,2.89713 -0.001,3.84135 -0.55786,2.07279 -2.21449,3.91337 -4.44782,4.9417 -0.85757,0.39487 -2.13143,0.77157 -3.31556,0.98048 -1.1674,0.20595 -3.9822,0.28743 -5.41866,0.15685 z m 27.18339,-0.0925 c -1.69422,-0.14921 -3.68558,-0.65903 -5.11045,-1.30837 -3.41084,-1.55437 -5.81626,-4.56685 -6.65213,-8.33093 -0.80088,-3.60654 -0.29027,-7.43306 1.38185,-10.35554 2.36791,-4.13857 7.05515,-6.40951 12.82515,-6.213697 2.89331,0.09819 5.3257,0.752997 7.44329,2.003767 3.42473,2.02283 5.52728,5.62599 5.80676,9.95114 l 0.0657,1.016 0.0259,-0.80433 0.0259,-0.80434 0.0518,0.889 c 0.0285,0.48895 0.0288,1.28905 8.5e-4,1.778 l -0.0511,0.889 -0.0266,-0.80433 -0.0266,-0.80433 -0.0657,1.016 c -0.11443,1.77083 -0.55358,3.50644 -1.26361,4.99411 -1.09866,2.30192 -3.15741,4.36357 -5.44721,5.45489 -2.55463,1.21755 -5.71433,1.72189 -8.98365,1.43396 z m 3.45185,-5.86628 c 2.09222,-0.40031 3.74753,-1.66143 4.67452,-3.56135 0.58975,-1.20873 0.75463,-2.01619 0.75209,-3.683 -0.002,-1.62869 -0.16233,-2.44612 -0.70161,-3.58792 -1.02693,-2.17425 -2.89175,-3.43287 -5.49273,-3.7072 -3.9497,-0.4166 -7.13918,1.90893 -7.8571,5.72879 -0.19214,1.02237 -0.13507,2.84143 0.11953,3.81 0.68249,2.59633 2.58,4.41353 5.21739,4.99657 0.68883,0.15227 2.50168,0.15454 3.28791,0.004 z m -54.63824,-4.45035 v -9.73667 h -3.683 -3.683001 v -2.794 -2.794 h 10.795001 10.795 v 2.79311 2.79311 l -3.70417,0.0221 -3.70416,0.0221 -0.0215,9.7155 -0.0215,9.7155 h -3.38631 -3.38631 z"
         id="path304" /></g></g></svg>
