<?xml version="1.0" encoding="UTF-8" standalone="no"?>
<!-- Created with Inkscape (http://www.inkscape.org/) -->

<svg
   width="217.17854mm"
   height="207.33679mm"
   viewBox="0 0 217.17855 207.33678"
   version="1.1"
   id="svg5"
   xml:space="preserve"
   inkscape:version="1.2.2 (b0a8486541, 2022-12-01)"
   sodipodi:docname="frontright_titlepage.svg"
   xmlns:inkscape="http://www.inkscape.org/namespaces/inkscape"
   xmlns:sodipodi="http://sodipodi.sourceforge.net/DTD/sodipodi-0.dtd"
   xmlns="http://www.w3.org/2000/svg"
   xmlns:svg="http://www.w3.org/2000/svg"><sodipodi:namedview
     id="namedview7"
     pagecolor="#ffffff"
     bordercolor="#666666"
     borderopacity="1.0"
     inkscape:showpageshadow="2"
     inkscape:pageopacity="0.0"
     inkscape:pagecheckerboard="0"
     inkscape:deskcolor="#d1d1d1"
     inkscape:document-units="mm"
     showgrid="false"
     inkscape:zoom="0.457453"
     inkscape:cx="509.34194"
     inkscape:cy="278.71716"
     inkscape:window-width="1920"
     inkscape:window-height="1011"
     inkscape:window-x="0"
     inkscape:window-y="0"
     inkscape:window-maximized="1"
     inkscape:current-layer="svg5" /><defs
     id="defs2"><style
       id="style2">
      .st0 {
        fill: none;
      }

      .st1 {
        fill: #fff;
      }
    </style></defs><g
     inkscape:label="Calque 1"
     inkscape:groupmode="layer"
     id="layer1"
     transform="translate(18.41215,12.194495)"><g
       id="g1041"
       transform="translate(-3.1433267)"><g
         id="g10"
         transform="matrix(0.34954141,0,0,-0.34954141,41.613048,194.09246)"><path
           d="m 63.375,23.397 h 83.898"
           style="fill:none;stroke:#706d6e;stroke-width:0.492;stroke-linecap:butt;stroke-linejoin:miter;stroke-miterlimit:4;stroke-dasharray:none;stroke-opacity:1"
           id="path12" /><path
           d="M 79.234,26.565 H 76.32 v 2.906 c -2.472,-2.172 -4.902,-3.238 -7.683,-3.238 -3.797,0 -6.004,1.914 -6.004,5.336 v 14.238 h 3.179 V 32.561 c 0,-2.762 0.969,-4.012 3.708,-4.012 2.296,0 4.414,0.957 6.535,2.91 v 14.348 h 3.179 z"
           style="fill:#585e6a;fill-opacity:1;fill-rule:nonzero;stroke:none"
           id="path14" /><path
           d="m 93.66,26.639 c -1.015,-0.297 -2.121,-0.406 -3.402,-0.406 -3.488,0 -5.254,1.25 -5.254,3.753 v 13.54 h -3.445 v 2.281 h 3.445 v 6.219 h 3.355 v -6.219 h 5.254 V 43.526 H 88.359 V 31.201 c 0,-1.953 0.356,-2.613 3.047,-2.613 0.883,0 1.547,0.148 2.254,0.293 z"
           style="fill:#585e6a;fill-opacity:1;fill-rule:nonzero;stroke:none"
           id="path16" /><path
           d="m 105.246,28.44 c 3.664,0 5.961,2.648 5.961,7.507 0,5.297 -2.078,7.911 -6.316,7.911 -2.293,0 -4.239,-0.957 -5.649,-2.872 v -9.601 c 1.633,-1.988 3.531,-2.945 6.004,-2.945 m -9.184,4.23 v 20.496 h 3.18 v -9.64 c 1.41,1.73 3.309,2.613 5.871,2.613 5.918,0 9.403,-3.57 9.403,-10.047 0,-6.402 -3.399,-9.859 -9.446,-9.859 -2.695,0 -4.636,0.847 -6.093,2.648 l -0.75,-2.316 h -2.473 c 0.219,2.097 0.308,4.156 0.308,6.105"
           style="fill:#585e6a;fill-opacity:1;fill-rule:nonzero;stroke:none"
           id="path18" /><path
           d="m 117.703,45.807 h 2.957 v -2.906 c 2.473,2.207 4.68,3.238 7.551,3.238 3.09,0 4.812,-1.324 5.562,-3.238 2.473,2.207 4.77,3.238 7.641,3.238 3.75,0 5.914,-1.914 5.914,-5.336 V 26.565 h -3.18 v 13.394 c 0,2.649 -0.968,3.863 -3.617,3.863 -2.34,0 -4.418,-0.957 -6.492,-2.91 V 26.565 h -3.047 v 13.316 c 0,2.688 -1.015,3.941 -3.664,3.941 -2.383,0 -4.328,-0.957 -6.445,-2.91 V 26.565 h -3.18 z"
           style="fill:#585e6a;fill-opacity:1;fill-rule:nonzero;stroke:none"
           id="path20" /><path
           d="m 66.898,16.037 h -0.746 v 0.41 h -0.011 c -0.243,-0.293 -0.582,-0.48 -0.996,-0.48 -0.715,0 -1.028,0.508 -1.028,1.187 v 1.915 h 0.789 v -1.618 c 0,-0.371 0.004,-0.871 0.512,-0.871 0.57,0 0.691,0.617 0.691,1.008 v 1.481 h 0.789 z"
           style="fill:#585e6a;fill-opacity:1;fill-rule:nonzero;stroke:none"
           id="path22" /><path
           d="m 68.137,19.069 h 0.746 v -0.411 h 0.012 c 0.25,0.348 0.585,0.481 0.996,0.481 0.718,0 1.031,-0.508 1.031,-1.188 v -1.914 h -0.789 v 1.621 c 0,0.368 -0.008,0.871 -0.516,0.871 -0.57,0 -0.691,-0.621 -0.691,-1.007 v -1.485 h -0.789 z"
           style="fill:#585e6a;fill-opacity:1;fill-rule:nonzero;stroke:none"
           id="path24" /><path
           d="m 72.176,20.377 h 0.785 v -0.754 h -0.785 z m 0,-1.308 h 0.785 v -3.032 h -0.785 z"
           style="fill:#585e6a;fill-opacity:1;fill-rule:nonzero;stroke:none"
           id="path26" /><path
           d="m 73.883,19.069 h 0.847 l 0.75,-2.208 h 0.012 l 0.731,2.208 h 0.789 l -1.117,-3.032 h -0.891 z"
           style="fill:#585e6a;fill-opacity:1;fill-rule:nonzero;stroke:none"
           id="path28" /><path
           d="m 79.816,17.85 c -0.023,0.383 -0.203,0.715 -0.644,0.715 -0.442,0 -0.664,-0.309 -0.699,-0.715 z m 0.528,-1.641 c -0.289,-0.16 -0.617,-0.242 -1.043,-0.242 -1,0 -1.582,0.578 -1.582,1.57 0,0.879 0.465,1.602 1.406,1.602 1.125,0 1.441,-0.77 1.441,-1.832 h -2.093 c 0.035,-0.485 0.375,-0.762 0.863,-0.762 0.383,0 0.715,0.141 1.008,0.305 z"
           style="fill:#585e6a;fill-opacity:1;fill-rule:nonzero;stroke:none"
           id="path30" /><path
           d="m 81.629,19.069 h 0.699 v -0.688 h 0.012 c 0.035,0.281 0.359,0.758 0.832,0.758 0.074,0 0.156,0 0.238,-0.024 v -0.793 c -0.07,0.039 -0.211,0.063 -0.351,0.063 -0.641,0 -0.641,-0.797 -0.641,-1.234 v -1.114 h -0.789 z"
           style="fill:#585e6a;fill-opacity:1;fill-rule:nonzero;stroke:none"
           id="path32" /><path
           d="m 86.125,18.432 c -0.242,0.082 -0.418,0.133 -0.707,0.133 -0.211,0 -0.465,-0.079 -0.465,-0.336 0,-0.485 1.371,-0.18 1.371,-1.274 0,-0.707 -0.629,-0.988 -1.269,-0.988 -0.301,0 -0.606,0.051 -0.895,0.129 l 0.047,0.648 c 0.246,-0.125 0.504,-0.199 0.773,-0.199 0.204,0 0.52,0.074 0.52,0.371 0,0.594 -1.371,0.188 -1.371,1.281 0,0.653 0.57,0.942 1.191,0.942 0.368,0 0.61,-0.059 0.856,-0.11 z"
           style="fill:#585e6a;fill-opacity:1;fill-rule:nonzero;stroke:none"
           id="path34" /><path
           d="m 87.379,20.377 h 0.789 v -0.754 h -0.789 z m 0,-1.308 h 0.789 v -3.032 h -0.789 z"
           style="fill:#585e6a;fill-opacity:1;fill-rule:nonzero;stroke:none"
           id="path36" /><path
           d="m 89.68,18.49 h -0.582 v 0.579 h 0.582 v 0.605 l 0.789,0.254 v -0.859 h 0.699 V 18.49 h -0.699 v -1.41 c 0,-0.258 0.07,-0.5 0.371,-0.5 0.14,0 0.277,0.028 0.359,0.082 l 0.024,-0.625 c -0.164,-0.047 -0.348,-0.07 -0.582,-0.07 -0.618,0 -0.961,0.383 -0.961,0.984 z"
           style="fill:#585e6a;fill-opacity:1;fill-rule:nonzero;stroke:none"
           id="path38" /><path
           d="m 94.566,16.209 c -0.289,-0.16 -0.621,-0.242 -1.043,-0.242 -1,0 -1.582,0.578 -1.582,1.57 0,0.879 0.465,1.602 1.407,1.602 1.125,0 1.441,-0.77 1.441,-1.828 h -2.098 c 0.039,-0.489 0.379,-0.766 0.868,-0.766 0.382,0 0.714,0.141 1.007,0.305 z m -0.531,1.641 c -0.023,0.383 -0.199,0.715 -0.64,0.715 -0.442,0 -0.665,-0.305 -0.704,-0.715 z m -0.617,2.492 h 0.809 L 93.418,19.479 H 92.93 Z"
           style="fill:#585e6a;fill-opacity:1;fill-rule:nonzero;stroke:none"
           id="path40" /><path
           d="m 99.188,16.58 c 0.523,0 0.695,0.555 0.695,0.981 0,0.425 -0.203,0.968 -0.707,0.968 -0.512,0 -0.656,-0.562 -0.656,-0.968 0,-0.418 0.148,-0.981 0.668,-0.981 m 0.722,-0.199 h -0.012 c -0.234,-0.297 -0.558,-0.414 -0.929,-0.414 -0.93,0 -1.274,0.766 -1.274,1.594 0,0.836 0.344,1.578 1.274,1.578 0.394,0 0.672,-0.133 0.906,-0.422 h 0.012 v 1.734 h 0.789 V 16.037 H 99.91 Z"
           style="fill:#585e6a;fill-opacity:1;fill-rule:nonzero;stroke:none"
           id="path42" /><path
           d="m 103.812,17.85 c -0.023,0.383 -0.199,0.715 -0.644,0.715 -0.438,0 -0.66,-0.309 -0.699,-0.715 z m 0.532,-1.641 c -0.289,-0.16 -0.621,-0.242 -1.043,-0.242 -1,0 -1.586,0.578 -1.586,1.57 0,0.879 0.469,1.602 1.41,1.602 1.125,0 1.441,-0.77 1.441,-1.832 h -2.097 c 0.039,-0.485 0.379,-0.762 0.867,-0.762 0.383,0 0.711,0.141 1.008,0.305 z"
           style="fill:#585e6a;fill-opacity:1;fill-rule:nonzero;stroke:none"
           id="path44" /><path
           d="m 107.926,18.49 h -0.582 v 0.579 h 0.582 v 0.605 l 0.789,0.254 v -0.859 h 0.703 V 18.49 h -0.703 v -1.41 c 0,-0.258 0.07,-0.5 0.371,-0.5 0.141,0 0.277,0.028 0.359,0.082 l 0.024,-0.625 c -0.164,-0.047 -0.348,-0.07 -0.582,-0.07 -0.617,0 -0.961,0.383 -0.961,0.984 z"
           style="fill:#585e6a;fill-opacity:1;fill-rule:nonzero;stroke:none"
           id="path46" /><path
           d="m 112.281,17.85 c -0.023,0.383 -0.199,0.715 -0.64,0.715 -0.442,0 -0.664,-0.309 -0.7,-0.715 z m 0.531,-1.641 c -0.289,-0.16 -0.617,-0.242 -1.042,-0.242 -1,0 -1.582,0.578 -1.582,1.57 0,0.879 0.464,1.602 1.406,1.602 1.125,0 1.445,-0.77 1.445,-1.832 h -2.098 c 0.036,-0.485 0.375,-0.762 0.864,-0.762 0.383,0 0.715,0.141 1.007,0.305 z"
           style="fill:#585e6a;fill-opacity:1;fill-rule:nonzero;stroke:none"
           id="path48" /><path
           d="m 116.047,18.416 c -0.145,0.063 -0.297,0.113 -0.539,0.113 -0.488,0 -0.801,-0.39 -0.801,-0.96 0,-0.559 0.266,-0.989 0.82,-0.989 0.223,0 0.473,0.082 0.606,0.141 l 0.035,-0.656 c -0.23,-0.067 -0.465,-0.098 -0.789,-0.098 -0.992,0 -1.492,0.68 -1.492,1.602 0,0.875 0.515,1.57 1.465,1.57 0.316,0 0.546,-0.035 0.765,-0.098 z"
           style="fill:#585e6a;fill-opacity:1;fill-rule:nonzero;stroke:none"
           id="path50" /><path
           d="m 117.117,20.451 h 0.789 v -1.797 h 0.012 c 0.199,0.297 0.539,0.485 0.953,0.485 0.719,0 1.031,-0.504 1.031,-1.188 v -1.914 h -0.793 v 1.617 c 0,0.372 -0.004,0.875 -0.507,0.875 -0.575,0 -0.696,-0.621 -0.696,-1.007 v -1.485 h -0.789 z"
           style="fill:#585e6a;fill-opacity:1;fill-rule:nonzero;stroke:none"
           id="path52" /><path
           d="m 121.137,19.069 h 0.746 v -0.411 h 0.015 c 0.247,0.348 0.582,0.481 0.993,0.481 0.718,0 1.031,-0.508 1.031,-1.188 v -1.914 h -0.789 v 1.621 c 0,0.368 -0.008,0.871 -0.516,0.871 -0.57,0 -0.691,-0.621 -0.691,-1.007 v -1.485 h -0.789 z"
           style="fill:#585e6a;fill-opacity:1;fill-rule:nonzero;stroke:none"
           id="path54" /><path
           d="m 126.547,16.58 c 0.605,0 0.765,0.539 0.765,1.047 0,0.465 -0.25,0.902 -0.765,0.902 -0.512,0 -0.762,-0.449 -0.762,-0.902 0,-0.5 0.16,-1.047 0.762,-1.047 m 0,2.559 c 0.898,0 1.59,-0.606 1.59,-1.606 0,-0.871 -0.586,-1.566 -1.59,-1.566 -1,0 -1.586,0.695 -1.586,1.566 0,1 0.687,1.606 1.586,1.606"
           style="fill:#585e6a;fill-opacity:1;fill-rule:nonzero;stroke:none"
           id="path56" /><path
           d="m 129.195,20.451 h 0.789 v -4.414 h -0.789 z"
           style="fill:#585e6a;fill-opacity:1;fill-rule:nonzero;stroke:none"
           id="path58" /><path
           d="m 132.625,16.58 c 0.605,0 0.766,0.539 0.766,1.047 0,0.465 -0.246,0.902 -0.766,0.902 -0.512,0 -0.758,-0.449 -0.758,-0.902 0,-0.5 0.156,-1.047 0.758,-1.047 m 0,2.559 c 0.902,0 1.59,-0.606 1.59,-1.606 0,-0.871 -0.582,-1.566 -1.59,-1.566 -1,0 -1.582,0.695 -1.582,1.566 0,1 0.687,1.606 1.582,1.606"
           style="fill:#585e6a;fill-opacity:1;fill-rule:nonzero;stroke:none"
           id="path60" /><path
           d="m 137.254,17.584 c 0,0.52 -0.199,0.945 -0.66,0.945 -0.535,0 -0.707,-0.496 -0.707,-0.96 0,-0.415 0.218,-0.918 0.672,-0.918 0.496,0 0.695,0.429 0.695,0.933 m 0.789,1.485 V 16.33 c 0,-0.82 -0.332,-1.597 -1.605,-1.597 -0.309,0 -0.668,0.046 -1.043,0.207 l 0.062,0.668 c 0.242,-0.129 0.637,-0.262 0.883,-0.262 0.871,0 0.914,0.652 0.914,1.176 h -0.012 c -0.148,-0.258 -0.5,-0.485 -0.945,-0.485 -0.895,0 -1.235,0.719 -1.235,1.532 0,0.73 0.376,1.57 1.286,1.57 0.398,0 0.711,-0.137 0.925,-0.485 h 0.016 v 0.415 z"
           style="fill:#585e6a;fill-opacity:1;fill-rule:nonzero;stroke:none"
           id="path62" /><path
           d="m 139.297,20.377 h 0.789 v -0.754 h -0.789 z m 0,-1.308 h 0.789 v -3.032 h -0.789 z"
           style="fill:#585e6a;fill-opacity:1;fill-rule:nonzero;stroke:none"
           id="path64" /><path
           d="m 143.238,17.85 c -0.023,0.383 -0.199,0.715 -0.64,0.715 -0.442,0 -0.668,-0.309 -0.703,-0.715 z m 0.532,-1.641 c -0.29,-0.16 -0.622,-0.242 -1.043,-0.242 -1,0 -1.582,0.578 -1.582,1.57 0,0.879 0.464,1.602 1.406,1.602 1.121,0 1.441,-0.77 1.441,-1.832 h -2.097 c 0.035,-0.485 0.378,-0.762 0.867,-0.762 0.383,0 0.711,0.141 1.008,0.305 z"
           style="fill:#585e6a;fill-opacity:1;fill-rule:nonzero;stroke:none"
           id="path66" /><path
           d="m 65.012,11.127 h 0.336 c 0.343,0 0.777,0.078 0.777,0.5 0,0.477 -0.422,0.512 -0.797,0.512 h -0.316 z m 0,-1.801 h 0.386 c 0.383,0 0.848,0.094 0.848,0.571 0,0.535 -0.434,0.617 -0.848,0.617 h -0.386 z m -0.824,3.461 h 1.437 c 0.527,0 1.324,-0.152 1.324,-1.054 0,-0.489 -0.332,-0.829 -0.82,-0.918 v -0.012 c 0.559,-0.055 0.941,-0.43 0.941,-0.938 0,-1.035 -0.929,-1.187 -1.445,-1.187 h -1.437 z"
           style="fill:#585e6a;fill-opacity:1;fill-rule:nonzero;stroke:none"
           id="path68" /><path
           d="m 70.039,10.49 c -0.023,0.383 -0.203,0.715 -0.644,0.715 -0.442,0 -0.665,-0.308 -0.7,-0.715 z M 70.566,8.846 C 70.277,8.69 69.949,8.608 69.527,8.608 c -1.004,0 -1.586,0.578 -1.586,1.57 0,0.879 0.465,1.601 1.407,1.601 1.125,0 1.445,-0.769 1.445,-1.832 h -2.098 c 0.035,-0.484 0.379,-0.761 0.864,-0.761 0.382,0 0.714,0.14 1.007,0.304 z"
           style="fill:#585e6a;fill-opacity:1;fill-rule:nonzero;stroke:none"
           id="path70" /><path
           d="m 71.852,13.092 h 0.789 V 8.678 h -0.789 z"
           style="fill:#585e6a;fill-opacity:1;fill-rule:nonzero;stroke:none"
           id="path72" /><path
           d="m 74.18,11.131 h -0.582 v 0.578 h 0.582 v 0.426 c 0,0.605 0.343,1.027 0.965,1.027 0.203,0 0.425,-0.027 0.578,-0.062 L 75.66,12.444 c -0.07,0.042 -0.172,0.109 -0.344,0.109 -0.261,0 -0.347,-0.231 -0.347,-0.469 V 11.709 H 75.66 V 11.131 H 74.969 V 8.678 H 74.18 Z"
           style="fill:#585e6a;fill-opacity:1;fill-rule:nonzero;stroke:none"
           id="path74" /><path
           d="m 77.996,9.221 c 0.606,0 0.766,0.539 0.766,1.047 0,0.465 -0.246,0.898 -0.766,0.898 -0.512,0 -0.758,-0.445 -0.758,-0.898 0,-0.5 0.157,-1.047 0.758,-1.047 m 0,2.558 c 0.902,0 1.59,-0.605 1.59,-1.605 0,-0.871 -0.586,-1.566 -1.59,-1.566 -1,0 -1.586,0.695 -1.586,1.566 0,1 0.692,1.605 1.586,1.605"
           style="fill:#585e6a;fill-opacity:1;fill-rule:nonzero;stroke:none"
           id="path76" /><path
           d="m 80.645,11.709 h 0.699 v -0.687 h 0.011 c 0.036,0.281 0.36,0.757 0.833,0.757 0.074,0 0.16,0 0.242,-0.023 v -0.793 c -0.075,0.039 -0.215,0.063 -0.356,0.063 -0.64,0 -0.64,-0.797 -0.64,-1.235 V 8.678 h -0.789 z"
           style="fill:#585e6a;fill-opacity:1;fill-rule:nonzero;stroke:none"
           id="path78" /><path
           d="m 83.598,11.131 h -0.582 v 0.578 h 0.582 v 0.61 l 0.789,0.25 v -0.86 h 0.703 v -0.578 h -0.703 v -1.41 c 0,-0.262 0.074,-0.5 0.371,-0.5 0.14,0 0.277,0.027 0.359,0.082 l 0.024,-0.625 c -0.164,-0.047 -0.344,-0.07 -0.582,-0.07 -0.618,0 -0.961,0.382 -0.961,0.984 z"
           style="fill:#585e6a;fill-opacity:1;fill-rule:nonzero;stroke:none"
           id="path80" /><path
           d="m 85.855,10.584 h 1.547 V 9.939 h -1.547 z"
           style="fill:#585e6a;fill-opacity:1;fill-rule:nonzero;stroke:none"
           id="path82" /><path
           d="m 88.508,12.787 h 1.32 l 0.977,-3.113 h 0.011 l 0.977,3.113 h 1.316 V 8.678 H 92.32 v 3.391 H 92.312 L 91.203,8.678 h -0.789 l -1.105,3.391 -0.012,-0.012 V 8.678 h -0.789 z"
           style="fill:#585e6a;fill-opacity:1;fill-rule:nonzero;stroke:none"
           id="path84" /><path
           d="m 95.809,9.221 c 0.605,0 0.761,0.539 0.761,1.047 0,0.465 -0.246,0.898 -0.761,0.898 -0.512,0 -0.762,-0.445 -0.762,-0.898 0,-0.5 0.16,-1.047 0.762,-1.047 m 0,2.558 c 0.898,0 1.589,-0.605 1.589,-1.605 0,-0.871 -0.582,-1.566 -1.589,-1.566 -1,0 -1.582,0.695 -1.582,1.566 0,1 0.683,1.605 1.582,1.605"
           style="fill:#585e6a;fill-opacity:1;fill-rule:nonzero;stroke:none"
           id="path86" /><path
           d="m 98.438,11.709 h 0.75 v -0.41 h 0.011 c 0.246,0.348 0.582,0.48 0.992,0.48 0.719,0 1.032,-0.503 1.032,-1.187 V 8.678 h -0.789 v 1.617 c 0,0.371 -0.004,0.871 -0.512,0.871 -0.57,0 -0.695,-0.617 -0.695,-1.004 V 8.678 h -0.789 z"
           style="fill:#585e6a;fill-opacity:1;fill-rule:nonzero;stroke:none"
           id="path88" /><path
           d="m 102.719,11.131 h -0.582 v 0.578 h 0.582 v 0.61 l 0.789,0.25 v -0.86 h 0.699 v -0.578 h -0.699 v -1.41 c 0,-0.262 0.07,-0.5 0.371,-0.5 0.141,0 0.273,0.027 0.359,0.082 l 0.024,-0.625 c -0.168,-0.047 -0.348,-0.07 -0.582,-0.07 -0.621,0 -0.961,0.382 -0.961,0.984 z"
           style="fill:#585e6a;fill-opacity:1;fill-rule:nonzero;stroke:none"
           id="path90" /><path
           d="m 106.66,9.221 c 0.52,0 0.668,0.562 0.668,0.98 0,0.41 -0.144,0.965 -0.656,0.965 -0.504,0 -0.703,-0.539 -0.703,-0.965 0,-0.429 0.168,-0.98 0.691,-0.98 m -1.488,3.871 h 0.789 v -1.77 h 0.012 c 0.218,0.289 0.496,0.457 0.906,0.457 0.93,0 1.273,-0.742 1.273,-1.578 0,-0.828 -0.343,-1.593 -1.273,-1.593 -0.336,0 -0.699,0.117 -0.93,0.441 h -0.011 V 8.678 h -0.766 z"
           style="fill:#585e6a;fill-opacity:1;fill-rule:nonzero;stroke:none"
           id="path92" /><path
           d="m 111.625,8.846 c -0.289,-0.156 -0.617,-0.238 -1.043,-0.238 -1,0 -1.582,0.578 -1.582,1.57 0,0.879 0.465,1.601 1.406,1.601 1.125,0 1.442,-0.773 1.442,-1.828 h -2.094 c 0.035,-0.492 0.375,-0.765 0.863,-0.765 0.383,0 0.711,0.14 1.008,0.304 z m -0.531,1.644 c -0.024,0.383 -0.199,0.715 -0.641,0.715 -0.441,0 -0.664,-0.308 -0.699,-0.715 z m -0.617,2.493 h 0.804 l -0.804,-0.864 h -0.489 z"
           style="fill:#585e6a;fill-opacity:1;fill-rule:nonzero;stroke:none"
           id="path94" /><path
           d="m 112.906,13.092 h 0.789 V 8.678 h -0.789 z"
           style="fill:#585e6a;fill-opacity:1;fill-rule:nonzero;stroke:none"
           id="path96" /><path
           d="m 114.969,13.018 h 0.789 v -0.754 h -0.789 z m 0,-1.309 h 0.789 V 8.678 h -0.789 z"
           style="fill:#585e6a;fill-opacity:1;fill-rule:nonzero;stroke:none"
           id="path98" /><path
           d="m 118.07,9.186 c 0.242,0 0.43,0.105 0.555,0.269 0.125,0.172 0.164,0.387 0.164,0.625 h -0.344 c -0.355,0 -0.875,-0.058 -0.875,-0.523 0,-0.262 0.215,-0.371 0.5,-0.371 m -0.925,2.363 c 0.304,0.145 0.718,0.23 1.054,0.23 0.926,0 1.305,-0.382 1.305,-1.277 v -0.387 c 0,-0.308 0.008,-0.535 0.012,-0.761 0.007,-0.231 0.019,-0.442 0.035,-0.676 h -0.692 c -0.031,0.16 -0.031,0.359 -0.035,0.453 h -0.012 c -0.183,-0.336 -0.578,-0.523 -0.937,-0.523 -0.535,0 -1.059,0.324 -1.059,0.898 0,0.457 0.215,0.719 0.52,0.867 0.297,0.149 0.687,0.176 1.016,0.176 h 0.437 c 0,0.488 -0.219,0.656 -0.684,0.656 -0.335,0 -0.671,-0.129 -0.937,-0.332 z"
           style="fill:#585e6a;fill-opacity:1;fill-rule:nonzero;stroke:none"
           id="path100" /><path
           d="m 120.723,11.709 h 0.703 v -0.687 h 0.012 c 0.035,0.281 0.359,0.757 0.828,0.757 0.078,0 0.16,0 0.242,-0.023 v -0.793 c -0.07,0.039 -0.211,0.063 -0.352,0.063 -0.644,0 -0.644,-0.797 -0.644,-1.235 V 8.678 h -0.789 z"
           style="fill:#585e6a;fill-opacity:1;fill-rule:nonzero;stroke:none"
           id="path102" /><path
           d="m 124.609,9.221 c 0.524,0 0.696,0.551 0.696,0.98 0,0.426 -0.2,0.965 -0.707,0.965 -0.512,0 -0.653,-0.555 -0.653,-0.965 0,-0.418 0.149,-0.98 0.664,-0.98 m 0.727,-0.199 h -0.012 c -0.238,-0.297 -0.558,-0.414 -0.929,-0.414 -0.93,0 -1.274,0.765 -1.274,1.593 0,0.836 0.344,1.578 1.274,1.578 0.39,0 0.667,-0.132 0.902,-0.421 h 0.015 v 1.734 h 0.79 V 8.678 h -0.766 z"
           style="fill:#585e6a;fill-opacity:1;fill-rule:nonzero;stroke:none"
           id="path104" /><path
           d="m 29.027,46.502 c -7.066,-0.851 -13.57,-0.82 -18.429,-0.086 l 1.683,-12.34 c 3.207,0.278 7.781,0.7 11.024,1.106 13.968,1.734 24.972,6.863 24.492,10.976 -0.098,0.836 -0.664,1.582 -1.613,2.227 4.285,-0.824 7.007,-2.262 7.238,-4.168 C 53.918,40.104 42.629,35.358 28.211,33.623 22.344,32.916 16.867,32.819 12.398,33.229 l 1.668,-12.254 c 2.977,0.265 6.563,0.609 9.239,0.941 13.968,1.738 24.972,6.863 24.492,10.981 -0.098,0.836 -0.664,1.582 -1.613,2.222 4.285,-0.82 7.007,-2.258 7.238,-4.164 C 53.918,26.838 42.629,22.096 28.211,20.358 23.121,19.748 18.324,19.596 14.223,19.83 L 15.676,9.186 h 5.097 c 0.856,0.078 1.723,0.168 2.606,0.273 13.965,1.738 24.898,6.481 24.418,10.598 -0.098,0.836 -0.664,1.582 -1.613,2.222 4.285,-0.82 7.007,-2.257 7.238,-4.164 C 53.801,14.963 47.258,11.44 37.695,9.186 H 53.441 V 54.877 C 50.645,51.401 40.902,47.932 29.027,46.502"
           style="fill:#127bca;fill-opacity:1;fill-rule:nonzero;stroke:none"
           id="path106" /><path
           d="M 4.375,32.385 V 9.186 h 6.742 z"
           style="fill:#0d80c8;fill-opacity:1;fill-rule:nonzero;stroke:none"
           id="path108" /><path
           d="M 21.891,59.916 C 8.859,58.74 -0.078,55.756 0.016,52.674 0.02,52.576 0.031,52.483 0.055,52.389 L 0,52.393 15.688,-0.002 8.691,49.151 c 4.11,-0.43 9.371,-0.438 15.09,0.078 13.031,1.179 23.524,4.632 23.43,7.711 -0.094,3.082 -12.285,4.156 -25.32,2.976"
           style="fill:#585e6a;fill-opacity:1;fill-rule:nonzero;stroke:none"
           id="path110" /></g><g
         id="g1959"
         transform="matrix(0.17091638,0,0,0.17091638,110.37043,172.91386)"><rect
           style="fill:#a10e2f;stroke:none;stroke-width:1.88976;stroke-linejoin:bevel;paint-order:markers fill stroke"
           id="rect1658"
           width="216.86908"
           height="124.33716"
           x="0"
           y="0" /><g
           id="g1748"
           transform="translate(13.28454,8.4185791)"><path
             class="st1"
             d="M 71.1,50.8 V 42 h 3.1 v 8.8 c 0,1.6 1,2.9 2.8,2.9 1.8,0 2.8,-1.2 2.8,-2.9 V 42 h 3.1 v 8.8 c 0,3.4 -2.4,6 -5.9,6 -3.5,0 -5.9,-2.6 -5.9,-6 z"
             id="path6"
             style="fill:#ffffff;fill-opacity:1" /><path
             class="st1"
             d="m 88.5,49.8 v 6.8 H 85.8 V 44.2 l 9,7.5 v -7.5 h 2.7 v 13.1 z"
             id="path8"
             style="fill:#ffffff;fill-opacity:1" /><path
             class="st1"
             d="m 100.3,44.2 h 2.7 v 12.4 h -2.7 c 0,0 0,-12.4 0,-12.4 z"
             id="path10"
             style="fill:#ffffff;fill-opacity:1" /><path
             class="st1"
             d="m 104.4,44.2 h 2.9 l 4,7.3 4,-7.3 h 2.9 l -6.9,12.4 c 0,0 -6.9,-12.4 -6.9,-12.4 z"
             id="path12-8"
             style="fill:#ffffff;fill-opacity:1" /><path
             class="st1"
             d="m 118.7,44.2 h 9 v 2.3 h -6.3 v 2.7 h 5.4 v 2.3 h -5.4 v 2.9 h 6.3 v 2.3 h -9 v -12.4 0 z"
             id="path14-7"
             style="fill:#ffffff;fill-opacity:1" /><path
             class="st1"
             d="m 130,44.2 h 5.5 c 3,0 4.6,2.2 4.6,4.4 0,2.2 -0.9,3.4 -2.5,4 l 2.8,3.9 h -3.1 L 134.8,53 h -2.1 v 3.5 H 130 v -12.4 0 z m 2.7,6.5 h 2.7 c 1.1,0 2.1,-0.9 2.1,-2.1 0,-1.2 -1,-2.1 -2.1,-2.1 h -2.7 z"
             id="path16-9"
             style="fill:#ffffff;fill-opacity:1" /><path
             class="st1"
             d="m 142.8,52.9 c 2.6,1.8 6.3,2.2 6.3,0.2 0,-2 -7.6,-1 -7.4,-5.6 0.1,-3.8 5.5,-4.9 9.7,-1.9 l -1.2,2.2 c -2.6,-2 -5.7,-1.8 -5.8,0 0,2.1 7.4,1.2 7.4,5.3 0,4.1 -4.2,5.4 -10.1,2.6 l 1,-2.6 v -0.2 z"
             id="path18-2"
             style="fill:#ffffff;fill-opacity:1" /><path
             class="st1"
             d="m 154,44.2 h 2.7 V 56.6 H 154 c 0,0 0,-12.4 0,-12.4 z"
             id="path20-0"
             style="fill:#ffffff;fill-opacity:1" /><path
             class="st1"
             d="m 161.4,46.7 h -3.2 v -2.5 h 9 v 2.5 H 164 v 9.9 h -2.7 v -9.9 0 z"
             id="path22-2"
             style="fill:#ffffff;fill-opacity:1" /><path
             class="st1"
             d="m 168.7,44.2 h 9 v 2.3 h -6.3 v 2.7 h 5.4 v 2.3 h -5.4 v 2.9 h 6.3 v 2.3 h -9 v -12.4 0 z m 4.7,-4.2 h 2.4 l -2.3,3 h -1.3 z"
             id="path24-3"
             style="fill:#ffffff;fill-opacity:1" /><path
             class="st1"
             d="m 71.2,64.4 h 6.4 c 3,0 4.9,1.6 4.9,3.6 0,2 -0.9,2.9 -2,3.3 2,0.4 2.8,2 2.8,3.7 0,1.7 -1.8,4 -5.3,4 h -6.8 z m 6.2,5.6 c 1,0 1.9,-0.3 1.9,-1.4 0,-1.1 -1.2,-1.4 -2.3,-1.4 H 74.3 V 70 Z m 0.2,6.2 c 1.5,0 2.5,-0.5 2.5,-1.7 0,-1.2 -0.7,-1.7 -2.4,-1.7 h -3.4 v 3.5 h 3.3 v 0 z"
             id="path26-7"
             style="fill:#ffffff;fill-opacity:1" /><path
             class="st1"
             d="m 84.9,72.7 c 0,-3.6 2.9,-6.5 6.5,-6.5 3.6,0 6.5,2.9 6.5,6.5 0,3.6 -2.9,6.5 -6.5,6.5 -3.6,0 -6.5,-2.9 -6.5,-6.5 z m 10.3,0 c 0,-2.1 -1.8,-3.8 -3.8,-3.8 -2,0 -3.8,1.7 -3.8,3.8 0,2.1 1.7,3.9 3.8,3.9 2.1,0 3.8,-1.7 3.8,-3.9 z"
             id="path28-5"
             style="fill:#ffffff;fill-opacity:1" /><path
             class="st1"
             d="m 100,74.1 v -7.5 h 2.6 v 7.5 c 0,1.4 0.9,2.4 2.4,2.4 1.5,0 2.4,-1.1 2.4,-2.4 v -7.5 h 2.6 v 7.5 c 0,2.9 -2,5.1 -5,5.1 -3,0 -5,-2.2 -5,-5.1 z"
             id="path30-9"
             style="fill:#ffffff;fill-opacity:1" /><path
             class="st1"
             d="m 112.9,66.5 h 5.5 c 3,0 4.6,2.2 4.6,4.4 0,2.2 -0.9,3.4 -2.5,4 l 2.8,3.9 h -3.1 l -2.5,-3.5 h -2.1 v 3.5 h -2.7 v -12.4 0 z m 2.6,6.6 h 2.7 c 1.1,0 2.1,-0.9 2.1,-2.1 0,-1.2 -1,-2.1 -2.1,-2.1 h -2.7 z"
             id="path32-2"
             style="fill:#ffffff;fill-opacity:1" /><path
             class="st1"
             d="m 124.5,72.9 c 0,-3.8 3.1,-6.5 6.4,-6.5 3.3,0 3.5,0.7 4.6,1.9 l -1.8,1.8 c -0.7,-0.7 -1.7,-1.2 -2.8,-1.2 -2,0 -3.9,1.6 -3.9,3.9 0,2.3 1.9,3.9 3.9,3.9 2,0 2.2,-0.4 3,-1.3 V 72 h 2.5 v 4.9 c -1.2,1.8 -3.7,2.4 -5.5,2.4 -3.5,0 -6.4,-2.8 -6.4,-6.4 z"
             id="path34-2"
             style="fill:#ffffff;fill-opacity:1" /><path
             class="st1"
             d="m 138.1,72.7 c 0,-3.6 2.9,-6.5 6.5,-6.5 3.6,0 6.5,2.9 6.5,6.5 0,3.6 -2.9,6.5 -6.5,6.5 -3.6,0 -6.5,-2.9 -6.5,-6.5 z m 10.4,0 c 0,-2.1 -1.8,-3.8 -3.8,-3.8 -2,0 -3.8,1.7 -3.8,3.8 0,2.1 1.7,3.9 3.8,3.9 2.1,0 3.8,-1.7 3.8,-3.9 z"
             id="path36-8"
             style="fill:#ffffff;fill-opacity:1" /><path
             class="st1"
             d="m 152.5,72.9 c 0,-3.8 3.1,-6.5 6.4,-6.5 3.3,0 3.5,0.7 4.6,1.9 l -1.8,1.8 c -0.7,-0.7 -1.7,-1.2 -2.8,-1.2 -2,0 -3.9,1.6 -3.9,3.9 0,2.3 1.9,3.9 3.9,3.9 2,0 2.2,-0.4 3,-1.3 V 72 h 2.5 v 4.9 c -1.2,1.8 -3.7,2.4 -5.5,2.4 -3.5,0 -6.4,-2.8 -6.4,-6.4 z"
             id="path38-9"
             style="fill:#ffffff;fill-opacity:1" /><path
             class="st1"
             d="m 169.5,72.1 v 6.8 h -2.7 V 66.5 l 9,7.5 v -7.5 h 2.7 v 13.1 z"
             id="path40-7"
             style="fill:#ffffff;fill-opacity:1" /><path
             class="st1"
             d="m 181.3,66.5 h 9 v 2.3 H 184 v 2.7 h 5.4 v 2.3 H 184 v 2.9 h 6.3 V 79 h -9 v -12.4 0 z"
             id="path42-3"
             style="fill:#ffffff;fill-opacity:1" /><path
             class="st1"
             d="m 71.2,86.7 h 10.5 v 2.7 h -7.4 v 3.1 h 6.4 v 2.7 h -6.4 v 3.4 h 7.4 v 2.7 H 71.2 c 0,0 0,-14.6 0,-14.6 z"
             id="path44-6"
             style="fill:#ffffff;fill-opacity:1" /><path
             class="st1"
             d="M 84.1,96.5 V 89 h 2.6 v 7.5 c 0,1.4 0.9,2.4 2.4,2.4 1.5,0 2.4,-1.1 2.4,-2.4 V 89 h 2.6 v 7.5 c 0,2.9 -2,5.1 -5,5.1 -3,0 -5,-2.2 -5,-5.1 z"
             id="path46-1"
             style="fill:#ffffff;fill-opacity:1" /><path
             class="st1"
             d="m 97,88.9 h 5.5 c 3,0 4.6,2.2 4.6,4.4 0,2.2 -0.9,3.4 -2.5,4 l 2.8,3.9 h -3.1 l -2.5,-3.5 h -2.1 v 3.5 H 97 v -12.4 0 z m 2.7,6.6 h 2.7 c 1.1,0 2.1,-0.9 2.1,-2.1 0,-1.2 -1,-2.1 -2.1,-2.1 h -2.7 z"
             id="path48-2"
             style="fill:#ffffff;fill-opacity:1" /><path
             class="st1"
             d="m 108.6,95.1 c 0,-3.6 2.9,-6.5 6.5,-6.5 3.6,0 6.5,2.9 6.5,6.5 0,3.6 -2.9,6.5 -6.5,6.5 -3.6,0 -6.5,-2.9 -6.5,-6.5 z m 10.4,0 c 0,-2.1 -1.8,-3.8 -3.8,-3.8 -2,0 -3.8,1.7 -3.8,3.8 0,2.1 1.7,3.9 3.8,3.9 2.1,0 3.8,-1.7 3.8,-3.9 z"
             id="path50-9"
             style="fill:#ffffff;fill-opacity:1" /><path
             class="st1"
             d="m 123.8,88.9 h 5.8 c 3,0 4.6,2.2 4.6,4.4 0,2.2 -1.6,4.4 -4.6,4.4 h -3.1 v 3.5 h -2.7 v -12.4 0 z m 5.7,6.6 c 1.2,0 2.1,-0.9 2.1,-2.1 0,-1.2 -1,-2.1 -2.1,-2.1 h -2.9 v 4.2 z"
             id="path52-3"
             style="fill:#ffffff;fill-opacity:1" /><path
             class="st1"
             d="m 136.3,88.9 h 9 v 2.3 H 139 v 2.7 h 5.4 v 2.3 H 139 v 2.9 h 6.3 v 2.3 h -9 V 89 89 Z"
             id="path54-1"
             style="fill:#ffffff;fill-opacity:1" /><path
             class="st1"
             d="m 0,74.2 c 0,12.7 9.6,27.9 27.6,33.3 V 74.2 Z m 15.7,4 h 3.1 c 0,0 -2.5,0.6 -2.9,3.6 h -1 c 0,0 -0.5,-2.6 0.8,-3.6 z m -0.3,4.9 c 1.2,0 2.2,1 2.2,2.2 0,1.2 -1,2.2 -2.2,2.2 -1.2,0 -2.2,-1 -2.2,-2.2 0,-1.2 1,-2.2 2.2,-2.2 z m -7.7,2.2 c 0,-1.2 1,-2.2 2.2,-2.2 1.2,0 2.2,1 2.2,2.2 0,1.2 -1,2.2 -2.2,2.2 -1.2,0 -2.2,-1 -2.2,-2.2 z m 2.7,4.9 c 0,-1.2 1,-2.2 2.2,-2.2 1.2,0 2.2,1 2.2,2.2 0,1.2 -1,2.2 -2.2,2.2 -1.2,0 -2.2,-1 -2.2,-2.2 z m 5,7.1 c -1.2,0 -2.2,-1 -2.2,-2.2 0,-1.2 1,-2.2 2.2,-2.2 1.2,0 2.2,1 2.2,2.2 0,1.2 -1,2.2 -2.2,2.2 z m 2.9,-4.9 c -1.2,0 -2.2,-1 -2.2,-2.2 0,-1.2 1,-2.2 2.2,-2.2 1.2,0 2.2,1 2.2,2.2 0,1.2 -1,2.2 -2.2,2.2 z M 21,87.5 c -1.2,0 -2.2,-1 -2.2,-2.2 0,-1.2 1,-2.2 2.2,-2.2 1.2,0 2.2,1 2.2,2.2 0,1.2 -1,2.2 -2.2,2.2 z"
             id="path56-9"
             style="fill:#ffffff;fill-opacity:1" /><path
             class="st1"
             d="m 45.1,14.1 v 0 c -1,-4.5 -5,-7.2 -13.8,-3.8 V 9.8 h 0.5 c 0,-0.1 0,-0.3 0,-0.4 v 0 c 0.3,0 0.6,-0.3 0.6,-0.6 0,-0.3 -0.3,-0.6 -0.6,-0.6 h -0.9 c 0,-0.3 0,-0.6 0.2,-0.8 0.5,-1.5 2,-0.2 0.8,0.4 0.7,0.3 1.4,-0.1 1.6,-0.8 0.2,-0.7 0,-1.5 -0.7,-1.7 -1,-0.3 -1.7,0.4 -2.1,1.4 0,0.3 -0.2,0.7 -0.3,1 0,0 -0.2,-0.1 -0.2,-0.2 0,-0.6 0.2,-1.2 0.5,-1.8 0.4,-1 0.9,-2 0.7,-2.9 C 31.2,1.8 30.6,1.3 30.1,0.6 29.9,0.3 29.8,0.1 29.7,0 v 0 c 0,0.1 -0.2,0.4 -0.4,0.6 -0.5,0.7 -1,1.2 -1.3,2.2 -0.2,0.9 0.3,1.9 0.7,2.9 0.2,0.6 0.3,1.2 0.5,1.8 0,0 -0.2,0 -0.2,0.2 C 29,7.4 28.8,7 28.7,6.7 28.3,5.7 27.5,5 26.6,5.3 c -0.8,0.2 -1,1.1 -0.7,1.7 0.2,0.7 0.9,1.1 1.6,0.8 -1.2,-0.6 0.3,-1.9 0.8,-0.4 0,0.3 0.2,0.6 0.2,0.8 h -0.9 c -0.3,0 -0.6,0.3 -0.6,0.6 0,0.3 0.3,0.6 0.6,0.6 v 0 c 0,0.2 0,0.3 0,0.4 h 0.5 v 0.5 C 19.3,6.9 15.3,9.6 14.3,14.1 v 0 C 4.6,8.4 -0.6,19.3 4.2,26.6 c 2.2,3.4 3.6,6.2 4.4,8.3 -0.2,0.4 -0.3,0.7 -0.3,1.2 0,1.4 1.1,2.5 2.5,2.5 h 38.3 c 1.4,0 2.5,-1.1 2.5,-2.5 0,-1.4 0,-0.8 -0.3,-1.2 0.8,-2.1 2.2,-4.9 4.4,-8.3 C 60.5,19.4 55.3,8.4 45.6,14.1 H 45.3 Z M 10.4,33.5 c -0.4,0 -0.8,0 -1.1,0.3 C 8.6,32 7.5,29.9 6,27.5 2.1,21.1 5.8,11.7 13.4,15.1 c -0.5,4.2 1.1,9.4 3.4,12.9 1.6,2.3 2.5,4.1 3.1,5.5 h -9.6 v 0 z m 11.6,0 c -0.5,-1.3 -1.4,-3 -2.8,-5.1 -4.6,-6.9 -5.8,-21.6 7.8,-16.6 0,2.1 0,4.9 0.5,8.5 0.6,5.1 0.7,9.9 0.7,13.2 z m 8.8,0 c 0,-3.2 0,-8.1 0.7,-13.2 0.4,-3.6 0.5,-6.4 0.5,-8.5 13.5,-5 12.3,9.7 7.7,16.6 -1.4,2.2 -2.3,3.8 -2.8,5.1 z m 21.9,-6 c -1.5,2.4 -2.5,4.5 -3.2,6.3 -0.3,-0.2 -0.7,-0.3 -1.1,-0.3 h -9.5 c 0.6,-1.4 1.5,-3.2 3.1,-5.5 2.3,-3.5 3.9,-8.7 3.4,-12.9 7.5,-3.4 11.3,6 7.4,12.4 z"
             id="path58-4"
             style="fill:#ffffff;fill-opacity:1" /><path
             class="st1"
             d="M 0.1,42.2 V 70.4 H 27.6 V 42.1 H 0.1 v 0 z m 0.5,13.6 h 2.5 v 6.5 H 0.6 Z m 3,6.9 V 45.6 h 20.3 v 20.9 0 c 0,0 -3.5,0 -3.5,0 H 3.8 V 62.6 H 3.6 Z m -3,-13 v -7 l 2.5,2.6 v 4.4 z m 7.2,-7 h 6.3 v 2.4 H 7.8 c 0,0 0,-2.4 0,-2.4 z m 12.1,0 h 6.8 l -2.3,2.4 h -4.5 c 0,0 0,-2.4 0,-2.4 z m 4.5,6.6 h 2.7 v 7 h -2.7 z m 2.6,13 v 7.5 l -2.7,-2.6 v 0 -4.8 H 27 Z m -7.2,7.6 h -6.2 v -2.8 h 6.2 z m -12.1,0 H 0.5 L 3,67.1 h 4.6 v 2.8 0 z"
             id="path60-7"
             style="fill:#ffffff;fill-opacity:1" /><path
             class="st1"
             d="M 9.9,56 C 9.7,56 9.6,55.7 9.5,55.5 v -0.2 h 1.1 c 0.2,0 0.4,-0.2 0.3,-0.4 0,-0.2 -0.2,-0.3 -0.4,-0.3 h -0.2 v -0.5 c 0,-0.2 0.2,-0.4 0.4,-0.4 h 0.4 c 0.3,0 0.5,0.2 0.6,0.4 v 0.2 c 0,0.2 0.2,0.3 0.4,0.2 0.5,-0.2 0.9,-0.8 0.7,-1.3 -0.2,-0.7 -1,-1.2 -2,-0.7 -0.7,0.4 -0.9,0.9 -1,1.6 v 0.6 H 9.5 v -0.9 c 0,-0.4 0.2,-0.8 0.4,-1.2 0.3,-0.5 0.5,-1 0.5,-1.6 V 50.4 C 10.2,49.7 9.8,49.2 9.2,48.8 H 9 c -0.9,0.6 -1.4,1.4 -1.3,2.4 0,0.4 0.2,0.7 0.4,1.1 0,0.3 0.3,0.6 0.4,0.9 0.1,0.3 0.2,0.5 0.2,0.8 v 0.6 H 8.4 c 0,-0.3 0,-0.6 0,-0.9 0,-0.6 -0.5,-1 -1.2,-1.3 -0.2,0 -0.5,-0.2 -0.8,0 -0.7,0.2 -1.1,0.7 -1,1.3 0,0.4 0.3,0.7 0.7,0.9 h 0.3 v -0.2 c 0,-0.2 0,-0.5 0.4,-0.6 h 0.4 c 0.3,0 0.5,0.2 0.6,0.4 v 0.4 q 0,0.2 -0.3,0.2 c -0.2,0 -0.4,0.3 -0.4,0.4 0,0.2 0.2,0.3 0.5,0.3 h 1 c 0,0 0,0.3 -0.2,0.4 0,0 -0.2,0.2 -0.4,0.3 0,0 0,0 0,0.2 0,0.2 0.2,0.3 0.4,0.3 h 0.2 c 0,0.4 0,0.6 0.4,0.7 v 0 c 0,0 0.2,-0.2 0.3,-0.3 0,0 0,-0.3 0,-0.4 h 0.2 c 0.2,0 0.3,0 0.4,-0.3 v -0.3 0 z"
             id="path62-8"
             style="fill:#ffffff;fill-opacity:1" /><path
             class="st1"
             d="m 15.7,59.6 c -0.7,0.4 -0.9,0.9 -1,1.6 v 0.6 h -0.3 v -0.9 c 0,-0.4 0.2,-0.8 0.4,-1.2 0.3,-0.5 0.5,-1 0.5,-1.6 v -0.6 c -0.2,-0.7 -0.6,-1.2 -1.2,-1.6 h -0.2 c -0.9,0.6 -1.4,1.4 -1.3,2.4 0,0.4 0.2,0.7 0.4,1.1 0,0.3 0.3,0.6 0.4,0.9 0.1,0.3 0.2,0.5 0.2,0.8 v 0.6 h -0.3 c 0,-0.3 0,-0.6 0,-0.9 0,-0.6 -0.5,-1 -1.2,-1.3 -0.2,0 -0.5,-0.2 -0.8,0 -0.7,0.2 -1.1,0.7 -1,1.3 0,0.4 0.3,0.7 0.7,0.9 h 0.3 v -0.2 c 0,-0.2 0,-0.5 0.4,-0.6 h 0.4 c 0.3,0 0.5,0.2 0.6,0.4 v 0.4 q 0,0.2 -0.3,0.2 c -0.2,0 -0.4,0.3 -0.4,0.4 0,0.2 0.2,0.3 0.5,0.3 h 1 c 0,0 0,0.3 -0.2,0.4 0,0 -0.2,0.2 -0.4,0.3 0,0 0,0 0,0.2 0,0.2 0.2,0.3 0.4,0.3 h 0.2 c 0,0.4 0,0.6 0.4,0.7 v 0 c 0,0 0.2,-0.2 0.3,-0.3 0,0 0,-0.3 0,-0.4 h 0.2 c 0.2,0 0.3,0 0.4,-0.3 v -0.3 c -0.2,0 -0.3,-0.3 -0.4,-0.5 v -0.2 h 1.1 c 0.2,0 0.4,-0.2 0.3,-0.4 0,-0.2 -0.2,-0.3 -0.4,-0.3 h -0.2 v -0.5 c 0,-0.2 0.2,-0.4 0.4,-0.4 H 16 c 0.3,0 0.5,0.2 0.6,0.4 v 0.2 c 0,0.2 0.2,0.3 0.4,0.2 0.5,-0.2 0.9,-0.8 0.7,-1.3 -0.2,-0.7 -1,-1.2 -2,-0.7 v 0 z"
             id="path64-4"
             style="fill:#ffffff;fill-opacity:1" /><path
             class="st1"
             d="m 20.7,52.4 c -0.7,0.4 -0.9,0.9 -1,1.6 v 0.6 h -0.3 v -0.9 c 0,-0.4 0.2,-0.8 0.4,-1.2 0.3,-0.5 0.5,-1 0.5,-1.6 v -0.6 c -0.2,-0.7 -0.6,-1.2 -1.2,-1.6 h -0.2 c -0.9,0.6 -1.4,1.4 -1.3,2.4 0,0.4 0.2,0.7 0.4,1.1 0,0.3 0.3,0.6 0.4,0.9 0.1,0.3 0.2,0.5 0.2,0.8 v 0.6 h -0.3 c 0,-0.3 0,-0.6 0,-0.9 0,-0.6 -0.5,-1 -1.2,-1.3 -0.2,0 -0.5,-0.2 -0.8,0 -0.7,0.2 -1.1,0.7 -1,1.3 0,0.4 0.3,0.7 0.7,0.9 h 0.3 v -0.2 c 0,-0.2 0,-0.5 0.4,-0.6 h 0.4 c 0.3,0 0.5,0.2 0.6,0.4 v 0.4 q 0,0.2 -0.3,0.2 c -0.2,0 -0.4,0.3 -0.4,0.4 0,0.2 0.2,0.3 0.5,0.3 h 1 c 0,0 0,0.3 -0.2,0.4 0,0 -0.2,0.2 -0.4,0.3 0,0 0,0 0,0.2 0,0.2 0.2,0.3 0.4,0.3 h 0.2 c 0,0.4 0,0.6 0.4,0.7 v 0 c 0,0 0.2,-0.2 0.3,-0.3 0,0 0,-0.3 0,-0.4 h 0.2 c 0.2,0 0.3,0 0.4,-0.3 V 56 c -0.2,0 -0.3,-0.3 -0.4,-0.5 v -0.2 h 1.1 c 0.2,0 0.4,-0.2 0.3,-0.4 0,-0.2 -0.2,-0.3 -0.4,-0.3 h -0.2 v -0.5 c 0,-0.2 0.2,-0.4 0.4,-0.4 H 21 c 0.3,0 0.5,0.2 0.6,0.4 v 0.2 c 0,0.2 0.2,0.3 0.4,0.2 0.5,-0.2 0.9,-0.8 0.7,-1.3 -0.2,-0.7 -1,-1.2 -2,-0.7 v 0 z"
             id="path66-5"
             style="fill:#ffffff;fill-opacity:1" /><g
             id="g74"
             style="fill:#ffffff;fill-opacity:1"
             transform="translate(-58.1,-19)"><path
               class="st0"
               d="m 111.8,70 c -0.4,0 -0.7,0.2 -1.1,0.3 -0.8,0.3 -0.7,0 -0.7,1 v 8.3 c 0,0.6 0,0.5 -0.5,0.5 h -1.6 c -1.3,0 -2.5,0.3 -3.7,0.9 -0.7,0.3 -1.1,0.3 -1.8,0 -1.2,-0.6 -2.5,-0.8 -3.8,-0.9 h -2 v -9.2 c 0,-0.3 0,-0.4 -0.4,-0.5 -0.5,0 -0.9,-0.3 -1.4,-0.4 0,0 -0.4,0 -0.4,0.2 v 11.2 c 0,0.2 0.3,0.2 0.4,0.2 h 1.5 c 2.1,0 4.2,0 6.1,1.2 0.8,0.4 1.5,0.3 2.2,0 1.2,-0.7 2.5,-0.9 3.8,-1 h 3.5 c 0.2,0 0.4,0 0.4,-0.3 v -11 c 0,-0.3 0,-0.4 -0.4,-0.3 v 0 z"
               id="path68-0"
               style="fill:#ffffff;fill-opacity:1" /><path
               class="st0"
               d="m 103.8,79.9 c 0,0.2 0,0.4 0.3,0.3 1.5,-0.6 3.1,-0.8 4.7,-0.8 1.6,0 0.4,0 0.4,-0.5 V 68.6 c 0,0 -0.3,-0.4 -0.6,-0.3 -1.6,0.5 -3.1,1.2 -4.6,1.8 -0.2,0 -0.3,0.2 -0.3,0.4 v 9.3 0 z"
               id="path70-3"
               style="fill:#ffffff;fill-opacity:1" /><path
               class="st1"
               d="m 89.6,61.2 v 28.2 h 27.7 V 61.2 Z m 14.5,9 c 1.5,-0.6 3,-1.3 4.6,-1.8 0.3,0 0.6,0 0.6,0.3 V 79 c 0,0.3 0,0.4 -0.4,0.5 -1.6,0 -3.2,0.2 -4.7,0.8 -0.3,0 -0.3,0 -0.3,-0.3 v -9.3 c 0,-0.2 0,-0.4 0.3,-0.4 v 0 z m -6.8,-1.6 c 0,0 0.3,-0.4 0.6,-0.3 1.6,0.5 3.1,1.2 4.6,1.8 0.2,0 0.3,0.2 0.3,0.4 v 9.3 c 0,0.2 0,0.4 -0.3,0.3 -1.5,-0.6 -3.1,-0.8 -4.7,-0.8 -1.6,0 -0.4,0 -0.4,-0.5 v -10.3 0 z m 14.5,13 h -3.5 c -1.3,0 -2.6,0.3 -3.8,1 -0.7,0.4 -1.4,0.6 -2.2,0 -1.9,-1.1 -4,-1.2 -6.1,-1.2 h -1.5 c 0,0 -0.3,0 -0.4,-0.2 V 70 c 0,-0.3 0.3,-0.2 0.4,-0.2 0.5,0 0.9,0.3 1.4,0.4 0.3,0 0.4,0.2 0.4,0.5 v 9.2 h 2 c 1.3,0 2.6,0.3 3.8,0.9 0.7,0.3 1.1,0.3 1.8,0 1.1,-0.6 2.4,-0.7 3.7,-0.9 h 1.6 q 0.5,0 0.5,-0.5 v -8.3 c 0,-0.9 0,-0.7 0.7,-1 0.4,0 0.7,-0.2 1.1,-0.3 0.3,0 0.4,0 0.4,0.3 v 11 c 0,0.3 -0.2,0.3 -0.4,0.3 v 0 z"
               id="path72-6"
               style="fill:#ffffff;fill-opacity:1" /></g><path
             class="st1"
             d="m 31.5,74.2 v 33.3 l 0.8,-0.2 c 15.4,-3 26.8,-19.6 26.8,-32.5 V 74.1 H 31.4 v 0 z m 24.8,8.7 c -0.7,2 -1.5,4 -2.6,5.9 L 37.7,75.5 H 47 l 9.2,7.4 v 0 z M 32.9,96 l 8.4,6.2 c -2.6,1.6 -5.4,2.8 -8.4,3.5 v -9.8 0 z M 46,98.6 32.8,87.9 V 79.7 L 50.5,93.6 C 49.1,95.4 47.6,97 46,98.5 v 0 z"
             id="path76-1"
             style="fill:#ffffff;fill-opacity:1" /></g></g></g></g><g
     id="g366"
     transform="matrix(0.14314313,0,0,0.14314311,52.312317,60.289142)"><path
       d="m 2.836,417.215 c 0,-7.36 1.152,-14.738 3.48,-22.098 2.52,-7.562 6.114,-14.363 10.77,-20.383 4.66,-6.203 10.269,-11.234 16.863,-15.129 6.598,-3.878 14.071,-5.812 22.418,-5.812 h 169.625 c 3.879,0 7.172,1.359 9.891,4.082 2.726,2.719 4.086,5.996 4.086,9.891 0,3.875 -1.36,7.175 -4.086,9.894 -2.719,2.699 -6.012,4.063 -9.891,4.063 H 62.477 c -6.801,0 -12.317,1.265 -16.586,3.785 -4.079,2.328 -7.379,5.23 -9.891,8.738 -2.328,3.481 -3.988,7.359 -4.957,11.621 -0.762,4.086 -1.152,7.867 -1.152,11.348 0,3.504 0.39,7.379 1.152,11.644 0.969,4.082 2.629,7.868 4.957,11.348 2.512,3.488 5.812,6.508 9.891,9.02 4.269,2.328 9.785,3.5 16.586,3.5 h 163.515 c 3.879,0 7.172,1.347 9.891,4.066 2.726,2.719 4.086,6.019 4.086,9.891 0,3.878 -1.36,7.175 -4.086,9.894 -2.719,2.723 -6.012,4.082 -9.891,4.082 H 53.457 c -7.957,0 -15.035,-1.937 -21.238,-5.832 -6.207,-3.875 -11.555,-8.816 -16.004,-14.832 -4.27,-6.203 -7.567,-13.098 -9.899,-20.66 -2.328,-7.566 -3.48,-14.926 -3.48,-22.121 z"
       style="fill:#95bc0f;fill-opacity:1;fill-rule:nonzero;stroke:none"
       id="path368" /><path
       d="m 296.719,466.684 c 0,3.878 -1.36,7.175 -4.078,9.894 -2.719,2.723 -6.02,4.082 -9.891,4.082 -3.879,0 -7.176,-1.359 -9.898,-4.082 -2.719,-2.719 -4.059,-6.016 -4.059,-9.894 v -98.918 c 0,-3.895 1.34,-7.172 4.059,-9.891 2.722,-2.723 6.019,-4.082 9.898,-4.082 3.871,0 7.172,1.359 9.891,4.082 2.718,2.719 4.078,5.996 4.078,9.891 z"
       style="fill:#ffffff;fill-opacity:1;fill-rule:nonzero;stroke:none"
       id="path370" /><path
       d="m 411.738,449.227 c 0,-5.032 1.75,-9.317 5.235,-12.801 3.484,-3.485 7.75,-5.235 12.8,-5.235 5.047,0 9.317,1.75 12.797,5.235 3.508,3.484 5.239,7.769 5.239,12.801 0,5.05 -1.731,9.316 -5.239,12.8 -3.48,3.504 -7.75,5.235 -12.797,5.235 -5.05,0 -9.316,-1.731 -12.8,-5.235 -3.485,-3.484 -5.235,-7.75 -5.235,-12.8 z m -61.398,26.195 c -2.902,3.488 -6.5,5.238 -10.766,5.238 -3.875,0 -7.172,-1.359 -9.894,-4.082 -2.719,-2.719 -4.059,-6.016 -4.059,-9.894 0,-3.481 0.965,-6.297 2.902,-8.438 l 70.696,-95.141 c 3.297,-4.468 7.676,-8.043 13.097,-10.769 5.438,-2.902 11.25,-4.359 17.457,-4.359 5.817,0 11.348,1.25 16.582,3.785 5.235,2.515 9.504,6.019 12.801,10.472 l 70.707,94.559 c 1.157,1.359 2.129,2.902 2.91,4.652 0.782,1.551 1.176,3.301 1.176,5.239 0,3.878 -1.367,7.175 -4.086,9.894 -2.718,2.723 -6.019,4.082 -9.89,4.082 -4.661,0 -8.348,-1.848 -11.047,-5.531 l -67.805,-90.5 c -1.359,-1.547 -3.094,-3.188 -5.238,-4.938 -1.934,-1.937 -3.969,-2.91 -6.11,-2.91 -2.125,0 -4.269,0.973 -6.39,2.91 -1.957,1.75 -3.5,3.391 -4.66,4.938 z"
       style="fill:#ffffff;fill-opacity:1;fill-rule:nonzero;stroke:none"
       id="path372" /><path
       d="m 591.09,381.723 v 71.004 h 149.543 c 6.594,0 12.035,-1.172 16.305,-3.5 4.265,-2.512 7.566,-5.532 9.894,-9.02 2.512,-3.48 4.172,-7.266 4.934,-11.348 0.968,-4.265 1.457,-8.14 1.457,-11.644 0,-3.481 -0.489,-7.262 -1.457,-11.348 -0.762,-4.262 -2.422,-8.14 -4.934,-11.621 -2.328,-3.508 -5.629,-6.41 -9.894,-8.738 -4.27,-2.52 -9.711,-3.785 -16.305,-3.785 z m 209.207,35.492 c 0,7.195 -1.18,14.457 -3.508,21.84 -2.328,7.359 -5.719,14.047 -10.172,20.066 -4.265,6.02 -9.504,11.07 -15.726,15.129 -6.203,3.879 -13.286,6.02 -21.243,6.41 H 577.113 c -3.871,0 -7.168,-1.359 -9.89,-4.082 -2.719,-2.719 -4.059,-6.016 -4.059,-9.894 v -98.918 c 0,-3.895 1.34,-7.172 4.059,-9.891 2.722,-2.723 6.019,-4.082 9.89,-4.082 h 169.633 c 8.344,0 15.816,1.934 22.41,5.812 6.598,3.895 12.227,8.926 16.864,15.129 4.66,6.02 8.16,12.821 10.492,20.383 2.515,7.36 3.785,14.738 3.785,22.098 z"
       style="fill:#95bc0f;fill-opacity:1;fill-rule:nonzero;stroke:none"
       id="path374" /><path
       d="m 49.043,525.023 c -0.988,0.52 -2.031,0.911 -3.094,1.176 -1.082,0.258 -2.199,0.391 -3.351,0.391 -3.489,0 -6.227,-0.969 -8.258,-2.91 -2.028,-1.957 -3.055,-4.586 -3.055,-7.918 0,-3.336 1.027,-5.961 3.055,-7.899 2.031,-1.957 4.769,-2.925 8.258,-2.925 1.152,0 2.269,0.128 3.351,0.39 1.063,0.258 2.106,0.649 3.094,1.156 v 4.321 c -1.004,-0.688 -1.992,-1.172 -2.965,-1.489 -0.969,-0.32 -1.976,-0.484 -3.055,-0.484 -1.921,0 -3.425,0.613 -4.523,1.844 -1.102,1.23 -1.641,2.926 -1.641,5.086 0,2.16 0.539,3.84 1.641,5.07 1.098,1.227 2.602,1.84 4.523,1.84 1.079,0 2.086,-0.149 3.055,-0.461 0.973,-0.32 1.961,-0.82 2.965,-1.492 z"
       style="fill:#ffffff;fill-opacity:1;fill-rule:nonzero;stroke:none"
       id="path376" /><path
       d="m 59.645,512.332 c -1.379,0 -2.477,0.543 -3.278,1.621 -0.801,1.063 -1.191,2.539 -1.191,4.418 0,1.863 0.39,3.332 1.191,4.418 0.801,1.078 1.879,1.621 3.278,1.621 1.359,0 2.46,-0.543 3.261,-1.621 0.801,-1.086 1.192,-2.555 1.192,-4.418 0,-1.867 -0.391,-3.336 -1.192,-4.418 -0.801,-1.078 -1.902,-1.621 -3.261,-1.621 z m 0,-2.18 c 2.234,0 3.988,0.731 5.273,2.18 1.266,1.453 1.898,3.469 1.898,6.039 0,2.551 -0.632,4.563 -1.898,6.039 -1.285,1.449 -3.039,2.18 -5.273,2.18 -2.254,0 -4.008,-0.731 -5.29,-2.18 -1.269,-1.476 -1.906,-3.488 -1.906,-6.039 0,-2.57 0.637,-4.586 1.906,-6.039 1.282,-1.449 3.036,-2.18 5.29,-2.18 z"
       style="fill:#95bc0f;fill-opacity:1;fill-rule:nonzero;stroke:none"
       id="path378" /><path
       d="m 84.09,516.73 v 9.45 h -2.57 v -9.375 c 0,-1.473 -0.297,-2.59 -0.879,-3.313 -0.579,-0.75 -1.43,-1.101 -2.586,-1.101 -1.399,0 -2.5,0.429 -3.301,1.32 -0.801,0.879 -1.192,2.09 -1.192,3.613 v 8.856 h -2.589 v -15.653 h 2.589 v 2.418 c 0.614,-0.929 1.34,-1.633 2.161,-2.101 0.839,-0.469 1.808,-0.692 2.89,-0.692 1.809,0 3.168,0.563 4.078,1.68 0.934,1.098 1.399,2.738 1.399,4.898 z"
       style="fill:#95bc0f;fill-opacity:1;fill-rule:nonzero;stroke:none"
       id="path380" /><path
       d="m 102.258,516.73 v 9.45 h -2.57 v -9.375 c 0,-1.473 -0.301,-2.59 -0.879,-3.313 -0.579,-0.75 -1.438,-1.101 -2.59,-1.101 -1.399,0 -2.496,0.429 -3.297,1.32 -0.801,0.879 -1.192,2.09 -1.192,3.613 v 8.856 h -2.589 v -15.653 h 2.589 v 2.418 c 0.614,-0.929 1.34,-1.633 2.161,-2.101 0.839,-0.469 1.808,-0.692 2.886,-0.692 1.809,0 3.168,0.563 4.082,1.68 0.93,1.098 1.399,2.738 1.399,4.898 z"
       style="fill:#95bc0f;fill-opacity:1;fill-rule:nonzero;stroke:none"
       id="path382" /><path
       d="m 114.516,518.312 c -2.071,0 -3.52,0.227 -4.321,0.711 -0.8,0.465 -1.195,1.286 -1.195,2.422 0,0.914 0.297,1.637 0.895,2.18 0.593,0.539 1.414,0.805 2.46,0.805 1.418,0 2.571,-0.508 3.43,-1.512 0.852,-1.008 1.281,-2.367 1.281,-4.043 v -0.563 z m 5.121,-1.058 v 8.926 h -2.571 v -2.387 c -0.574,0.949 -1.3,1.656 -2.179,2.125 -0.871,0.445 -1.953,0.672 -3.223,0.672 -1.602,0 -2.867,-0.449 -3.816,-1.348 -0.953,-0.91 -1.418,-2.121 -1.418,-3.629 0,-1.75 0.578,-3.074 1.75,-3.968 1.195,-0.895 2.945,-1.344 5.293,-1.344 h 3.593 v -0.258 c 0,-1.172 -0.39,-2.09 -1.171,-2.738 -0.762,-0.653 -1.868,-0.973 -3.258,-0.973 -0.899,0 -1.774,0.094 -2.61,0.32 -0.859,0.203 -1.679,0.539 -2.461,0.969 v -2.387 c 0.95,-0.351 1.864,-0.632 2.739,-0.8 0.894,-0.188 1.75,-0.282 2.59,-0.282 2.273,0 3.949,0.582 5.07,1.754 1.117,1.176 1.672,2.965 1.672,5.348 z"
       style="fill:#95bc0f;fill-opacity:1;fill-rule:nonzero;stroke:none"
       id="path384" /><path
       d="m 124.953,510.527 h 2.57 v 15.653 h -2.57 z m 0,-6.093 h 2.57 v 3.261 h -2.57 z"
       style="fill:#95bc0f;fill-opacity:1;fill-rule:nonzero;stroke:none"
       id="path386" /><path
       d="m 142.871,510.992 v 2.422 c -0.723,-0.371 -1.488,-0.652 -2.269,-0.84 -0.782,-0.183 -1.582,-0.277 -2.422,-0.277 -1.289,0 -2.239,0.207 -2.887,0.598 -0.633,0.39 -0.953,0.968 -0.953,1.75 0,0.597 0.242,1.058 0.691,1.417 0.461,0.333 1.379,0.649 2.758,0.969 l 0.875,0.184 c 1.824,0.39 3.129,0.949 3.895,1.66 0.761,0.707 1.152,1.715 1.152,2.98 0,1.454 -0.574,2.606 -1.731,3.446 -1.152,0.859 -2.718,1.289 -4.73,1.289 -0.84,0 -1.719,-0.098 -2.629,-0.262 -0.91,-0.148 -1.867,-0.394 -2.871,-0.726 v -2.649 c 0.953,0.488 1.883,0.859 2.812,1.117 0.918,0.242 1.829,0.36 2.739,0.36 1.211,0 2.148,-0.207 2.797,-0.618 0.652,-0.41 0.968,-1.007 0.968,-1.753 0,-0.707 -0.238,-1.247 -0.707,-1.618 -0.468,-0.371 -1.488,-0.73 -3.089,-1.066 l -0.899,-0.223 c -1.582,-0.332 -2.738,-0.84 -3.449,-1.527 -0.707,-0.711 -1.059,-1.66 -1.059,-2.871 0,-1.469 0.52,-2.609 1.567,-3.41 1.043,-0.801 2.511,-1.192 4.433,-1.192 0.949,0 1.844,0.059 2.68,0.203 0.84,0.137 1.625,0.36 2.328,0.637 z"
       style="fill:#95bc0f;fill-opacity:1;fill-rule:nonzero;stroke:none"
       id="path388" /><path
       d="m 157.797,510.992 v 2.422 c -0.723,-0.371 -1.488,-0.652 -2.27,-0.84 -0.781,-0.183 -1.586,-0.277 -2.422,-0.277 -1.289,0 -2.238,0.207 -2.89,0.598 -0.633,0.39 -0.949,0.968 -0.949,1.75 0,0.597 0.242,1.058 0.691,1.417 0.461,0.333 1.379,0.649 2.754,0.969 l 0.875,0.184 c 1.828,0.39 3.133,0.949 3.898,1.66 0.762,0.707 1.153,1.715 1.153,2.98 0,1.454 -0.578,2.606 -1.731,3.446 -1.156,0.859 -2.722,1.289 -4.734,1.289 -0.836,0 -1.715,-0.098 -2.625,-0.262 -0.918,-0.148 -1.867,-0.394 -2.871,-0.726 v -2.649 c 0.949,0.488 1.883,0.859 2.812,1.117 0.914,0.242 1.828,0.36 2.739,0.36 1.211,0 2.144,-0.207 2.793,-0.618 0.656,-0.41 0.968,-1.007 0.968,-1.753 0,-0.707 -0.238,-1.247 -0.703,-1.618 -0.469,-0.371 -1.496,-0.73 -3.097,-1.066 l -0.891,-0.223 c -1.586,-0.332 -2.738,-0.84 -3.449,-1.527 -0.707,-0.711 -1.059,-1.66 -1.059,-2.871 0,-1.469 0.52,-2.609 1.563,-3.41 1.046,-0.801 2.515,-1.192 4.437,-1.192 0.949,0 1.84,0.059 2.68,0.203 0.84,0.137 1.621,0.36 2.328,0.637 z"
       style="fill:#95bc0f;fill-opacity:1;fill-rule:nonzero;stroke:none"
       id="path390" /><path
       d="m 169.855,518.312 c -2.07,0 -3.523,0.227 -4.328,0.711 -0.8,0.465 -1.191,1.286 -1.191,2.422 0,0.914 0.301,1.637 0.898,2.18 0.594,0.539 1.414,0.805 2.457,0.805 1.414,0 2.575,-0.508 3.43,-1.512 0.856,-1.008 1.285,-2.367 1.285,-4.043 v -0.563 z m 5.122,-1.058 v 8.926 h -2.571 v -2.387 c -0.574,0.949 -1.304,1.656 -2.179,2.125 -0.875,0.445 -1.954,0.672 -3.223,0.672 -1.602,0 -2.871,-0.449 -3.82,-1.348 -0.95,-0.91 -1.418,-2.121 -1.418,-3.629 0,-1.75 0.578,-3.074 1.754,-3.968 1.195,-0.895 2.945,-1.344 5.292,-1.344 h 3.594 v -0.258 c 0,-1.172 -0.39,-2.09 -1.172,-2.738 -0.761,-0.653 -1.867,-0.973 -3.261,-0.973 -0.895,0 -1.77,0.094 -2.61,0.32 -0.855,0.203 -1.675,0.539 -2.457,0.969 v -2.387 c 0.949,-0.351 1.86,-0.632 2.739,-0.8 0.89,-0.188 1.75,-0.282 2.589,-0.282 2.27,0 3.95,0.582 5.067,1.754 1.121,1.176 1.676,2.965 1.676,5.348 z"
       style="fill:#95bc0f;fill-opacity:1;fill-rule:nonzero;stroke:none"
       id="path392" /><path
       d="m 193.312,516.73 v 9.45 h -2.57 v -9.375 c 0,-1.473 -0.301,-2.59 -0.879,-3.313 -0.574,-0.75 -1.433,-1.101 -2.59,-1.101 -1.394,0 -2.492,0.429 -3.293,1.32 -0.804,0.879 -1.195,2.09 -1.195,3.613 v 8.856 h -2.59 v -15.653 h 2.59 v 2.418 c 0.613,-0.929 1.34,-1.633 2.164,-2.101 0.832,-0.469 1.805,-0.692 2.883,-0.692 1.809,0 3.168,0.563 4.086,1.68 0.93,1.098 1.394,2.738 1.394,4.898 z"
       style="fill:#95bc0f;fill-opacity:1;fill-rule:nonzero;stroke:none"
       id="path394" /><path
       d="m 209.727,511.125 v 2.398 c -0.727,-0.39 -1.454,-0.687 -2.2,-0.89 -0.722,-0.207 -1.453,-0.301 -2.199,-0.301 -1.672,0 -2.961,0.523 -3.89,1.582 -0.918,1.066 -1.379,2.539 -1.379,4.457 0,1.902 0.461,3.391 1.379,4.453 0.929,1.043 2.218,1.586 3.89,1.586 0.746,0 1.477,-0.117 2.199,-0.301 0.746,-0.207 1.473,-0.5 2.2,-0.91 v 2.383 c -0.727,0.336 -1.473,0.578 -2.239,0.746 -0.761,0.164 -1.582,0.262 -2.437,0.262 -2.371,0 -4.231,-0.75 -5.629,-2.238 -1.375,-1.473 -2.086,-3.469 -2.086,-5.981 0,-2.551 0.711,-4.566 2.105,-6.039 1.399,-1.449 3.336,-2.18 5.778,-2.18 0.781,0 1.566,0.075 2.308,0.243 0.762,0.167 1.493,0.41 2.2,0.73 z"
       style="fill:#95bc0f;fill-opacity:1;fill-rule:nonzero;stroke:none"
       id="path396" /><path
       d="m 227.613,517.699 v 1.266 h -11.828 c 0.11,1.773 0.649,3.113 1.598,4.047 0.953,0.929 2.293,1.398 3.988,1.398 0.984,0 1.961,-0.133 2.871,-0.375 0.93,-0.242 1.863,-0.594 2.774,-1.082 v 2.426 c -0.93,0.391 -1.883,0.683 -2.852,0.891 -0.969,0.203 -1.937,0.32 -2.941,0.32 -2.496,0 -4.469,-0.731 -5.946,-2.18 -1.453,-1.457 -2.179,-3.43 -2.179,-5.91 0,-2.551 0.691,-4.586 2.07,-6.094 1.398,-1.504 3.258,-2.254 5.605,-2.254 2.11,0 3.762,0.672 4.997,2.032 1.23,1.359 1.843,3.187 1.843,5.515 z m -2.57,-0.746 c -0.02,-1.414 -0.41,-2.531 -1.191,-3.371 -0.766,-0.84 -1.77,-1.25 -3.04,-1.25 -1.437,0 -2.589,0.391 -3.464,1.211 -0.856,0.801 -1.344,1.961 -1.473,3.43 z"
       style="fill:#95bc0f;fill-opacity:1;fill-rule:nonzero;stroke:none"
       id="path398" /><path
       d="m 254.336,517.699 v 1.266 H 242.5 c 0.113,1.773 0.652,3.113 1.602,4.047 0.949,0.929 2.289,1.398 3.988,1.398 0.988,0 1.957,-0.133 2.871,-0.375 0.93,-0.242 1.859,-0.594 2.777,-1.082 v 2.426 c -0.933,0.391 -1.883,0.683 -2.851,0.891 -0.969,0.203 -1.938,0.32 -2.946,0.32 -2.5,0 -4.472,-0.731 -5.941,-2.18 -1.457,-1.457 -2.18,-3.43 -2.18,-5.91 0,-2.551 0.688,-4.586 2.067,-6.094 1.394,-1.504 3.261,-2.254 5.609,-2.254 2.102,0 3.762,0.672 4.992,2.032 1.231,1.359 1.848,3.187 1.848,5.515 z m -2.574,-0.746 c -0.02,-1.414 -0.41,-2.531 -1.192,-3.371 -0.765,-0.84 -1.773,-1.25 -3.039,-1.25 -1.433,0 -2.59,0.391 -3.465,1.211 -0.855,0.801 -1.343,1.961 -1.472,3.43 z"
       style="fill:#95bc0f;fill-opacity:1;fill-rule:nonzero;stroke:none"
       id="path400" /><path
       d="m 261.098,506.074 v 4.453 h 5.289 v 1.993 h -5.289 v 8.5 c 0,1.281 0.168,2.101 0.519,2.453 0.356,0.379 1.063,0.547 2.125,0.547 h 2.645 v 2.16 h -2.645 c -1.976,0 -3.355,-0.371 -4.097,-1.102 -0.766,-0.746 -1.137,-2.105 -1.137,-4.058 v -8.5 h -1.883 v -1.993 h 1.883 v -4.453 z"
       style="fill:#95bc0f;fill-opacity:1;fill-rule:nonzero;stroke:none"
       id="path402" /><path
       d="m 278.832,505.312 h 5.367 v 20.867 h -5.367 z"
       style="fill:#ffffff;fill-opacity:1;fill-rule:nonzero;stroke:none"
       id="path404" /><path
       d="m 302.59,516.73 v 9.45 h -2.57 v -9.375 c 0,-1.473 -0.301,-2.59 -0.879,-3.313 -0.575,-0.75 -1.434,-1.101 -2.59,-1.101 -1.395,0 -2.492,0.429 -3.293,1.32 -0.805,0.879 -1.196,2.09 -1.196,3.613 v 8.856 h -2.589 v -15.653 h 2.589 v 2.418 c 0.618,-0.929 1.34,-1.633 2.161,-2.101 0.839,-0.469 1.808,-0.692 2.886,-0.692 1.809,0 3.168,0.563 4.082,1.68 0.934,1.098 1.399,2.738 1.399,4.898 z"
       style="fill:#95bc0f;fill-opacity:1;fill-rule:nonzero;stroke:none"
       id="path406" /><path
       d="m 310.285,506.074 v 4.453 h 5.289 v 1.993 h -5.289 v 8.5 c 0,1.281 0.168,2.101 0.52,2.453 0.359,0.379 1.062,0.547 2.129,0.547 h 2.64 v 2.16 h -2.64 c -1.977,0 -3.356,-0.371 -4.106,-1.102 -0.762,-0.746 -1.133,-2.105 -1.133,-4.058 v -8.5 h -1.879 v -1.993 h 1.879 v -4.453 z"
       style="fill:#95bc0f;fill-opacity:1;fill-rule:nonzero;stroke:none"
       id="path408" /><path
       d="m 332.363,517.699 v 1.266 h -11.832 c 0.114,1.773 0.653,3.113 1.602,4.047 0.953,0.929 2.293,1.398 3.988,1.398 0.988,0 1.961,-0.133 2.871,-0.375 0.93,-0.242 1.863,-0.594 2.778,-1.082 v 2.426 c -0.934,0.391 -1.887,0.683 -2.856,0.891 -0.969,0.203 -1.934,0.32 -2.941,0.32 -2.496,0 -4.469,-0.731 -5.942,-2.18 -1.457,-1.457 -2.183,-3.43 -2.183,-5.91 0,-2.551 0.695,-4.586 2.07,-6.094 1.398,-1.504 3.258,-2.254 5.605,-2.254 2.11,0 3.766,0.672 4.997,2.032 1.23,1.359 1.843,3.187 1.843,5.515 z m -2.57,-0.746 c -0.02,-1.414 -0.41,-2.531 -1.191,-3.371 -0.766,-0.84 -1.77,-1.25 -3.04,-1.25 -1.437,0 -2.589,0.391 -3.464,1.211 -0.856,0.801 -1.344,1.961 -1.473,3.43 z"
       style="fill:#95bc0f;fill-opacity:1;fill-rule:nonzero;stroke:none"
       id="path410" /><path
       d="m 336.574,504.434 h 2.574 v 21.746 h -2.574 z"
       style="fill:#95bc0f;fill-opacity:1;fill-rule:nonzero;stroke:none"
       id="path412" /><path
       d="m 344.512,504.434 h 2.57 v 21.746 h -2.57 z"
       style="fill:#95bc0f;fill-opacity:1;fill-rule:nonzero;stroke:none"
       id="path414" /><path
       d="m 352.449,510.527 h 2.571 v 15.653 h -2.571 z m 0,-6.093 h 2.571 v 3.261 h -2.571 z"
       style="fill:#95bc0f;fill-opacity:1;fill-rule:nonzero;stroke:none"
       id="path416" /><path
       d="m 370.691,518.164 c 0,-1.863 -0.394,-3.293 -1.156,-4.32 -0.762,-1.024 -1.844,-1.547 -3.223,-1.547 -1.378,0 -2.457,0.523 -3.246,1.547 -0.761,1.027 -1.132,2.457 -1.132,4.32 0,1.867 0.371,3.301 1.132,4.324 0.789,1.024 1.868,1.532 3.246,1.532 1.379,0 2.461,-0.508 3.223,-1.532 0.762,-1.023 1.156,-2.457 1.156,-4.324 z m 2.571,6.078 c 0,2.66 -0.598,4.637 -1.77,5.926 -1.195,1.301 -3,1.953 -5.445,1.953 -0.891,0 -1.75,-0.055 -2.551,-0.203 -0.801,-0.129 -1.582,-0.336 -2.328,-0.617 v -2.492 c 0.746,0.402 1.496,0.703 2.238,0.91 0.727,0.183 1.469,0.281 2.231,0.281 1.699,0 2.968,-0.43 3.804,-1.328 0.84,-0.871 1.25,-2.199 1.25,-3.984 v -1.266 c -0.523,0.93 -1.214,1.621 -2.035,2.066 -0.832,0.465 -1.824,0.692 -2.98,0.692 -1.918,0 -3.461,-0.731 -4.637,-2.2 -1.172,-1.457 -1.769,-3.39 -1.769,-5.816 0,-2.422 0.597,-4.359 1.769,-5.832 1.176,-1.449 2.719,-2.18 4.637,-2.18 1.156,0 2.148,0.223 2.98,0.672 0.821,0.469 1.512,1.156 2.035,2.071 v -2.368 h 2.571 z"
       style="fill:#95bc0f;fill-opacity:1;fill-rule:nonzero;stroke:none"
       id="path418" /><path
       d="m 391.949,517.699 v 1.266 h -11.828 c 0.109,1.773 0.649,3.113 1.602,4.047 0.949,0.929 2.289,1.398 3.988,1.398 0.988,0 1.953,-0.133 2.867,-0.375 0.93,-0.242 1.863,-0.594 2.774,-1.082 v 2.426 c -0.93,0.391 -1.879,0.683 -2.852,0.891 -0.969,0.203 -1.938,0.32 -2.941,0.32 -2.497,0 -4.469,-0.731 -5.946,-2.18 -1.449,-1.457 -2.179,-3.43 -2.179,-5.91 0,-2.551 0.691,-4.586 2.07,-6.094 1.398,-1.504 3.258,-2.254 5.609,-2.254 2.106,0 3.766,0.672 4.989,2.032 1.23,1.359 1.847,3.187 1.847,5.515 z m -2.57,-0.746 c -0.02,-1.414 -0.41,-2.531 -1.191,-3.371 -0.766,-0.84 -1.774,-1.25 -3.04,-1.25 -1.433,0 -2.589,0.391 -3.464,1.211 -0.86,0.801 -1.34,1.961 -1.473,3.43 z"
       style="fill:#95bc0f;fill-opacity:1;fill-rule:nonzero;stroke:none"
       id="path420" /><path
       d="m 409.184,516.73 v 9.45 h -2.571 v -9.375 c 0,-1.473 -0.297,-2.59 -0.875,-3.313 -0.578,-0.75 -1.433,-1.101 -2.59,-1.101 -1.398,0 -2.5,0.429 -3.3,1.32 -0.801,0.879 -1.192,2.09 -1.192,3.613 v 8.856 h -2.59 v -15.653 h 2.59 v 2.418 c 0.614,-0.929 1.344,-1.633 2.164,-2.101 0.836,-0.469 1.805,-0.692 2.887,-0.692 1.809,0 3.168,0.563 4.078,1.68 0.934,1.098 1.399,2.738 1.399,4.898 z"
       style="fill:#95bc0f;fill-opacity:1;fill-rule:nonzero;stroke:none"
       id="path422" /><path
       d="m 425.602,511.125 v 2.398 c -0.731,-0.39 -1.457,-0.687 -2.2,-0.89 -0.726,-0.207 -1.457,-0.301 -2.199,-0.301 -1.68,0 -2.961,0.523 -3.894,1.582 -0.914,1.066 -1.383,2.539 -1.383,4.457 0,1.902 0.469,3.391 1.383,4.453 0.933,1.043 2.214,1.586 3.894,1.586 0.742,0 1.473,-0.117 2.199,-0.301 0.743,-0.207 1.469,-0.5 2.2,-0.91 v 2.383 c -0.731,0.336 -1.477,0.578 -2.239,0.746 -0.761,0.164 -1.582,0.262 -2.441,0.262 -2.367,0 -4.227,-0.75 -5.625,-2.238 -1.379,-1.473 -2.09,-3.469 -2.09,-5.981 0,-2.551 0.711,-4.566 2.109,-6.039 1.399,-1.449 3.336,-2.18 5.778,-2.18 0.781,0 1.562,0.075 2.308,0.243 0.762,0.167 1.489,0.41 2.2,0.73 z"
       style="fill:#95bc0f;fill-opacity:1;fill-rule:nonzero;stroke:none"
       id="path424" /><path
       d="m 443.488,517.699 v 1.266 h -11.836 c 0.118,1.773 0.657,3.113 1.606,4.047 0.953,0.929 2.293,1.398 3.984,1.398 0.988,0 1.957,-0.133 2.871,-0.375 0.934,-0.242 1.864,-0.594 2.778,-1.082 v 2.426 c -0.934,0.391 -1.883,0.683 -2.852,0.891 -0.969,0.203 -1.937,0.32 -2.945,0.32 -2.492,0 -4.473,-0.731 -5.942,-2.18 -1.453,-1.457 -2.179,-3.43 -2.179,-5.91 0,-2.551 0.687,-4.586 2.066,-6.094 1.395,-1.504 3.262,-2.254 5.609,-2.254 2.106,0 3.762,0.672 4.993,2.032 1.23,1.359 1.847,3.187 1.847,5.515 z m -2.57,-0.746 c -0.02,-1.414 -0.41,-2.531 -1.195,-3.371 -0.762,-0.84 -1.77,-1.25 -3.039,-1.25 -1.434,0 -2.59,0.391 -3.465,1.211 -0.856,0.801 -1.34,1.961 -1.469,3.43 z"
       style="fill:#95bc0f;fill-opacity:1;fill-rule:nonzero;stroke:none"
       id="path426" /><path
       d="m 469.402,522.379 h -8.398 l -1.348,3.801 h -5.398 l 7.73,-20.868 h 6.407 l 7.738,20.868 h -5.406 z m -7.058,-3.879 h 5.699 l -2.848,-8.289 z"
       style="fill:#ffffff;fill-opacity:1;fill-rule:nonzero;stroke:none"
       id="path428" /><path
       d="m 488.02,512.93 c -0.282,-0.168 -0.598,-0.297 -0.95,-0.375 -0.34,-0.071 -0.711,-0.11 -1.121,-0.11 -1.457,0 -2.57,0.469 -3.355,1.418 -0.762,0.949 -1.153,2.289 -1.153,4.059 v 8.258 h -2.589 v -15.653 h 2.589 v 2.418 c 0.539,-0.949 1.25,-1.633 2.102,-2.101 0.879,-0.469 1.922,-0.692 3.168,-0.692 0.168,0 0.371,0 0.578,0.039 0.223,0.02 0.449,0.055 0.711,0.094 z"
       style="fill:#95bc0f;fill-opacity:1;fill-rule:nonzero;stroke:none"
       id="path430" /><path
       d="m 493.289,506.074 v 4.453 h 5.293 v 1.993 h -5.293 v 8.5 c 0,1.281 0.168,2.101 0.523,2.453 0.356,0.379 1.059,0.547 2.126,0.547 h 2.644 v 2.16 h -2.644 c -1.977,0 -3.356,-0.371 -4.098,-1.102 -0.77,-0.746 -1.141,-2.105 -1.141,-4.058 v -8.5 h -1.879 v -1.993 h 1.879 v -4.453 z"
       style="fill:#95bc0f;fill-opacity:1;fill-rule:nonzero;stroke:none"
       id="path432" /><path
       d="m 501.977,510.527 h 2.57 v 15.653 h -2.57 z m 0,-6.093 h 2.57 v 3.261 h -2.57 z"
       style="fill:#95bc0f;fill-opacity:1;fill-rule:nonzero;stroke:none"
       id="path434" /><path
       d="m 522.562,510.527 v 15.653 h -2.589 v -13.66 h -7.047 v 13.66 h -2.59 v -13.66 h -2.457 v -1.993 h 2.457 v -1.101 c 0,-1.692 0.391,-2.961 1.191,-3.762 0.821,-0.82 2.051,-1.23 3.731,-1.23 h 2.59 v 2.14 h -2.461 c -0.93,0 -1.563,0.188 -1.934,0.563 -0.355,0.371 -0.527,1.039 -0.527,2.008 v 1.382 z m -2.589,-6.074 h 2.589 v 3.262 h -2.589 z"
       style="fill:#95bc0f;fill-opacity:1;fill-rule:nonzero;stroke:none"
       id="path436" /><path
       d="m 539.238,511.125 v 2.398 c -0.726,-0.39 -1.457,-0.687 -2.199,-0.89 -0.727,-0.207 -1.457,-0.301 -2.199,-0.301 -1.676,0 -2.961,0.523 -3.895,1.582 -0.914,1.066 -1.375,2.539 -1.375,4.457 0,1.902 0.461,3.391 1.375,4.453 0.934,1.043 2.219,1.586 3.895,1.586 0.742,0 1.472,-0.117 2.199,-0.301 0.742,-0.207 1.473,-0.5 2.199,-0.91 v 2.383 c -0.726,0.336 -1.476,0.578 -2.238,0.746 -0.762,0.164 -1.582,0.262 -2.438,0.262 -2.371,0 -4.23,-0.75 -5.628,-2.238 -1.379,-1.473 -2.09,-3.469 -2.09,-5.981 0,-2.551 0.711,-4.566 2.109,-6.039 1.399,-1.449 3.336,-2.18 5.777,-2.18 0.782,0 1.563,0.075 2.309,0.243 0.762,0.167 1.492,0.41 2.199,0.73 z"
       style="fill:#95bc0f;fill-opacity:1;fill-rule:nonzero;stroke:none"
       id="path438" /><path
       d="m 543.727,510.527 h 2.574 v 15.653 h -2.574 z m 0,-6.093 h 2.574 v 3.261 h -2.574 z"
       style="fill:#95bc0f;fill-opacity:1;fill-rule:nonzero;stroke:none"
       id="path440" /><path
       d="m 565.062,517.699 v 1.266 H 553.23 c 0.11,1.773 0.649,3.113 1.606,4.047 0.949,0.929 2.289,1.398 3.98,1.398 0.993,0 1.961,-0.133 2.872,-0.375 0.929,-0.242 1.867,-0.594 2.777,-1.082 v 2.426 c -0.93,0.391 -1.879,0.683 -2.852,0.891 -0.968,0.203 -1.937,0.32 -2.945,0.32 -2.492,0 -4.469,-0.731 -5.941,-2.18 -1.457,-1.457 -2.18,-3.43 -2.18,-5.91 0,-2.551 0.691,-4.586 2.07,-6.094 1.399,-1.504 3.258,-2.254 5.61,-2.254 2.101,0 3.761,0.672 4.988,2.032 1.23,1.359 1.847,3.187 1.847,5.515 z m -2.574,-0.746 c -0.015,-1.414 -0.41,-2.531 -1.191,-3.371 -0.762,-0.84 -1.77,-1.25 -3.039,-1.25 -1.43,0 -2.59,0.391 -3.461,1.211 -0.859,0.801 -1.34,1.961 -1.473,3.43 z"
       style="fill:#95bc0f;fill-opacity:1;fill-rule:nonzero;stroke:none"
       id="path442" /><path
       d="m 569.273,504.434 h 2.566 v 21.746 h -2.566 z"
       style="fill:#95bc0f;fill-opacity:1;fill-rule:nonzero;stroke:none"
       id="path444" /><path
       d="m 577.211,504.434 h 2.57 v 21.746 h -2.57 z"
       style="fill:#95bc0f;fill-opacity:1;fill-rule:nonzero;stroke:none"
       id="path446" /><path
       d="m 598.547,517.699 v 1.266 h -11.836 c 0.113,1.773 0.652,3.113 1.601,4.047 0.95,0.929 2.297,1.398 3.989,1.398 0.988,0 1.957,-0.133 2.871,-0.375 0.93,-0.242 1.863,-0.594 2.777,-1.082 v 2.426 c -0.933,0.391 -1.883,0.683 -2.851,0.891 -0.969,0.203 -1.938,0.32 -2.946,0.32 -2.496,0 -4.472,-0.731 -5.941,-2.18 -1.457,-1.457 -2.18,-3.43 -2.18,-5.91 0,-2.551 0.688,-4.586 2.067,-6.094 1.394,-1.504 3.261,-2.254 5.609,-2.254 2.102,0 3.762,0.672 4.992,2.032 1.231,1.359 1.848,3.187 1.848,5.515 z m -2.574,-0.746 c -0.016,-1.414 -0.411,-2.531 -1.192,-3.371 -0.765,-0.84 -1.773,-1.25 -3.039,-1.25 -1.433,0 -2.59,0.391 -3.465,1.211 -0.855,0.801 -1.343,1.961 -1.468,3.43 z"
       style="fill:#95bc0f;fill-opacity:1;fill-rule:nonzero;stroke:none"
       id="path448" /><path
       d="m 617.176,509.371 v 12.742 h 1.937 c 2.199,0 3.879,-0.554 5.032,-1.64 1.156,-1.098 1.75,-2.68 1.75,-4.75 0,-2.067 -0.575,-3.649 -1.731,-4.731 -1.152,-1.078 -2.852,-1.621 -5.051,-1.621 z m -5.367,-4.059 h 5.664 c 3.168,0 5.539,0.223 7.082,0.684 1.547,0.449 2.886,1.215 3.988,2.297 0.988,0.93 1.711,2.031 2.18,3.258 0.48,1.23 0.707,2.609 0.707,4.172 0,1.566 -0.227,2.98 -0.707,4.211 -0.469,1.23 -1.192,2.328 -2.18,3.265 -1.121,1.078 -2.461,1.844 -4.027,2.309 -1.563,0.445 -3.911,0.672 -7.043,0.672 h -5.664 z"
       style="fill:#ffffff;fill-opacity:1;fill-rule:nonzero;stroke:none"
       id="path450" /><path
       d="m 635.621,510.527 h 2.57 v 15.653 h -2.57 z m 0,-6.093 h 2.57 v 3.261 h -2.57 z"
       style="fill:#95bc0f;fill-opacity:1;fill-rule:nonzero;stroke:none"
       id="path452" /><path
       d="m 653.547,510.992 v 2.422 c -0.727,-0.371 -1.492,-0.652 -2.277,-0.84 -0.782,-0.183 -1.582,-0.277 -2.418,-0.277 -1.286,0 -2.235,0.207 -2.891,0.598 -0.633,0.39 -0.949,0.968 -0.949,1.75 0,0.597 0.246,1.058 0.687,1.417 0.469,0.333 1.379,0.649 2.758,0.969 l 0.879,0.184 c 1.824,0.39 3.129,0.949 3.891,1.66 0.769,0.707 1.16,1.715 1.16,2.98 0,1.454 -0.578,2.606 -1.739,3.446 -1.152,0.859 -2.718,1.289 -4.73,1.289 -0.84,0 -1.711,-0.098 -2.629,-0.262 -0.91,-0.148 -1.859,-0.394 -2.867,-0.726 v -2.649 c 0.949,0.488 1.879,0.859 2.816,1.117 0.91,0.242 1.821,0.36 2.739,0.36 1.211,0 2.14,-0.207 2.793,-0.618 0.652,-0.41 0.968,-1.007 0.968,-1.753 0,-0.707 -0.242,-1.247 -0.707,-1.618 -0.465,-0.371 -1.492,-0.73 -3.093,-1.066 l -0.891,-0.223 c -1.586,-0.332 -2.746,-0.84 -3.449,-1.527 -0.707,-0.711 -1.067,-1.66 -1.067,-2.871 0,-1.469 0.528,-2.609 1.567,-3.41 1.043,-0.801 2.519,-1.192 4.437,-1.192 0.949,0 1.844,0.059 2.684,0.203 0.836,0.137 1.617,0.36 2.328,0.637 z"
       style="fill:#95bc0f;fill-opacity:1;fill-rule:nonzero;stroke:none"
       id="path454" /><path
       d="m 661.035,506.074 v 4.453 h 5.293 v 1.993 h -5.293 v 8.5 c 0,1.281 0.168,2.101 0.524,2.453 0.355,0.379 1.058,0.547 2.125,0.547 h 2.644 v 2.16 h -2.644 c -1.977,0 -3.356,-0.371 -4.098,-1.102 -0.77,-0.746 -1.141,-2.105 -1.141,-4.058 v -8.5 h -1.879 v -1.993 h 1.879 v -4.453 z"
       style="fill:#95bc0f;fill-opacity:1;fill-rule:nonzero;stroke:none"
       id="path456" /><path
       d="m 678.793,512.93 c -0.281,-0.168 -0.598,-0.297 -0.949,-0.375 -0.34,-0.071 -0.711,-0.11 -1.121,-0.11 -1.45,0 -2.571,0.469 -3.352,1.418 -0.766,0.949 -1.156,2.289 -1.156,4.059 v 8.258 h -2.59 v -15.653 h 2.59 v 2.418 c 0.539,-0.949 1.25,-1.633 2.105,-2.101 0.875,-0.469 1.922,-0.692 3.164,-0.692 0.172,0 0.379,0 0.578,0.039 0.227,0.02 0.45,0.055 0.711,0.094 z"
       style="fill:#95bc0f;fill-opacity:1;fill-rule:nonzero;stroke:none"
       id="path458" /><path
       d="m 681.512,510.527 h 2.57 v 15.653 h -2.57 z m 0,-6.093 h 2.57 v 3.261 h -2.57 z"
       style="fill:#95bc0f;fill-opacity:1;fill-rule:nonzero;stroke:none"
       id="path460" /><path
       d="m 700.688,518.371 c 0,-1.898 -0.391,-3.371 -1.176,-4.457 -0.766,-1.078 -1.824,-1.617 -3.184,-1.617 -1.363,0 -2.441,0.539 -3.226,1.617 -0.762,1.086 -1.153,2.559 -1.153,4.457 0,1.883 0.391,3.371 1.153,4.453 0.785,1.059 1.863,1.606 3.226,1.606 1.36,0 2.418,-0.547 3.184,-1.606 0.785,-1.082 1.176,-2.57 1.176,-4.453 z m -8.739,-5.476 c 0.539,-0.934 1.211,-1.622 2.028,-2.071 0.839,-0.449 1.824,-0.672 2.964,-0.672 1.899,0 3.446,0.75 4.637,2.254 1.192,1.508 1.789,3.504 1.789,5.965 0,2.461 -0.597,4.434 -1.789,5.941 -1.191,1.512 -2.738,2.278 -4.637,2.278 -1.14,0 -2.125,-0.227 -2.964,-0.672 -0.817,-0.469 -1.489,-1.156 -2.028,-2.086 v 2.348 h -2.59 v -21.746 h 2.59 z"
       style="fill:#95bc0f;fill-opacity:1;fill-rule:nonzero;stroke:none"
       id="path462" /><path
       d="m 707.355,519.992 v -9.465 h 2.571 v 9.371 c 0,1.493 0.301,2.59 0.879,3.336 0.574,0.746 1.433,1.118 2.59,1.118 1.398,0 2.476,-0.45 3.277,-1.34 0.82,-0.879 1.23,-2.09 1.23,-3.617 v -8.868 h 2.571 v 15.653 h -2.571 v -2.407 c -0.636,0.95 -1.359,1.661 -2.179,2.125 -0.821,0.446 -1.789,0.692 -2.871,0.692 -1.805,0 -3.168,-0.559 -4.098,-1.68 -0.93,-1.117 -1.399,-2.758 -1.399,-4.918 z"
       style="fill:#95bc0f;fill-opacity:1;fill-rule:nonzero;stroke:none"
       id="path464" /><path
       d="m 739.18,517.699 v 1.266 h -11.828 c 0.109,1.773 0.648,3.113 1.597,4.047 0.953,0.929 2.293,1.398 3.989,1.398 0.984,0 1.957,-0.133 2.871,-0.375 0.929,-0.242 1.863,-0.594 2.773,-1.082 v 2.426 c -0.93,0.391 -1.883,0.683 -2.852,0.891 -0.968,0.203 -1.937,0.32 -2.941,0.32 -2.496,0 -4.469,-0.731 -5.945,-2.18 -1.453,-1.457 -2.18,-3.43 -2.18,-5.91 0,-2.551 0.691,-4.586 2.07,-6.094 1.399,-1.504 3.258,-2.254 5.606,-2.254 2.109,0 3.762,0.672 4.992,2.032 1.23,1.359 1.848,3.187 1.848,5.515 z m -2.571,-0.746 c -0.019,-1.414 -0.41,-2.531 -1.195,-3.371 -0.762,-0.84 -1.769,-1.25 -3.035,-1.25 -1.438,0 -2.59,0.391 -3.465,1.211 -0.859,0.801 -1.344,1.961 -1.473,3.43 z m -2.48,-13.676 h 2.773 l -4.543,5.258 h -2.14 z"
       style="fill:#95bc0f;fill-opacity:1;fill-rule:nonzero;stroke:none"
       id="path466" /><path
       d="m 756.785,517.699 v 1.266 h -11.828 c 0.109,1.773 0.652,3.113 1.602,4.047 0.949,0.929 2.289,1.398 3.988,1.398 0.988,0 1.953,-0.133 2.867,-0.375 0.934,-0.242 1.863,-0.594 2.774,-1.082 v 2.426 c -0.93,0.391 -1.879,0.683 -2.848,0.891 -0.969,0.203 -1.934,0.32 -2.942,0.32 -2.5,0 -4.472,-0.731 -5.949,-2.18 -1.449,-1.457 -2.179,-3.43 -2.179,-5.91 0,-2.551 0.691,-4.586 2.07,-6.094 1.398,-1.504 3.262,-2.254 5.609,-2.254 2.106,0 3.766,0.672 4.996,2.032 1.231,1.359 1.84,3.187 1.84,5.515 z m -2.57,-0.746 c -0.02,-1.414 -0.41,-2.531 -1.192,-3.371 -0.765,-0.84 -1.773,-1.25 -3.035,-1.25 -1.437,0 -2.59,0.391 -3.468,1.211 -0.86,0.801 -1.34,1.961 -1.473,3.43 z"
       style="fill:#95bc0f;fill-opacity:1;fill-rule:nonzero;stroke:none"
       id="path468" /><path
       d="m 770.984,510.992 v 2.422 c -0.726,-0.371 -1.492,-0.652 -2.273,-0.84 -0.785,-0.183 -1.586,-0.277 -2.418,-0.277 -1.289,0 -2.238,0.207 -2.891,0.598 -0.636,0.39 -0.949,0.968 -0.949,1.75 0,0.597 0.242,1.058 0.684,1.417 0.468,0.333 1.386,0.649 2.761,0.969 l 0.875,0.184 c 1.829,0.39 3.129,0.949 3.895,1.66 0.766,0.707 1.156,1.715 1.156,2.98 0,1.454 -0.578,2.606 -1.734,3.446 -1.156,0.859 -2.719,1.289 -4.735,1.289 -0.832,0 -1.71,-0.098 -2.628,-0.262 -0.911,-0.148 -1.86,-0.394 -2.864,-0.726 v -2.649 c 0.949,0.488 1.879,0.859 2.813,1.117 0.91,0.242 1.828,0.36 2.738,0.36 1.211,0 2.141,-0.207 2.793,-0.618 0.656,-0.41 0.969,-1.007 0.969,-1.753 0,-0.707 -0.242,-1.247 -0.703,-1.618 -0.469,-0.371 -1.496,-0.73 -3.098,-1.066 l -0.891,-0.223 c -1.586,-0.332 -2.742,-0.84 -3.449,-1.527 -0.707,-0.711 -1.062,-1.66 -1.062,-2.871 0,-1.469 0.523,-2.609 1.562,-3.41 1.047,-0.801 2.52,-1.192 4.438,-1.192 0.949,0 1.843,0.059 2.683,0.203 0.836,0.137 1.621,0.36 2.328,0.637 z"
       style="fill:#95bc0f;fill-opacity:1;fill-rule:nonzero;stroke:none"
       id="path470" /><path
       d="m 413.871,13.43 c -4.543,-0.067 -9.082,0.093 -13.625,0.484 l -0.109,0.02 c -5.164,0.496 -10.313,1.296 -15.391,2.382 8.801,9.606 14.66,22.036 15.836,35.926 0.891,10.242 -0.875,20.11 -4.668,28.996 l 47.043,36.785 c 8.981,-6.98 19.949,-11.578 32.043,-12.632 h 0.055 c 2.222,-0.176 4.437,-0.231 6.625,-0.176 l 3.867,-21.676 C 475.98,78.035 469.141,68.113 468.121,56.375 467.27,46.402 470.797,37.051 477.047,30.121 457.648,19.523 435.977,13.805 413.871,13.43 Z m 113.762,64.25 c -5.324,5.429 -12.449,9.172 -20.465,10.183 l -3.902,21.93 c 20.5,8.445 35.804,27.75 37.812,51.242 2.852,33.434 -22.191,63.18 -55.625,66.047 -21.976,1.871 -42.301,-8.332 -54.5,-25.027 l -59.633,21.144 c 0.371,18.918 -8.015,36.301 -21.535,48.035 22.711,11.688 48.25,16.746 73.703,14.625 C 498.582,279.43 554.227,213.348 547.812,138.273 545.98,116.754 539.051,95.988 527.633,77.68 Z M 288.871,91.09 c -10.547,21.91 -15.016,46.258 -12.988,70.484 0.289,3.364 0.711,6.711 1.269,10.043 7.942,-4.902 17.063,-8.105 26.965,-8.957 l 0.031,-0.019 c 23.051,-1.961 44.336,9.136 56.555,27.07 l 58.617,-20.766 c -0.355,-7.695 0.731,-15.16 3.082,-22.105 l -49.121,-38.418 c -8.215,5.433 -17.867,8.957 -28.324,9.867 -22.926,1.957 -44.117,-9.207 -56.086,-27.199 z"
       style="fill:#95bc0f;fill-opacity:1;fill-rule:nonzero;stroke:none"
       id="path472" /><path
       d="m 475.391,156.066 -168.032,59.582 7.301,20.625 168.035,-59.578 z"
       style="fill:#ffffff;fill-opacity:1;fill-rule:evenodd;stroke:none"
       id="path474" /><path
       d="M 341.895,47.523 328.41,64.766 472.113,177.16 485.598,159.914 Z"
       style="fill:#ffffff;fill-opacity:1;fill-rule:evenodd;stroke:none"
       id="path476" /><path
       d="M 497.582,47.543 479.293,150.352 490.07,152.27 508.344,49.469 Z"
       style="fill:#ffffff;fill-opacity:1;fill-rule:evenodd;stroke:none"
       id="path478" /><g
       id="g480"
       transform="scale(1,-1)"><path
         d="m 476.621,-123.848 c 23.402,2.012 44.012,-15.351 46.004,-38.757 2.016,-23.422 -15.352,-44.008 -38.758,-46.024 -23.398,-1.992 -44.012,15.352 -46.019,38.758 -2.016,23.402 15.332,44.012 38.738,46.023"
         style="fill:#000000;fill-opacity:1;fill-rule:nonzero;stroke:#ffffff;stroke-width:24.1252;stroke-linecap:butt;stroke-linejoin:miter;stroke-miterlimit:1;stroke-dasharray:none;stroke-opacity:1"
         id="path482" /></g><g
       id="g484"
       transform="scale(1,-1)"><path
         d="m 500.758,-29.23 c 13.336,1.14 25.078,-8.747 26.219,-22.086 1.14,-13.344 -8.766,-25.082 -22.086,-26.219 -13.344,-1.141 -25.098,8.742 -26.239,22.066 -1.14,13.344 8.746,25.098 22.086,26.239"
         style="fill:#000001;fill-opacity:1;fill-rule:nonzero;stroke:#ffffff;stroke-width:13.7477;stroke-linecap:butt;stroke-linejoin:miter;stroke-miterlimit:1;stroke-dasharray:none;stroke-opacity:1"
         id="path486" /></g><g
       id="g488"
       transform="scale(1,-1)"><path
         d="m 336.141,-15.055 c 23.406,2.016 44.011,-15.351 46.007,-38.757 1.993,-23.418 -15.351,-44.012 -38.757,-46.024 -23.407,-1.996 -44.012,15.356 -46.028,38.762 -2.008,23.398 15.336,44.008 38.742,46.019"
         style="fill:#000000;fill-opacity:1;fill-rule:nonzero;stroke:#ffffff;stroke-width:24.1252;stroke-linecap:butt;stroke-linejoin:miter;stroke-miterlimit:1;stroke-dasharray:none;stroke-opacity:1"
         id="path490" /></g><g
       id="g492"
       transform="scale(1,-1)"><path
         d="m 305.809,-182 c 23.418,1.996 44.011,-15.371 46.007,-38.777 2.012,-23.407 -15.339,-44.012 -38.757,-46.028 -23.407,-1.992 -44.016,15.36 -46.028,38.758 -2.015,23.406 15.336,44.016 38.742,46.027"
         style="fill:#000000;fill-opacity:1;fill-rule:nonzero;stroke:#ffffff;stroke-width:24.1252;stroke-linecap:butt;stroke-linejoin:miter;stroke-miterlimit:1;stroke-dasharray:none;stroke-opacity:1"
         id="path494" /></g></g></svg>
