<?xml version="1.0" encoding="UTF-8" standalone="no"?>
<svg
   viewBox="0 0 640.63428 424.52612"
   width="640.63428"
   height="424.52612"
   font-family="'Segoe UI', Arial, sans-serif"
   version="1.1"
   id="svg78"
   sodipodi:docname="eu_ai_act_risk_pyramid.svg"
   inkscape:version="1.2.2 (b0a8486541, 2022-12-01)"
   xmlns:inkscape="http://www.inkscape.org/namespaces/inkscape"
   xmlns:sodipodi="http://sodipodi.sourceforge.net/DTD/sodipodi-0.dtd"
   xmlns="http://www.w3.org/2000/svg"
   xmlns:svg="http://www.w3.org/2000/svg">
  <defs
     id="defs82" />
  <sodipodi:namedview
     id="namedview80"
     pagecolor="#ffffff"
     bordercolor="#666666"
     borderopacity="1.0"
     inkscape:showpageshadow="2"
     inkscape:pageopacity="0.0"
     inkscape:pagecheckerboard="0"
     inkscape:deskcolor="#d1d1d1"
     showgrid="false"
     inkscape:zoom="1.8803571"
     inkscape:cx="271.75689"
     inkscape:cy="108.75594"
     inkscape:window-width="3840"
     inkscape:window-height="2123"
     inkscape:window-x="0"
     inkscape:window-y="0"
     inkscape:window-maximized="1"
     inkscape:current-layer="layer4" />
  <!-- Background -->
  <!-- Title -->
  <!-- ── LAYER 1: Minimal / No Risk (base) ── -->
  <!-- Trapezoid: bottom-left(50,460) bottom-right(650,460) top-right(530,370) top-left(170,370) -->
  <!-- ── LAYER 2: Limited Risk ── -->
  <!-- Trapezoid: bottom(170,370)→(530,370) top(255,280)→(445,280) -->
  <!-- ── LAYER 3: High Risk ── -->
  <!-- Trapezoid: bottom(255,280)→(445,280) top(315,190)→(385,190) -->
  <!-- ── LAYER 4: Unacceptable Risk (apex) ── -->
  <!-- Triangle: bottom(315,190)→(385,190) apex(350,105) -->
  <!-- ── Side labels (right side annotations) ── -->
  <!-- Unacceptable -->
  <!-- High Risk -->
  <!-- Limited Risk -->
  <!-- Minimal Risk -->
  <!-- ── Bottom caption ── -->
  <g
     inkscape:groupmode="layer"
     id="layer3"
     inkscape:label="general"
     style="display:inline"
     sodipodi:insensitive="true"
     transform="translate(-50,-57.683594)">
    <text
       x="350"
       y="72"
       text-anchor="middle"
       font-size="20px"
       font-weight="bold"
       fill="#1a1a2e"
       id="text4">EU AI Act – Risk Pyramid</text>
    <text
       x="350"
       y="94"
       text-anchor="middle"
       font-size="13px"
       fill="#555555"
       id="text6">Classification of AI Systems by Risk Level</text>
    <text
       x="350"
       y="479.89478"
       text-anchor="middle"
       font-size="11px"
       fill="#888888"
       id="text74">Source: Regulation (EU) 2024/1689 — Artificial Intelligence Act</text>
  </g>
  <g
     inkscape:groupmode="layer"
     id="layer1"
     inkscape:label="unacceptable"
     style="display:inline"
     transform="translate(-50,-57.683594)">
    <line
       x1="393.18701"
       y1="146.79086"
       x2="460.01117"
       y2="129.94511"
       stroke="#c0392b"
       stroke-width="1.36973"
       stroke-dasharray="4, 3"
       id="line38" />
    <text
       x="465"
       y="126"
       font-size="11.5px"
       fill="#c0392b"
       font-weight="bold"
       id="text40">PROHIBITED</text>
    <text
       x="465"
       y="141"
       font-size="10.5px"
       fill="#555555"
       id="text42">Social scoring, subliminal</text>
    <text
       x="465"
       y="154"
       font-size="10.5px"
       fill="#555555"
       id="text44">manipulation, biometric</text>
    <text
       x="465"
       y="167"
       font-size="10.5px"
       fill="#555555"
       id="text46">categorisation by race/belief</text>
    <text
       x="350"
       y="152"
       text-anchor="middle"
       font-size="13px"
       font-weight="bold"
       fill="#ffffff"
       id="text34-5"><tspan
         sodipodi:role="line"
         id="tspan651-6"
         x="350"
         y="152"
         style="fill:#000000">Unacceptable</tspan><tspan
         sodipodi:role="line"
         id="tspan653-2"
         x="350"
         y="168.25"
         style="fill:#000000">Risk</tspan></text>
    <polygon
       points="315,190 385,190 350,105 "
       fill="#c0392b"
       opacity="0.97"
       id="polygon32" />
    <g
       id="g977">
      <path
         id="path897"
         style="font-weight:bold;font-size:13px;text-anchor:middle;fill:#ffffff"
         d="M 331.45117,150.04688 330.64648,152 h 1.20899 c -0.15655,-0.32161 -0.26495,-0.62304 -0.32422,-0.90234 -0.0463,-0.23873 -0.0728,-0.59306 -0.0801,-1.05078 z" />
      <path
         d="m 339.10425,147.25195 -1.7583,0.31739 q -0.0889,-0.52686 -0.40625,-0.79346 -0.31104,-0.2666 -0.8125,-0.2666 -0.66651,0 -1.06641,0.46338 -0.39355,0.45703 -0.39355,1.53613 0,1.19971 0.3999,1.69482 0.40625,0.49512 1.08545,0.49512 0.50781,0 0.83154,-0.28564 0.32373,-0.292 0.45703,-0.99659 l 1.75196,0.29834 q -0.27295,1.20606 -1.04737,1.82178 -0.77441,0.61572 -2.07568,0.61572 -1.47901,0 -2.36133,-0.9331 -0.87598,-0.93311 -0.87598,-2.5835 0,-1.66943 0.88233,-2.59619 0.88232,-0.9331 2.38672,-0.9331 1.23144,0 1.95507,0.5332 0.72999,0.52685 1.04737,1.6123 z"
         id="path899"
         style="font-weight:bold;font-size:13px;text-anchor:middle;fill:#ffffff" />
      <path
         d="m 346.33423,147.25195 -1.7583,0.31739 q -0.0889,-0.52686 -0.40625,-0.79346 -0.31104,-0.2666 -0.8125,-0.2666 -0.66651,0 -1.06641,0.46338 -0.39355,0.45703 -0.39355,1.53613 0,1.19971 0.3999,1.69482 0.40625,0.49512 1.08545,0.49512 0.50781,0 0.83154,-0.28564 0.32373,-0.292 0.45703,-0.99659 l 1.75196,0.29834 q -0.27295,1.20606 -1.04737,1.82178 -0.77441,0.61572 -2.07568,0.61572 -1.47901,0 -2.36133,-0.9331 -0.87598,-0.93311 -0.87598,-2.5835 0,-1.66943 0.88233,-2.59619 0.88232,-0.9331 2.38672,-0.9331 1.23144,0 1.95508,0.5332 0.72998,0.52685 1.04736,1.6123 z"
         id="path901"
         style="font-weight:bold;font-size:13px;text-anchor:middle;fill:#ffffff" />
      <path
         d="m 351.59009,149.85449 1.77734,0.29834 q -0.34277,0.97754 -1.08545,1.4917 -0.73633,0.50781 -1.84717,0.50781 -1.7583,0 -2.60253,-1.14892 -0.66651,-0.92041 -0.66651,-2.32324 0,-1.67579 0.87598,-2.62159 0.87597,-0.95214 2.21533,-0.95214 1.50439,0 2.37402,0.99658 0.86963,0.99023 0.83155,3.04052 h -4.46875 q 0.019,0.79346 0.43164,1.2378 0.41259,0.43799 1.02832,0.43799 0.41894,0 0.70459,-0.22852 0.28564,-0.22852 0.43164,-0.73633 z m 0.10156,-1.80273 q -0.019,-0.77442 -0.3999,-1.17432 -0.38086,-0.40625 -0.92676,-0.40625 -0.58398,0 -0.96484,0.42529 -0.38086,0.4253 -0.37452,1.15528 z"
         id="path903"
         style="font-weight:bold;font-size:13px;text-anchor:middle;fill:#ffffff" />
      <path
         d="m 354.86548,145.25879 h 1.66308 v 0.99023 q 0.32373,-0.50781 0.87598,-0.82519 0.55225,-0.31738 1.2251,-0.31738 1.17432,0 1.99316,0.92041 0.81885,0.92041 0.81885,2.56445 0,1.68848 -0.82519,2.62793 -0.8252,0.9331 -1.99952,0.9331 -0.55859,0 -1.01562,-0.22216 -0.45069,-0.22217 -0.95215,-0.76172 v 3.39599 h -1.78369 z m 1.76465,3.25635 q 0,1.13623 0.45068,1.68213 0.45068,0.53955 1.09815,0.53955 0.62207,0 1.03466,-0.49512 0.4126,-0.50147 0.4126,-1.6377 0,-1.06005 -0.42529,-1.57421 -0.4253,-0.51417 -1.05371,-0.51417 -0.65381,0 -1.08545,0.50782 -0.43164,0.50146 -0.43164,1.4917 z"
         id="path905"
         style="font-weight:bold;font-size:13px;text-anchor:middle;fill:#ffffff" />
      <path
         d="m 365.94849,145.25879 v 1.42187 h -1.21875 v 2.7168 q 0,0.8252 0.0317,0.96484 0.0381,0.13331 0.1587,0.22217 0.12695,0.0889 0.30468,0.0889 0.24756,0 0.71729,-0.17139 l 0.15234,1.38379 q -0.62207,0.2666 -1.40918,0.2666 -0.48242,0 -0.86963,-0.15869 -0.3872,-0.16504 -0.57129,-0.41894 -0.17773,-0.26026 -0.24755,-0.69825 -0.0571,-0.31103 -0.0571,-1.25683 v -2.93897 h -0.81885 v -1.42187 h 0.81885 v -1.33936 l 1.79004,-1.04101 v 2.38037 z"
         id="path907"
         style="font-weight:bold;font-size:13px;text-anchor:middle;fill:#ffffff" />
      <path
         id="path909"
         style="font-weight:bold;font-size:13px;text-anchor:middle;fill:#ffffff"
         d="m 367.0918,146.50586 c -0.0738,0.15916 -0.13918,0.33053 -0.19141,0.51758 l 0.43555,0.0781 z m 0.77929,1.89648 c -0.0421,0.0181 -0.0809,0.038 -0.11914,0.0566 -0.32584,0.15658 -0.57975,0.38315 -0.76172,0.6836 -0.18196,0.29622 -0.27343,0.63672 -0.27343,1.01758 0,0.57552 0.19791,1.0511 0.5957,1.42773 0.40202,0.37663 0.95052,0.56445 1.64453,0.56445 0.15174,0 0.3005,-0.0112 0.44531,-0.0332 l -0.61328,-1.48633 c -0.003,-0.003 -0.006,-0.007 -0.01,-0.01 -0.1862,-0.18197 -0.2793,-0.39877 -0.2793,-0.64844 0,-0.0135 0.001,-0.0258 0.002,-0.0391 z" />
      <path
         d="m 337.22217,168.25 v -9.30566 h 3.95459 q 1.4917,0 2.16455,0.2539 0.6792,0.24756 1.08545,0.88867 0.40625,0.64112 0.40625,1.46631 0,1.04737 -0.61572,1.73291 -0.61573,0.6792 -1.84083,0.85694 0.60938,0.35547 1.00293,0.78076 0.39991,0.42529 1.07276,1.51074 l 1.13623,1.81543 h -2.24707 l -1.3584,-2.0249 q -0.72363,-1.08545 -0.99023,-1.36475 -0.26661,-0.28564 -0.56495,-0.38721 -0.29834,-0.10791 -0.9458,-0.10791 h -0.38086 V 168.25 Z m 1.8789,-5.37012 h 1.39014 q 1.35205,0 1.68848,-0.11426 0.33642,-0.11425 0.52685,-0.39355 0.19043,-0.2793 0.19043,-0.69824 0,-0.46973 -0.2539,-0.75537 -0.24756,-0.292 -0.70459,-0.36817 -0.22852,-0.0317 -1.3711,-0.0317 h -1.46631 z"
         id="path917"
         style="font-weight:bold;font-size:13px;text-anchor:middle;fill:#ffffff" />
      <path
         d="m 346.59131,160.59473 v -1.65039 h 1.78369 v 1.65039 z m 0,7.65527 v -6.74121 H 348.375 V 168.25 Z"
         id="path919"
         style="font-weight:bold;font-size:13px;text-anchor:middle;fill:#ffffff" />
      <path
         d="m 349.57471,166.32666 1.79004,-0.27295 q 0.11425,0.52051 0.46337,0.79346 0.34913,0.2666 0.97754,0.2666 0.6919,0 1.04102,-0.25391 0.23486,-0.17773 0.23486,-0.47607 0,-0.20313 -0.12695,-0.33643 -0.1333,-0.12695 -0.59668,-0.23486 -2.1582,-0.47607 -2.73584,-0.86963 -0.7998,-0.5459 -0.7998,-1.51709 0,-0.87598 0.69189,-1.47266 0.69189,-0.59667 2.14551,-0.59667 1.38379,0 2.05664,0.45068 0.67285,0.45068 0.92676,1.33301 l -1.68213,0.31103 q -0.10791,-0.39355 -0.4126,-0.60303 -0.29834,-0.20947 -0.85693,-0.20947 -0.70459,0 -1.00928,0.19678 -0.20313,0.13965 -0.20313,0.36182 0,0.19043 0.17774,0.32373 0.24121,0.17773 1.66308,0.50146 1.42823,0.32373 1.99317,0.79346 0.55859,0.47607 0.55859,1.32666 0,0.92676 -0.77441,1.59326 -0.77442,0.6665 -2.29151,0.6665 -1.37744,0 -2.18359,-0.55859 -0.7998,-0.55859 -1.04736,-1.51709 z"
         id="path921"
         style="font-weight:bold;font-size:13px;text-anchor:middle;fill:#ffffff" />
      <path
         d="m 357.36963,168.25 v -9.30566 h 1.78369 v 4.93847 l 2.08838,-2.37402 h 2.19629 l -2.3042,2.46289 2.46924,4.27832 h -1.92334 l -1.69483,-3.02783 -0.83154,0.86963 v 2.1582 z"
         id="path923"
         style="font-weight:bold;font-size:13px;text-anchor:middle;fill:#ffffff" />
    </g>
    <text
       x="49.584473"
       y="150.47607"
       font-size="11.5px"
       fill="#c0392b"
       font-weight="bold"
       id="text40-6"
       style="display:inline">Since February 2025</text>
  </g>
  <g
     inkscape:groupmode="layer"
     id="layer2"
     inkscape:label="high"
     style="display:inline"
     transform="translate(-50,-57.683594)">
    <line
       x1="445"
       y1="235"
       x2="460"
       y2="220"
       stroke="#e8622a"
       stroke-width="1.5"
       stroke-dasharray="4, 3"
       id="line48" />
    <text
       x="465"
       y="216"
       font-size="11.5px"
       fill="#e8622a"
       font-weight="bold"
       id="text50">STRICT REQUIREMENTS</text>
    <text
       x="465"
       y="231"
       font-size="10.5px"
       fill="#555555"
       id="text52">Risk assessments, logging,</text>
    <text
       x="465"
       y="244"
       font-size="10.5px"
       fill="#555555"
       id="text54">human oversight, conformity</text>
    <text
       x="465"
       y="257"
       font-size="10.5px"
       fill="#555555"
       id="text56">assessment before deployment</text>
    <text
       x="350"
       y="246"
       text-anchor="middle"
       font-size="11.5px"
       fill="#fde3d5"
       id="text28-0"
       style="fill:#000000">Critical infrastructure, education, employment,</text>
    <text
       x="350"
       y="263"
       text-anchor="middle"
       font-size="11.5px"
       fill="#fde3d5"
       id="text30-0"
       style="fill:#000000">law enforcement, migration, justice</text>
    <polygon
       points="445,280 385,190 315,190 255,280 "
       fill="#e8622a"
       opacity="0.95"
       id="polygon24" />
    <g
       id="g2559"
       style="display:inline">
      <path
         id="polygon24-8"
         d="m 429.54492,256.90234 c -0.51286,0 -0.98779,0.12191 -1.42578,0.36524 -0.43425,0.23958 -0.75733,0.60107 -0.9707,1.08398 -0.21338,0.48291 -0.32032,1.04558 -0.32032,1.68946 0,0.99576 0.2461,1.76155 0.74024,2.29687 0.49788,0.53158 1.15462,0.79688 1.9707,0.79688 0.65138,0 1.20101,-0.19255 1.64649,-0.57813 0.44922,-0.38933 0.72737,-0.92627 0.83593,-1.61133 l -0.99414,-0.1289 c -0.0711,0.50537 -0.24007,0.87972 -0.50586,1.12304 -0.26578,0.24333 -0.59537,0.36328 -0.99218,0.36328 -0.49414,0 -0.89616,-0.17984 -1.20313,-0.54296 -0.30696,-0.36312 -0.45898,-0.94499 -0.45898,-1.7461 0,-0.78988 0.15837,-1.36735 0.47656,-1.73047 0.31819,-0.36686 0.73111,-0.55078 1.24023,-0.55078 0.26155,0 0.49273,0.0637 0.69336,0.18555 l -0.67382,-1.01367 c -0.0197,-3.1e-4 -0.0387,-0.002 -0.0586,-0.002 z m 1.38672,1.9961 c 0.004,0.014 0.008,0.0267 0.0117,0.041 l 0.0156,-0.002 z"
         style="fill:#fde3d5;fill-opacity:1" />
      <path
         id="path2295"
         style="font-size:11.5px;text-anchor:middle;fill:#fde3d5"
         d="M 269.55469,258.16797 268.25,260.125 c 0.12888,-0.0378 0.24466,-0.0759 0.3457,-0.11719 v 0.36914 c 0,0.44548 -0.0536,0.78337 -0.16211,1.01172 -0.14225,0.29573 -0.36474,0.52897 -0.66797,0.70117 -0.29127,0.16183 -0.62341,0.24558 -0.99414,0.25196 l -0.52343,0.78515 c 0.0765,0.005 0.15511,0.008 0.23633,0.008 0.3968,0 0.76692,-0.0662 1.11132,-0.19727 0.34814,-0.13102 0.70963,-0.35563 1.08399,-0.67383 0.0299,0.28077 0.0983,0.5267 0.20312,0.73633 h 1.05469 c -0.12727,-0.22835 -0.21288,-0.46582 -0.25781,-0.71289 -0.0412,-0.25082 -0.0605,-0.84554 -0.0605,-1.78516 v -1.34765 c 0,-0.44922 -0.0171,-0.7614 -0.0508,-0.9336 -0.004,-0.018 -0.009,-0.0351 -0.0137,-0.0527 z" />
      <path
         d="m 272.28516,263 -1.82495,-5.96338 h 1.04443 l 0.94897,3.44214 0.35376,1.28027 q 0.0225,-0.0955 0.30884,-1.22973 l 0.94898,-3.49268 h 1.03881 l 0.89283,3.45899 0.2976,1.13989 0.34253,-1.15113 1.02198,-3.44775 h 0.98266 L 276.77734,263 h -1.05005 l -0.94897,-3.57129 -0.23022,-1.01636 L 273.34082,263 Z"
         id="path2297"
         style="font-size:11.5px;text-anchor:middle;fill:#fde3d5" />
      <path
         d="m 286.76685,261.07959 1.04443,0.12915 q -0.24707,0.91528 -0.91528,1.42065 -0.66822,0.50538 -1.70704,0.50538 -1.30834,0 -2.07763,-0.80298 -0.76367,-0.8086 -0.76367,-2.26294 0,-1.50489 0.7749,-2.33594 0.7749,-0.83105 2.01025,-0.83105 1.19605,0 1.9541,0.8142 0.75806,0.81421 0.75806,2.29102 0,0.0898 -0.006,0.26953 h -4.44727 q 0.0562,0.98267 0.55591,1.50488 0.49975,0.52222 1.24658,0.52222 0.55591,0 0.94897,-0.29199 0.39307,-0.29199 0.6233,-0.93213 z m -3.31861,-1.63403 h 3.32984 q -0.0674,-0.75244 -0.38184,-1.12867 -0.48291,-0.58398 -1.2522,-0.58398 -0.69629,0 -1.17358,0.46606 -0.47168,0.46607 -0.52222,1.24659 z"
         id="path2299"
         style="font-size:11.5px;text-anchor:middle;fill:#fde3d5" />
      <path
         d="m 289.08032,263 v -5.96338 h 0.90967 v 0.8479 q 0.65698,-0.98266 1.89795,-0.98266 0.53906,0 0.98828,0.19653 0.45483,0.19092 0.67944,0.50537 0.22461,0.31445 0.31446,0.74683 0.0562,0.28076 0.0562,0.98266 V 263 h -1.01074 v -3.62744 q 0,-0.61768 -0.11792,-0.9209 -0.11792,-0.30884 -0.42115,-0.48853 -0.2976,-0.1853 -0.7019,-0.1853 -0.64575,0 -1.11743,0.40991 -0.46607,0.40992 -0.46607,1.55542 V 263 Z"
         id="path2301"
         style="font-size:11.5px;text-anchor:middle;fill:#fde3d5" />
      <path
         d="m 295.71753,263 v -5.17725 h -0.89282 v -0.78613 h 0.89282 v -0.63452 q 0,-0.60083 0.10669,-0.89282 0.14599,-0.39307 0.51099,-0.63452 0.3706,-0.24707 1.0332,-0.24707 0.42676,0 0.94336,0.10107 l -0.15161,0.88159 q -0.31446,-0.0562 -0.59522,-0.0562 -0.46045,0 -0.65137,0.19653 -0.19091,0.19654 -0.19091,0.7356 v 0.55029 h 1.16235 v 0.78613 h -1.16235 V 263 Z"
         id="path2303"
         style="font-size:11.5px;text-anchor:middle;fill:#fde3d5" />
      <path
         d="m 298.29492,260.01831 q 0,-1.65649 0.9209,-2.45386 0.76929,-0.66259 1.87549,-0.66259 1.22973,0 2.01025,0.80859 0.78052,0.80298 0.78052,2.22363 0,1.15113 -0.34814,1.81372 -0.34253,0.65699 -1.00513,1.02198 -0.65698,0.36499 -1.4375,0.36499 -1.2522,0 -2.0271,-0.80298 -0.76929,-0.80298 -0.76929,-2.31348 z m 1.03882,0 q 0,1.14551 0.49976,1.71826 0.49975,0.56714 1.25781,0.56714 0.75244,0 1.2522,-0.57275 0.49975,-0.57276 0.49975,-1.74634 0,-1.1062 -0.50537,-1.67334 -0.49976,-0.57275 -1.24658,-0.57275 -0.75806,0 -1.25781,0.56713 -0.49976,0.56714 -0.49976,1.71265 z"
         id="path2305"
         style="font-size:11.5px;text-anchor:middle;fill:#fde3d5" />
      <path
         d="m 305.05566,263 v -5.96338 h 0.90967 v 0.90405 q 0.34815,-0.63452 0.64014,-0.83667 0.29761,-0.20214 0.65137,-0.20214 0.51098,0 1.03881,0.32568 l -0.34814,0.93774 q -0.37061,-0.21899 -0.74121,-0.21899 -0.3313,0 -0.59522,0.20215 -0.26391,0.19653 -0.37622,0.55029 -0.16845,0.53906 -0.16845,1.1792 V 263 Z"
         id="path2307"
         style="font-size:11.5px;text-anchor:middle;fill:#fde3d5" />
      <path
         d="m 312.78784,260.81567 0.9939,0.12915 q -0.16284,1.02759 -0.83667,1.61158 -0.66821,0.57837 -1.64527,0.57837 -1.22412,0 -1.97094,-0.79737 -0.74121,-0.80298 -0.74121,-2.29663 0,-0.96582 0.32006,-1.69018 0.32007,-0.72437 0.97144,-1.08374 0.65698,-0.36499 1.42627,-0.36499 0.97144,0 1.58911,0.49414 0.61768,0.48852 0.79175,1.39257 l -0.98267,0.15162 q -0.14038,-0.60083 -0.49975,-0.90406 -0.35376,-0.30322 -0.85913,-0.30322 -0.76368,0 -1.24097,0.55029 -0.4773,0.54468 -0.4773,1.7295 0,1.20166 0.46045,1.74633 0.46045,0.54468 1.20166,0.54468 0.59522,0 0.9939,-0.36499 0.39868,-0.36499 0.50537,-1.12305 z"
         id="path2309"
         style="font-size:11.5px;text-anchor:middle;fill:#fde3d5" />
      <path
         d="m 318.72876,261.07959 1.04443,0.12915 q -0.24707,0.91528 -0.91528,1.42065 -0.66821,0.50538 -1.70703,0.50538 -1.30835,0 -2.07764,-0.80298 -0.76367,-0.8086 -0.76367,-2.26294 0,-1.50489 0.7749,-2.33594 0.7749,-0.83105 2.01026,-0.83105 1.19604,0 1.9541,0.8142 0.75805,0.81421 0.75805,2.29102 0,0.0898 -0.006,0.26953 H 315.354 q 0.0562,0.98267 0.55591,1.50488 0.49976,0.52222 1.24658,0.52222 0.55591,0 0.94898,-0.29199 0.39307,-0.29199 0.62329,-0.93213 z m -3.3186,-1.63403 h 3.32983 q -0.0674,-0.75244 -0.38184,-1.12867 -0.48291,-0.58398 -1.25219,-0.58398 -0.69629,0 -1.17359,0.46606 -0.47168,0.46607 -0.52221,1.24659 z"
         id="path2311"
         style="font-size:11.5px;text-anchor:middle;fill:#fde3d5" />
      <path
         d="m 321.04224,263 v -5.96338 h 0.90405 v 0.83667 q 0.28076,-0.43799 0.74683,-0.7019 0.46606,-0.26953 1.06127,-0.26953 0.6626,0 1.08374,0.27514 0.42676,0.27515 0.60083,0.76929 0.70752,-1.04443 1.8418,-1.04443 0.88721,0 1.3645,0.49414 0.4773,0.48852 0.4773,1.51049 V 263 h -1.00513 v -3.75659 q 0,-0.60645 -0.10107,-0.87036 -0.0955,-0.26953 -0.35376,-0.43238 -0.2583,-0.16284 -0.60645,-0.16284 -0.6289,0 -1.04443,0.42114 -0.41553,0.41553 -0.41553,1.33643 V 263 h -1.01074 v -3.87451 q 0,-0.67383 -0.24707,-1.01074 -0.24707,-0.33692 -0.80859,-0.33692 -0.42676,0 -0.79175,0.22461 -0.35938,0.22461 -0.52222,0.65698 -0.16284,0.43238 -0.16284,1.24659 V 263 Z"
         id="path2313"
         style="font-size:11.5px;text-anchor:middle;fill:#fde3d5" />
      <path
         d="m 334.7041,261.07959 1.04444,0.12915 q -0.24708,0.91528 -0.91529,1.42065 -0.66821,0.50538 -1.70703,0.50538 -1.30835,0 -2.07764,-0.80298 -0.76367,-0.8086 -0.76367,-2.26294 0,-1.50489 0.7749,-2.33594 0.77491,-0.83105 2.01026,-0.83105 1.19604,0 1.9541,0.8142 0.75806,0.81421 0.75806,2.29102 0,0.0898 -0.006,0.26953 h -4.44726 q 0.0562,0.98267 0.5559,1.50488 0.49976,0.52222 1.24659,0.52222 0.5559,0 0.94897,-0.29199 0.39307,-0.29199 0.62329,-0.93213 z m -3.3186,-1.63403 h 3.32983 q -0.0674,-0.75244 -0.38183,-1.12867 -0.48291,-0.58398 -1.2522,-0.58398 -0.69629,0 -1.17359,0.46606 -0.47167,0.46607 -0.52221,1.24659 z"
         id="path2315"
         style="font-size:11.5px;text-anchor:middle;fill:#fde3d5" />
      <path
         d="m 337.01758,263 v -5.96338 h 0.90967 v 0.8479 q 0.65698,-0.98266 1.89795,-0.98266 0.53906,0 0.98828,0.19653 0.45483,0.19092 0.67944,0.50537 0.22461,0.31445 0.31445,0.74683 0.0562,0.28076 0.0562,0.98266 V 263 h -1.01075 v -3.62744 q 0,-0.61768 -0.11792,-0.9209 -0.11792,-0.30884 -0.42114,-0.48853 -0.29761,-0.1853 -0.7019,-0.1853 -0.64576,0 -1.11744,0.40991 -0.46606,0.40992 -0.46606,1.55542 V 263 Z"
         id="path2317"
         style="font-size:11.5px;text-anchor:middle;fill:#fde3d5" />
      <path
         d="m 345.62012,262.09595 0.14599,0.89282 q -0.42675,0.0898 -0.76367,0.0898 -0.55029,0 -0.85351,-0.17407 -0.30323,-0.17407 -0.42676,-0.45483 -0.12354,-0.28638 -0.12354,-1.19605 v -3.43091 h -0.74121 v -0.78613 h 0.74121 v -1.47681 l 1.00513,-0.60644 v 2.08325 h 1.01636 v 0.78613 h -1.01636 v 3.48706 q 0,0.43238 0.0505,0.55591 0.0562,0.12354 0.17407,0.19654 0.12353,0.073 0.34814,0.073 0.16846,0 0.44361,-0.0393 z"
         id="path2319"
         style="font-size:11.5px;text-anchor:middle;fill:#fde3d5" />
      <path
         d="m 346.87231,263 v -1.15112 h 1.15113 V 263 q 0,0.63452 -0.22461,1.02197 -0.22461,0.39307 -0.71314,0.60645 l -0.28076,-0.43238 q 0.32007,-0.14038 0.47168,-0.41552 0.15161,-0.26953 0.16846,-0.78052 z"
         id="path2321"
         style="font-size:11.5px;text-anchor:middle;fill:#fde3d5" />
      <path
         d="m 352.99854,263 v -5.96338 h 0.90405 v 0.83667 q 0.28076,-0.43799 0.74682,-0.7019 0.46607,-0.26953 1.06128,-0.26953 0.6626,0 1.08374,0.27514 0.42676,0.27515 0.60083,0.76929 0.70752,-1.04443 1.8418,-1.04443 0.88721,0 1.3645,0.49414 0.4773,0.48852 0.4773,1.51049 V 263 h -1.00513 v -3.75659 q 0,-0.60645 -0.10107,-0.87036 -0.0955,-0.26953 -0.35376,-0.43238 -0.2583,-0.16284 -0.60645,-0.16284 -0.62891,0 -1.04443,0.42114 -0.41553,0.41553 -0.41553,1.33643 V 263 h -1.01074 v -3.87451 q 0,-0.67383 -0.24707,-1.01074 -0.24707,-0.33692 -0.8086,-0.33692 -0.42675,0 -0.79174,0.22461 -0.35938,0.22461 -0.52222,0.65698 -0.16284,0.43238 -0.16284,1.24659 V 263 Z"
         id="path2323"
         style="font-size:11.5px;text-anchor:middle;fill:#fde3d5" />
      <path
         d="m 362.58374,255.93042 v -1.16235 h 1.01074 v 1.16235 z m 0,7.06958 v -5.96338 h 1.01074 V 263 Z"
         id="path2325"
         style="font-size:11.5px;text-anchor:middle;fill:#fde3d5" />
      <path
         d="m 364.94775,263.49414 0.98267,0.146 q 0.0618,0.45483 0.34253,0.66259 0.37622,0.28077 1.02759,0.28077 0.7019,0 1.08374,-0.28077 0.38183,-0.28076 0.5166,-0.78613 0.0786,-0.30884 0.073,-1.29712 Q 368.31128,263 367.323,263 q -1.22974,0 -1.90357,-0.88721 -0.67382,-0.8872 -0.67382,-2.12817 0,-0.85352 0.30883,-1.57227 0.30884,-0.72436 0.89283,-1.11743 0.5896,-0.39306 1.38134,-0.39306 1.05567,0 1.74073,0.85351 v -0.71875 h 0.93212 v 5.15479 q 0,1.39257 -0.28637,1.97094 -0.28076,0.58399 -0.89844,0.9209 -0.61206,0.33692 -1.5105,0.33692 -1.06689,0 -1.72387,-0.48291 -0.65699,-0.4773 -0.63453,-1.44312 z m 0.83667,-3.58252 q 0,1.17359 0.46607,1.71265 0.46606,0.53906 1.16797,0.53906 0.69629,0 1.16797,-0.53345 0.47168,-0.53906 0.47168,-1.68457 0,-1.09497 -0.48853,-1.65088 -0.48291,-0.5559 -1.16797,-0.5559 -0.67383,0 -1.14551,0.55029 -0.47168,0.54468 -0.47168,1.6228 z"
         id="path2327"
         style="font-size:11.5px;text-anchor:middle;fill:#fde3d5" />
      <path
         d="m 371.51758,263 v -5.96338 h 0.90967 v 0.90405 q 0.34814,-0.63452 0.64013,-0.83667 0.29761,-0.20214 0.65137,-0.20214 0.51099,0 1.03882,0.32568 l -0.34815,0.93774 q -0.3706,-0.21899 -0.74121,-0.21899 -0.3313,0 -0.59521,0.20215 -0.26392,0.19653 -0.37622,0.55029 -0.16846,0.53906 -0.16846,1.1792 V 263 Z"
         id="path2329"
         style="font-size:11.5px;text-anchor:middle;fill:#fde3d5" />
      <path
         d="m 379.24976,262.2644 q -0.56153,0.4773 -1.08374,0.67383 -0.51661,0.19654 -1.11182,0.19654 -0.98267,0 -1.5105,-0.4773 -0.52783,-0.48291 -0.52783,-1.22974 0,-0.43798 0.19653,-0.79736 0.20215,-0.36499 0.52222,-0.58398 0.32568,-0.219 0.72998,-0.3313 0.29761,-0.0786 0.89844,-0.15161 1.22412,-0.146 1.80249,-0.34815 0.006,-0.20776 0.006,-0.26391 0,-0.61768 -0.28637,-0.87037 -0.38746,-0.34252 -1.15113,-0.34252 -0.71313,0 -1.05566,0.25268 -0.33692,0.24707 -0.49976,0.88159 l -0.98828,-0.13476 q 0.13477,-0.63452 0.4436,-1.02198 0.30884,-0.39306 0.89283,-0.60083 0.58398,-0.21337 1.35327,-0.21337 0.76367,0 1.24097,0.17968 0.47729,0.17969 0.7019,0.45484 0.22461,0.26953 0.31445,0.68506 0.0505,0.2583 0.0505,0.93212 v 1.34766 q 0,1.40942 0.0618,1.78565 0.0674,0.3706 0.2583,0.71313 h -1.05567 q -0.15722,-0.31445 -0.20214,-0.7356 z m -0.0842,-2.25732 q -0.5503,0.22461 -1.65088,0.38184 -0.62329,0.0898 -0.88159,0.20214 -0.2583,0.11231 -0.39869,0.3313 -0.14038,0.21338 -0.14038,0.4773 0,0.4043 0.30323,0.67383 0.30883,0.26953 0.89843,0.26953 0.58399,0 1.03882,-0.25269 0.45484,-0.2583 0.66822,-0.7019 0.16284,-0.34253 0.16284,-1.01074 z"
         id="path2331"
         style="font-size:11.5px;text-anchor:middle;fill:#fde3d5" />
      <path
         d="m 383.96094,262.09595 0.14599,0.89282 q -0.42675,0.0898 -0.76367,0.0898 -0.55029,0 -0.85351,-0.17407 -0.30323,-0.17407 -0.42676,-0.45483 -0.12354,-0.28638 -0.12354,-1.19605 v -3.43091 h -0.74121 v -0.78613 h 0.74121 v -1.47681 l 1.00513,-0.60644 v 2.08325 h 1.01636 v 0.78613 h -1.01636 v 3.48706 q 0,0.43238 0.0505,0.55591 0.0562,0.12354 0.17407,0.19654 0.12353,0.073 0.34814,0.073 0.16846,0 0.44361,-0.0393 z"
         id="path2333"
         style="font-size:11.5px;text-anchor:middle;fill:#fde3d5" />
      <path
         d="m 384.95483,255.93042 v -1.16235 h 1.01075 v 1.16235 z m 0,7.06958 v -5.96338 h 1.01075 V 263 Z"
         id="path2335"
         style="font-size:11.5px;text-anchor:middle;fill:#fde3d5" />
      <path
         d="m 387.12793,260.01831 q 0,-1.65649 0.9209,-2.45386 0.76929,-0.66259 1.87549,-0.66259 1.22973,0 2.01025,0.80859 0.78052,0.80298 0.78052,2.22363 0,1.15113 -0.34815,1.81372 -0.34253,0.65699 -1.00512,1.02198 -0.65699,0.36499 -1.4375,0.36499 -1.2522,0 -2.0271,-0.80298 -0.76929,-0.80298 -0.76929,-2.31348 z m 1.03882,0 q 0,1.14551 0.49975,1.71826 0.49976,0.56714 1.25782,0.56714 0.75244,0 1.25219,-0.57275 0.49976,-0.57276 0.49976,-1.74634 0,-1.1062 -0.50537,-1.67334 -0.49976,-0.57275 -1.24658,-0.57275 -0.75806,0 -1.25782,0.56713 -0.49975,0.56714 -0.49975,1.71265 z"
         id="path2337"
         style="font-size:11.5px;text-anchor:middle;fill:#fde3d5" />
      <path
         d="m 393.8999,263 v -5.96338 h 0.90967 v 0.8479 q 0.65698,-0.98266 1.89795,-0.98266 0.53906,0 0.98828,0.19653 0.45483,0.19092 0.67944,0.50537 0.22461,0.31445 0.31446,0.74683 0.0562,0.28076 0.0562,0.98266 V 263 h -1.01074 v -3.62744 q 0,-0.61768 -0.11792,-0.9209 -0.11792,-0.30884 -0.42115,-0.48853 -0.2976,-0.1853 -0.7019,-0.1853 -0.64575,0 -1.11743,0.40991 -0.46607,0.40992 -0.46607,1.55542 V 263 Z"
         id="path2339"
         style="font-size:11.5px;text-anchor:middle;fill:#fde3d5" />
      <path
         d="m 400.55957,263 v -1.15112 h 1.15112 V 263 q 0,0.63452 -0.22461,1.02197 -0.22461,0.39307 -0.71313,0.60645 l -0.28076,-0.43238 q 0.32007,-0.14038 0.47168,-0.41552 0.15161,-0.26953 0.16845,-0.78052 z"
         id="path2341"
         style="font-size:11.5px;text-anchor:middle;fill:#fde3d5" />
      <path
         d="m 406.68018,255.94165 v -1.17358 h 1.01074 v 1.17358 z m -1.28028,9.37183 0.19092,-0.85913 q 0.30322,0.0786 0.4773,0.0786 0.30883,0 0.46044,-0.20776 0.15162,-0.20215 0.15162,-1.02198 v -6.2666 h 1.01074 v 6.28906 q 0,1.10059 -0.28638,1.53296 -0.36499,0.56153 -1.21289,0.56153 -0.40991,0 -0.79175,-0.10669 z"
         id="path2343"
         style="font-size:11.5px;text-anchor:middle;fill:#fde3d5" />
      <path
         d="m 413.14893,263 v -0.87598 q -0.69629,1.01075 -1.89234,1.01075 -0.52783,0 -0.98828,-0.20215 -0.45483,-0.20215 -0.67944,-0.50537 -0.219,-0.30884 -0.30884,-0.75245 -0.0618,-0.2976 -0.0618,-0.94335 v -3.69483 h 1.01074 v 3.30737 q 0,0.79175 0.0618,1.0669 0.0955,0.39868 0.4043,0.6289 0.30884,0.22461 0.76367,0.22461 0.45483,0 0.85352,-0.23022 0.39868,-0.23584 0.56152,-0.63452 0.16846,-0.4043 0.16846,-1.16797 v -3.19507 h 1.01074 V 263 Z"
         id="path2345"
         style="font-size:11.5px;text-anchor:middle;fill:#fde3d5" />
      <path
         d="m 415.23218,261.21997 0.99951,-0.15723 q 0.0842,0.60083 0.46606,0.9209 0.38746,0.32007 1.07813,0.32007 0.69629,0 1.0332,-0.28076 0.33692,-0.28638 0.33692,-0.66821 0,-0.34253 -0.29761,-0.53907 -0.20777,-0.13476 -1.0332,-0.34253 -1.11182,-0.28076 -1.54419,-0.48291 -0.42676,-0.20776 -0.65137,-0.56713 -0.219,-0.36499 -0.219,-0.80298 0,-0.39868 0.17969,-0.7356 0.1853,-0.34253 0.49976,-0.56714 0.23584,-0.17407 0.64013,-0.29199 0.40992,-0.12353 0.87598,-0.12353 0.70191,0 1.22974,0.20214 0.53344,0.20215 0.78613,0.5503 0.25269,0.34253 0.34815,0.9209 l -0.98829,0.13476 q -0.0674,-0.46045 -0.39306,-0.71875 -0.32007,-0.2583 -0.90967,-0.2583 -0.69629,0 -0.9939,0.23022 -0.2976,0.23023 -0.2976,0.53907 0,0.19653 0.12353,0.35376 0.12354,0.16284 0.38745,0.26953 0.15161,0.0562 0.89282,0.2583 1.07251,0.28638 1.49366,0.47168 0.42675,0.17969 0.66821,0.52783 0.24145,0.34815 0.24145,0.86475 0,0.50537 -0.2976,0.95459 -0.292,0.4436 -0.8479,0.69067 -0.55591,0.24146 -1.25782,0.24146 -1.16235,0 -1.77441,-0.48291 -0.60645,-0.48291 -0.7749,-1.43189 z"
         id="path2347"
         style="font-size:11.5px;text-anchor:middle;fill:#fde3d5" />
      <path
         d="m 423.59326,262.09595 0.146,0.89282 q -0.42676,0.0898 -0.76367,0.0898 -0.5503,0 -0.85352,-0.17407 -0.30322,-0.17407 -0.42676,-0.45483 -0.12353,-0.28638 -0.12353,-1.19605 v -3.43091 h -0.74121 v -0.78613 h 0.74121 v -1.47681 l 1.00512,-0.60644 v 2.08325 h 1.01636 v 0.78613 h -1.01636 v 3.48706 q 0,0.43238 0.0505,0.55591 0.0562,0.12354 0.17407,0.19654 0.12354,0.073 0.34815,0.073 0.16846,0 0.4436,-0.0393 z"
         id="path2349"
         style="font-size:11.5px;text-anchor:middle;fill:#fde3d5" />
      <path
         d="m 424.58716,255.93042 v -1.16235 h 1.01074 v 1.16235 z m 0,7.06958 v -5.96338 h 1.01074 V 263 Z"
         id="path2351"
         style="font-size:11.5px;text-anchor:middle;fill:#fde3d5" />
    </g>
    <g
       id="g2264">
      <path
         id="polygon24-9"
         d="m 283.24023,237.63867 -2.12109,3.1836 h 0.20117 V 246 h 1.00586 v -5.17773 h 1.16211 v -0.78516 h -1.16211 v -0.55078 c 0,-0.35937 0.0622,-0.6053 0.18945,-0.73633 0.12728,-0.13102 0.34538,-0.19531 0.65235,-0.19531 0.18717,0 0.38606,0.0172 0.5957,0.0547 l 0.15039,-0.88086 c -0.23933,-0.0468 -0.46342,-0.0756 -0.67383,-0.0899 z"
         style="fill:#fde3d5;fill-opacity:1" />
      <path
         id="polygon24-3"
         d="m 417.86523,240.03711 v 8.24805 h 1.01172 v -2.90235 c 0.17221,0.21713 0.39047,0.39681 0.65625,0.53907 0.26953,0.14225 0.57324,0.21289 0.91016,0.21289 0.46045,0 0.89893,-0.12842 1.31445,-0.38672 0.0969,-0.0606 0.18735,-0.12863 0.27344,-0.20117 l -0.52539,-0.78711 c -0.31403,0.36167 -0.6915,0.54296 -1.13086,0.54296 -0.44173,0 -0.8182,-0.18196 -1.12891,-0.54882 -0.3107,-0.36687 -0.46484,-0.93376 -0.46484,-1.70118 0,-0.73523 0.15074,-1.30267 0.45313,-1.70117 L 418.83203,240.75 c -0.0152,0.0202 -0.0299,0.0396 -0.0449,0.0606 v -0.13086 l -0.42969,-0.64258 z"
         style="fill:#fde3d5;fill-opacity:1" />
      <path
         d="m 284.26245,246 v -5.96338 h 0.90967 v 0.90405 q 0.34814,-0.63452 0.64014,-0.83667 0.2976,-0.20214 0.65136,-0.20214 0.51099,0 1.03882,0.32568 l -0.34814,0.93774 q -0.37061,-0.21899 -0.74121,-0.21899 -0.3313,0 -0.59522,0.20215 -0.26391,0.19653 -0.37622,0.55029 -0.16846,0.53906 -0.16846,1.1792 V 246 Z"
         id="path1055"
         style="font-size:11.5px;text-anchor:middle;fill:#fde3d5" />
      <path
         d="m 291.99463,245.2644 q -0.56152,0.4773 -1.08374,0.67383 -0.5166,0.19654 -1.11182,0.19654 -0.98266,0 -1.5105,-0.4773 -0.52783,-0.48291 -0.52783,-1.22974 0,-0.43798 0.19654,-0.79736 0.20214,-0.36499 0.52221,-0.58398 0.32569,-0.219 0.72998,-0.3313 0.29761,-0.0786 0.89844,-0.15161 1.22412,-0.146 1.80249,-0.34815 0.006,-0.20776 0.006,-0.26391 0,-0.61768 -0.28638,-0.87037 -0.38745,-0.34252 -1.15112,-0.34252 -0.71314,0 -1.05567,0.25268 -0.33691,0.24707 -0.49975,0.88159 l -0.98829,-0.13476 q 0.13477,-0.63452 0.44361,-1.02198 0.30884,-0.39306 0.89282,-0.60083 0.58398,-0.21337 1.35327,-0.21337 0.76367,0 1.24097,0.17968 0.47729,0.17969 0.7019,0.45484 0.22461,0.26953 0.31446,0.68506 0.0505,0.2583 0.0505,0.93212 v 1.34766 q 0,1.40942 0.0618,1.78565 0.0674,0.3706 0.2583,0.71313 h -1.05566 q -0.15723,-0.31445 -0.20215,-0.7356 z m -0.0842,-2.25732 q -0.55029,0.22461 -1.65088,0.38184 -0.62329,0.0898 -0.88159,0.20214 -0.2583,0.11231 -0.39868,0.3313 -0.14038,0.21338 -0.14038,0.4773 0,0.4043 0.30322,0.67383 0.30884,0.26953 0.89844,0.26953 0.58398,0 1.03882,-0.25269 0.45483,-0.2583 0.66821,-0.7019 0.16284,-0.34253 0.16284,-1.01074 z"
         id="path1057"
         style="font-size:11.5px;text-anchor:middle;fill:#fde3d5" />
      <path
         d="m 294.09473,244.21997 0.99951,-0.15723 q 0.0842,0.60083 0.46606,0.9209 0.38745,0.32007 1.07813,0.32007 0.69629,0 1.0332,-0.28076 0.33691,-0.28638 0.33691,-0.66821 0,-0.34253 -0.2976,-0.53907 -0.20777,-0.13476 -1.03321,-0.34253 -1.11181,-0.28076 -1.54419,-0.48291 -0.42675,-0.20776 -0.65136,-0.56713 -0.219,-0.36499 -0.219,-0.80298 0,-0.39868 0.17969,-0.7356 0.1853,-0.34253 0.49976,-0.56714 0.23584,-0.17407 0.64013,-0.29199 0.40992,-0.12353 0.87598,-0.12353 0.7019,0 1.22974,0.20214 0.53344,0.20215 0.78613,0.5503 0.25268,0.34253 0.34814,0.9209 l -0.98828,0.13476 q -0.0674,-0.46045 -0.39306,-0.71875 -0.32007,-0.2583 -0.90967,-0.2583 -0.69629,0 -0.9939,0.23022 -0.29761,0.23023 -0.29761,0.53907 0,0.19653 0.12354,0.35376 0.12353,0.16284 0.38745,0.26953 0.15161,0.0561 0.89282,0.2583 1.07251,0.28638 1.49366,0.47168 0.42675,0.17969 0.66821,0.52783 0.24145,0.34815 0.24145,0.86475 0,0.50537 -0.2976,0.95459 -0.292,0.4436 -0.8479,0.69067 -0.55591,0.24146 -1.25782,0.24146 -1.16235,0 -1.77441,-0.48291 -0.60645,-0.48291 -0.7749,-1.43189 z"
         id="path1059"
         style="font-size:11.5px;text-anchor:middle;fill:#fde3d5" />
      <path
         d="m 302.45581,245.09595 0.146,0.89282 q -0.42676,0.0898 -0.76368,0.0898 -0.55029,0 -0.85351,-0.17407 -0.30322,-0.17407 -0.42676,-0.45483 -0.12353,-0.28638 -0.12353,-1.19605 v -3.43091 h -0.74121 v -0.78613 h 0.74121 v -1.47681 l 1.00512,-0.60644 v 2.08325 h 1.01636 v 0.78613 h -1.01636 v 3.48706 q 0,0.43238 0.0505,0.55591 0.0562,0.12354 0.17407,0.19654 0.12354,0.073 0.34815,0.073 0.16845,0 0.4436,-0.0393 z"
         id="path1061"
         style="font-size:11.5px;text-anchor:middle;fill:#fde3d5" />
      <path
         d="m 303.43286,246 v -5.96338 h 0.90967 v 0.90405 q 0.34814,-0.63452 0.64014,-0.83667 0.2976,-0.20214 0.65136,-0.20214 0.51099,0 1.03882,0.32568 l -0.34814,0.93774 q -0.37061,-0.21899 -0.74121,-0.21899 -0.3313,0 -0.59522,0.20215 -0.26391,0.19653 -0.37622,0.55029 -0.16846,0.53906 -0.16846,1.1792 V 246 Z"
         id="path1063"
         style="font-size:11.5px;text-anchor:middle;fill:#fde3d5" />
      <path
         d="m 311.18188,246 v -0.87598 q -0.69628,1.01075 -1.89233,1.01075 -0.52783,0 -0.98828,-0.20215 -0.45483,-0.20215 -0.67944,-0.50537 -0.219,-0.30884 -0.30884,-0.75245 -0.0618,-0.2976 -0.0618,-0.94335 v -3.69483 h 1.01074 v 3.30737 q 0,0.79175 0.0618,1.0669 0.0955,0.39868 0.4043,0.6289 0.30884,0.22461 0.76367,0.22461 0.45483,0 0.85351,-0.23022 0.39869,-0.23584 0.56153,-0.63452 0.16846,-0.4043 0.16846,-1.16797 v -3.19507 h 1.01074 V 246 Z"
         id="path1065"
         style="font-size:11.5px;text-anchor:middle;fill:#fde3d5" />
      <path
         d="m 317.56079,243.81567 0.9939,0.12915 q -0.16284,1.02759 -0.83667,1.61158 -0.66822,0.57837 -1.64527,0.57837 -1.22412,0 -1.97094,-0.79737 -0.74121,-0.80298 -0.74121,-2.29663 0,-0.96582 0.32006,-1.69018 0.32007,-0.72437 0.97144,-1.08374 0.65698,-0.36499 1.42627,-0.36499 0.97143,0 1.58911,0.49414 0.61768,0.48852 0.79175,1.39257 l -0.98267,0.15162 q -0.14038,-0.60083 -0.49975,-0.90406 -0.35376,-0.30322 -0.85913,-0.30322 -0.76368,0 -1.24097,0.55029 -0.4773,0.54468 -0.4773,1.7295 0,1.20166 0.46045,1.74633 0.46045,0.54468 1.20166,0.54468 0.59522,0 0.9939,-0.36499 0.39868,-0.36499 0.50537,-1.12305 z"
         id="path1067"
         style="font-size:11.5px;text-anchor:middle;fill:#fde3d5" />
      <path
         d="m 321.62622,245.09595 0.146,0.89282 q -0.42676,0.0898 -0.76368,0.0898 -0.55029,0 -0.85351,-0.17407 -0.30322,-0.17407 -0.42676,-0.45483 -0.12353,-0.28638 -0.12353,-1.19605 v -3.43091 h -0.74121 v -0.78613 h 0.74121 v -1.47681 l 1.00512,-0.60644 v 2.08325 h 1.01636 v 0.78613 h -1.01636 v 3.48706 q 0,0.43238 0.0505,0.55591 0.0562,0.12354 0.17407,0.19654 0.12354,0.073 0.34815,0.073 0.16845,0 0.4436,-0.0393 z"
         id="path1069"
         style="font-size:11.5px;text-anchor:middle;fill:#fde3d5" />
      <path
         d="m 326.52271,246 v -0.87598 q -0.69629,1.01075 -1.89234,1.01075 -0.52783,0 -0.98828,-0.20215 -0.45483,-0.20215 -0.67944,-0.50537 -0.219,-0.30884 -0.30884,-0.75245 -0.0618,-0.2976 -0.0618,-0.94335 v -3.69483 h 1.01074 v 3.30737 q 0,0.79175 0.0618,1.0669 0.0955,0.39868 0.4043,0.6289 0.30884,0.22461 0.76367,0.22461 0.45483,0 0.85352,-0.23022 0.39868,-0.23584 0.56152,-0.63452 0.16846,-0.4043 0.16846,-1.16797 v -3.19507 h 1.01074 V 246 Z"
         id="path1071"
         style="font-size:11.5px;text-anchor:middle;fill:#fde3d5" />
      <path
         d="m 328.99902,246 v -5.96338 h 0.90967 v 0.90405 q 0.34815,-0.63452 0.64014,-0.83667 0.29761,-0.20214 0.65137,-0.20214 0.51098,0 1.03881,0.32568 l -0.34814,0.93774 q -0.37061,-0.21899 -0.74121,-0.21899 -0.3313,0 -0.59522,0.20215 -0.26391,0.19653 -0.37622,0.55029 -0.16845,0.53906 -0.16845,1.1792 V 246 Z"
         id="path1073"
         style="font-size:11.5px;text-anchor:middle;fill:#fde3d5" />
      <path
         d="m 336.92212,244.07959 1.04443,0.12915 q -0.24707,0.91528 -0.91528,1.42065 -0.66821,0.50538 -1.70703,0.50538 -1.30835,0 -2.07764,-0.80298 -0.76367,-0.8086 -0.76367,-2.26294 0,-1.50489 0.7749,-2.33594 0.7749,-0.83105 2.01026,-0.83105 1.19604,0 1.9541,0.8142 0.75805,0.81421 0.75805,2.29102 0,0.0898 -0.006,0.26953 h -4.44727 q 0.0562,0.98267 0.55591,1.50488 0.49976,0.52222 1.24658,0.52222 0.55591,0 0.94898,-0.29199 0.39306,-0.29199 0.62329,-0.93213 z m -3.3186,-1.63403 h 3.32983 q -0.0674,-0.75244 -0.38184,-1.12867 -0.48291,-0.58398 -1.25219,-0.58398 -0.69629,0 -1.17359,0.46606 -0.47168,0.46607 -0.52221,1.24659 z"
         id="path1075"
         style="font-size:11.5px;text-anchor:middle;fill:#fde3d5" />
      <path
         d="m 339.49951,246 v -1.15112 h 1.15112 V 246 q 0,0.63452 -0.2246,1.02197 -0.22461,0.39307 -0.71314,0.60645 l -0.28076,-0.43238 q 0.32007,-0.14038 0.47168,-0.41552 0.15161,-0.26953 0.16846,-0.78052 z"
         id="path1077"
         style="font-size:11.5px;text-anchor:middle;fill:#fde3d5" />
      <path
         d="m 349.70801,244.07959 1.04443,0.12915 q -0.24707,0.91528 -0.91528,1.42065 -0.66821,0.50538 -1.70703,0.50538 -1.30835,0 -2.07764,-0.80298 -0.76367,-0.8086 -0.76367,-2.26294 0,-1.50489 0.7749,-2.33594 0.7749,-0.83105 2.01025,-0.83105 1.19605,0 1.95411,0.8142 0.75805,0.81421 0.75805,2.29102 0,0.0898 -0.006,0.26953 h -4.44727 q 0.0562,0.98267 0.55591,1.50488 0.49976,0.52222 1.24658,0.52222 0.55591,0 0.94898,-0.29199 0.39306,-0.29199 0.62329,-0.93213 z m -3.31861,-1.63403 h 3.32984 q -0.0674,-0.75244 -0.38184,-1.12867 -0.48291,-0.58398 -1.25219,-0.58398 -0.69629,0 -1.17359,0.46606 -0.47168,0.46607 -0.52222,1.24659 z"
         id="path1079"
         style="font-size:11.5px;text-anchor:middle;fill:#fde3d5" />
      <path
         d="m 355.89038,246 v -0.75244 q -0.56714,0.88721 -1.66772,0.88721 -0.71314,0 -1.31397,-0.39307 -0.59521,-0.39307 -0.92651,-1.09497 -0.32569,-0.70752 -0.32569,-1.6228 0,-0.89283 0.29761,-1.61719 0.29761,-0.72998 0.89282,-1.11743 0.59522,-0.38745 1.33081,-0.38745 0.53907,0 0.96021,0.23022 0.42114,0.22461 0.68506,0.5896 v -2.95361 h 1.00512 V 246 Z m -3.19507,-2.97607 q 0,1.1455 0.48291,1.71264 0.48291,0.56714 1.1399,0.56714 0.66259,0 1.12304,-0.53906 0.46607,-0.54468 0.46607,-1.6565 0,-1.22412 -0.47168,-1.79687 -0.47168,-0.57275 -1.16236,-0.57275 -0.67382,0 -1.12866,0.55029 -0.44922,0.55029 -0.44922,1.73511 z"
         id="path1081"
         style="font-size:11.5px;text-anchor:middle;fill:#fde3d5" />
      <path
         d="m 362.32544,246 v -0.87598 q -0.69629,1.01075 -1.89233,1.01075 -0.52784,0 -0.98829,-0.20215 -0.45483,-0.20215 -0.67944,-0.50537 -0.21899,-0.30884 -0.30884,-0.75245 -0.0618,-0.2976 -0.0618,-0.94335 v -3.69483 h 1.01074 v 3.30737 q 0,0.79175 0.0618,1.0669 0.0955,0.39868 0.40429,0.6289 0.30884,0.22461 0.76367,0.22461 0.45484,0 0.85352,-0.23022 0.39868,-0.23584 0.56152,-0.63452 0.16846,-0.4043 0.16846,-1.16797 v -3.19507 h 1.01074 V 246 Z"
         id="path1083"
         style="font-size:11.5px;text-anchor:middle;fill:#fde3d5" />
      <path
         d="m 368.70435,243.81567 0.99389,0.12915 q -0.16284,1.02759 -0.83667,1.61158 -0.66821,0.57837 -1.64526,0.57837 -1.22412,0 -1.97095,-0.79737 -0.74121,-0.80298 -0.74121,-2.29663 0,-0.96582 0.32007,-1.69018 0.32007,-0.72437 0.97143,-1.08374 0.65699,-0.36499 1.42627,-0.36499 0.97144,0 1.58912,0.49414 0.61767,0.48852 0.79174,1.39257 l -0.98266,0.15162 q -0.14038,-0.60083 -0.49976,-0.90406 -0.35376,-0.30322 -0.85913,-0.30322 -0.76367,0 -1.24097,0.55029 -0.47729,0.54468 -0.47729,1.7295 0,1.20166 0.46045,1.74633 0.46045,0.54468 1.20166,0.54468 0.59521,0 0.99389,-0.36499 0.39869,-0.36499 0.50538,-1.12305 z"
         id="path1085"
         style="font-size:11.5px;text-anchor:middle;fill:#fde3d5" />
      <path
         d="m 374.45435,245.2644 q -0.56153,0.4773 -1.08374,0.67383 -0.51661,0.19654 -1.11182,0.19654 -0.98267,0 -1.5105,-0.4773 -0.52783,-0.48291 -0.52783,-1.22974 0,-0.43798 0.19653,-0.79736 0.20215,-0.36499 0.52222,-0.58398 0.32568,-0.219 0.72998,-0.3313 0.29761,-0.0786 0.89844,-0.15161 1.22412,-0.146 1.80249,-0.34815 0.006,-0.20776 0.006,-0.26391 0,-0.61768 -0.28637,-0.87037 -0.38746,-0.34252 -1.15113,-0.34252 -0.71313,0 -1.05566,0.25268 -0.33692,0.24707 -0.49976,0.88159 l -0.98828,-0.13476 q 0.13477,-0.63452 0.4436,-1.02198 0.30884,-0.39306 0.89283,-0.60083 0.58398,-0.21337 1.35327,-0.21337 0.76367,0 1.24097,0.17968 0.47729,0.17969 0.7019,0.45484 0.22461,0.26953 0.31445,0.68506 0.0505,0.2583 0.0505,0.93212 v 1.34766 q 0,1.40942 0.0618,1.78565 0.0674,0.3706 0.2583,0.71313 h -1.05567 q -0.15722,-0.31445 -0.20214,-0.7356 z m -0.0842,-2.25732 q -0.5503,0.22461 -1.65088,0.38184 -0.62329,0.0898 -0.88159,0.20214 -0.2583,0.11231 -0.39869,0.3313 -0.14038,0.21338 -0.14038,0.4773 0,0.4043 0.30323,0.67383 0.30883,0.26953 0.89843,0.26953 0.58399,0 1.03882,-0.25269 0.45484,-0.2583 0.66822,-0.7019 0.16284,-0.34253 0.16284,-1.01074 z"
         id="path1087"
         style="font-size:11.5px;text-anchor:middle;fill:#fde3d5" />
      <path
         d="m 379.16553,245.09595 0.14599,0.89282 q -0.42675,0.0898 -0.76367,0.0898 -0.55029,0 -0.85351,-0.17407 -0.30323,-0.17407 -0.42676,-0.45483 -0.12354,-0.28638 -0.12354,-1.19605 v -3.43091 h -0.74121 v -0.78613 h 0.74121 v -1.47681 l 1.00513,-0.60644 v 2.08325 h 1.01636 v 0.78613 h -1.01636 v 3.48706 q 0,0.43238 0.0505,0.55591 0.0562,0.12354 0.17407,0.19654 0.12353,0.073 0.34814,0.073 0.16846,0 0.44361,-0.0393 z"
         id="path1089"
         style="font-size:11.5px;text-anchor:middle;fill:#fde3d5" />
      <path
         d="m 380.15942,238.93042 v -1.16235 h 1.01075 v 1.16235 z m 0,7.06958 v -5.96338 h 1.01075 V 246 Z"
         id="path1091"
         style="font-size:11.5px;text-anchor:middle;fill:#fde3d5" />
      <path
         d="m 382.33252,243.01831 q 0,-1.65649 0.9209,-2.45386 0.76929,-0.66259 1.87549,-0.66259 1.22973,0 2.01025,0.80859 0.78052,0.80298 0.78052,2.22363 0,1.15113 -0.34815,1.81372 -0.34253,0.65699 -1.00512,1.02198 -0.65699,0.36499 -1.4375,0.36499 -1.2522,0 -2.0271,-0.80298 -0.76929,-0.80298 -0.76929,-2.31348 z m 1.03882,0 q 0,1.14551 0.49975,1.71826 0.49976,0.56714 1.25782,0.56714 0.75244,0 1.25219,-0.57275 0.49976,-0.57276 0.49976,-1.74634 0,-1.1062 -0.50537,-1.67334 -0.49976,-0.57275 -1.24658,-0.57275 -0.75806,0 -1.25782,0.56713 -0.49975,0.56714 -0.49975,1.71265 z"
         id="path1093"
         style="font-size:11.5px;text-anchor:middle;fill:#fde3d5" />
      <path
         d="m 389.10449,246 v -5.96338 h 0.90967 v 0.8479 q 0.65698,-0.98266 1.89795,-0.98266 0.53906,0 0.98828,0.19653 0.45483,0.19092 0.67944,0.50537 0.22461,0.31445 0.31446,0.74683 0.0562,0.28076 0.0562,0.98266 V 246 h -1.01074 v -3.62744 q 0,-0.61768 -0.11792,-0.9209 -0.11792,-0.30884 -0.42115,-0.48853 -0.2976,-0.1853 -0.7019,-0.1853 -0.64575,0 -1.11743,0.40991 -0.46607,0.40992 -0.46607,1.55542 V 246 Z"
         id="path1095"
         style="font-size:11.5px;text-anchor:middle;fill:#fde3d5" />
      <path
         d="m 395.76416,246 v -1.15112 h 1.15112 V 246 q 0,0.63452 -0.22461,1.02197 -0.22461,0.39307 -0.71313,0.60645 l -0.28076,-0.43238 q 0.32007,-0.14038 0.47168,-0.41552 0.15161,-0.26953 0.16845,-0.78052 z"
         id="path1097"
         style="font-size:11.5px;text-anchor:middle;fill:#fde3d5" />
      <path
         d="m 405.97266,244.07959 1.04443,0.12915 q -0.24707,0.91528 -0.91528,1.42065 -0.66822,0.50538 -1.70703,0.50538 -1.30835,0 -2.07764,-0.80298 -0.76367,-0.8086 -0.76367,-2.26294 0,-1.50489 0.7749,-2.33594 0.7749,-0.83105 2.01025,-0.83105 1.19605,0 1.9541,0.8142 0.75806,0.81421 0.75806,2.29102 0,0.0898 -0.006,0.26953 h -4.44727 q 0.0562,0.98267 0.55591,1.50488 0.49975,0.52222 1.24658,0.52222 0.55591,0 0.94898,-0.29199 0.39306,-0.29199 0.62329,-0.93213 z m -3.31861,-1.63403 h 3.32984 q -0.0674,-0.75244 -0.38184,-1.12867 -0.48291,-0.58398 -1.2522,-0.58398 -0.69629,0 -1.17358,0.46606 -0.47168,0.46607 -0.52222,1.24659 z"
         id="path1099"
         style="font-size:11.5px;text-anchor:middle;fill:#fde3d5" />
      <path
         d="m 408.28613,246 v -5.96338 h 0.90406 v 0.83667 q 0.28076,-0.43799 0.74682,-0.7019 0.46607,-0.26953 1.06128,-0.26953 0.6626,0 1.08374,0.27514 0.42676,0.27515 0.60083,0.76929 0.70752,-1.04443 1.8418,-1.04443 0.88721,0 1.3645,0.49414 0.4773,0.48852 0.4773,1.51049 V 246 h -1.00513 v -3.75659 q 0,-0.60645 -0.10108,-0.87036 -0.0955,-0.26953 -0.35376,-0.43238 -0.2583,-0.16284 -0.60644,-0.16284 -0.62891,0 -1.04443,0.42114 -0.41553,0.41553 -0.41553,1.33643 V 246 h -1.01074 v -3.87451 q 0,-0.67383 -0.24707,-1.01074 -0.24707,-0.33692 -0.8086,-0.33692 -0.42676,0 -0.79175,0.22461 -0.35937,0.22461 -0.52221,0.65698 -0.16285,0.43238 -0.16285,1.24659 V 246 Z"
         id="path1101"
         style="font-size:11.5px;text-anchor:middle;fill:#fde3d5" />
      <path
         id="polygon24-6"
         d="m 279.5293,243.20703 -1.01172,1.51563 V 246 h 1.01172 z"
         style="fill:#fde3d5;fill-opacity:1" />
    </g>
    <text
       x="350"
       y="226"
       text-anchor="middle"
       font-size="15px"
       font-weight="bold"
       fill="#ffffff"
       id="text26">High Risk</text>
    <text
       x="49.584473"
       y="216.41357"
       font-size="11.5px"
       fill="#e8622a"
       font-weight="bold"
       id="text50-7"
       style="display:inline"><tspan
         sodipodi:role="line"
         id="tspan584"
         x="49.584473"
         y="216.41357">Since August 2026:</tspan><tspan
         sodipodi:role="line"
         x="49.584473"
         y="230.78857"
         id="tspan592">&gt; no regulated products</tspan><tspan
         sodipodi:role="line"
         x="49.584473"
         y="245.16357"
         id="tspan588">Since August 2027:</tspan><tspan
         sodipodi:role="line"
         x="49.584473"
         y="259.53857"
         id="tspan594">&gt; regulated products</tspan></text>
  </g>
  <g
     inkscape:groupmode="layer"
     id="layer4"
     inkscape:label="limited"
     style="display:inline"
     transform="translate(-50,-57.683594)">
    <line
       x1="530"
       y1="325"
       x2="543"
       y2="310"
       stroke="#c08a00"
       stroke-width="1.5"
       stroke-dasharray="4, 3"
       id="line58" />
    <text
       x="548"
       y="306"
       font-size="11.5px"
       fill="#b07a00"
       font-weight="bold"
       id="text60">TRANSPARENCY RULES</text>
    <text
       x="548"
       y="321"
       font-size="10.5px"
       fill="#555555"
       id="text62">Must inform users they are</text>
    <text
       x="548"
       y="334"
       font-size="10.5px"
       fill="#555555"
       id="text64">interacting with an AI system</text>
    <polygon
       points="170,370 530,370 445,280 255,280 "
       fill="#f0b429"
       opacity="0.95"
       id="polygon16" />
    <text
       x="350"
       y="318"
       text-anchor="middle"
       font-size="16px"
       font-weight="bold"
       fill="#ffffff"
       id="text18">Limited Risk</text>
    <text
       x="350"
       y="338"
       text-anchor="middle"
       font-size="12px"
       fill="#fff8e1"
       id="text20">Chatbots, deepfakes, emotion recognition</text>
    <text
       x="350"
       y="357"
       text-anchor="middle"
       font-size="12px"
       fill="#fff8e1"
       id="text22">Transparency obligations (disclose AI use)</text>
    <text
       x="49.584473"
       y="327.97607"
       font-size="11.5px"
       fill="#b07a00"
       font-weight="bold"
       id="text60-3"
       style="display:inline">Since August 2025</text>
  </g>
  <g
     inkscape:groupmode="layer"
     id="layer5"
     inkscape:label="norisk"
     style="display:inline"
     transform="translate(-50,-57.683594)">
    <polygon
       points="50,460 650,460 530,370 170,370 "
       fill="#4caf8c"
       opacity="0.92"
       id="polygon8" />
    <text
       x="350"
       y="408"
       text-anchor="middle"
       font-size="16px"
       font-weight="bold"
       fill="#ffffff"
       id="text10">Minimal / No Risk</text>
    <text
       x="350"
       y="428"
       text-anchor="middle"
       font-size="12px"
       fill="#e0f5ee"
       id="text12">Spam filters, AI in video games, recommender systems</text>
    <text
       x="350"
       y="447"
       text-anchor="middle"
       font-size="12px"
       fill="#e0f5ee"
       id="text14">No obligations — voluntary codes of conduct</text>
    <line
       x1="650"
       y1="415"
       x2="560"
       y2="435"
       stroke="#2e7d5a"
       stroke-width="1.5"
       stroke-dasharray="4, 3"
       id="line66" />
    <text
       x="563"
       y="452"
       font-size="11.5px"
       fill="#2e7d5a"
       font-weight="bold"
       id="text68">FEW/NO OBLIGATIONS</text>
    <text
       x="563"
       y="467"
       font-size="10.5px"
       fill="#555555"
       id="text70">Voluntary ethics guidelines</text>
    <text
       x="563"
       y="480"
       font-size="10.5px"
       fill="#555555"
       id="text72">encouraged</text>
  </g>
</svg>
