<?xml version="1.0" encoding="UTF-8" standalone="no"?>
<svg
   version="1.1"
   viewBox="-5 -10 94.921997 94.921997"
   id="svg8"
   sodipodi:docname="noun-information-7988789.svg"
   width="94.921997"
   height="94.921997"
   inkscape:version="1.2.2 (b0a8486541, 2022-12-01)"
   xmlns:inkscape="http://www.inkscape.org/namespaces/inkscape"
   xmlns:sodipodi="http://sodipodi.sourceforge.net/DTD/sodipodi-0.dtd"
   xmlns="http://www.w3.org/2000/svg"
   xmlns:svg="http://www.w3.org/2000/svg">
  <defs
     id="defs12" />
  <sodipodi:namedview
     id="namedview10"
     pagecolor="#ffffff"
     bordercolor="#666666"
     borderopacity="1.0"
     inkscape:showpageshadow="2"
     inkscape:pageopacity="0.0"
     inkscape:pagecheckerboard="0"
     inkscape:deskcolor="#d1d1d1"
     showgrid="false"
     inkscape:zoom="6.0074074"
     inkscape:cx="47.607891"
     inkscape:cy="57.179408"
     inkscape:window-width="1920"
     inkscape:window-height="1011"
     inkscape:window-x="0"
     inkscape:window-y="0"
     inkscape:window-maximized="1"
     inkscape:current-layer="svg8" />
  <path
     d="m 42.460531,-9.999376 c -25.941,0 -47.012,20.82 -47.441,46.66 L -5,36.645004 v 48.277 h 47.461 c 26.211,0 47.461,-21.25 47.461,-47.461 0,-26.207 -21.25,-47.461 -47.461,-47.461 z m -0.03125,22.512 c 1.168,-1.168 2.5742,-1.7461 4.2031,-1.7461 1.6289,0 3.0273,0.57812 4.1797,1.7461 1.1562,1.1602 1.7383,2.5664 1.7383,4.2031 0,1.6406 -0.58203,3.0352 -1.7383,4.1914 -1.1562,1.1523 -2.5508,1.7266 -4.1797,1.7266 -1.6289,0 -3.0312,-0.57422 -4.2031,-1.7266 -1.1602,-1.1523 -1.7461,-2.5547 -1.7461,-4.1914 0,-1.6367 0.58984,-3.0391 1.7461,-4.2031 z m 9.3438,48.918 c -3,1.7188 -6.457,2.6289 -10.375,2.7344 -2.8125,0 -5,-0.66797 -6.5547,-2 -1.5586,-1.332 -2.332,-3.0234 -2.332,-5.0742 0,-0.79688 0.05469,-1.6133 0.17188,-2.4453 0.11719,-0.83203 4.3789,-17.141 4.3789,-17.852 0,-1.2695 -0.26953,-2.1562 -0.80859,-2.6602 -0.54688,-0.5 -0.94141,-0.81641 -3.1055,-0.74609 -2.1641,0.07031 -3.7734,0.77734 -4.332,0.98828 l 0.76562,-3.0742 c 3.8477,-1.8398 7.3125,-2.7539 10.387,-2.7383 2.793,0 4.9453,0.66016 6.4609,1.9648 1.5078,1.3086 2.2695,3.0156 2.2695,5.1055 0,0.43359 -0.05078,1.1992 -0.15625,2.2891 -0.10547,1.0938 -3.918,14.66 -4.1094,15.684 -0.1875,1.0195 -0.27734,1.7969 -0.27734,2.3203 0,1.3203 0.30078,2.2227 0.91406,2.6992 0.60156,0.47656 0.99219,0.79688 3.1562,0.71875 2.1602,-0.07813 3.918,-0.80859 4.3242,-0.98828 l -0.77344,3.0703 z"
     fill-rule="evenodd"
     id="path2"
     style="fill:#ffffff" />
</svg>
