<?xml version="1.0" encoding="UTF-8" standalone="no"?>
<!-- Created with Inkscape (http://www.inkscape.org/) -->

<svg
   width="109.08833mm"
   height="40.753052mm"
   viewBox="0 0 109.08833 40.753052"
   version="1.1"
   id="svg5"
   xml:space="preserve"
   inkscape:version="1.2.2 (b0a8486541, 2022-12-01)"
   sodipodi:docname="faim2026gray.svg"
   xmlns:inkscape="http://www.inkscape.org/namespaces/inkscape"
   xmlns:sodipodi="http://sodipodi.sourceforge.net/DTD/sodipodi-0.dtd"
   xmlns="http://www.w3.org/2000/svg"
   xmlns:svg="http://www.w3.org/2000/svg"><sodipodi:namedview
     id="namedview7"
     pagecolor="#ffffff"
     bordercolor="#666666"
     borderopacity="1.0"
     inkscape:showpageshadow="2"
     inkscape:pageopacity="0.0"
     inkscape:pagecheckerboard="0"
     inkscape:deskcolor="#d1d1d1"
     inkscape:document-units="mm"
     showgrid="false"
     inkscape:zoom="0.93806818"
     inkscape:cx="207.87402"
     inkscape:cy="30.381587"
     inkscape:window-width="1920"
     inkscape:window-height="1011"
     inkscape:window-x="0"
     inkscape:window-y="0"
     inkscape:window-maximized="1"
     inkscape:current-layer="layer1" /><defs
     id="defs2" /><g
     inkscape:label="Calque 1"
     inkscape:groupmode="layer"
     id="layer1"
     transform="translate(-50.014325,-141.45471)"><path
       style="fill:#afafaf;stroke-width:0.168765;fill-opacity:1"
       d="m 51.840932,182.15234 c 1.002869,-0.0299 2.597698,-0.0298 3.544067,1.7e-4 0.946368,0.0301 0.125839,0.0546 -1.823397,0.0544 -1.949237,-1.4e-4 -2.723538,-0.0247 -1.72067,-0.0546 z m 40.663206,1e-4 c 0.99782,-0.0298 2.63063,-0.0298 3.62845,0 0.99782,0.0298 0.18142,0.0542 -1.81423,0.0542 -1.99564,0 -2.81204,-0.0244 -1.81422,-0.0542 z m 12.488612,1.2e-4 c 0.90501,-0.0303 2.38592,-0.0303 3.29092,0 0.90501,0.0303 0.16455,0.0552 -1.64546,0.0552 -1.81,0 -2.55046,-0.0248 -1.64546,-0.0552 z m 22.44576,0 c 0.905,-0.0303 2.38591,-0.0303 3.29091,0 0.90501,0.0303 0.16455,0.0552 -1.64545,0.0552 -1.81001,0 -2.55047,-0.0248 -1.64546,-0.0552 z m 11.89793,-0.33795 c 1.41552,-0.0282 3.73182,-0.0282 5.14734,0 1.41551,0.0282 0.25736,0.0513 -2.57367,0.0513 -2.83103,0 -3.98918,-0.0231 -2.57367,-0.0513 z M 67.533929,181.478 c 0.6304,-0.0326 1.617675,-0.0323 2.193946,5.1e-4 0.576268,0.0328 0.06049,0.0595 -1.146184,0.0592 -1.20667,-3.4e-4 -1.678164,-0.0272 -1.047762,-0.0597 z m 17.214039,0 c 0.6304,-0.0326 1.61767,-0.0323 2.19394,5.1e-4 0.57627,0.0328 0.0605,0.0595 -1.14618,0.0592 -1.20667,-3.4e-4 -1.67817,-0.0272 -1.04776,-0.0597 z m 41.033282,-3.92505 c 0,-2.18129 0.0241,-3.07364 0.0534,-1.98299 0.0294,1.09064 0.0294,2.87533 0,3.96598 -0.0294,1.09064 -0.0534,0.1983 -0.0534,-1.98299 z m -53.57111,1.4345 c 0.218002,-0.23205 0.434339,-0.42191 0.480749,-0.42191 0.04641,0 -0.09398,0.18986 -0.311984,0.42191 -0.218002,0.23205 -0.434339,0.42191 -0.480749,0.42191 -0.04641,0 0.09398,-0.18986 0.311984,-0.42191 z m 81.30257,-1.8838 c 0.11602,-0.0468 0.30588,-0.0468 0.42191,0 0.11603,0.0468 0.0211,0.0851 -0.21096,0.0851 -0.23205,0 -0.32698,-0.0383 -0.21095,-0.0851 z m 4.57732,-1.0274 c -0.20992,-0.26767 -0.20396,-0.27364 0.0637,-0.0637 0.16243,0.1274 0.29533,0.2603 0.29533,0.29534 0,0.1389 -0.13858,0.0495 -0.35905,-0.23162 z m -3.81788,-1.33988 c 0.16244,-0.0425 0.42824,-0.0425 0.59068,0 0.16243,0.0425 0.0295,0.0772 -0.29534,0.0772 -0.32487,0 -0.45778,-0.0347 -0.29534,-0.0772 z m -15.39981,-0.45368 c 0,-0.035 0.1329,-0.16794 0.29534,-0.29534 0.26767,-0.20992 0.27364,-0.20395 0.0637,0.0637 -0.22047,0.28113 -0.35906,0.37053 -0.35906,0.23162 z m -6.50425,-8.71206 c 0,-4.13053 0.022,-5.82029 0.0488,-3.75502 0.0268,2.06526 0.0268,5.44478 0,7.51004 -0.0268,2.06526 -0.0488,0.3755 -0.0488,-3.75502 z m -55.891541,1.22586 c 0.443701,-0.0349 1.127199,-0.0345 1.518886,0.001 0.391688,0.0354 0.02866,0.0639 -0.806726,0.0634 -0.835387,-5e-4 -1.155858,-0.0295 -0.71216,-0.0643 z m 76.111161,-0.66775 c 0.1642,-0.0428 0.39204,-0.04 0.5063,0.006 0.11425,0.0462 -0.0201,0.0812 -0.29855,0.0778 -0.27847,-0.003 -0.37195,-0.0413 -0.20775,-0.084 z m -5.56868,-3.08959 c 0,-0.41769 0.0329,-0.58856 0.0731,-0.37972 0.0402,0.20885 0.0402,0.5506 0,0.75944 -0.0402,0.20885 -0.0731,0.038 -0.0731,-0.37972 z m 11.47261,0.0844 c 0.002,-0.37128 0.0364,-0.5033 0.0768,-0.29337 0.0404,0.20993 0.0388,0.51371 -0.003,0.67506 -0.0422,0.16136 -0.0753,-0.0104 -0.0734,-0.38169 z m -17.42536,-0.65439 c 0,-0.035 0.13291,-0.16795 0.29534,-0.29534 0.26767,-0.20992 0.27364,-0.20395 0.0637,0.0637 -0.22047,0.28112 -0.35906,0.37052 -0.35906,0.23162 z M 77.623946,145.5579 c 0.0081,-0.1966 0.04809,-0.23659 0.101961,-0.10196 0.04875,0.12183 0.04276,0.26739 -0.01332,0.32347 -0.05608,0.0561 -0.09597,-0.0436 -0.08864,-0.22151 z m -0.843825,-1.85641 c 0.0081,-0.1966 0.04809,-0.23659 0.101961,-0.10196 0.04875,0.12183 0.04276,0.26738 -0.01332,0.32346 -0.05608,0.0561 -0.09597,-0.0436 -0.08864,-0.2215 z m 0.688382,-0.40785 c 0,-0.23205 0.03831,-0.32698 0.08512,-0.21096 0.04682,0.11603 0.04682,0.30589 0,0.42192 -0.04682,0.11602 -0.08512,0.0211 -0.08512,-0.21096 z"
       id="path316" /><path
       style="fill:#afafaf;stroke-width:0.168765;fill-opacity:1"
       d="m 50.015903,169.62099 0.0016,-12.40423 h 9.788373 9.788373 l 0.0063,2.70024 0.0063,2.70024 -0.05264,-2.65805 -0.05262,-2.65805 h -9.698723 -9.698721 l -0.04491,12.36204 -0.04491,12.36204 z m 7.078738,8.26949 c 0,-2.36693 0.02374,-3.33522 0.05275,-2.15176 0.02901,1.18347 0.02901,3.12005 0,4.30351 -0.02901,1.18347 -0.05275,0.21518 -0.05275,-2.15175 z m 46.251019,-8.26949 0.002,-12.40423 2.91135,-0.006 2.91135,-0.006 -2.86807,0.0523 -2.86807,0.0523 -0.0449,12.35806 -0.0449,12.35805 0.002,-12.40422 z m 6.49909,6.15992 c 0,-3.51171 0.0416,-6.34334 0.0924,-6.2925 0.11288,0.11288 0.10109,12.48392 -0.012,12.59701 -0.0442,0.0442 -0.0804,-2.79279 -0.0804,-6.30451 z m 22.51979,1.77204 c 0,-2.55257 0.0234,-3.59681 0.0521,-2.32052 0.0287,1.27628 0.0287,3.36475 0,4.64104 -0.0287,1.27628 -0.0521,0.23205 -0.0521,-2.32052 z m -6.58929,-6.15993 c 3.4e-4,-1.29949 0.0268,-1.80879 0.0589,-1.13178 0.0321,0.67701 0.0319,1.74023 -5e-4,2.36271 -0.0323,0.62248 -0.0586,0.0686 -0.0584,-1.23093 z m -57.715922,-0.50629 c 1.69e-4,-1.48513 0.02603,-2.0701 0.05737,-1.29992 0.03134,0.77018 0.03117,1.98529 -3.38e-4,2.70024 -0.03156,0.71496 -0.0572,0.0848 -0.05698,-1.40032 z m -10.96934,-5.48487 c 0,-1.53154 0.02559,-2.15808 0.05686,-1.39231 0.03127,0.76577 0.03127,2.01885 0,2.78463 -0.03127,0.76577 -0.05686,0.13923 -0.05686,-1.39232 z m 35.41415,-8.22665 c 0.99782,-0.0298 2.63063,-0.0298 3.62845,0 0.99782,0.0298 0.18142,0.0542 -1.81423,0.0542 -1.99564,0 -2.81204,-0.0244 -1.81422,-0.0542 z m 35.440662,2.7e-4 c 0.81218,-0.0309 2.14121,-0.0309 2.95339,0 0.81218,0.0309 0.14767,0.0563 -1.47669,0.0563 -1.62437,0 -2.28888,-0.0253 -1.4767,-0.0563 z"
       id="path314" /><path
       style="fill:#afafaf;stroke-width:0.168765;fill-opacity:1"
       d="m 153.42832,181.98873 c 0.25526,-0.0387 0.67296,-0.0387 0.92821,0 0.25526,0.0387 0.0464,0.0703 -0.4641,0.0703 -0.51052,0 -0.71936,-0.0316 -0.46411,-0.0703 z m -10.11818,-2.70495 c 0.7236,-0.0317 1.86276,-0.0315 2.53147,5.1e-4 0.66871,0.0319 0.0767,0.0579 -1.31564,0.0576 -1.39231,-1.6e-4 -1.93944,-0.0264 -1.21583,-0.0581 z m 8.57043,-0.81669 c 0.008,-0.1966 0.0481,-0.23659 0.10196,-0.10196 0.0488,0.12183 0.0428,0.26739 -0.0133,0.32347 -0.0561,0.0561 -0.096,-0.0436 -0.0886,-0.22151 z m 7.10771,-0.1547 c 0.003,-0.27846 0.0413,-0.37195 0.084,-0.20774 0.0428,0.1642 0.04,0.39203 -0.006,0.50629 -0.0462,0.11426 -0.0812,-0.0201 -0.0778,-0.29855 z m -6.95227,-0.48563 c 0,-0.035 0.13291,-0.16795 0.29534,-0.29534 0.26767,-0.20992 0.27364,-0.20395 0.0637,0.0637 -0.22047,0.28112 -0.35906,0.37052 -0.35906,0.23162 z m -7.25689,-0.67506 c 0,-0.035 0.1329,-0.16795 0.29533,-0.29534 0.26768,-0.20992 0.27364,-0.20395 0.0637,0.0637 -0.22047,0.28112 -0.35905,0.37052 -0.35905,0.23162 z m -2.86901,-1.35012 c 0,-0.035 0.1329,-0.16795 0.29534,-0.29534 0.26767,-0.20992 0.27364,-0.20395 0.0637,0.0637 -0.22047,0.28112 -0.35906,0.37052 -0.35906,0.23162 z m 14.93571,-8.5433 c 0.168,-0.18564 0.34343,-0.33753 0.38984,-0.33753 0.0464,0 -0.0531,0.15189 -0.22108,0.33753 -0.168,0.18564 -0.34343,0.33753 -0.38984,0.33753 -0.0464,0 0.0531,-0.15189 0.22108,-0.33753 z m -14.92239,-6.17399 c 0.008,-0.1966 0.0481,-0.23659 0.10196,-0.10196 0.0488,0.12182 0.0428,0.26738 -0.0133,0.32347 -0.0561,0.0561 -0.096,-0.0436 -0.0886,-0.22151 z m 3.71283,0 c 0.008,-0.1966 0.0481,-0.23659 0.10197,-0.10196 0.0487,0.12182 0.0427,0.26738 -0.0133,0.32347 -0.0561,0.0561 -0.096,-0.0436 -0.0886,-0.22151 z m -7.77651,-0.13664 c 0,-0.0365 0.11786,-0.11156 0.26191,-0.16684 0.15019,-0.0576 0.21793,-0.0293 0.15881,0.0663 -0.0991,0.16037 -0.42072,0.23719 -0.42072,0.10051 z M 79.986658,160.578 c 0.008,-0.19661 0.0481,-0.2366 0.10196,-0.10197 0.0487,0.12183 0.0428,0.26739 -0.0133,0.32347 -0.0561,0.0561 -0.096,-0.0436 -0.0886,-0.2215 z m 65.649602,-0.16877 c 0.008,-0.1966 0.0481,-0.23659 0.10197,-0.10196 0.0487,0.12183 0.0427,0.26738 -0.0133,0.32347 -0.0561,0.0561 -0.096,-0.0436 -0.0886,-0.22151 z m 5.72469,0.20349 c 0,-0.035 0.1329,-0.16794 0.29534,-0.29534 0.26767,-0.20992 0.27364,-0.20395 0.0637,0.0637 -0.22047,0.28113 -0.35906,0.37053 -0.35906,0.23162 z m 2.50995,-0.23162 c -0.20992,-0.26767 -0.20395,-0.27364 0.0637,-0.0637 0.16244,0.1274 0.29534,0.2603 0.29534,0.29534 0,0.1389 -0.13859,0.0495 -0.35906,-0.23162 z m -13.68008,-0.495 c 0.12182,-0.0488 0.26738,-0.0428 0.32346,0.0133 0.0561,0.0561 -0.0436,0.096 -0.2215,0.0886 -0.1966,-0.008 -0.23659,-0.0481 -0.10196,-0.10196 z m 0.0762,-2.5373 c 0.25653,-0.0388 0.63626,-0.0378 0.84383,0.002 0.20757,0.0401 -0.002,0.0718 -0.46643,0.0705 -0.4641,-0.001 -0.63393,-0.034 -0.3774,-0.0728 z m 12.23511,0.002 c 0.20993,-0.0404 0.51371,-0.0388 0.67506,0.003 0.16136,0.0422 -0.0104,0.0753 -0.38168,0.0734 -0.37129,-0.002 -0.5033,-0.0364 -0.29338,-0.0768 z m -76.277206,-0.17448 c 0.583767,-0.0331 1.495098,-0.0328 2.025181,6e-4 0.530083,0.0334 0.05245,0.0604 -1.061396,0.0601 -1.113849,-3.3e-4 -1.547553,-0.0276 -0.963785,-0.0607 z m 2.074082,-4.69875 c 0.0081,-0.1966 0.04809,-0.23659 0.101961,-0.10196 0.04875,0.12183 0.04276,0.26739 -0.01331,0.32347 -0.05608,0.0561 -0.09597,-0.0436 -0.08864,-0.22151 z m -0.168765,-1.35012 c 0.0081,-0.1966 0.04809,-0.23659 0.101961,-0.10196 0.04875,0.12183 0.04276,0.26739 -0.01332,0.32347 -0.05608,0.0561 -0.09597,-0.0436 -0.08864,-0.22151 z m -1.856416,-1.18135 c 0.0081,-0.19661 0.04809,-0.2366 0.101962,-0.10196 0.04875,0.12182 0.04276,0.26738 -0.01332,0.32346 -0.05608,0.0561 -0.09597,-0.0436 -0.08864,-0.2215 z m 1.687651,-0.33753 c 0.0081,-0.19661 0.04809,-0.2366 0.101961,-0.10197 0.04875,0.12183 0.04276,0.26739 -0.01331,0.32347 -0.05608,0.0561 -0.09597,-0.0436 -0.08864,-0.2215 z m -1.518886,-1.35012 c 0.0081,-0.19661 0.04809,-0.2366 0.101962,-0.10197 0.04875,0.12183 0.04276,0.26739 -0.01332,0.32347 -0.05608,0.0561 -0.09597,-0.0436 -0.08864,-0.2215 z m 1.350121,-0.33753 c 0.0081,-0.19661 0.04809,-0.2366 0.101961,-0.10197 0.04875,0.12183 0.04276,0.26739 -0.01332,0.32347 -0.05608,0.0561 -0.09597,-0.0436 -0.08864,-0.2215 z m -1.181355,-1.51889 c 0.0081,-0.1966 0.04809,-0.23659 0.101961,-0.10196 0.04875,0.12183 0.04276,0.26739 -0.01332,0.32346 -0.05608,0.0561 -0.09597,-0.0436 -0.08864,-0.2215 z m 1.01259,-0.33753 c 0.0081,-0.1966 0.04809,-0.23659 0.101961,-0.10196 0.04875,0.12183 0.04276,0.26738 -0.01332,0.32346 -0.05608,0.0561 -0.09597,-0.0436 -0.08864,-0.2215 z m -0.830503,-1.75797 c 0,-0.23205 0.03831,-0.32698 0.08512,-0.21095 0.04682,0.11602 0.04682,0.30588 0,0.42191 -0.04682,0.11602 -0.08512,0.0211 -0.08512,-0.21096 z m 0.661738,-0.43598 c 0.0081,-0.1966 0.04809,-0.23659 0.101961,-0.10196 0.04875,0.12183 0.04276,0.26739 -0.01332,0.32347 -0.05608,0.0561 -0.09597,-0.0436 -0.08864,-0.22151 z m -0.492973,-1.92673 c 0,-0.23205 0.03831,-0.32698 0.08512,-0.21096 0.04682,0.11603 0.04682,0.30589 0,0.42192 -0.04682,0.11602 -0.08512,0.0211 -0.08512,-0.21096 z"
       id="path312" /><path
       style="fill:#afafaf;stroke-width:0.168765;fill-opacity:1"
       d="m 136.89945,180.84387 c 0.001,-0.55693 0.0325,-0.76441 0.07,-0.46108 0.0376,0.30333 0.0368,0.75899 -0.002,1.01259 -0.0385,0.25359 -0.0692,0.005 -0.0683,-0.55151 z m 16.61326,-1.03998 c 0.11602,-0.0468 0.30588,-0.0468 0.42191,0 0.11603,0.0468 0.0211,0.0851 -0.21096,0.0851 -0.23205,0 -0.32698,-0.0383 -0.21095,-0.0851 z m -7.00679,-5.79501 c 0,-0.32487 0.0347,-0.45777 0.0772,-0.29534 0.0425,0.16244 0.0425,0.42824 0,0.59068 -0.0425,0.16244 -0.0772,0.0295 -0.0772,-0.29534 z m 8.27574,-0.96078 c 0.1642,-0.0428 0.39203,-0.04 0.50629,0.006 0.11426,0.0462 -0.0201,0.0812 -0.29855,0.0778 -0.27846,-0.003 -0.37195,-0.0413 -0.20774,-0.0841 z m -1.08964,-2.36104 c 0.12183,-0.0488 0.26739,-0.0428 0.32347,0.0133 0.0561,0.0561 -0.0436,0.096 -0.22151,0.0886 -0.1966,-0.008 -0.23659,-0.0481 -0.10196,-0.10196 z m -12.75965,-2.20384 5.01341,-0.0486 0.0623,-1.22104 0.0623,-1.22105 -0.0128,1.26574 -0.0128,1.26574 -5.06295,0.004 -5.06295,0.004 5.01341,-0.0486 z m 9.79949,-5.44407 c 0,-0.41769 0.0329,-0.58856 0.0731,-0.37972 0.0402,0.20885 0.0402,0.5506 0,0.75944 -0.0402,0.20885 -0.0731,0.038 -0.0731,-0.37972 z m 4.04695,0.0844 c 0.002,-0.37128 0.0364,-0.5033 0.0768,-0.29337 0.0404,0.20993 0.0388,0.51371 -0.003,0.67506 -0.0422,0.16136 -0.0753,-0.0104 -0.0734,-0.38169 z m -2.09938,-3.23744 c 0.12183,-0.0487 0.26739,-0.0427 0.32347,0.0133 0.0561,0.0561 -0.0436,0.096 -0.22151,0.0886 -0.1966,-0.008 -0.23659,-0.0481 -0.10196,-0.10196 z m -7.92184,-1.19264 c -0.20992,-0.26767 -0.20395,-0.27364 0.0637,-0.0637 0.16243,0.12739 0.29534,0.26029 0.29534,0.29534 0,0.1389 -0.13859,0.0495 -0.35906,-0.23162 z m -68.315,-9.92901 c 0.0081,-0.1966 0.04809,-0.23659 0.101962,-0.10196 0.04875,0.12183 0.04276,0.26739 -0.01332,0.32347 -0.05608,0.0561 -0.09597,-0.0436 -0.08864,-0.22151 z m 0.168766,-1.85641 c 0.0081,-0.19661 0.04809,-0.2366 0.101961,-0.10197 0.04875,0.12183 0.04276,0.26739 -0.01332,0.32347 -0.05608,0.0561 -0.09597,-0.0436 -0.08864,-0.2215 z m 1.01259,-0.33753 c 0.0081,-0.19661 0.04809,-0.2366 0.101961,-0.10197 0.04875,0.12183 0.04276,0.26739 -0.01332,0.32347 -0.05608,0.0561 -0.09597,-0.0436 -0.08864,-0.2215 z m -0.843825,-1.68766 c 0.0081,-0.1966 0.04809,-0.23659 0.101961,-0.10196 0.04875,0.12183 0.04276,0.26739 -0.01332,0.32347 -0.05608,0.0561 -0.09597,-0.0436 -0.08864,-0.22151 z m 0.67506,-0.50629 c 0.0081,-0.1966 0.04809,-0.23659 0.101961,-0.10196 0.04875,0.12182 0.04276,0.26738 -0.01332,0.32346 -0.05608,0.0561 -0.09597,-0.0436 -0.08864,-0.2215 z m -0.506295,-1.85642 c 0.0081,-0.1966 0.04809,-0.23659 0.101961,-0.10196 0.04875,0.12183 0.04276,0.26739 -0.01332,0.32347 -0.05608,0.0561 -0.09597,-0.0436 -0.08864,-0.22151 z m 0.350852,-0.57661 c 0,-0.23205 0.03831,-0.32698 0.08512,-0.21096 0.04682,0.11603 0.04682,0.30589 0,0.42192 -0.04682,0.11602 -0.08512,0.0211 -0.08512,-0.21096 z"
       id="path310" /><path
       style="fill:#afafaf;stroke-width:0.168765;fill-opacity:1"
       d="m 50.101918,169.70537 v -12.40423 h 9.703991 9.70399 v 2.70024 2.70024 h -6.244307 -6.244307 v 2.70024 2.70025 h 5.484865 5.484864 v 2.78462 2.78462 H 62.50615 57.021285 v 4.21913 4.21912 h -3.459683 -3.459684 z m 40.67238,0 v -12.40423 h 3.54406 3.54407 v 12.40423 12.40423 h -3.54407 -3.54406 z m 12.657382,0 v -12.40423 l 2.91119,0.005 2.9112,0.005 4.30351,7.08314 c 2.36693,3.89572 4.34148,7.08327 4.38789,7.08344 0.0464,1.6e-4 1.97588,-3.18932 4.2877,-7.08775 l 4.20331,-7.08805 h 2.92701 2.92701 v 12.40423 12.40423 h -3.20653 -3.20654 v -6.53361 c 0,-5.43615 -0.0376,-6.49211 -0.22363,-6.2865 -0.12299,0.13591 -1.50325,2.41153 -3.06723,5.05692 -1.56398,2.64539 -2.95603,4.94271 -3.09345,5.10515 -0.20262,0.23952 -0.52748,0.29533 -1.71886,0.29533 h -1.46903 l -3.18805,-5.18952 -3.18805,-5.18953 -0.0442,6.37089 -0.0442,6.37087 h -3.20451 -3.2045 z"
       id="path308" /><path
       style="fill:#afafaf;stroke-width:0.168765;fill-opacity:1"
       d="m 81.985738,178.77649 -0.40914,-0.4641 0.46411,0.40914 c 0.43377,0.3824 0.54149,0.51907 0.40914,0.51907 -0.0302,0 -0.23908,-0.20885 -0.46411,-0.46411 z m 70.219042,-4.66256 c 0,-0.035 0.1329,-0.16795 0.29534,-0.29534 0.26767,-0.20992 0.27364,-0.20395 0.0637,0.0637 -0.22047,0.28112 -0.35906,0.37052 -0.35906,0.23162 z m -7.84758,-10.73725 c 0.16801,-0.18564 0.34344,-0.33753 0.38985,-0.33753 0.0464,0 -0.0531,0.15189 -0.22108,0.33753 -0.16801,0.18564 -0.34344,0.33753 -0.38985,0.33753 -0.0464,0 0.0531,-0.15189 0.22108,-0.33753 z m -8.6914,-4.11408 c 0,-0.035 0.1329,-0.16794 0.29534,-0.29534 0.26767,-0.20992 0.27364,-0.20395 0.0637,0.0637 -0.22047,0.28112 -0.35906,0.37052 -0.35906,0.23162 z m 12.91053,-0.27381 c 0.168,-0.18564 0.34343,-0.33753 0.38984,-0.33753 0.0464,0 -0.0531,0.15189 -0.22108,0.33753 -0.168,0.18564 -0.34343,0.33753 -0.38984,0.33753 -0.0464,0 0.0531,-0.15189 0.22108,-0.33753 z m 8.16358,-0.12657 c -0.20993,-0.26767 -0.20396,-0.27364 0.0637,-0.0637 0.28112,0.22047 0.37052,0.35906 0.23162,0.35906 -0.0351,0 -0.16795,-0.13291 -0.29534,-0.29534 z"
       id="path306" /><path
       style="fill:#afafaf;stroke-width:0.168765;fill-opacity:1"
       d="m 151.43936,181.60939 c -1.30698,-0.42808 -2.29825,-1.28369 -2.8911,-2.49544 -0.41077,-0.83959 -0.47056,-1.1584 -0.47056,-2.50949 0,-1.4338 0.0432,-1.63237 0.58685,-2.69816 1.08925,-2.13538 3.15024,-3.18158 6.24047,-3.16779 1.64585,0.007 3.54406,0.4141 3.54406,0.75943 0,0.0989 -0.24681,0.59394 -0.54848,1.10002 -0.44082,0.73954 -0.61474,0.90129 -0.88602,0.82407 -2.35536,-0.67047 -4.16151,-0.31327 -4.96156,0.98125 -0.44676,0.72287 -0.47475,1.21195 -0.0592,1.03443 2.39599,-1.02354 5.3315,-0.49824 6.42168,1.14914 0.37256,0.56297 0.4555,0.87996 0.4555,1.74087 0,1.41205 -0.59963,2.30249 -2.02598,3.00854 -0.86525,0.4283 -1.22515,0.50188 -2.69291,0.55056 -1.3432,0.0445 -1.9052,-0.0129 -2.71275,-0.27743 z m 3.4815,-2.08032 c 0.47028,-0.29369 0.70523,-0.9893 0.50873,-1.50615 -0.24843,-0.65341 -0.8293,-0.97627 -1.75646,-0.97627 -0.68047,0 -0.90282,0.0836 -1.31257,0.49332 -0.54827,0.54827 -0.62548,1.09931 -0.2326,1.66021 0.46989,0.67086 1.96365,0.84677 2.7929,0.32889 z m -17.90494,1.25649 v -0.98652 l 2.60415,-2.05193 c 2.8707,-2.26197 3.30263,-2.7097 3.30263,-3.42346 0,-0.78384 -0.52218,-1.15859 -1.61436,-1.15859 -0.97986,0 -1.43156,0.15692 -2.03736,0.70779 -0.35923,0.32666 -0.36624,0.32537 -1.60327,-0.29402 -0.68336,-0.34216 -1.27441,-0.65147 -1.31345,-0.68737 -0.17341,-0.15944 0.8229,-0.96549 1.75269,-1.41798 2.06168,-1.00334 4.91406,-1.01677 6.74183,-0.0317 1.1483,0.61885 1.61799,1.34877 1.61799,2.51444 0,1.55967 -0.60374,2.36297 -3.3033,4.39517 -0.58806,0.44267 -1.07266,0.86182 -1.07689,0.93144 -0.004,0.0696 1.09349,0.12657 2.43939,0.12657 h 2.44709 v 1.18136 1.18135 h -4.97857 -4.97857 z m -70.024432,0.0161 c 3.95567,-6.52046 6.550252,-13.62129 7.492334,-20.50496 l 0.109711,-0.80163 h 2.602301 c 2.565364,0 2.603304,0.005 2.672554,0.37972 0.0386,0.20885 0.23827,1.36699 0.44363,2.57367 0.95075,5.58635 3.47924,12.32283 6.48724,17.28348 0.5155,0.85013 0.93727,1.58099 0.93727,1.62414 0,0.0431 -0.86611,0.0784 -1.92469,0.0784 h -1.92469 l -0.53147,-0.94171 c -0.74543,-1.32083 -1.85795,-2.36866 -3.17971,-2.99483 -1.05709,-0.50079 -1.25191,-0.53573 -2.987259,-0.53573 -1.665746,0 -1.956625,0.047 -2.832083,0.45718 -1.231398,0.57701 -2.809616,2.07101 -3.341253,3.16295 l -0.408501,0.83903 -1.99966,0.007 -1.999659,0.007 z m 12.88077,-9.23194 c -0.31461,-0.97024 -0.70537,-2.45341 -0.86835,-3.29592 l -0.29631,-1.53184 -1.501538,0.0472 -1.501536,0.0472 -0.310665,1.53966 c -0.170866,0.84682 -0.54084,2.24403 -0.822164,3.10491 -0.281323,0.86089 -0.480999,1.59575 -0.443722,1.63302 0.03728,0.0373 0.34442,-0.11996 0.682543,-0.34941 1.379261,-0.936 3.369067,-0.91251 4.845172,0.0572 0.40676,0.26721 0.75059,0.49174 0.76408,0.49896 0.0135,0.007 -0.23289,-0.78071 -0.54751,-1.75096 z m 71.548612,-2.95781 c -1.81559,-0.38575 -3.32928,-1.65932 -3.89365,-3.27598 -0.45403,-1.30061 -0.40283,-3.63396 0.1049,-4.77995 0.48466,-1.09392 1.69591,-2.25022 2.80538,-2.6781 1.15842,-0.44675 3.55492,-0.44775 4.71077,-0.002 0.98726,0.38077 2.18829,1.43673 2.63905,2.32029 1.10281,2.16169 0.69815,5.34361 -0.89091,7.00539 -1.08932,1.13918 -3.64885,1.79843 -5.47554,1.41032 z m 2.41201,-2.61353 c 1.22498,-0.85801 1.37268,-4.26496 0.23986,-5.53281 -0.39309,-0.43994 -0.58625,-0.52044 -1.2487,-0.52044 -1.22815,0 -1.83895,0.72559 -2.05301,2.43883 -0.16634,1.33133 0.16148,2.78419 0.76421,3.38692 0.37518,0.37518 0.629,0.47481 1.20968,0.47481 0.40418,0 0.89376,-0.11129 1.08796,-0.24731 z m -17.82955,1.55242 v -0.88884 l 2.46552,-1.93798 c 2.74119,-2.15467 3.61002,-3.01834 3.61002,-3.58856 0,-1.34803 -1.94064,-1.73208 -3.47858,-0.68841 l -0.64352,0.43671 -1.25315,-0.62007 -1.25314,-0.62007 0.54863,-0.56605 c 0.30175,-0.31132 1.01471,-0.78141 1.58436,-1.04464 0.95675,-0.44211 1.19014,-0.47843 3.0609,-0.47628 1.76286,0.002 2.14011,0.054 2.91243,0.40103 0.95936,0.43112 1.82827,1.28773 1.99991,1.97161 0.0591,0.23538 0.071,0.80656 0.0266,1.26928 -0.11465,1.19316 -0.60373,1.75409 -3.76755,4.32102 l -0.66507,0.53961 2.4049,0.009 2.4049,0.009 v 1.18135 1.18136 h -4.97857 -4.97857 z M 75.416676,157.05166 c 0,-0.0444 0.150203,-1.01268 0.333782,-2.15176 0.517557,-3.21132 1.353869,-11.34455 1.353869,-13.16654 0,-0.19382 0.03756,-0.31483 0.08347,-0.26892 0.04591,0.0459 0.200707,1.55846 0.343997,3.36124 0.302768,3.80922 0.829528,8.48135 1.182104,10.4848 0.13551,0.76999 0.24649,1.49491 0.24661,1.61094 1.7e-4,0.15538 -0.466559,0.21096 -1.771798,0.21096 -0.974618,0 -1.772033,-0.0363 -1.772033,-0.0807 z"
       id="path304" /></g></svg>
