<?xml version="1.0" encoding="UTF-8" standalone="no"?>
<!-- Created with Inkscape (http://www.inkscape.org/) -->

<svg
   xmlns:dc="http://purl.org/dc/elements/1.1/"
   xmlns:cc="http://creativecommons.org/ns#"
   xmlns:rdf="http://www.w3.org/1999/02/22-rdf-syntax-ns#"
   xmlns:svg="http://www.w3.org/2000/svg"
   xmlns="http://www.w3.org/2000/svg"
   xmlns:sodipodi="http://sodipodi.sourceforge.net/DTD/sodipodi-0.dtd"
   xmlns:inkscape="http://www.inkscape.org/namespaces/inkscape"
   width="589.31873"
   height="541.12018"
   id="svg2"
   version="1.1"
   inkscape:version="0.48.3.1 r9886"
   sodipodi:docname="negotiation_protocol2.svg">
  <defs
     id="defs4">
    <marker
       inkscape:stockid="Arrow1Mend"
       orient="auto"
       refY="0"
       refX="0"
       id="Arrow1Mend"
       style="overflow:visible">
      <path
         id="path4001"
         d="M 0,0 5,-5 -12.5,0 5,5 0,0 z"
         style="fill-rule:evenodd;stroke:#000000;stroke-width:1pt"
         transform="matrix(-0.4,0,0,-0.4,-4,0)"
         inkscape:connector-curvature="0" />
    </marker>
    <marker
       inkscape:stockid="Arrow2Lend"
       orient="auto"
       refY="0"
       refX="0"
       id="Arrow2Lend"
       style="overflow:visible">
      <path
         id="path4013"
         style="fill-rule:evenodd;stroke-width:0.625;stroke-linejoin:round"
         d="M 8.7185878,4.0337352 -2.2072895,0.01601326 8.7185884,-4.0017078 c -1.7454984,2.3720609 -1.7354408,5.6174519 -6e-7,8.035443 z"
         transform="matrix(-1.1,0,0,-1.1,-1.1,0)"
         inkscape:connector-curvature="0" />
    </marker>
    <clipPath
       id="clipPath3001"
       clipPathUnits="userSpaceOnUse">
      <path
         id="path3003"
         d="m 0,4778 9580,0 L 9580,18 0,18 0,4778 z"
         inkscape:connector-curvature="0" />
    </clipPath>
    <marker
       inkscape:stockid="Arrow1Mend"
       orient="auto"
       refY="0"
       refX="0"
       id="Arrow1Mend-0"
       style="overflow:visible">
      <path
         inkscape:connector-curvature="0"
         id="path4001-1"
         d="M 0,0 5,-5 -12.5,0 5,5 0,0 z"
         style="fill-rule:evenodd;stroke:#000000;stroke-width:1pt"
         transform="matrix(-0.4,0,0,-0.4,-4,0)" />
    </marker>
    <marker
       inkscape:stockid="Arrow1Mend"
       orient="auto"
       refY="0"
       refX="0"
       id="Arrow1Mend-1"
       style="overflow:visible">
      <path
         inkscape:connector-curvature="0"
         id="path4001-8"
         d="M 0,0 5,-5 -12.5,0 5,5 0,0 z"
         style="fill-rule:evenodd;stroke:#000000;stroke-width:1pt"
         transform="matrix(-0.4,0,0,-0.4,-4,0)" />
    </marker>
    <marker
       inkscape:stockid="Arrow1Mend"
       orient="auto"
       refY="0"
       refX="0"
       id="Arrow1Mend-9"
       style="overflow:visible">
      <path
         inkscape:connector-curvature="0"
         id="path4001-5"
         d="M 0,0 5,-5 -12.5,0 5,5 0,0 z"
         style="fill-rule:evenodd;stroke:#000000;stroke-width:1pt"
         transform="matrix(-0.4,0,0,-0.4,-4,0)" />
    </marker>
    <clipPath
       id="clipPath3034"
       clipPathUnits="userSpaceOnUse">
      <path
         id="path3036"
         d="m 0,8242 5320,0 L 5320,12 0,12 0,8242 z"
         inkscape:connector-curvature="0" />
    </clipPath>
    <clipPath
       id="clipPath3083"
       clipPathUnits="userSpaceOnUse">
      <path
         id="path3085"
         d="m 0,8242 5320,0 L 5320,12 0,12 0,8242 z"
         inkscape:connector-curvature="0" />
    </clipPath>
    <clipPath
       id="clipPath3085"
       clipPathUnits="userSpaceOnUse">
      <path
         id="path3087"
         d="m 0,8242 5320,0 L 5320,12 0,12 0,8242 z"
         inkscape:connector-curvature="0" />
    </clipPath>
  </defs>
  <sodipodi:namedview
     id="base"
     pagecolor="#ffffff"
     bordercolor="#666666"
     borderopacity="1.0"
     inkscape:pageopacity="0.0"
     inkscape:pageshadow="2"
     inkscape:zoom="0.7"
     inkscape:cx="293.16665"
     inkscape:cy="38.742136"
     inkscape:document-units="px"
     inkscape:current-layer="layer1"
     showgrid="false"
     fit-margin-top="0"
     fit-margin-left="0"
     fit-margin-right="0"
     fit-margin-bottom="0"
     inkscape:window-width="1440"
     inkscape:window-height="876"
     inkscape:window-x="0"
     inkscape:window-y="24"
     inkscape:window-maximized="1" />
  <metadata
     id="metadata7">
    <rdf:RDF>
      <cc:Work
         rdf:about="">
        <dc:format>image/svg+xml</dc:format>
        <dc:type
           rdf:resource="http://purl.org/dc/dcmitype/StillImage" />
        <dc:title />
      </cc:Work>
    </rdf:RDF>
  </metadata>
  <g
     inkscape:label="Calque 1"
     inkscape:groupmode="layer"
     id="layer1"
     transform="translate(-1.391597,-153.36115)">
    <path
       id="path3091"
       style="fill:none;stroke:#000000;stroke-width:1.33329999;stroke-linecap:butt;stroke-linejoin:miter;stroke-miterlimit:10;stroke-opacity:1;stroke-dasharray:15.999625, 7.9998;stroke-dashoffset:0"
       d="m 144.7195,206.61295 0,487.20171"
       inkscape:connector-curvature="0"
       sodipodi:nodetypes="cc" />
    <path
       id="path3093"
       style="fill:#ffffff;fill-opacity:1;fill-rule:nonzero;stroke:none"
       d="m 68.723247,206.61295 151.997503,0 0,-51.91363 -151.997503,0 0,51.91363 z"
       inkscape:connector-curvature="0" />
    <path
       id="path3095"
       style="fill:none;stroke:#000000;stroke-width:2.66659999;stroke-linecap:square;stroke-linejoin:miter;stroke-miterlimit:10;stroke-opacity:1;stroke-dasharray:none"
       d="m 68.723247,206.61295 151.997503,0 0,-51.91363 -151.997503,0 0,51.91363 z"
       inkscape:connector-curvature="0" />
    <path
       id="path3097"
       style="fill:#000000;fill-opacity:1;fill-rule:nonzero;stroke:none"
       d="m 113.767,168.1567 -8.06625,2.87 8.06625,2.8375 0,1.435 -10.02375,-3.6475 0,-1.28875 10.02375,-3.6225 0,1.41625 z m 13.40375,0 -8.06125,2.87 8.06125,2.8375 0,1.435 -10.02,-3.6475 0,-1.28875 10.02,-3.6225 0,1.41625 z m 8.28125,0.45875 c -0.16625,-0.0888 -0.3425,-0.15125 -0.5325,-0.2 -0.185,-0.0487 -0.4,-0.0737 -0.635,-0.0737 -0.805,0 -1.425,0.26375 -1.865,0.79125 -0.435,0.5275 -0.65375,1.29375 -0.65375,2.295 l 0,4.59875 -1.44125,0 0,-8.75 1.44125,0 0,1.3575 c 0.3025,-0.52625 0.7025,-0.9225 1.18625,-1.17625 0.4875,-0.25875 1.07875,-0.38625 1.7725,-0.38625 0.0975,0 0.205,0.005 0.3225,0.02 0.11625,0.015 0.24375,0.0337 0.385,0.0637 l 0.02,1.46 z m 4.8925,-0.3375 c -0.76625,0 -1.3725,0.3025 -1.82625,0.90875 -0.44875,0.605 -0.67375,1.425 -0.67375,2.465 0,1.06 0.22,1.885 0.66375,2.48125 0.445,0.595 1.055,0.89875 1.83625,0.89875 0.76125,0 1.3725,-0.30375 1.82125,-0.90875 0.44875,-0.605 0.67875,-1.42625 0.67875,-2.47125 0,-1.025 -0.23,-1.845 -0.67875,-2.455 -0.44875,-0.61125 -1.06,-0.91875 -1.82125,-0.91875 z m 0,-1.20625 c 1.25,0 2.23125,0.40625 2.94375,1.21625 0.71875,0.815 1.075,1.93375 1.075,3.36375 0,1.43125 -0.35625,2.55875 -1.075,3.38 -0.7125,0.815 -1.69375,1.225 -2.94375,1.225 -1.25,0 -2.23625,-0.41 -2.94875,-1.225 -0.71875,-0.82125 -1.075,-1.94875 -1.075,-3.38 0,-1.43 0.35625,-2.54875 1.075,-3.36375 0.7125,-0.81 1.69875,-1.21625 2.94875,-1.21625 z m 6.39125,-3.2075 1.43625,0 0,12.1625 -1.43625,0 0,-12.1625 z m 11.94375,7.43625 0,0.68875 -6.62625,0 c 0.0738,1.00125 0.37625,1.7575 0.90875,2.27 0.53625,0.51375 1.27375,0.7725 2.21625,0.7725 0.55625,0 1.09375,-0.0687 1.61625,-0.20125 0.5225,-0.13125 1.04,-0.33625 1.5525,-0.615 l 0,1.3775 c -0.5275,0.205 -1.06375,0.37125 -1.60625,0.4875 -0.5375,0.1175 -1.08875,0.17625 -1.645,0.17625 -1.3875,0 -2.49,-0.405 -3.31125,-1.21625 -0.82,-0.815 -1.23,-1.91375 -1.23,-3.305 0,-1.42625 0.39,-2.56375 1.16625,-3.40375 0.78125,-0.84 1.8225,-1.26 3.125,-1.26 1.1825,0 2.115,0.37625 2.80375,1.13375 0.6875,0.75625 1.03,1.79125 1.03,3.095 z m -1.43625,-0.43875 c -0.0137,-0.77625 -0.23375,-1.40125 -0.66875,-1.875 -0.42875,-0.46875 -0.99625,-0.70875 -1.70875,-0.70875 -0.80125,0 -1.445,0.23 -1.92375,0.68875 -0.47875,0.45875 -0.7525,1.09875 -0.825,1.91875 l 5.12625,-0.0237 z m 3.97,-2.705 0,-1.41625 10.02,3.6225 0,1.28875 -10.02,3.6475 0,-1.435 8.06125,-2.8375 -8.06125,-2.87 z m 13.40375,0 0,-1.41625 10.01875,3.6225 0,1.28875 -10.01875,3.6475 0,-1.435 8.06125,-2.8375 -8.06125,-2.87 z"
       inkscape:connector-curvature="0" />
    <path
       id="path3099"
       style="fill:#000000;fill-opacity:1;fill-rule:nonzero;stroke:none"
       d="m 89.328247,186.09045 0,-4.75125 1.43625,0 0,12.16875 -1.43625,0 0,-1.31375 c -0.3075,0.5125 -0.6875,0.89875 -1.1475,1.1575 -0.45875,0.25375 -1.01,0.38125 -1.665,0.38125 -1.05375,0 -1.918875,-0.42 -2.5825,-1.27 -0.669,-0.845 -1.0015,-1.95875 -1.0015,-3.33 0,-1.3775 0.3325,-2.485 1.0015,-3.325 0.663625,-0.84 1.52875,-1.26 2.5825,-1.26 0.655,0 1.20625,0.12625 1.665,0.37625 0.46,0.24875 0.84,0.63875 1.1475,1.16625 z m -4.8975,3.0425 c 0,1.055 0.214875,1.885 0.65,2.485 0.430125,0.60625 1.024875,0.90875 1.7875,0.90875 0.76625,0 1.36625,-0.3025 1.80125,-0.90875 0.44,-0.6 0.65875,-1.43 0.65875,-2.485 0,-1.06 -0.21875,-1.885 -0.65875,-2.48125 -0.435,-0.595 -1.035,-0.8975 -1.80125,-0.8975 -0.762625,0 -1.357375,0.3025 -1.7875,0.8975 -0.435125,0.59625 -0.65,1.42125 -0.65,2.48125 z m 14.36625,-3.0425 c -0.16625,-0.0825 -0.3425,-0.15125 -0.5325,-0.2 -0.18625,-0.0487 -0.4,-0.0737 -0.635,-0.0737 -0.80625,0 -1.42625,0.26375 -1.865,0.79125 -0.435,0.5275 -0.655,1.29375 -0.655,2.295 l 0,4.605 -1.44,0 0,-8.75 1.44,0 0,1.3525 c 0.30375,-0.5275 0.69875,-0.9225 1.1875,-1.1775 0.4875,-0.25875 1.07375,-0.385 1.7725,-0.385 0.0975,0 0.205,0.005 0.32125,0.0188 0.1175,0.015 0.245,0.035 0.38625,0.0637 l 0.02,1.46 z m 1.493753,-1.3325 1.44,0 0,8.75 -1.44,0 0,-8.75 z m 0,-3.41875 1.44,0 0,1.83125 -1.44,0 0,-1.83125 z m 3.4225,3.41875 1.52375,0 2.73,7.32875 2.74875,-7.32875 1.52375,0 -3.29625,8.75 -1.95875,0 -3.27125,-8.75 z m 17.99375,4.01875 0,0.6875 -6.62625,0 c 0.0688,1.00125 0.37125,1.75875 0.90375,2.27125 0.53625,0.5125 1.27375,0.77125 2.22125,0.77125 0.55625,0 1.09375,-0.0687 1.61625,-0.2 0.5175,-0.1325 1.035,-0.3375 1.5475,-0.615 l 0,1.37625 c -0.5275,0.21 -1.05875,0.37125 -1.60125,0.48875 -0.5425,0.1175 -1.08875,0.17625 -1.645,0.17625 -1.3925,0 -2.49625,-0.40625 -3.31625,-1.21625 -0.815,-0.815 -1.225,-1.91375 -1.225,-3.30125 0,-1.43 0.385,-2.5675 1.16625,-3.4075 0.77625,-0.84 1.81625,-1.26 3.125,-1.26 1.1775,0 2.115,0.37625 2.79875,1.1325 0.6875,0.7575 1.035,1.7925 1.035,3.09625 z m -1.44125,-0.44 c -0.0138,-0.77625 -0.23375,-1.40125 -0.66375,-1.875 -0.43,-0.46875 -1.00125,-0.7075 -1.70875,-0.7075 -0.80625,0 -1.45,0.22875 -1.92875,0.6875 -0.47875,0.46 -0.7525,1.09875 -0.82,1.92 l 5.12125,-0.025 z m 8.8675,-2.24625 c -0.16625,-0.0825 -0.34625,-0.15125 -0.5325,-0.2 -0.19,-0.0487 -0.4,-0.0737 -0.63375,-0.0737 -0.80625,0 -1.43125,0.26375 -1.86625,0.79125 -0.43875,0.5275 -0.65875,1.29375 -0.65875,2.295 l 0,4.605 -1.435,0 0,-8.75 1.435,0 0,1.3525 c 0.3075,-0.5275 0.70375,-0.9225 1.19125,-1.1775 0.48375,-0.25875 1.075,-0.385 1.7675,-0.385 0.0975,0 0.205,0.005 0.3225,0.0188 0.1225,0.015 0.24875,0.035 0.38625,0.0637 l 0.0238,1.46 z m 6.95375,5.435 1.645,0 0,1.9825 -1.645,0 0,-1.9825 z m 0,-6.28875 1.645,0 0,1.9775 -1.645,0 0,-1.9775 z m 11.7475,-2.105 0,4.395 1.9775,0 c 0.7375,0 1.30875,-0.19125 1.70875,-0.57125 0.40625,-0.38625 0.60625,-0.92875 0.60625,-1.63625 0,-0.69375 -0.2,-1.235 -0.60625,-1.61625 -0.4,-0.38125 -0.97125,-0.57125 -1.70875,-0.57125 l -1.9775,0 z m -1.5825,-1.29375 3.56,0 c 1.32375,0 2.315,0.2975 2.97875,0.88875 0.66875,0.58625 1.00125,1.455 1.00125,2.5925 0,1.1525 -0.3325,2.02125 -1.00125,2.6125 -0.66375,0.59125 -1.655,0.88875 -2.97875,0.88875 l -1.9775,0 0,4.6875 -1.5825,0 0,-11.67 z m 13.565,7.27 c -1.1525,0 -1.9575,0.1325 -2.4075,0.39625 -0.44875,0.26375 -0.67875,0.7175 -0.67875,1.3575 0,0.5125 0.17125,0.9175 0.5125,1.215 0.3425,0.29875 0.79625,0.45 1.3625,0.45 0.80625,0 1.45,-0.28375 1.92875,-0.845 0.47875,-0.56125 0.7175,-1.31375 0.7175,-2.26125 l 0,-0.3125 -1.435,0 z m 2.87625,-0.6 0,5 -1.44125,0 0,-1.3375 c -0.33125,0.53125 -0.74125,0.9225 -1.23,1.18125 -0.48375,0.25375 -1.07875,0.38125 -1.7875,0.38125 -0.9025,0 -1.62,-0.25 -2.1475,-0.7575 -0.5275,-0.5075 -0.79125,-1.17625 -0.79125,-2.01125 0,-0.98625 0.33125,-1.72875 0.99125,-2.23125 0.65875,-0.49875 1.64,-0.7475 2.94375,-0.7475 l 2.02125,0 0,-0.14625 c 0,-0.665 -0.21875,-1.1825 -0.65375,-1.54375 -0.44,-0.36125 -1.045,-0.54125 -1.82625,-0.54125 -0.4975,0 -0.98625,0.0625 -1.465,0.19 -0.47875,0.1225 -0.9375,0.3025 -1.3675,0.5425 l 0,-1.33375 c 0.5275,-0.21 1.04125,-0.36125 1.53375,-0.45875 0.49375,-0.0975 0.97625,-0.14625 1.445,-0.14625 1.265,0 2.2125,0.3275 2.8375,0.97625 0.625,0.655 0.9375,1.65 0.9375,2.98375 z m 8.0325,-2.4175 c -0.16625,-0.0825 -0.3475,-0.15125 -0.5325,-0.2 -0.18625,-0.0487 -0.4,-0.0737 -0.635,-0.0737 -0.80625,0 -1.42625,0.26375 -1.865,0.79125 -0.44,0.5275 -0.655,1.29375 -0.655,2.295 l 0,4.605 -1.44,0 0,-8.75 1.44,0 0,1.3525 c 0.30375,-0.5275 0.69875,-0.9225 1.1875,-1.1775 0.4825,-0.25875 1.07375,-0.385 1.7725,-0.385 0.0925,0 0.205,0.005 0.32125,0.0188 0.1175,0.015 0.245,0.035 0.38625,0.0637 l 0.02,1.46 z m 2.92875,-3.81375 0,2.48125 2.96,0 0,1.1225 -2.96,0 0,4.75125 c 0,0.7075 0.0975,1.1625 0.29375,1.3625 0.195,0.2 0.59,0.3025 1.18625,0.3025 l 1.48,0 0,1.21125 -1.48,0 c -1.10875,0 -1.875,-0.21 -2.3,-0.625 -0.425,-0.42 -0.635,-1.1675 -0.635,-2.25125 l 0,-4.75125 -1.045,0 0,-1.1225 1.045,0 0,-2.48125 1.455,0 z m 12.12875,5.9375 0,5.29375 -1.435,0 0,-5.23 c 0,-0.835 -0.16625,-1.455 -0.4925,-1.865 -0.3225,-0.41 -0.80625,-0.615 -1.44625,-0.615 -0.77625,0 -1.39125,0.24375 -1.845,0.7375 -0.45,0.4925 -0.67375,1.17125 -0.67375,2.03125 l 0,4.94125 -1.44125,0 0,-8.75 1.44125,0 0,1.3525 c 0.34625,-0.5275 0.75125,-0.9225 1.215,-1.1775 0.46875,-0.25875 1.00625,-0.385 1.61625,-0.385 1.00125,0 1.75875,0.3075 2.28,0.9275 0.5225,0.615 0.78125,1.52875 0.78125,2.73875 z m 10.3475,0.5625 0,0.6875 -6.62125,0 c 0.0687,1.00125 0.37125,1.75875 0.90375,2.27125 0.53625,0.5125 1.27375,0.77125 2.22125,0.77125 0.55125,0 1.09375,-0.0687 1.61125,-0.2 0.5225,-0.1325 1.04,-0.3375 1.5525,-0.615 l 0,1.37625 c -0.5275,0.21 -1.05875,0.37125 -1.60125,0.48875 -0.5425,0.1175 -1.09375,0.17625 -1.645,0.17625 -1.3925,0 -2.49625,-0.40625 -3.31625,-1.21625 -0.82,-0.815 -1.225,-1.91375 -1.225,-3.30125 0,-1.43 0.385,-2.5675 1.16125,-3.4075 0.78125,-0.84 1.82125,-1.26 3.125,-1.26 1.1825,0 2.115,0.37625 2.80375,1.1325 0.6875,0.7575 1.03,1.7925 1.03,3.09625 z m -1.43625,-0.44 c -0.0138,-0.77625 -0.23375,-1.40125 -0.66375,-1.875 -0.435,-0.46875 -1.00125,-0.7075 -1.70875,-0.7075 -0.80625,0 -1.45,0.22875 -1.92875,0.6875 -0.47875,0.46 -0.7525,1.09875 -0.82,1.92 l 5.12125,-0.025 z m 8.8625,-2.24625 c -0.16625,-0.0825 -0.34125,-0.15125 -0.5275,-0.2 -0.19,-0.0487 -0.4,-0.0737 -0.63375,-0.0737 -0.80625,0 -1.43125,0.26375 -1.86625,0.79125 -0.43875,0.5275 -0.65875,1.29375 -0.65875,2.295 l 0,4.605 -1.435,0 0,-8.75 1.435,0 0,1.3525 c 0.3075,-0.5275 0.7025,-0.9225 1.19125,-1.1775 0.48375,-0.25875 1.07375,-0.385 1.7675,-0.385 0.0975,0 0.205,0.005 0.3225,0.0188 0.1175,0.015 0.24875,0.035 0.38625,0.0637 l 0.0187,1.46 z"
       inkscape:connector-curvature="0" />
    <path
       id="path3101"
       style="fill:none;stroke:#000000;stroke-width:1.33329999;stroke-linecap:butt;stroke-linejoin:miter;stroke-miterlimit:10;stroke-opacity:1;stroke-dasharray:15.999625, 7.9998;stroke-dashoffset:0"
       d="m 516.047,206.61295 0,483.58449"
       inkscape:connector-curvature="0"
       sodipodi:nodetypes="cc" />
    <path
       id="path3103"
       style="fill:#ffffff;fill-opacity:1;fill-rule:nonzero;stroke:none"
       d="m 442.717,206.61295 146.66,0 0,-51.9185 -146.66,0 0,51.9185 z"
       inkscape:connector-curvature="0" />
    <path
       id="path3105"
       style="fill:none;stroke:#000000;stroke-width:2.66659999;stroke-linecap:square;stroke-linejoin:miter;stroke-miterlimit:10;stroke-opacity:1;stroke-dasharray:none"
       d="m 442.717,206.61295 146.66,0 0,-51.9185 -146.66,0 0,51.9185 z"
       inkscape:connector-curvature="0" />
    <path
       id="path3107"
       style="fill:#000000;fill-opacity:1;fill-rule:nonzero;stroke:none"
       d="m 485.09075,168.1567 -8.06125,2.87 8.06125,2.8375 0,1.435 -10.02,-3.6475 0,-1.28875 10.02,-3.6225 0,1.41625 z m 13.4025,0 -8.06125,2.87 8.06125,2.8375 0,1.435 -10.01875,-3.6475 0,-1.28875 10.01875,-3.6225 0,1.41625 z m 8.28125,0.45875 c -0.165,-0.0888 -0.34125,-0.15125 -0.53125,-0.2 -0.18625,-0.0487 -0.39625,-0.0737 -0.635,-0.0737 -0.80625,0 -1.42625,0.26375 -1.865,0.79125 -0.435,0.5275 -0.655,1.29375 -0.655,2.295 l 0,4.59875 -1.435,0 0,-8.75 1.435,0 0,1.3575 c 0.3075,-0.52625 0.70375,-0.9225 1.18625,-1.17625 0.48875,-0.25875 1.08,-0.38625 1.7725,-0.38625 0.0987,0 0.205,0.005 0.3225,0.02 0.1175,0.015 0.24875,0.0337 0.38625,0.0637 l 0.0188,1.46 z m 4.89375,-0.3375 c -0.7675,0 -1.3725,0.3025 -1.82625,0.90875 -0.45,0.605 -0.67375,1.425 -0.67375,2.465 0,1.06 0.21875,1.885 0.66375,2.48125 0.44375,0.595 1.05375,0.89875 1.83625,0.89875 0.76125,0 1.37125,-0.30375 1.82125,-0.90875 0.45375,-0.605 0.67875,-1.42625 0.67875,-2.47125 0,-1.025 -0.225,-1.845 -0.67875,-2.455 -0.45,-0.61125 -1.06,-0.91875 -1.82125,-0.91875 z m 0,-1.20625 c 1.25,0 2.23125,0.40625 2.94875,1.21625 0.7125,0.815 1.06875,1.93375 1.06875,3.36375 0,1.43125 -0.35625,2.55875 -1.06875,3.38 -0.7175,0.815 -1.69875,1.225 -2.94875,1.225 -1.25,0 -2.2325,-0.41 -2.95,-1.225 -0.7125,-0.82125 -1.07375,-1.94875 -1.07375,-3.38 0,-1.43 0.36125,-2.54875 1.07375,-3.36375 0.7175,-0.81 1.7,-1.21625 2.95,-1.21625 z m 6.39125,-3.2075 1.435,0 0,12.1625 -1.435,0 0,-12.1625 z m 11.9425,7.43625 0,0.68875 -6.62,0 c 0.0675,1.00125 0.37,1.7575 0.9025,2.27 0.5375,0.51375 1.275,0.7725 2.2225,0.7725 0.55125,0 1.09375,-0.0687 1.61125,-0.20125 0.5225,-0.13125 1.04,-0.33625 1.5525,-0.615 l 0,1.3775 c -0.5275,0.205 -1.06,0.37125 -1.60125,0.4875 -0.5425,0.1175 -1.09375,0.17625 -1.64625,0.17625 -1.39125,0 -2.495,-0.405 -3.315,-1.21625 -0.82,-0.815 -1.23125,-1.91375 -1.23125,-3.305 0,-1.42625 0.39125,-2.56375 1.1675,-3.40375 0.78125,-0.84 1.82125,-1.26 3.125,-1.26 1.18125,0 2.11375,0.37625 2.8025,1.13375 0.68875,0.75625 1.03,1.79125 1.03,3.095 z m -1.435,-0.43875 c -0.015,-0.77625 -0.23375,-1.40125 -0.66375,-1.875 -0.435,-0.46875 -1.00125,-0.70875 -1.70875,-0.70875 -0.80625,0 -1.45125,0.23 -1.92875,0.68875 -0.47875,0.45875 -0.7525,1.09875 -0.82625,1.91875 l 5.1275,-0.0237 z m 3.97,-2.705 0,-1.41625 10.01875,3.6225 0,1.28875 -10.01875,3.6475 0,-1.435 8.06125,-2.8375 -8.06125,-2.87 z m 13.4025,0 0,-1.41625 10.025,3.6225 0,1.28875 -10.025,3.6475 0,-1.435 8.0675,-2.8375 -8.0675,-2.87 z"
       inkscape:connector-curvature="0" />
    <path
       id="path3109"
       style="fill:#000000;fill-opacity:1;fill-rule:nonzero;stroke:none"
       d="m 474.2745,192.1942 0,4.64375 -1.435,0 0,-12.08 1.435,0 0,1.3325 c 0.30875,-0.5275 0.68875,-0.9175 1.1475,-1.16625 0.46,-0.25 1.00625,-0.37625 1.64625,-0.37625 1.06875,0 1.93875,0.42 2.6025,1.26 0.66875,0.84 1.00125,1.9475 1.00125,3.325 0,1.37125 -0.3325,2.485 -1.00125,3.33 -0.66375,0.85 -1.53375,1.27 -2.6025,1.27 -0.64,0 -1.18625,-0.1275 -1.64625,-0.38125 -0.45875,-0.25875 -0.83875,-0.645 -1.1475,-1.1575 z m 4.8975,-3.06125 c 0,-1.06 -0.21875,-1.885 -0.65375,-2.48125 -0.44,-0.595 -1.035,-0.8975 -1.7825,-0.8975 -0.76625,0 -1.3675,0.3025 -1.80125,0.8975 -0.44,0.59625 -0.66,1.42125 -0.66,2.48125 0,1.055 0.22,1.885 0.66,2.485 0.43375,0.60625 1.035,0.90875 1.80125,0.90875 0.7475,0 1.3425,-0.3025 1.7825,-0.90875 0.435,-0.6 0.65375,-1.43 0.65375,-2.485 z m 9.32625,2.3925 1.64625,0 0,1.9825 -1.64625,0 0,-1.9825 z m 0,-6.28875 1.64625,0 0,1.9775 -1.64625,0 0,-1.9775 z m 11.74875,-2.105 0,4.395 1.9775,0 c 0.7375,0 1.30375,-0.19125 1.70875,-0.57125 0.4,-0.38625 0.605,-0.92875 0.605,-1.63625 0,-0.69375 -0.205,-1.235 -0.605,-1.61625 -0.405,-0.38125 -0.97125,-0.57125 -1.70875,-0.57125 l -1.9775,0 z m -1.5875,-1.29375 3.565,0 c 1.31875,0 2.31375,0.2975 2.97875,0.88875 0.66875,0.58625 1,1.455 1,2.5925 0,1.1525 -0.33125,2.02125 -1,2.6125 -0.665,0.59125 -1.66,0.88875 -2.97875,0.88875 l -1.9775,0 0,4.6875 -1.5875,0 0,-11.67 z m 13.565,7.27 c -1.1525,0 -1.95375,0.1325 -2.4025,0.39625 -0.45375,0.26375 -0.67875,0.7175 -0.67875,1.3575 0,0.5125 0.17125,0.9175 0.5125,1.215 0.3375,0.29875 0.79125,0.45 1.3625,0.45 0.805,0 1.45,-0.28375 1.92875,-0.845 0.47875,-0.56125 0.7175,-1.31375 0.7175,-2.26125 l 0,-0.3125 -1.44,0 z m 2.87625,-0.6 0,5 -1.43625,0 0,-1.3375 c -0.33125,0.53125 -0.7425,0.9225 -1.23,1.18125 -0.48375,0.25375 -1.08375,0.38125 -1.7925,0.38125 -0.9025,0 -1.61625,-0.25 -2.14375,-0.7575 -0.5275,-0.5075 -0.79,-1.17625 -0.79,-2.01125 0,-0.98625 0.32625,-1.72875 0.98625,-2.23125 0.65875,-0.49875 1.645,-0.7475 2.94875,-0.7475 l 2.02125,0 0,-0.14625 c 0,-0.665 -0.22,-1.1825 -0.65875,-1.54375 -0.435,-0.36125 -1.045,-0.54125 -1.82125,-0.54125 -0.49875,0 -0.99125,0.0625 -1.47,0.19 -0.47875,0.1225 -0.9325,0.3025 -1.3625,0.5425 l 0,-1.33375 c 0.5275,-0.21 1.04,-0.36125 1.52875,-0.45875 0.4925,-0.0975 0.97625,-0.14625 1.45,-0.14625 1.265,0 2.2075,0.3275 2.8325,0.97625 0.625,0.655 0.9375,1.65 0.9375,2.98375 z m 8.03625,-2.4175 c -0.17,-0.0825 -0.34625,-0.15125 -0.53125,-0.2 -0.19125,-0.0487 -0.40125,-0.0737 -0.635,-0.0737 -0.80625,0 -1.43125,0.26375 -1.865,0.79125 -0.44,0.5275 -0.66,1.29375 -0.66,2.295 l 0,4.605 -1.435,0 0,-8.75 1.435,0 0,1.3525 c 0.3075,-0.5275 0.70375,-0.9225 1.19125,-1.1775 0.48375,-0.25875 1.075,-0.385 1.7675,-0.385 0.0975,0 0.205,0.005 0.3225,0.0188 0.1225,0.015 0.24875,0.035 0.38625,0.0637 l 0.0237,1.46 z m 2.93,-3.81375 0,2.48125 2.95875,0 0,1.1225 -2.95875,0 0,4.75125 c 0,0.7075 0.0975,1.1625 0.2925,1.3625 0.19625,0.2 0.59125,0.3025 1.1875,0.3025 l 1.47875,0 0,1.21125 -1.47875,0 c -1.11375,0 -1.88,-0.21 -2.3,-0.625 -0.425,-0.42 -0.64,-1.1675 -0.64,-2.25125 l 0,-4.75125 -1.04,0 0,-1.1225 1.04,0 0,-2.48125 1.46,0 z m 12.12875,5.9375 0,5.29375 -1.44,0 0,-5.23 c 0,-0.835 -0.16125,-1.455 -0.48875,-1.865 -0.3275,-0.41 -0.81,-0.615 -1.445,-0.615 -0.78125,0 -1.39625,0.24375 -1.84625,0.7375 -0.44875,0.4925 -0.67875,1.17125 -0.67875,2.03125 l 0,4.94125 -1.435,0 0,-8.75 1.435,0 0,1.3525 c 0.3475,-0.5275 0.7575,-0.9225 1.22125,-1.1775 0.46375,-0.25875 1.00125,-0.385 1.61625,-0.385 0.99625,0 1.7575,0.3075 2.28,0.9275 0.5175,0.615 0.78125,1.52875 0.78125,2.73875 z m 10.3475,0.5625 0,0.6875 -6.62625,0 c 0.0725,1.00125 0.37125,1.75875 0.9075,2.27125 0.5325,0.5125 1.275,0.77125 2.2175,0.77125 0.55625,0 1.09375,-0.0687 1.61625,-0.2 0.5225,-0.1325 1.04,-0.3375 1.5525,-0.615 l 0,1.37625 c -0.5275,0.21 -1.065,0.37125 -1.60625,0.48875 -0.5425,0.1175 -1.08875,0.17625 -1.64625,0.17625 -1.38625,0 -2.49,-0.40625 -3.31,-1.21625 -0.82,-0.815 -1.23,-1.91375 -1.23,-3.30125 0,-1.43 0.39,-2.5675 1.16625,-3.4075 0.77625,-0.84 1.82125,-1.26 3.125,-1.26 1.18125,0 2.11375,0.37625 2.8025,1.1325 0.68875,0.7575 1.03125,1.7925 1.03125,3.09625 z m -1.43625,-0.44 c -0.015,-0.77625 -0.23875,-1.40125 -0.66875,-1.875 -0.43,-0.46875 -1.00125,-0.7075 -1.70875,-0.7075 -0.80625,0 -1.44625,0.22875 -1.92375,0.6875 -0.47875,0.46 -0.7575,1.09875 -0.825,1.92 l 5.12625,-0.025 z m 8.8625,-2.24625 c -0.16625,-0.0825 -0.3425,-0.15125 -0.5325,-0.2 -0.185,-0.0487 -0.395,-0.0737 -0.635,-0.0737 -0.805,0 -1.425,0.26375 -1.865,0.79125 -0.435,0.5275 -0.65375,1.29375 -0.65375,2.295 l 0,4.605 -1.43625,0 0,-8.75 1.43625,0 0,1.3525 c 0.3075,-0.5275 0.7025,-0.9225 1.18625,-1.1775 0.48875,-0.25875 1.07875,-0.385 1.7725,-0.385 0.0975,0 0.205,0.005 0.3225,0.0188 0.11625,0.015 0.24375,0.035 0.385,0.0637 l 0.02,1.46 z"
       inkscape:connector-curvature="0" />
    <path
       id="path3111"
       style="fill:#ffffff;fill-opacity:1;fill-rule:nonzero;stroke:none"
       d="m 151.3895,347.3467 13.335,0 0,-33.33013 -13.335,0 0,33.33013 z"
       inkscape:connector-curvature="0" />
    <path
       id="path3113"
       style="fill:none;stroke:#000000;stroke-width:1.33329999;stroke-linecap:square;stroke-linejoin:miter;stroke-miterlimit:10;stroke-opacity:1;stroke-dasharray:none"
       d="m 151.3895,347.3467 13.335,0 0,-33.33013 -13.335,0 0,33.33013 z"
       inkscape:connector-curvature="0" />
    <path
       id="path3123"
       style="fill:#ffffff;fill-opacity:1;fill-rule:nonzero;stroke:none"
       d="m 138.0545,680.95751 13.335,0 0,-408.92943 -13.335,0 z"
       inkscape:connector-curvature="0"
       sodipodi:nodetypes="ccccc" />
    <path
       id="path3125"
       style="fill:none;stroke:#000000;stroke-width:1.33329999;stroke-linecap:square;stroke-linejoin:miter;stroke-miterlimit:10;stroke-opacity:1;stroke-dasharray:none"
       d="m 138.0545,682.38609 13.335,0 0,-410.35801 -13.335,0 z"
       inkscape:connector-curvature="0"
       sodipodi:nodetypes="ccccc" />
    <path
       id="path3233"
       style="fill:#000000;fill-opacity:1;fill-rule:nonzero;stroke:none"
       d="m 250.867,304.37295 c -1.1525,0 -1.95875,0.13125 -2.4075,0.395 -0.44875,0.26375 -0.67875,0.71875 -0.67875,1.3525 0,0.51875 0.17125,0.92375 0.5125,1.22125 0.3425,0.2975 0.79625,0.44875 1.3625,0.44875 0.80625,0 1.45,-0.2825 1.92875,-0.84375 0.47875,-0.5625 0.7175,-1.31875 0.7175,-2.26125 l 0,-0.3125 -1.435,0 z m 2.87625,-0.605 0,5 -1.44125,0 0,-1.33375 c -0.33125,0.5275 -0.74125,0.92375 -1.23,1.1775 -0.48375,0.25875 -1.07875,0.385 -1.7875,0.385 -0.9025,0 -1.62125,-0.25375 -2.14875,-0.76125 -0.52625,-0.5025 -0.79,-1.1775 -0.79,-2.0075 0,-0.98625 0.33125,-1.7275 0.99125,-2.23125 0.65875,-0.4975 1.64,-0.74625 2.94375,-0.74625 l 2.02125,0 0,-0.1475 c 0,-0.66875 -0.21875,-1.18125 -0.65375,-1.5425 -0.44,-0.36125 -1.045,-0.5425 -1.82625,-0.5425 -0.49875,0 -0.98625,0.0637 -1.465,0.18625 -0.47875,0.12625 -0.9375,0.3075 -1.3675,0.54125 l 0,-1.3325 c 0.5275,-0.205 1.04,-0.36125 1.53375,-0.45875 0.4925,-0.0925 0.97625,-0.14125 1.445,-0.14125 1.265,0 2.2125,0.32125 2.8375,0.97625 0.625,0.65375 0.9375,1.645 0.9375,2.97875 z m 8.2225,-2.27125 10.01875,0 0,1.31375 -10.01875,0 0,-1.31375 z m 0,3.18875 10.01875,0 0,1.3325 -10.01875,0 0,-1.3325 z m 24.61375,-4.33125 0,1.3525 c -0.415,-0.23375 -0.825,-0.41 -1.225,-0.5225 -0.40625,-0.1125 -0.81625,-0.16625 -1.23125,-0.16625 -0.94625,0 -1.675,0.29875 -2.1875,0.88375 -0.5125,0.59125 -0.77125,1.42125 -0.77125,2.49125 0,1.06875 0.25875,1.89875 0.77125,2.49 0.5125,0.59125 1.24125,0.88375 2.1875,0.88375 0.415,0 0.825,-0.0538 1.23125,-0.16625 0.4,-0.1075 0.81,-0.27875 1.225,-0.4975 l 0,1.3325 c -0.4,0.18125 -0.82,0.3175 -1.25,0.415 -0.43,0.0975 -0.88875,0.14625 -1.37125,0.14625 -1.32375,0 -2.36875,-0.41 -3.15,-1.24 -0.77625,-0.825 -1.1625,-1.94875 -1.1625,-3.36375 0,-1.41625 0.39125,-2.535 1.1775,-3.355 0.78125,-0.815 1.86,-1.225 3.2375,-1.225 0.42875,0 0.85875,0.0438 1.27875,0.13125 0.425,0.0925 0.84,0.23 1.24,0.41 z m 9.77625,3.125 0,5.28875 -1.43625,0 0,-5.23 c 0,-0.83 -0.16125,-1.455 -0.48875,-1.865 -0.32625,-0.405 -0.81,-0.61 -1.45,-0.61 -0.77625,0 -1.39125,0.24375 -1.84,0.73625 -0.455,0.49375 -0.67875,1.1725 -0.67875,2.03125 l 0,4.9375 -1.43625,0 0,-12.16375 1.43625,0 0,4.77125 c 0.34625,-0.5275 0.75125,-0.92375 1.22,-1.1775 0.46375,-0.25875 1.00125,-0.385 1.61125,-0.385 1.00125,0 1.7625,0.3075 2.28,0.9225 0.5225,0.62 0.7825,1.5325 0.7825,2.74375 z m 10.35125,0.56125 0,0.68875 -6.62625,0 c 0.0687,0.99625 0.37125,1.75375 0.90875,2.27125 0.53125,0.5125 1.27375,0.76625 2.21625,0.76625 0.55625,0 1.09375,-0.0638 1.61625,-0.195 0.5175,-0.1325 1.035,-0.3375 1.5475,-0.61625 l 0,1.3775 c -0.5275,0.205 -1.05875,0.37125 -1.60125,0.48875 -0.5425,0.11625 -1.08875,0.175 -1.645,0.175 -1.3925,0 -2.49625,-0.405 -3.31125,-1.215 -0.82,-0.81625 -1.23,-1.915 -1.23,-3.30625 0,-1.43 0.385,-2.56375 1.16625,-3.40375 0.77625,-0.83875 1.81625,-1.25875 3.125,-1.25875 1.1825,0 2.115,0.375 2.80375,1.1325 0.6825,0.75625 1.03,1.7875 1.03,3.095 z m -1.44125,-0.43875 c -0.009,-0.77625 -0.23375,-1.40125 -0.66375,-1.875 -0.43,-0.47375 -1.00125,-0.70875 -1.70875,-0.70875 -0.80625,0 -1.45,0.23 -1.92875,0.68875 -0.47875,0.45875 -0.7525,1.09875 -0.82,1.91375 l 5.12125,-0.0187 z m 10.09875,-3.2475 0,1.3525 c -0.42,-0.23375 -0.83125,-0.41 -1.23125,-0.5225 -0.405,-0.1125 -0.815,-0.16625 -1.23,-0.16625 -0.9425,0 -1.675,0.29875 -2.1875,0.88375 -0.5125,0.59125 -0.77125,1.42125 -0.77125,2.49125 0,1.06875 0.25875,1.89875 0.77125,2.49 0.5125,0.59125 1.245,0.88375 2.1875,0.88375 0.415,0 0.825,-0.0538 1.23,-0.16625 0.4,-0.1075 0.81125,-0.27875 1.23125,-0.4975 l 0,1.3325 c -0.40625,0.18125 -0.82125,0.3175 -1.25,0.415 -0.435,0.0975 -0.89375,0.14625 -1.3775,0.14625 -1.31875,0 -2.36875,-0.41 -3.145,-1.24 -0.78125,-0.825 -1.16625,-1.94875 -1.16625,-3.36375 0,-1.41625 0.39,-2.535 1.17625,-3.355 0.78625,-0.815 1.865,-1.225 3.2375,-1.225 0.43,0 0.85875,0.0438 1.28375,0.13125 0.42,0.0925 0.835,0.23 1.24125,0.41 z m 2.44125,-3.75 1.435,0 0,7.1875 4.2925,-3.77375 1.835,0 -4.6475,4.08625 4.8525,4.66375 -1.875,0 -4.4575,-4.2675 0,4.2675 -1.435,0 0,-12.16375 z m 7.76375,0.49875 9.8525,0 0,1.3325 -4.125,0 0,10.3325 -1.5825,0 0,-10.3325 -4.145,0 0,-1.3325 z m 10.35625,0 1.58125,0 2.46125,9.8525 2.43625,-9.8525 1.7725,0 2.45625,9.8525 2.43625,-9.8525 1.6075,0 -2.91625,11.665 -2.00125,0 -2.45625,-10.1225 -2.48,10.1225 -1.9825,0 -2.915,-11.665 z m 20.23875,-0.47875 c -0.6975,1.19125 -1.21625,2.3775 -1.5525,3.55 -0.34125,1.17625 -0.5125,2.3675 -0.5125,3.57375 0,1.19625 0.17125,2.3825 0.5125,3.565 0.33625,1.17625 0.855,2.3675 1.5525,3.55875 l -1.25,0 c -0.78125,-1.22 -1.3625,-2.42125 -1.7525,-3.60375 -0.38625,-1.18125 -0.58125,-2.3525 -0.58125,-3.52 0,-1.1675 0.195,-2.33875 0.58125,-3.51125 0.39,-1.17125 0.97125,-2.3775 1.7525,-3.6125 l 1.25,0 z m 4.18,10.83 0,4.64875 -1.44,0 0,-12.085 1.44,0 0,1.3325 c 0.3025,-0.5275 0.68375,-0.9125 1.1425,-1.1675 0.45875,-0.24875 1.00625,-0.37 1.645,-0.37 1.07,0 1.93875,0.42 2.6075,1.25875 0.665,0.84 0.99625,1.94875 0.99625,3.32125 0,1.37625 -0.33125,2.485 -0.99625,3.335 -0.66875,0.84375 -1.5375,1.26875 -2.6075,1.26875 -0.63875,0 -1.18625,-0.12625 -1.645,-0.385 -0.45875,-0.25375 -0.84,-0.64 -1.1425,-1.1575 z m 4.8925,-3.06125 c 0,-1.055 -0.22,-1.88 -0.65375,-2.47625 -0.44,-0.6 -1.03125,-0.89875 -1.7825,-0.89875 -0.7625,0 -1.3625,0.29875 -1.8025,0.89875 -0.43875,0.59625 -0.65375,1.42125 -0.65375,2.47625 0,1.05375 0.215,1.88375 0.65375,2.49 0.44,0.605 1.04,0.9075 1.8025,0.9075 0.75125,0 1.3425,-0.3025 1.7825,-0.9075 0.43375,-0.60625 0.65375,-1.43625 0.65375,-2.49 z m 8.95,-3.0425 c -0.16625,-0.0825 -0.34625,-0.14625 -0.5325,-0.195 -0.19,-0.0487 -0.4,-0.0738 -0.63375,-0.0738 -0.80625,0 -1.42625,0.26375 -1.86625,0.79125 -0.43875,0.5275 -0.65375,1.29375 -0.65375,2.29 l 0,4.605 -1.44,0 0,-8.75 1.44,0 0,1.3575 c 0.3025,-0.5275 0.6975,-0.92375 1.18625,-1.1775 0.48375,-0.25875 1.07375,-0.385 1.7675,-0.385 0.0975,0 0.205,0.004 0.3275,0.0187 0.1175,0.015 0.24375,0.035 0.38125,0.0638 l 0.0238,1.455 z m 4.8875,-0.3325 c -0.76125,0 -1.37125,0.30375 -1.82125,0.90875 -0.45375,0.6 -0.67875,1.42625 -0.67875,2.46625 0,1.05375 0.225,1.88375 0.66875,2.48 0.445,0.59625 1.055,0.89375 1.83125,0.89375 0.7675,0 1.3725,-0.2975 1.82625,-0.90375 0.45,-0.605 0.67375,-1.425 0.67375,-2.47 0,-1.02625 -0.22375,-1.84625 -0.67375,-2.45625 -0.45375,-0.61 -1.05875,-0.91875 -1.82625,-0.91875 z m 0,-1.205 c 1.25,0 2.23625,0.405 2.95,1.215 0.7125,0.81625 1.07375,1.93375 1.07375,3.365 0,1.43 -0.36125,2.55875 -1.07375,3.37375 -0.71375,0.82 -1.7,1.23 -2.95,1.23 -1.25,0 -2.23125,-0.41 -2.94375,-1.23 -0.7175,-0.815 -1.075,-1.94375 -1.075,-3.37375 0,-1.43125 0.3575,-2.54875 1.075,-3.365 0.7125,-0.81 1.69375,-1.215 2.94375,-1.215 z m 7.78875,7.64125 0,4.64875 -1.43625,0 0,-12.085 1.43625,0 0,1.3325 c 0.3075,-0.5275 0.68875,-0.9125 1.1475,-1.1675 0.45875,-0.24875 1.005,-0.37 1.645,-0.37 1.07,0 1.93875,0.42 2.6025,1.25875 0.66875,0.84 1.00125,1.94875 1.00125,3.32125 0,1.37625 -0.3325,2.485 -1.00125,3.335 -0.66375,0.84375 -1.5325,1.26875 -2.6025,1.26875 -0.64,0 -1.18625,-0.12625 -1.645,-0.385 -0.45875,-0.25375 -0.84,-0.64 -1.1475,-1.1575 z m 4.8975,-3.06125 c 0,-1.055 -0.22,-1.88 -0.655,-2.47625 -0.43875,-0.6 -1.035,-0.89875 -1.7825,-0.89875 -0.76625,0 -1.36625,0.29875 -1.80125,0.89875 -0.43875,0.59625 -0.65875,1.42125 -0.65875,2.47625 0,1.05375 0.22,1.88375 0.65875,2.49 0.435,0.605 1.035,0.9075 1.80125,0.9075 0.7475,0 1.34375,-0.3025 1.7825,-0.9075 0.435,-0.60625 0.655,-1.43625 0.655,-2.49 z m 7.26,-3.375 c -0.76125,0 -1.37125,0.30375 -1.82125,0.90875 -0.45375,0.6 -0.67875,1.42625 -0.67875,2.46625 0,1.05375 0.22,1.88375 0.66875,2.48 0.445,0.59625 1.055,0.89375 1.83125,0.89375 0.7625,0 1.3725,-0.2975 1.82125,-0.90375 0.455,-0.605 0.67875,-1.425 0.67875,-2.47 0,-1.02625 -0.22375,-1.84625 -0.67875,-2.45625 -0.44875,-0.61 -1.05875,-0.91875 -1.82125,-0.91875 z m 0,-1.205 c 1.25,0 2.23125,0.405 2.95,1.215 0.7125,0.81625 1.06875,1.93375 1.06875,3.365 0,1.43 -0.35625,2.55875 -1.06875,3.37375 -0.71875,0.82 -1.7,1.23 -2.95,1.23 -1.25,0 -2.23125,-0.41 -2.94875,-1.23 -0.7125,-0.815 -1.07,-1.94375 -1.07,-3.37375 0,-1.43125 0.3575,-2.54875 1.07,-3.365 0.7175,-0.81 1.69875,-1.215 2.94875,-1.215 z m 11.9775,0.45375 0,1.37625 c -0.405,-0.21 -0.825,-0.36625 -1.25875,-0.46875 -0.44,-0.1025 -0.89375,-0.15625 -1.3675,-0.15625 -0.70875,0 -1.24,0.1075 -1.60125,0.3225 -0.3625,0.215 -0.5425,0.5475 -0.5425,0.99125 0,0.3325 0.1275,0.59125 0.38625,0.78125 0.25375,0.18625 0.77125,0.36625 1.5475,0.5325 l 0.48375,0.1225 c 1.025,0.21 1.7525,0.5175 2.1875,0.9175 0.42875,0.4 0.64375,0.9575 0.64375,1.665 0,0.82 -0.3225,1.465 -0.97125,1.93875 -0.645,0.47375 -1.52875,0.7075 -2.65625,0.7075 -0.46875,0 -0.9625,-0.0438 -1.465,-0.13625 -0.5075,-0.0875 -1.04,-0.225 -1.59625,-0.405 l 0,-1.5 c 0.52625,0.27875 1.04875,0.48875 1.5625,0.625 0.5175,0.1375 1.03,0.21 1.5425,0.21 0.66875,0 1.18125,-0.11625 1.5525,-0.34625 0.36625,-0.23 0.5525,-0.55625 0.5525,-0.98625 0,-0.39125 -0.1325,-0.68875 -0.39625,-0.89875 -0.26375,-0.205 -0.84,-0.41 -1.72875,-0.605 l -0.5025,-0.1025 c -0.88875,-0.195 -1.52875,-0.48375 -1.92375,-0.87375 -0.395,-0.39125 -0.59625,-0.91875 -0.59625,-1.5825 0,-0.835 0.29375,-1.475 0.875,-1.91875 0.585,-0.445 1.41,-0.66375 2.48,-0.66375 0.5275,0 1.025,0.0338 1.49875,0.11125 0.47375,0.0788 0.90375,0.19125 1.29375,0.3425 z m 6.72875,4.10625 c -1.1525,0 -1.9525,0.13125 -2.4025,0.395 -0.45375,0.26375 -0.67875,0.71875 -0.67875,1.3525 0,0.51875 0.17125,0.92375 0.50875,1.22125 0.34125,0.2975 0.795,0.44875 1.36625,0.44875 0.80625,0 1.44625,-0.2825 1.92875,-0.84375 0.47875,-0.5625 0.71875,-1.31875 0.71875,-2.26125 l 0,-0.3125 -1.44125,0 z m 2.87625,-0.605 0,5 -1.435,0 0,-1.33375 c -0.3375,0.5275 -0.7425,0.92375 -1.23125,1.1775 -0.48875,0.25875 -1.08375,0.385 -1.79125,0.385 -0.90375,0 -1.61625,-0.25375 -2.14375,-0.76125 -0.5275,-0.5025 -0.79625,-1.1775 -0.79625,-2.0075 0,-0.98625 0.3325,-1.7275 0.99125,-2.23125 0.65875,-0.4975 1.645,-0.74625 2.94875,-0.74625 l 2.0225,0 0,-0.1475 c 0,-0.66875 -0.22,-1.18125 -0.66,-1.5425 -0.435,-0.36125 -1.045,-0.5425 -1.82125,-0.5425 -0.4975,0 -0.99125,0.0637 -1.47,0.18625 -0.4775,0.12625 -0.9325,0.3075 -1.36125,0.54125 l 0,-1.3325 c 0.52625,-0.205 1.035,-0.36125 1.5275,-0.45875 0.49375,-0.0925 0.97625,-0.14125 1.45,-0.14125 1.265,0 2.2075,0.32125 2.8325,0.97625 0.625,0.65375 0.9375,1.645 0.9375,2.97875 z m 2.94875,-7.16375 1.44125,0 0,12.16375 -1.44125,0 0,-12.16375 z m 10.03,3.6625 0,1.37625 c -0.40125,-0.21 -0.82125,-0.36625 -1.26,-0.46875 -0.44,-0.1025 -0.89375,-0.15625 -1.3625,-0.15625 -0.7075,0 -1.245,0.1075 -1.60625,0.3225 -0.36125,0.215 -0.5425,0.5475 -0.5425,0.99125 0,0.3325 0.1275,0.59125 0.38625,0.78125 0.25875,0.18625 0.77625,0.36625 1.5525,0.5325 l 0.47875,0.1225 c 1.03,0.21 1.7575,0.5175 2.1875,0.9175 0.43,0.4 0.645,0.9575 0.645,1.665 0,0.82 -0.3225,1.465 -0.9675,1.93875 -0.645,0.47375 -1.5325,0.7075 -2.65625,0.7075 -0.47375,0 -0.96125,-0.0438 -1.47,-0.13625 -0.5075,-0.0875 -1.035,-0.225 -1.59125,-0.405 l 0,-1.5 c 0.5275,0.27875 1.05,0.48875 1.5625,0.625 0.5125,0.1375 1.025,0.21 1.5375,0.21 0.67,0 1.1875,-0.11625 1.55375,-0.34625 0.37,-0.23 0.55125,-0.55625 0.55125,-0.98625 0,-0.39125 -0.1325,-0.68875 -0.395,-0.89875 -0.26375,-0.205 -0.84,-0.41 -1.72875,-0.605 l -0.49875,-0.1025 c -0.88875,-0.195 -1.5325,-0.48375 -1.92875,-0.87375 -0.395,-0.39125 -0.59,-0.91875 -0.59,-1.5825 0,-0.835 0.2875,-1.475 0.87375,-1.91875 0.58125,-0.445 1.40625,-0.66375 2.475,-0.66375 0.5325,0 1.03125,0.0338 1.505,0.11125 0.4675,0.0788 0.9025,0.19125 1.28875,0.3425 z m 2.54375,-3.6425 1.25,0 c 0.78125,1.235 1.3625,2.44125 1.7525,3.6125 0.38625,1.1725 0.58125,2.34375 0.58125,3.51125 0,1.1675 -0.195,2.33875 -0.58125,3.52 -0.39,1.1825 -0.97125,2.38375 -1.7525,3.60375 l -1.25,0 c 0.68375,-1.19125 1.19625,-2.3825 1.5425,-3.55875 0.3475,-1.1825 0.5225,-2.36875 0.5225,-3.565 0,-1.20625 -0.175,-2.3975 -0.5225,-3.57375 -0.34625,-1.1725 -0.85875,-2.35875 -1.5425,-3.55 z"
       inkscape:connector-curvature="0" />
    <path
       id="path3235"
       style="fill:none;stroke:#000000;stroke-width:1.33329999;stroke-linecap:square;stroke-linejoin:miter;stroke-miterlimit:10;stroke-opacity:1;stroke-dasharray:none"
       d="m 151.3895,287.3467 80,0"
       inkscape:connector-curvature="0" />
    <path
       id="path3237"
       style="fill:none;stroke:#000000;stroke-width:1.33329999;stroke-linecap:square;stroke-linejoin:miter;stroke-miterlimit:10;stroke-opacity:1;stroke-dasharray:none"
       d="m 231.3895,287.3467 0,26.67"
       inkscape:connector-curvature="0" />
    <path
       id="path3239"
       style="fill:none;stroke:#000000;stroke-width:1.33329999;stroke-linecap:square;stroke-linejoin:miter;stroke-miterlimit:10;stroke-opacity:1;stroke-dasharray:none"
       d="m 231.3895,314.0167 -51.7925,0"
       inkscape:connector-curvature="0" />
    <path
       id="path3241"
       style="fill:#000000;fill-opacity:1;fill-rule:nonzero;stroke:none"
       d="m 164.7245,314.68045 14.6625,7.99875 0,-17.33 -14.6625,9.33125 z"
       inkscape:connector-curvature="0" />
    <path
       id="path3243"
       style="fill:none;stroke:#000000;stroke-width:1.33329999;stroke-linecap:square;stroke-linejoin:miter;stroke-miterlimit:10;stroke-opacity:1;stroke-dasharray:none"
       d="m 164.7245,314.68045 14.6625,7.99875 0,-17.33 -14.6625,9.33125 z"
       inkscape:connector-curvature="0" />
    <path
       id="path3245"
       style="fill:#ffffff;fill-opacity:1;fill-rule:nonzero;stroke:none"
       d="m 509.382,468.01045 13.33012,0 0,-33.3355 -13.33012,0 0,33.3355 z"
       inkscape:connector-curvature="0" />
    <path
       id="path3247"
       style="fill:none;stroke:#000000;stroke-width:1.33329999;stroke-linecap:square;stroke-linejoin:miter;stroke-miterlimit:10;stroke-opacity:1;stroke-dasharray:none"
       d="m 509.382,468.01045 13.33012,0 0,-33.335 -13.33012,0 0,33.335 z"
       inkscape:connector-curvature="0" />
    <path
       id="path3249"
       style="fill:#000000;fill-opacity:1;fill-rule:nonzero;stroke:none"
       d="m 289.95325,452.61545 1.43625,0 0,8.91625 c 0,1.1125 -0.21,1.91875 -0.635,2.41625 -0.425,0.49875 -1.10875,0.7525 -2.05125,0.7525 l -0.54125,0 0,-1.23125 0.395,0 c 0.5425,0 0.90875,-0.12625 1.10375,-0.375 0.195,-0.25 0.2925,-0.7725 0.2925,-1.5625 l 0,-8.91625 z m 0,-3.41875 1.43625,0 0,1.83625 -1.43625,0 0,-1.83625 z m 7.8425,4.42 c -0.76625,0 -1.3725,0.3025 -1.82625,0.9025 -0.44875,0.60625 -0.67375,1.43125 -0.67375,2.47125 0,1.055 0.22,1.88 0.66375,2.48 0.445,0.59625 1.055,0.89375 1.83625,0.89375 0.76125,0 1.3675,-0.3025 1.82125,-0.90375 0.44875,-0.605 0.67875,-1.43 0.67875,-2.47 0,-1.03 -0.23,-1.84625 -0.67875,-2.45625 -0.45375,-0.615 -1.06,-0.9175 -1.82125,-0.9175 z m 0,-1.21125 c 1.25,0 2.23125,0.41 2.94375,1.22 0.71875,0.81125 1.075,1.93375 1.075,3.365 0,1.43 -0.35625,2.55375 -1.075,3.37375 -0.7125,0.82 -1.69375,1.23 -2.94375,1.23 -1.25,0 -2.23625,-0.41 -2.95,-1.23 -0.7175,-0.82 -1.07375,-1.94375 -1.07375,-3.37375 0,-1.43125 0.35625,-2.55375 1.07375,-3.365 0.71375,-0.81 1.7,-1.22 2.95,-1.22 z m 6.39125,0.21 1.43625,0 0,8.75 -1.43625,0 0,-8.75 z m 0,-3.41875 1.43625,0 0,1.83625 -1.43625,0 0,-1.83625 z m 11.73875,6.875 0,5.29375 -1.44125,0 0,-5.23 c 0,-0.835 -0.16125,-1.455 -0.4875,-1.865 -0.3275,-0.41 -0.81125,-0.615 -1.45,-0.615 -0.77625,0 -1.3925,0.24875 -1.84125,0.7425 -0.45375,0.4925 -0.67875,1.16625 -0.67875,2.03125 l 0,4.93625 -1.435,0 0,-8.75 1.435,0 0,1.3525 c 0.34625,-0.5275 0.7525,-0.91875 1.22125,-1.1775 0.46375,-0.25375 1,-0.385 1.61125,-0.385 1,0 1.7625,0.3125 2.285,0.9275 0.5175,0.62 0.78125,1.53375 0.78125,2.73875 z m 1.30375,-6.37125 9.85375,0 0,1.3325 -4.12125,0 0,10.3325 -1.5875,0 0,-10.3325 -4.145,0 0,-1.3325 z m 16.40125,4.2475 c -0.17125,-0.0825 -0.3475,-0.15125 -0.5325,-0.195 -0.19,-0.0488 -0.4,-0.0738 -0.635,-0.0738 -0.805,0 -1.43,0.26375 -1.865,0.79125 -0.44,0.5275 -0.65875,1.28875 -0.65875,2.29 l 0,4.605 -1.43625,0 0,-8.75 1.43625,0 0,1.3525 c 0.3075,-0.5275 0.7025,-0.91875 1.19125,-1.1775 0.48375,-0.25375 1.07375,-0.385 1.7675,-0.385 0.0975,0 0.205,0.01 0.3225,0.0238 0.12125,0.01 0.24875,0.035 0.385,0.0587 l 0.025,1.46 z m 1.49375,-1.3325 1.43625,0 0,8.75 -1.43625,0 0,-8.75 z m 0,-3.41875 1.43625,0 0,1.83625 -1.43625,0 0,-1.83625 z m 5.84,10.855 0,4.64875 -1.435,0 0,-12.085 1.435,0 0,1.3325 c 0.3025,-0.5275 0.68875,-0.9175 1.1475,-1.16625 0.45375,-0.25 1.00625,-0.37625 1.645,-0.37625 1.07,0 1.93375,0.42 2.6025,1.26 0.665,0.84375 1.00125,1.9475 1.00125,3.325 0,1.37625 -0.33625,2.485 -1.00125,3.335 -0.66875,0.845 -1.5325,1.26875 -2.6025,1.26875 -0.63875,0 -1.19125,-0.12625 -1.645,-0.385 -0.45875,-0.25875 -0.845,-0.645 -1.1475,-1.1575 z m 4.8975,-3.06125 c 0,-1.055 -0.22,-1.88 -0.65875,-2.48125 -0.435,-0.595 -1.03125,-0.8925 -1.7825,-0.8925 -0.7625,0 -1.3625,0.2975 -1.8025,0.8925 -0.43375,0.60125 -0.65375,1.42625 -0.65375,2.48125 0,1.055 0.22,1.885 0.65375,2.49 0.44,0.605 1.04,0.90375 1.8025,0.90375 0.75125,0 1.3475,-0.29875 1.7825,-0.90375 0.43875,-0.605 0.65875,-1.435 0.65875,-2.49 z m 7.31875,-7.76875 c -0.6925,1.19125 -1.21,2.3775 -1.5525,3.55 -0.33625,1.17125 -0.5075,2.3625 -0.5075,3.57375 0,1.19125 0.17125,2.3825 0.5075,3.56 0.3425,1.18125 0.86,2.3675 1.5525,3.56375 l -1.25,0 c -0.77625,-1.22 -1.3575,-2.42125 -1.7475,-3.6025 -0.39,-1.1825 -0.58625,-2.35375 -0.58625,-3.52125 0,-1.16625 0.19625,-2.33875 0.58625,-3.51 0.39,-1.1775 0.97125,-2.37875 1.7475,-3.61375 l 1.25,0 z m 6.76375,7.74875 c -1.1525,0 -1.95375,0.1325 -2.4075,0.39625 -0.45,0.2625 -0.67375,0.7125 -0.67375,1.3525 0,0.5125 0.17,0.9225 0.5075,1.22 0.34125,0.2975 0.79625,0.445 1.3675,0.445 0.805,0 1.445,-0.27875 1.92375,-0.84 0.48375,-0.56625 0.7225,-1.31875 0.7225,-2.26125 l 0,-0.3125 -1.44,0 z m 2.875,-0.605 0,5 -1.435,0 0,-1.33375 c -0.3375,0.5275 -0.7475,0.91875 -1.23,1.1775 -0.48875,0.25875 -1.085,0.385 -1.7925,0.385 -0.90375,0 -1.61625,-0.25375 -2.14375,-0.76125 -0.5325,-0.5075 -0.79625,-1.17625 -0.79625,-2.01125 0,-0.98625 0.3325,-1.72875 0.99125,-2.2275 0.66,-0.4975 1.64125,-0.75125 2.95,-0.75125 l 2.02125,0 0,-0.14625 c 0,-0.665 -0.22,-1.1775 -0.65875,-1.53875 -0.435,-0.36125 -1.045,-0.54125 -1.82125,-0.54125 -0.49875,0 -0.99125,0.0625 -1.47,0.185 -0.47875,0.1275 -0.9325,0.3075 -1.3625,0.5425 l 0,-1.33375 c 0.5275,-0.21 1.035,-0.36125 1.52875,-0.45875 0.4925,-0.0975 0.97625,-0.14625 1.45,-0.14625 1.26375,0 2.20625,0.3275 2.83125,0.98125 0.625,0.65375 0.9375,1.645 0.9375,2.97875 z m 2.745,-7.14375 1.25,0 c 0.77625,1.235 1.3575,2.43625 1.7475,3.61375 0.39125,1.17125 0.58625,2.34375 0.58625,3.51 0,1.1675 -0.195,2.33875 -0.58625,3.52125 -0.39,1.18125 -0.97125,2.3825 -1.7475,3.6025 l -1.25,0 c 0.67875,-1.19625 1.19125,-2.3825 1.5375,-3.56375 0.34625,-1.1775 0.5225,-2.36875 0.5225,-3.56 0,-1.21125 -0.17625,-2.4025 -0.5225,-3.57375 -0.34625,-1.1725 -0.85875,-2.35875 -1.5375,-3.55 z"
       inkscape:connector-curvature="0" />
    <path
       id="path3251"
       style="fill:none;stroke:#000000;stroke-width:1.33329999;stroke-linecap:square;stroke-linejoin:miter;stroke-miterlimit:10;stroke-opacity:1;stroke-dasharray:none"
       d="m 151.3895,434.67545 358.125,0"
       inkscape:connector-curvature="0" />
    <path
       id="path3253"
       style="fill:none;stroke:#000000;stroke-width:1.33329999;stroke-linecap:square;stroke-linejoin:miter;stroke-miterlimit:10;stroke-opacity:1;stroke-dasharray:none"
       d="M 509.5145,434.67545 495.657,442.6792"
       inkscape:connector-curvature="0" />
    <path
       id="path3255"
       style="fill:none;stroke:#000000;stroke-width:1.33329999;stroke-linecap:square;stroke-linejoin:miter;stroke-miterlimit:10;stroke-opacity:1;stroke-dasharray:none"
       d="m 509.5145,434.67545 -13.8575,-7.9975"
       inkscape:connector-curvature="0" />
    <path
       id="path3257"
       style="fill:none;stroke:#000000;stroke-width:1.33329999;stroke-linecap:square;stroke-linejoin:miter;stroke-miterlimit:10;stroke-opacity:1;stroke-dasharray:none"
       d="m 374.05075,401.34545 0,17.33375 -13.335,13.33 -242.66125,0 0,-30.66375 255.99625,0 z"
       inkscape:connector-curvature="0" />
    <path
       id="path3259"
       style="fill:none;stroke:#000000;stroke-width:1.33329999;stroke-linecap:square;stroke-linejoin:miter;stroke-miterlimit:10;stroke-opacity:1;stroke-dasharray:none"
       d="m 118.0545,500.6767 425.3275,0 0,-100 -425.3275,0 0,100 z"
       inkscape:connector-curvature="0" />
    <path
       id="path3261"
       style="fill:#000000;fill-opacity:1;fill-rule:nonzero;stroke:none"
       d="m 132.88825,409.8467 1.44,0 0,12.1625 -1.44,0 0,-12.1625 z m 7.8425,4.41375 c -0.7625,0 -1.3725,0.3025 -1.8225,0.90875 -0.45375,0.605 -0.6775,1.425 -0.6775,2.465 0,1.06 0.22375,1.885 0.66875,2.48125 0.44375,0.595 1.05375,0.89875 1.83125,0.89875 0.76625,0 1.37125,-0.30375 1.82125,-0.90875 0.45375,-0.605 0.67875,-1.42625 0.67875,-2.47125 0,-1.025 -0.225,-1.845 -0.67875,-2.455 -0.45,-0.61125 -1.055,-0.91875 -1.82125,-0.91875 z m 0,-1.20625 c 1.25,0 2.23125,0.40625 2.94875,1.21625 0.7125,0.815 1.07375,1.93375 1.07375,3.36375 0,1.43125 -0.36125,2.55875 -1.07375,3.38 -0.7175,0.815 -1.69875,1.225 -2.94875,1.225 -1.25,0 -2.2325,-0.41 -2.95,-1.225 -0.7125,-0.82125 -1.06875,-1.94875 -1.06875,-3.38 0,-1.43 0.35625,-2.54875 1.06875,-3.36375 0.7175,-0.81 1.7,-1.21625 2.95,-1.21625 z m 9.79,1.20625 c -0.7675,0 -1.3725,0.3025 -1.8225,0.90875 -0.45375,0.605 -0.6775,1.425 -0.6775,2.465 0,1.06 0.21875,1.885 0.66375,2.48125 0.44375,0.595 1.05875,0.89875 1.83625,0.89875 0.76125,0 1.37125,-0.30375 1.82125,-0.90875 0.45375,-0.605 0.67875,-1.42625 0.67875,-2.47125 0,-1.025 -0.225,-1.845 -0.67875,-2.455 -0.45,-0.61125 -1.06,-0.91875 -1.82125,-0.91875 z m 0,-1.20625 c 1.25,0 2.23125,0.40625 2.94875,1.21625 0.7125,0.815 1.06875,1.93375 1.06875,3.36375 0,1.43125 -0.35625,2.55875 -1.06875,3.38 -0.7175,0.815 -1.69875,1.225 -2.94875,1.225 -1.25,0 -2.2325,-0.41 -2.95,-1.225 -0.7125,-0.82125 -1.07375,-1.94875 -1.07375,-3.38 0,-1.43 0.36125,-2.54875 1.07375,-3.36375 0.7175,-0.81 1.7,-1.21625 2.95,-1.21625 z m 7.7875,7.6475 0,4.6425 -1.435,0 0,-12.085 1.435,0 0,1.33875 c 0.3075,-0.5325 0.68875,-0.91875 1.1475,-1.1675 0.45875,-0.25375 1.00625,-0.37625 1.645,-0.37625 1.07,0 1.93875,0.42 2.6025,1.26 0.67,0.84 1.00125,1.94875 1.00125,3.32 0,1.3775 -0.33125,2.49125 -1.00125,3.335 -0.66375,0.85 -1.5325,1.27 -2.6025,1.27 -0.63875,0 -1.18625,-0.1275 -1.645,-0.38625 -0.45875,-0.25375 -0.84,-0.63875 -1.1475,-1.15125 z m 4.8975,-3.0675 c 0,-1.05375 -0.22,-1.88 -0.65875,-2.475 -0.435,-0.60125 -1.03125,-0.89875 -1.7825,-0.89875 -0.7625,0 -1.3625,0.2975 -1.8025,0.89875 -0.43375,0.595 -0.65375,1.42125 -0.65375,2.475 0,1.06 0.22,1.89 0.65375,2.49125 0.44,0.605 1.04,0.9075 1.8025,0.9075 0.75125,0 1.3475,-0.3025 1.7825,-0.9075 0.43875,-0.60125 0.65875,-1.43125 0.65875,-2.49125 z m 13.91125,-7.7875 3.31,0 0,1.1225 -1.875,0 0,12.04125 1.875,0 0,1.10375 -3.31,0 0,-14.2675 z m 7.75875,10.855 0,4.6425 -1.43625,0 0,-12.085 1.43625,0 0,1.33875 c 0.3075,-0.5325 0.68875,-0.91875 1.1475,-1.1675 0.45875,-0.25375 1.00625,-0.37625 1.645,-0.37625 1.07,0 1.93875,0.42 2.6075,1.26 0.66375,0.84 0.99625,1.94875 0.99625,3.32 0,1.3775 -0.3325,2.49125 -0.99625,3.335 -0.66875,0.85 -1.5375,1.27 -2.6075,1.27 -0.63875,0 -1.18625,-0.1275 -1.645,-0.38625 -0.45875,-0.25375 -0.84,-0.63875 -1.1475,-1.15125 z m 4.8975,-3.0675 c 0,-1.05375 -0.22,-1.88 -0.655,-2.475 -0.43875,-0.60125 -1.03,-0.89875 -1.78125,-0.89875 -0.7675,0 -1.3675,0.2975 -1.8025,0.89875 -0.43875,0.595 -0.65875,1.42125 -0.65875,2.475 0,1.06 0.22,1.89 0.65875,2.49125 0.435,0.605 1.035,0.9075 1.8025,0.9075 0.75125,0 1.3425,-0.3025 1.78125,-0.9075 0.435,-0.60125 0.655,-1.43125 0.655,-2.49125 z m 8.95,-4.375 1.44,0 0,8.75 -1.44,0 0,-8.75 z m 0,-3.4125 1.44,0 0,1.83125 -1.44,0 0,-1.83125 z m 11.73875,6.875 0,5.2875 -1.44125,0 0,-5.22375 c 0,-0.835 -0.16125,-1.455 -0.4875,-1.865 -0.3275,-0.41125 -0.81125,-0.61625 -1.44625,-0.61625 -0.78125,0 -1.39625,0.245 -1.845,0.7375 -0.44875,0.49375 -0.67875,1.1725 -0.67875,2.03125 l 0,4.93625 -1.43625,0 0,-8.75 1.43625,0 0,1.3575 c 0.34625,-0.5275 0.75625,-0.9225 1.22,-1.17625 0.465,-0.25875 1.00125,-0.38625 1.61625,-0.38625 0.99625,0 1.75875,0.3075 2.28125,0.92875 0.5175,0.615 0.78125,1.5275 0.78125,2.73875 z m 7.89,-6.875 1.44125,0 0,7.1875 4.29125,-3.775 1.83125,0 -4.64375,4.0875 4.85375,4.6625 -1.875,0 -4.4575,-4.2675 0,4.2675 -1.44125,0 0,-12.1625 z m 16.80625,7.43625 0,0.68875 -6.62,0 c 0.0675,1.00125 0.37,1.7575 0.9025,2.27 0.5375,0.5125 1.275,0.7725 2.2225,0.7725 0.55125,0 1.09375,-0.0687 1.61125,-0.20125 0.5225,-0.13125 1.04,-0.33625 1.5525,-0.615 l 0,1.3775 c -0.5275,0.205 -1.065,0.37125 -1.60125,0.4875 -0.5425,0.1175 -1.09375,0.17625 -1.65125,0.17625 -1.38625,0 -2.49,-0.405 -3.31,-1.21625 -0.82,-0.815 -1.23125,-1.91375 -1.23125,-3.305 0,-1.42625 0.39125,-2.56375 1.1675,-3.40375 0.78125,-0.84 1.82125,-1.26 3.125,-1.26 1.18125,0 2.11375,0.37625 2.8025,1.13375 0.68875,0.75625 1.03,1.79125 1.03,3.095 z m -1.435,-0.43875 c -0.015,-0.7775 -0.23375,-1.4025 -0.66875,-1.875 -0.43,-0.46875 -0.99625,-0.70875 -1.70375,-0.70875 -0.80625,0 -1.45125,0.23 -1.92875,0.68875 -0.47875,0.45875 -0.7525,1.09875 -0.82625,1.91875 l 5.1275,-0.0237 z m 7.42625,5.98125 c -0.405,1.04 -0.8,1.72375 -1.18625,2.04125 -0.39,0.31625 -0.9025,0.4775 -1.5425,0.4775 l -1.1475,0 0,-1.205 0.835,0 c 0.405,0 0.7125,-0.0987 0.9275,-0.28375 0.215,-0.185 0.45375,-0.63 0.7175,-1.32375 l 0.27375,-0.66375 -3.545,-8.60875 1.52375,0 2.72875,6.83625 2.75,-6.83625 1.5175,0 -3.8525,9.56625 z m 11.40625,-9.31125 0,1.37125 c -0.405,-0.205 -0.825,-0.36125 -1.25875,-0.46875 -0.44,-0.1025 -0.89375,-0.15625 -1.3675,-0.15625 -0.70875,0 -1.24,0.1075 -1.60125,0.3225 -0.36125,0.215 -0.5425,0.54625 -0.5425,0.99125 0,0.3325 0.1275,0.59625 0.38625,0.78125 0.25375,0.185 0.77125,0.36625 1.5525,0.5325 l 0.47875,0.12125 c 1.025,0.21 1.7575,0.5175 2.1875,0.91875 0.42875,0.405 0.64375,0.95625 0.64375,1.665 0,0.82 -0.3225,1.47 -0.96625,1.93875 -0.65,0.4725 -1.53375,0.7075 -2.65625,0.7075 -0.47375,0 -0.9625,-0.0437 -1.47,-0.13125 -0.5075,-0.0937 -1.04,-0.23 -1.59625,-0.41125 l 0,-1.49875 c 0.53125,0.27875 1.05,0.48875 1.5625,0.625 0.5175,0.14125 1.03,0.21 1.5425,0.21 0.66875,0 1.18625,-0.1175 1.5525,-0.34625 0.36625,-0.225 0.5525,-0.5575 0.5525,-0.98625 0,-0.39125 -0.1325,-0.68875 -0.39625,-0.89875 -0.26375,-0.205 -0.84,-0.41 -1.72875,-0.6 l -0.4975,-0.1075 c -0.89375,-0.19625 -1.53375,-0.48375 -1.92875,-0.875 -0.395,-0.39 -0.59625,-0.9175 -0.59625,-1.58125 0,-0.835 0.29375,-1.475 0.875,-1.91875 0.585,-0.445 1.41125,-0.665 2.48,-0.665 0.5275,0 1.03,0.04 1.49875,0.1125 0.47375,0.0788 0.90375,0.19125 1.29375,0.3475 z m 6.21125,-3.6475 c -0.69375,1.19625 -1.21125,2.3775 -1.5525,3.54875 -0.34125,1.1775 -0.5075,2.36875 -0.5075,3.575 0,1.19625 0.16625,2.3825 0.5075,3.56375 0.34125,1.1825 0.85875,2.36875 1.5525,3.56 l -1.25,0 c -0.77625,-1.22125 -1.3625,-2.4225 -1.7475,-3.60375 -0.39125,-1.18125 -0.58625,-2.35375 -0.58625,-3.52 0,-1.1675 0.195,-2.33375 0.58625,-3.51125 0.385,-1.17125 0.97125,-2.3775 1.7475,-3.6125 l 1.25,0 z m 4.18,10.835 0,4.6425 -1.44,0 0,-12.085 1.44,0 0,1.33875 c 0.3025,-0.5325 0.68875,-0.91875 1.1475,-1.1675 0.45375,-0.25375 1.00625,-0.37625 1.645,-0.37625 1.07,0 1.93375,0.42 2.6025,1.26 0.665,0.84 1.00125,1.94875 1.00125,3.32 0,1.3775 -0.33625,2.49125 -1.00125,3.335 -0.66875,0.85 -1.5325,1.27 -2.6025,1.27 -0.63875,0 -1.19125,-0.1275 -1.645,-0.38625 -0.45875,-0.25375 -0.845,-0.63875 -1.1475,-1.15125 z m 4.8975,-3.0675 c 0,-1.05375 -0.22,-1.88 -0.65875,-2.475 -0.435,-0.60125 -1.03125,-0.89875 -1.7825,-0.89875 -0.7625,0 -1.3625,0.2975 -1.8025,0.89875 -0.43375,0.595 -0.65375,1.42125 -0.65375,2.475 0,1.06 0.22,1.89 0.65375,2.49125 0.44,0.605 1.04,0.9075 1.8025,0.9075 0.75125,0 1.3475,-0.3025 1.7825,-0.9075 0.43875,-0.60125 0.65875,-1.43125 0.65875,-2.49125 z m 8.945,-3.03625 c -0.16625,-0.0888 -0.34125,-0.15125 -0.5325,-0.2 -0.185,-0.0488 -0.4,-0.0738 -0.63375,-0.0738 -0.80625,0 -1.42625,0.26375 -1.86625,0.79125 -0.43375,0.5275 -0.65375,1.29375 -0.65375,2.295 l 0,4.59875 -1.44,0 0,-8.75 1.44,0 0,1.3575 c 0.3025,-0.5275 0.69875,-0.9225 1.18625,-1.17625 0.48875,-0.25875 1.075,-0.38625 1.7725,-0.38625 0.0975,0 0.205,0.005 0.3225,0.02 0.1175,0.015 0.24375,0.0337 0.38625,0.0638 l 0.0187,1.46 z m 4.8925,-0.3375 c -0.76625,0 -1.37125,0.3025 -1.82625,0.90875 -0.44875,0.605 -0.67375,1.425 -0.67375,2.465 0,1.06 0.22,1.885 0.66375,2.48125 0.445,0.595 1.055,0.89875 1.83625,0.89875 0.7625,0 1.3675,-0.30375 1.82125,-0.90875 0.45,-0.605 0.67875,-1.42625 0.67875,-2.47125 0,-1.025 -0.22875,-1.845 -0.67875,-2.455 -0.45375,-0.61125 -1.05875,-0.91875 -1.82125,-0.91875 z m 0,-1.20625 c 1.25,0 2.23125,0.40625 2.945,1.21625 0.7175,0.815 1.07375,1.93375 1.07375,3.36375 0,1.43125 -0.35625,2.55875 -1.07375,3.38 -0.71375,0.815 -1.695,1.225 -2.945,1.225 -1.25,0 -2.23625,-0.41 -2.94875,-1.225 -0.7175,-0.82125 -1.075,-1.94875 -1.075,-3.38 0,-1.43 0.3575,-2.54875 1.075,-3.36375 0.7125,-0.81 1.69875,-1.21625 2.94875,-1.21625 z m 7.78875,7.6475 0,4.6425 -1.44125,0 0,-12.085 1.44125,0 0,1.33875 c 0.3025,-0.5325 0.6875,-0.91875 1.1425,-1.1675 0.45875,-0.25375 1.01,-0.37625 1.645,-0.37625 1.07,0 1.93875,0.42 2.6075,1.26 0.66375,0.84 1.00125,1.94875 1.00125,3.32 0,1.3775 -0.3375,2.49125 -1.00125,3.335 -0.66875,0.85 -1.5375,1.27 -2.6075,1.27 -0.635,0 -1.18625,-0.1275 -1.645,-0.38625 -0.455,-0.25375 -0.84,-0.63875 -1.1425,-1.15125 z m 4.8925,-3.0675 c 0,-1.05375 -0.215,-1.88 -0.655,-2.475 -0.43875,-0.60125 -1.03,-0.89875 -1.78125,-0.89875 -0.7625,0 -1.3625,0.2975 -1.8025,0.89875 -0.435,0.595 -0.65375,1.42125 -0.65375,2.475 0,1.06 0.21875,1.89 0.65375,2.49125 0.44,0.605 1.04,0.9075 1.8025,0.9075 0.75125,0 1.3425,-0.3025 1.78125,-0.9075 0.44,-0.60125 0.655,-1.43125 0.655,-2.49125 z m 7.26,-3.37375 c -0.76125,0 -1.37125,0.3025 -1.82125,0.90875 -0.44875,0.605 -0.67875,1.425 -0.67875,2.465 0,1.06 0.225,1.885 0.67,2.48125 0.44375,0.595 1.05375,0.89875 1.83,0.89875 0.7675,0 1.3725,-0.30375 1.82625,-0.90875 0.45,-0.605 0.67375,-1.42625 0.67375,-2.47125 0,-1.025 -0.22375,-1.845 -0.67375,-2.455 -0.45375,-0.61125 -1.05875,-0.91875 -1.82625,-0.91875 z m 0,-1.20625 c 1.25,0 2.2325,0.40625 2.95,1.21625 0.7125,0.815 1.07375,1.93375 1.07375,3.36375 0,1.43125 -0.36125,2.55875 -1.07375,3.38 -0.7175,0.815 -1.7,1.225 -2.95,1.225 -1.25,0 -2.23125,-0.41 -2.94375,-1.225 -0.7175,-0.82125 -1.07375,-1.94875 -1.07375,-3.38 0,-1.43 0.35625,-2.54875 1.07375,-3.36375 0.7125,-0.81 1.69375,-1.21625 2.94375,-1.21625 z m 11.9775,0.46 0,1.37125 c -0.4,-0.205 -0.825,-0.36125 -1.25875,-0.46875 -0.44,-0.1025 -0.89375,-0.15625 -1.3675,-0.15625 -0.70875,0 -1.24,0.1075 -1.60125,0.3225 -0.3625,0.215 -0.5425,0.54625 -0.5425,0.99125 0,0.3325 0.1275,0.59625 0.38625,0.78125 0.25875,0.185 0.77125,0.36625 1.5525,0.5325 l 0.47875,0.12125 c 1.025,0.21 1.7575,0.5175 2.1875,0.91875 0.42875,0.405 0.64375,0.95625 0.64375,1.665 0,0.82 -0.3225,1.47 -0.96625,1.93875 -0.65,0.4725 -1.53375,0.7075 -2.65625,0.7075 -0.47375,0 -0.9625,-0.0437 -1.47,-0.13125 -0.5075,-0.0937 -1.04,-0.23 -1.59125,-0.41125 l 0,-1.49875 c 0.52625,0.27875 1.04375,0.48875 1.5625,0.625 0.5125,0.14125 1.025,0.21 1.5375,0.21 0.66875,0 1.18625,-0.1175 1.5525,-0.34625 0.37125,-0.225 0.5525,-0.5575 0.5525,-0.98625 0,-0.39125 -0.1325,-0.68875 -0.39625,-0.89875 -0.26375,-0.205 -0.84,-0.41 -1.72875,-0.6 l -0.4975,-0.1075 c -0.88875,-0.19625 -1.53375,-0.48375 -1.92875,-0.875 -0.395,-0.39 -0.59625,-0.9175 -0.59625,-1.58125 0,-0.835 0.29375,-1.475 0.88,-1.91875 0.58,-0.445 1.40625,-0.665 2.475,-0.665 0.5275,0 1.03,0.04 1.49875,0.1125 0.47375,0.0788 0.90375,0.19125 1.29375,0.3475 z m 6.73375,4.10125 c -1.1525,0 -1.9575,0.13125 -2.4075,0.395 -0.45375,0.26375 -0.67875,0.7175 -0.67875,1.3575 0,0.5125 0.17125,0.91875 0.5125,1.21625 0.3375,0.2975 0.79625,0.44875 1.3625,0.44875 0.80625,0 1.45,-0.2825 1.92875,-0.845 0.47875,-0.56125 0.71875,-1.3125 0.71875,-2.26 l 0,-0.3125 -1.43625,0 z m 2.87125,-0.60625 0,5 -1.435,0 0,-1.3325 c -0.3325,0.5275 -0.7425,0.9225 -1.23125,1.17625 -0.48375,0.25875 -1.08375,0.38625 -1.79125,0.38625 -0.90375,0 -1.61625,-0.25375 -2.14375,-0.75625 -0.5275,-0.50875 -0.79125,-1.1775 -0.79125,-2.0125 0,-0.98625 0.3275,-1.72875 0.98625,-2.23125 0.66375,-0.4975 1.645,-0.7475 2.94875,-0.7475 l 2.0225,0 0,-0.14625 c 0,-0.66875 -0.22,-1.18125 -0.655,-1.5425 -0.43875,-0.36125 -1.045,-0.5425 -1.82625,-0.5425 -0.4975,0 -0.98625,0.0638 -1.465,0.19125 -0.4825,0.12125 -0.9375,0.3025 -1.36625,0.54125 l 0,-1.3325 c 0.52625,-0.21 1.04,-0.36125 1.5325,-0.45875 0.49375,-0.0987 0.97125,-0.1475 1.445,-0.1475 1.265,0 2.2075,0.3275 2.8325,0.9775 0.625,0.65375 0.9375,1.645 0.9375,2.9775 z m 2.95375,-7.1625 1.43625,0 0,12.1625 -1.43625,0 0,-12.1625 z m 10.025,3.6675 0,1.37125 c -0.40125,-0.205 -0.82,-0.36125 -1.26,-0.46875 -0.435,-0.1025 -0.88875,-0.15625 -1.3625,-0.15625 -0.7075,0 -1.245,0.1075 -1.60625,0.3225 -0.36125,0.215 -0.5425,0.54625 -0.5425,0.99125 0,0.3325 0.1325,0.59625 0.38625,0.78125 0.25875,0.185 0.77625,0.36625 1.5525,0.5325 l 0.47875,0.12125 c 1.03,0.21 1.7575,0.5175 2.1875,0.91875 0.435,0.405 0.65,0.95625 0.65,1.665 0,0.82 -0.3275,1.47 -0.9725,1.93875 -0.64375,0.4725 -1.5275,0.7075 -2.65625,0.7075 -0.46875,0 -0.96125,-0.0437 -1.47,-0.13125 -0.5025,-0.0937 -1.035,-0.23 -1.59125,-0.41125 l 0,-1.49875 c 0.5275,0.27875 1.05,0.48875 1.5625,0.625 0.5125,0.14125 1.03,0.21 1.5425,0.21 0.665,0 1.1825,-0.1175 1.5525,-0.34625 0.36625,-0.225 0.5525,-0.5575 0.5525,-0.98625 0,-0.39125 -0.1325,-0.68875 -0.395,-0.89875 -0.26375,-0.205 -0.84,-0.41 -1.72875,-0.6 l -0.50375,-0.1075 c -0.88875,-0.19625 -1.5275,-0.48375 -1.92875,-0.875 -0.395,-0.39 -0.59,-0.9175 -0.59,-1.58125 0,-0.835 0.2925,-1.475 0.87375,-1.91875 0.58625,-0.445 1.41125,-0.665 2.48,-0.665 0.5275,0 1.02625,0.04 1.5,0.1125 0.4725,0.0788 0.9025,0.19125 1.28875,0.3475 z m 2.54875,-3.6475 1.25,0 c 0.77625,1.235 1.3575,2.44125 1.7475,3.6125 0.39125,1.1775 0.58125,2.34375 0.58125,3.51125 0,1.16625 -0.19,2.33875 -0.58125,3.52 -0.39,1.18125 -0.97125,2.3825 -1.7475,3.60375 l -1.25,0 c 0.67875,-1.19125 1.19125,-2.3775 1.5375,-3.56 0.3475,-1.18125 0.5225,-2.3675 0.5225,-3.56375 0,-1.20625 -0.175,-2.3975 -0.5225,-3.575 -0.34625,-1.17125 -0.85875,-2.3525 -1.5375,-3.54875 z m 9.82375,-0.02 0,14.2675 -3.315,0 0,-1.10375 1.855,0 0,-12.04125 -1.855,0 0,-1.1225 3.315,0 z"
       inkscape:connector-curvature="0" />
    <path
       id="path3263"
       style="fill:#000000;fill-opacity:1;fill-rule:nonzero;stroke:none"
       d="m 19.435747,551.1354 3.3115,0 0,1.1238 -1.875,0 0,12.04 1.875,0 0,1.1037 -3.3115,0 0,-14.2675 z m 13.86275,7.4363 0,0.6887 -6.621625,0 c 0.06888,0.9963 0.371625,1.7538 0.903875,2.2713 0.5375,0.5125 1.274875,0.7663 2.221125,0.7663 0.55275,0 1.09375,-0.064 1.611375,-0.1951 0.5225,-0.1324 1.04,-0.3375 1.55375,-0.6162 l 0,1.3775 c -0.527375,0.205 -1.060125,0.3713 -1.602625,0.4887 -0.541,0.1163 -1.09375,0.1751 -1.645,0.1751 -1.391125,0 -2.495125,-0.405 -3.314875,-1.2151 -0.821375,-0.8162 -1.226125,-1.9149 -1.226125,-3.3062 0,-1.43 0.38625,-2.5638 1.162625,-3.4038 0.78125,-0.8387 1.82075,-1.2587 3.125,-1.2587 1.181125,0 2.118625,0.375 2.80225,1.1325 0.688875,0.7563 1.03025,1.7875 1.03025,3.095 z m -1.435125,-0.4388 c -0.01512,-0.7762 -0.23525,-1.4012 -0.665,-1.875 -0.434125,-0.4737 -1,-0.7087 -1.709,-0.7087 -0.804625,0 -1.449625,0.23 -1.928625,0.6887 -0.477625,0.4588 -0.751,1.0988 -0.819875,1.9138 l 5.1225,-0.019 z m 3.78375,-6.9975 1.436,0 0,12.1638 -1.436,0 0,-12.1638 z m 10.024875,3.6626 0,1.3762 c -0.401375,-0.21 -0.82125,-0.3663 -1.26025,-0.4688 -0.4345,-0.1025 -0.8935,-0.1562 -1.36225,-0.1562 -0.7075,0 -1.245125,0.1075 -1.6065,0.3225 -0.360875,0.215 -0.5425,0.5475 -0.5425,0.9912 0,0.3325 0.132875,0.5913 0.38625,0.7813 0.25875,0.1862 0.776375,0.3662 1.55275,0.5325 l 0.4785,0.1225 c 1.03025,0.21 1.757875,0.5175 2.1875,0.9175 0.43025,0.4 0.644,0.9575 0.644,1.665 0,0.82 -0.32125,1.465 -0.96625,1.9387 -0.645,0.4738 -1.53375,0.7075 -2.65625,0.7075 -0.473625,0 -0.962375,-0.044 -1.47025,-0.1362 -0.50725,-0.087 -1.034625,-0.225 -1.59075,-0.405 l 0,-1.5 c 0.52725,0.2787 1.04975,0.4888 1.5625,0.625 0.512125,0.1375 1.024875,0.21 1.5425,0.21 0.6635,0 1.181125,-0.1163 1.54725,-0.3462 0.371125,-0.2301 0.557625,-0.5563 0.557625,-0.9863 0,-0.39 -0.137625,-0.6888 -0.401375,-0.8988 -0.263625,-0.205 -0.83875,-0.41 -1.7275,-0.6049 l -0.4985,-0.1026 c -0.889125,-0.195 -1.53275,-0.4837 -1.92925,-0.8737 -0.395,-0.3913 -0.58975,-0.9187 -0.58975,-1.5825 0,-0.835 0.2875,-1.475 0.874,-1.9188 0.581,-0.445 1.411125,-0.6637 2.48,-0.6637 0.52725,0 1.024875,0.034 1.4985,0.1113 0.46875,0.079 0.90375,0.1912 1.29,0.3425 z m 10.253875,3.7737 0,0.6887 -6.626375,0 c 0.06875,0.9963 0.371,1.7538 0.908625,2.2713 0.53125,0.5125 1.274,0.7663 2.216375,0.7663 0.556125,0 1.09375,-0.064 1.616125,-0.1951 0.5225,-0.1324 1.03525,-0.3375 1.55275,-0.6162 l 0,1.3775 c -0.52775,0.205 -1.063875,0.3713 -1.606375,0.4887 -0.5425,0.1163 -1.088875,0.1751 -1.645,0.1751 -1.38725,0 -2.49125,-0.405 -3.311125,-1.2151 -0.82025,-0.8162 -1.23,-1.9149 -1.23,-3.3062 0,-1.43 0.38975,-2.5638 1.166125,-3.4038 0.77625,-0.8387 1.82125,-1.2587 3.125,-1.2587 1.1825,0 2.115125,0.375 2.803625,1.1325 0.6875,0.7563 1.03025,1.7875 1.03025,3.095 z m -1.4365,-0.4388 c -0.01363,-0.7762 -0.23875,-1.4012 -0.668375,-1.875 -0.43025,-0.4737 -1.0015,-0.7087 -1.709,-0.7087 -0.80625,0 -1.444875,0.23 -1.923875,0.6887 -0.483375,0.4588 -0.757375,1.0988 -0.82475,1.9138 l 5.126,-0.019 z m 7.153875,-6.9975 0,14.2676 -3.310125,0 0,-1.1038 1.855,0 0,-12.04 -1.855,0 0,-1.1238 3.310125,0 z"
       inkscape:connector-curvature="0" />
    <path
       id="path3265"
       style="fill:#000000;fill-opacity:1;fill-rule:nonzero;stroke:none"
       d="m 18.103122,425.8042 3.310125,0 0,1.1225 -1.875,0 0,12.04125 1.875,0 0,1.10875 -3.310125,0 0,-14.2725 z m 10.341375,7.7675 c -1.151375,0 -1.952625,0.1325 -2.401375,0.39625 -0.455125,0.26375 -0.67875,0.7175 -0.67875,1.3575 0,0.5125 0.17,0.9175 0.507875,1.215 0.34075,0.30375 0.795875,0.45 1.367125,0.45 0.80525,0 1.445375,-0.28375 1.92875,-0.845 0.4775,-0.56125 0.71775,-1.31375 0.71775,-2.26125 l 0,-0.3125 -1.441375,0 z m 2.8765,-0.6 0,5 -1.435125,0 0,-1.3325 c -0.3325,0.52625 -0.742625,0.9175 -1.231375,1.17625 -0.4825,0.25375 -1.0835,0.38625 -1.791125,0.38625 -0.90375,0 -1.616125,-0.255 -2.144,-0.7625 -0.527375,-0.5075 -0.791,-1.17625 -0.791,-2.01125 0,-0.98625 0.327125,-1.72875 0.986375,-2.22625 0.658625,-0.50375 1.646,-0.7525 2.949625,-0.7525 l 2.0215,0 0,-0.14625 c 0,-0.66375 -0.22025,-1.1825 -0.660125,-1.54375 -0.433625,-0.36125 -1.045,-0.54125 -1.82125,-0.54125 -0.497625,0 -0.99125,0.0638 -1.46875,0.19 -0.478625,0.1225 -0.933625,0.3025 -1.362375,0.5425 l 0,-1.33375 c 0.527375,-0.21 1.034625,-0.36125 1.527375,-0.45875 0.493625,-0.0975 0.9775,-0.14625 1.451125,-0.14625 1.26375,0 2.206625,0.3275 2.831625,0.98125 0.625,0.65 0.9375,1.64625 0.9375,2.97875 z m 15.327125,-0.2925 0,5.2925 -1.436125,0 0,-5.23 c 0,-0.835 -0.165,-1.455 -0.48775,-1.865 -0.327125,-0.41 -0.811,-0.615 -1.44975,-0.615 -0.77625,0 -1.3925,0.24375 -1.84125,0.7375 -0.453625,0.4925 -0.67875,1.17125 -0.67875,2.03125 l 0,4.94125 -1.439875,0 0,-8.75 1.439875,0 0,1.3525 c 0.34625,-0.5275 0.7525,-0.9175 1.216375,-1.17625 0.46875,-0.25875 1.004875,-0.38625 1.616125,-0.38625 1,0 1.76225,0.3075 2.279875,0.9275 0.522375,0.615 0.78125,1.52875 0.78125,2.74 z m 6.245125,-2.46125 c -0.76125,0 -1.372625,0.3025 -1.821375,0.9075 -0.453625,0.60625 -0.678625,1.42625 -0.678625,2.47125 0,1.055 0.225,1.88 0.668875,2.475 0.444875,0.60125 1.05475,0.89875 1.831125,0.89875 0.766125,0 1.3725,-0.3025 1.826125,-0.9075 0.44875,-0.60625 0.673875,-1.42625 0.673875,-2.46625 0,-1.03 -0.225125,-1.85125 -0.673875,-2.46125 -0.453625,-0.61 -1.06,-0.9175 -1.826125,-0.9175 z m 0,-1.20625 c 1.25,0 2.231375,0.405 2.94875,1.22125 0.71375,0.81 1.075125,1.9325 1.075125,3.36375 0,1.43 -0.361375,2.55375 -1.075125,3.37375 -0.717375,0.82 -1.69875,1.23125 -2.94875,1.23125 -1.25,0 -2.2315,-0.41125 -2.94875,-1.23125 -0.713875,-0.82 -1.069875,-1.94375 -1.069875,-3.37375 0,-1.43125 0.356,-2.55375 1.069875,-3.36375 0.71725,-0.81625 1.69875,-1.22125 2.94875,-1.22125 z m 7.8325,-2.27 0,2.48 2.959,0 0,1.1225 -2.959,0 0,4.75125 c 0,0.70875 0.09763,1.1625 0.2925,1.3625 0.189875,0.205 0.59125,0.3025 1.1865,0.3025 l 1.48,0 0,1.21125 -1.48,0 c -1.11275,0 -1.880375,-0.21 -2.30525,-0.625 -0.418875,-0.42 -0.63375,-1.1675 -0.63375,-2.25125 l 0,-4.75125 -1.04,0 0,-1.1225 1.04,0 0,-2.48 1.46,0 z m 17.211375,5.9375 0,5.2925 -1.435,0 0,-5.23 c 0,-0.835 -0.1665,-1.455 -0.493625,-1.865 -0.32275,-0.41 -0.80525,-0.615 -1.445375,-0.615 -0.776375,0 -1.391125,0.24375 -1.846125,0.7375 -0.44875,0.4925 -0.673875,1.17125 -0.673875,2.03125 l 0,4.94125 -1.44,0 0,-8.75 1.44,0 0,1.3525 c 0.347625,-0.5275 0.752375,-0.9175 1.21625,-1.17625 0.46875,-0.25875 1.006375,-0.38625 1.61625,-0.38625 1.0015,0 1.757875,0.3075 2.28025,0.9275 0.5225,0.615 0.78125,1.52875 0.78125,2.74 z m 2.851125,-3.4575 1.436,0 0,8.75 -1.436,0 0,-8.75 z m 0,-3.4175 1.436,0 0,1.83 -1.436,0 0,-1.83 z m 4.443875,0 1.436,0 0,12.1675 -1.436,0 0,-12.1675 z m 7.822375,0 0,14.2725 -3.315,0 0,-1.10875 1.855,0 0,-12.04125 -1.855,0 0,-1.1225 3.315,0 z"
       inkscape:connector-curvature="0" />
    <path
       id="path3267"
       style="fill:none;stroke:#000000;stroke-width:1.33329999;stroke-linecap:square;stroke-linejoin:miter;stroke-miterlimit:10;stroke-opacity:1;stroke-dasharray:none"
       d="m 50.055747,366.67795 0,17.33375 -13.33,13.335 -34.6675,0 0,-30.66875 47.9975,0 z"
       inkscape:connector-curvature="0" />
    <path
       id="path3269"
       style="fill:none;stroke:#000000;stroke-width:1.33329999;stroke-linecap:square;stroke-linejoin:miter;stroke-miterlimit:10;stroke-opacity:1;stroke-dasharray:none"
       d="m 2.058247,654.0077 561.318753,0 0,-287.99375 -561.318753,0 0,287.99375 z"
       inkscape:connector-curvature="0" />
    <path
       id="path3271"
       style="fill:none;stroke:#000000;stroke-width:1.33329999;stroke-linecap:butt;stroke-linejoin:miter;stroke-miterlimit:10;stroke-opacity:1;stroke-dasharray:6.6665, 6.6665;stroke-dashoffset:0"
       d="m 2.058247,521.96545 561.318753,0"
       inkscape:connector-curvature="0" />
    <path
       id="path3273"
       style="fill:#000000;fill-opacity:1;fill-rule:nonzero;stroke:none"
       d="m 20.872247,382.9517 c -1.152875,0 -1.954125,0.1325 -2.40775,0.39625 -0.44875,0.26375 -0.673875,0.7125 -0.673875,1.3525 0,0.5125 0.1665,0.9175 0.507875,1.22 0.34225,0.29875 0.795875,0.445 1.367125,0.445 0.801375,0 1.445375,-0.27875 1.923875,-0.84 0.4785,-0.56625 0.71725,-1.31875 0.71725,-2.26125 l 0,-0.3125 -1.4345,0 z m 2.876,-0.605 0,5 -1.4415,0 0,-1.3325 c -0.331,0.52625 -0.742125,0.9175 -1.224625,1.17625 -0.48875,0.25375 -1.083875,0.38625 -1.792375,0.38625 -0.903875,0 -1.621625,-0.255 -2.149,-0.7625 -0.526375,-0.5075 -0.79,-1.17625 -0.79,-2.01125 0,-0.98625 0.331,-1.72875 0.99125,-2.22625 0.658625,-0.50375 1.640125,-0.7525 2.948625,-0.7525 l 2.016125,0 0,-0.14625 c 0,-0.66375 -0.21475,-1.1775 -0.65325,-1.53875 -0.4405,-0.36125 -1.0455,-0.54125 -1.821375,-0.54125 -0.503875,0 -0.991125,0.0588 -1.470125,0.185 -0.4785,0.1275 -0.932625,0.3075 -1.36775,0.5425 l 0,-1.33375 c 0.527875,-0.21 1.040125,-0.36125 1.53425,-0.45875 0.492125,-0.0975 0.976,-0.14625 1.449625,-0.14625 1.26025,0 2.207625,0.3275 2.832625,0.98125 0.625,0.65 0.9375,1.64625 0.9375,2.97875 z m 2.948625,-7.1675 1.435125,0 0,12.1675 -1.435125,0 0,-12.1675 z m 5.883875,0.9375 0,2.48 2.959,0 0,1.1225 -2.959,0 0,4.75125 c 0,0.70875 0.09763,1.1625 0.2925,1.3675 0.191375,0.2 0.586375,0.2975 1.1875,0.2975 l 1.479,0 0,1.21125 -1.479,0 c -1.113875,0 -1.88,-0.21 -2.30525,-0.625 -0.42475,-0.415 -0.63475,-1.1675 -0.63475,-2.25125 l 0,-4.75125 -1.04,0 0,-1.1225 1.04,0 0,-2.48 1.46,0 z"
       inkscape:connector-curvature="0" />
    <path
       id="path3275"
       style="fill:#ffffff;fill-opacity:1;fill-rule:nonzero;stroke:none"
       d="m 509.382,628.6742 13.33012,0 0,-33.335 -13.33012,0 0,33.335 z"
       inkscape:connector-curvature="0" />
    <path
       id="path3277"
       style="fill:none;stroke:#000000;stroke-width:1.33329999;stroke-linecap:square;stroke-linejoin:miter;stroke-miterlimit:10;stroke-opacity:1;stroke-dasharray:none"
       d="m 509.382,628.6742 13.33012,0 0,-33.335 -13.33012,0 0,33.335 z"
       inkscape:connector-curvature="0" />
    <path
       id="path3279"
       style="fill:#000000;fill-opacity:1;fill-rule:nonzero;stroke:none"
       d="m 283.0345,614.6117 c -0.16625,-0.082 -0.34125,-0.1512 -0.5325,-0.2001 -0.185,-0.049 -0.395,-0.072 -0.63375,-0.072 -0.80625,0 -1.42625,0.2637 -1.86625,0.79 -0.43375,0.5323 -0.65375,1.2949 -0.65375,2.2949 l 0,4.605 -1.435,0 0,-8.75 1.435,0 0,1.3526 c 0.3075,-0.5278 0.70375,-0.9175 1.18625,-1.1763 0.48875,-0.2588 1.08,-0.3862 1.7725,-0.3862 0.0975,0 0.205,0 0.3225,0.02 0.1175,0.014 0.24875,0.034 0.38625,0.062 l 0.0187,1.4599 z m 8.995,2.6861 0,0.6889 -6.62125,0 c 0.0675,1 0.37125,1.7574 0.9025,2.2701 0.5375,0.5122 1.275,0.771 2.2225,0.771 0.55125,0 1.09375,-0.067 1.61125,-0.1997 0.5225,-0.1314 1.04,-0.3364 1.5525,-0.6153 l 0,1.3765 c -0.5275,0.2099 -1.065,0.3712 -1.60125,0.4888 -0.5425,0.1225 -1.09375,0.1811 -1.65125,0.1811 -1.38625,0 -2.49,-0.4101 -3.31,-1.2211 -0.82,-0.8101 -1.23,-1.9141 -1.23,-3.3014 0,-1.4301 0.39,-2.5674 1.16625,-3.4076 0.78125,-0.8399 1.82125,-1.2598 3.125,-1.2598 1.18125,0 2.115,0.3813 2.8025,1.1372 0.68875,0.7578 1.03125,1.7876 1.03125,3.0913 z m -1.43625,-0.4351 c -0.015,-0.7812 -0.23375,-1.4062 -0.66875,-1.875 -0.43,-0.4736 -0.99625,-0.7124 -1.70375,-0.7124 -0.80625,0 -1.45,0.229 -1.92875,0.689 -0.47875,0.4585 -0.7525,1.0987 -0.825,1.9184 l 5.12625,-0.02 z m 3.78,-3.5835 1.44,0 0,8.916 c 0,1.109 -0.215,1.9141 -0.635,2.4165 -0.425,0.4986 -1.10875,0.7476 -2.055,0.7476 l -0.5425,0 0,-1.2251 0.395,0 c 0.5425,0 0.91375,-0.1274 1.10875,-0.3765 0.19,-0.2485 0.28875,-0.771 0.28875,-1.5625 l 0,-8.916 z m 0,-3.4175 1.44,0 0,1.8301 -1.44,0 0,-1.8301 z m 11.9475,7.4361 0,0.6889 -6.62625,0 c 0.0688,1 0.37125,1.7574 0.90375,2.2701 0.5375,0.5122 1.275,0.771 2.22125,0.771 0.5575,0 1.09375,-0.067 1.61125,-0.1997 0.5225,-0.1314 1.04,-0.3364 1.55375,-0.6153 l 0,1.3765 c -0.5275,0.2099 -1.06,0.3712 -1.6025,0.4888 -0.54125,0.1225 -1.08875,0.1811 -1.645,0.1811 -1.39125,0 -2.495,-0.4101 -3.315,-1.2211 -0.81625,-0.8101 -1.22625,-1.9141 -1.22625,-3.3014 0,-1.4301 0.38625,-2.5674 1.1675,-3.4076 0.77625,-0.8399 1.81625,-1.2598 3.125,-1.2598 1.17625,0 2.11375,0.3813 2.7975,1.1372 0.68875,0.7578 1.035,1.7876 1.035,3.0913 z m -1.44,-0.4351 c -0.015,-0.7812 -0.235,-1.4062 -0.66375,-1.875 -0.43,-0.4736 -1.00125,-0.7124 -1.71,-0.7124 -0.805,0 -1.45,0.229 -1.92875,0.689 -0.4775,0.4585 -0.75125,1.0987 -0.82,1.9184 l 5.1225,-0.02 z m 10.0925,-3.251 0,1.3526 c -0.415,-0.2353 -0.825,-0.4101 -1.225,-0.5176 -0.40625,-0.1122 -0.81625,-0.1714 -1.23125,-0.1714 -0.9425,0 -1.675,0.2974 -2.1875,0.8887 -0.5125,0.5903 -0.77125,1.4215 -0.77125,2.4902 0,1.0699 0.25875,1.9 0.77125,2.4898 0.5125,0.5865 1.245,0.8838 2.1875,0.8838 0.415,0 0.825,-0.059 1.23125,-0.1661 0.4,-0.1112 0.81,-0.2772 1.225,-0.5024 l 0,1.3325 c -0.4,0.1812 -0.815,0.3223 -1.25,0.4199 -0.43,0.099 -0.88875,0.1475 -1.3725,0.1475 -1.3175,0 -2.3675,-0.415 -3.14375,-1.2412 -0.78125,-0.83 -1.1675,-1.9478 -1.1675,-3.3638 0,-1.4165 0.39125,-2.5336 1.1775,-3.355 0.78125,-0.8202 1.865,-1.2299 3.23625,-1.2299 0.43,0 0.86,0.043 1.285,0.1362 0.42,0.089 0.835,0.2251 1.235,0.4062 z m 3.92625,-2.8125 0,2.48 2.95375,0 0,1.1226 -2.95375,0 0,4.751 c 0,0.7089 0.0925,1.1625 0.2875,1.3628 0.195,0.2051 0.59125,0.3022 1.19125,0.3022 l 1.475,0 0,1.2114 -1.475,0 c -1.1125,0 -1.88,-0.2099 -2.305,-0.625 -0.42375,-0.4199 -0.63375,-1.1675 -0.63375,-2.2514 l 0,-4.751 -1.04,0 0,-1.1226 1.04,0 0,-2.48 1.46,0 z m 3.29,-0.4399 9.85375,0 0,1.3325 -4.12125,0 0,10.3374 -1.58625,0 0,-10.3374 -4.14625,0 0,-1.3325 z m 16.4025,4.2524 c -0.17125,-0.082 -0.3475,-0.1512 -0.5325,-0.2001 -0.19125,-0.049 -0.40125,-0.072 -0.635,-0.072 -0.80625,0 -1.43125,0.2637 -1.865,0.79 -0.44,0.5323 -0.66,1.2949 -0.66,2.2949 l 0,4.605 -1.435,0 0,-8.75 1.435,0 0,1.3526 c 0.30875,-0.5278 0.70375,-0.9175 1.1925,-1.1763 0.4825,-0.2588 1.07375,-0.3862 1.7675,-0.3862 0.0975,0 0.205,0 0.32125,0.02 0.1175,0.014 0.25,0.034 0.38625,0.062 l 0.025,1.4599 z m 1.49375,-1.3325 1.435,0 0,8.75 -1.435,0 0,-8.75 z m 0,-3.4175 1.435,0 0,1.8301 -1.435,0 0,-1.8301 z m 5.84,10.8536 0,4.644 -1.44125,0 0,-12.0801 1.44125,0 0,1.3325 c 0.3025,-0.5262 0.68875,-0.9174 1.1475,-1.1665 0.45375,-0.2485 1.005,-0.3759 1.645,-0.3759 1.07,0 1.93375,0.4199 2.6025,1.2598 0.66375,0.8402 1.00125,1.9477 1.00125,3.3251 0,1.3726 -0.3375,2.4849 -1.00125,3.3301 -0.66875,0.8502 -1.5325,1.2749 -2.6025,1.2749 -0.64,0 -1.19125,-0.1322 -1.645,-0.3862 -0.45875,-0.2588 -0.845,-0.645 -1.1475,-1.1577 z m 4.8975,-3.0611 c 0,-1.06 -0.22,-1.8852 -0.66,-2.48 -0.43375,-0.5961 -1.03,-0.8989 -1.78125,-0.8989 -0.7625,0 -1.3625,0.3028 -1.8025,0.8989 -0.43375,0.5948 -0.65375,1.42 -0.65375,2.48 0,1.0553 0.22,1.8847 0.65375,2.4898 0.44,0.6016 1.04,0.9038 1.8025,0.9038 0.75125,0 1.3475,-0.3022 1.78125,-0.9038 0.44,-0.6051 0.66,-1.4345 0.66,-2.4898 z m 7.31875,-7.7739 c -0.69375,1.1963 -1.21125,2.3789 -1.5525,3.5552 -0.3375,1.1723 -0.5075,2.3637 -0.5075,3.5688 0,1.1973 0.17,2.3838 0.5075,3.565 0.34125,1.1812 0.85875,2.3687 1.5525,3.5649 l -1.25,0 c -0.77625,-1.226 -1.3625,-2.4277 -1.7475,-3.6089 -0.39125,-1.1762 -0.58625,-2.3535 -0.58625,-3.521 0,-1.1665 0.195,-2.334 0.58625,-3.5053 0.385,-1.1773 0.97125,-2.3823 1.7475,-3.6187 l 1.25,0 z m 2.57875,0 1.25,0 c 0.77625,1.2364 1.3575,2.4414 1.7475,3.6187 0.39125,1.1713 0.58625,2.3388 0.58625,3.5053 0,1.1675 -0.195,2.3448 -0.58625,3.521 -0.39,1.1812 -0.97125,2.3829 -1.7475,3.6089 l -1.25,0 c 0.67875,-1.1962 1.19125,-2.3837 1.5375,-3.5649 0.35125,-1.1812 0.5225,-2.3677 0.5225,-3.565 0,-1.2051 -0.17125,-2.3965 -0.5225,-3.5688 -0.34625,-1.1763 -0.85875,-2.3589 -1.5375,-3.5552 z"
       inkscape:connector-curvature="0" />
    <path
       id="path3281"
       style="fill:none;stroke:#000000;stroke-width:1.33329999;stroke-linecap:square;stroke-linejoin:miter;stroke-miterlimit:10;stroke-opacity:1;stroke-dasharray:none"
       d="m 151.3895,595.3393 358.125,0"
       inkscape:connector-curvature="0" />
    <path
       id="path3283"
       style="fill:none;stroke:#000000;stroke-width:1.33329999;stroke-linecap:square;stroke-linejoin:miter;stroke-miterlimit:10;stroke-opacity:1;stroke-dasharray:none"
       d="m 509.5145,595.3393 -13.8575,8.0034"
       inkscape:connector-curvature="0" />
    <path
       id="path3285"
       style="fill:none;stroke:#000000;stroke-width:1.33329999;stroke-linecap:square;stroke-linejoin:miter;stroke-miterlimit:10;stroke-opacity:1;stroke-dasharray:none"
       d="M 509.5145,595.3393 495.657,587.3417"
       inkscape:connector-curvature="0" />
    <path
       id="path3287"
       style="fill:none;stroke:#000000;stroke-width:1.33329999;stroke-linecap:square;stroke-linejoin:miter;stroke-miterlimit:10;stroke-opacity:1;stroke-dasharray:none"
       d="m 374.05075,548.0104 0,17.3288 -13.335,13.335 -242.66125,0 0,-30.6638 255.99625,0 z"
       inkscape:connector-curvature="0" />
    <path
       id="path3289"
       style="fill:none;stroke:#000000;stroke-width:1.33329999;stroke-linecap:square;stroke-linejoin:miter;stroke-miterlimit:10;stroke-opacity:1;stroke-dasharray:none"
       d="m 118.0545,646.0043 423.99375,0 0,-98.6626 -423.99375,0 0,98.6626 z"
       inkscape:connector-curvature="0" />
    <path
       id="path3291"
       style="fill:#000000;fill-opacity:1;fill-rule:nonzero;stroke:none"
       d="m 132.88825,556.5067 1.44,0 0,12.1675 -1.44,0 0,-12.1675 z m 7.8425,4.4187 c -0.7625,0 -1.3725,0.3025 -1.8225,0.9038 -0.45375,0.605 -0.6775,1.43 -0.6775,2.47 0,1.055 0.22375,1.88 0.66875,2.4812 0.44375,0.595 1.05375,0.8938 1.83125,0.8938 0.76625,0 1.37125,-0.3038 1.82125,-0.9038 0.45375,-0.605 0.67875,-1.4312 0.67875,-2.4712 0,-1.025 -0.225,-1.845 -0.67875,-2.455 -0.45,-0.6163 -1.055,-0.9188 -1.82125,-0.9188 z m 0,-1.2112 c 1.25,0 2.23125,0.4112 2.94875,1.2212 0.7125,0.81 1.07375,1.9338 1.07375,3.3638 0,1.4313 -0.36125,2.5537 -1.07375,3.375 -0.7175,0.82 -1.69875,1.23 -2.94875,1.23 -1.25,0 -2.2325,-0.41 -2.95,-1.23 -0.7125,-0.8213 -1.06875,-1.9437 -1.06875,-3.375 0,-1.43 0.35625,-2.5538 1.06875,-3.3638 0.7175,-0.81 1.7,-1.2212 2.95,-1.2212 z m 9.79,1.2112 c -0.7675,0 -1.3725,0.3025 -1.8225,0.9038 -0.45375,0.605 -0.6775,1.43 -0.6775,2.47 0,1.055 0.21875,1.88 0.66375,2.4812 0.44375,0.595 1.05875,0.8938 1.83625,0.8938 0.76125,0 1.37125,-0.3038 1.82125,-0.9038 0.45375,-0.605 0.67875,-1.4312 0.67875,-2.4712 0,-1.025 -0.225,-1.845 -0.67875,-2.455 -0.45,-0.6163 -1.06,-0.9188 -1.82125,-0.9188 z m 0,-1.2112 c 1.25,0 2.23125,0.4112 2.94875,1.2212 0.7125,0.81 1.06875,1.9338 1.06875,3.3638 0,1.4313 -0.35625,2.5537 -1.06875,3.375 -0.7175,0.82 -1.69875,1.23 -2.94875,1.23 -1.25,0 -2.2325,-0.41 -2.95,-1.23 -0.7125,-0.8213 -1.07375,-1.9437 -1.07375,-3.375 0,-1.43 0.36125,-2.5538 1.07375,-3.3638 0.7175,-0.81 1.7,-1.2212 2.95,-1.2212 z m 7.7875,7.6475 0,4.6475 -1.435,0 0,-12.085 1.435,0 0,1.3337 c 0.3075,-0.5274 0.68875,-0.9187 1.1475,-1.1674 0.45875,-0.2488 1.00625,-0.3763 1.645,-0.3763 1.07,0 1.93875,0.42 2.6025,1.265 0.67,0.84 1.00125,1.9438 1.00125,3.32 0,1.3775 -0.33125,2.4862 -1.00125,3.335 -0.66375,0.845 -1.5325,1.27 -2.6025,1.27 -0.63875,0 -1.18625,-0.1275 -1.645,-0.3862 -0.45875,-0.2588 -0.84,-0.6438 -1.1475,-1.1563 z m 4.8975,-3.0625 c 0,-1.0538 -0.22,-1.8788 -0.65875,-2.48 -0.435,-0.595 -1.03125,-0.8938 -1.7825,-0.8938 -0.7625,0 -1.3625,0.2988 -1.8025,0.8938 -0.43375,0.6012 -0.65375,1.4262 -0.65375,2.48 0,1.055 0.22,1.885 0.65375,2.4912 0.44,0.605 1.04,0.9025 1.8025,0.9025 0.75125,0 1.3475,-0.2975 1.7825,-0.9025 0.43875,-0.6062 0.65875,-1.4362 0.65875,-2.4912 z m 13.91125,-7.7925 3.31,0 0,1.1275 -1.875,0 0,12.0413 1.875,0 0,1.1037 -3.31,0 0,-14.2725 z m 7.75875,10.855 0,4.6475 -1.43625,0 0,-12.085 1.43625,0 0,1.3337 c 0.3075,-0.5274 0.68875,-0.9187 1.1475,-1.1674 0.45875,-0.2488 1.00625,-0.3763 1.645,-0.3763 1.07,0 1.93875,0.42 2.6075,1.265 0.66375,0.84 0.99625,1.9438 0.99625,3.32 0,1.3775 -0.3325,2.4862 -0.99625,3.335 -0.66875,0.845 -1.5375,1.27 -2.6075,1.27 -0.63875,0 -1.18625,-0.1275 -1.645,-0.3862 -0.45875,-0.2588 -0.84,-0.6438 -1.1475,-1.1563 z m 4.8975,-3.0625 c 0,-1.0538 -0.22,-1.8788 -0.655,-2.48 -0.43875,-0.595 -1.03,-0.8938 -1.78125,-0.8938 -0.7675,0 -1.3675,0.2988 -1.8025,0.8938 -0.43875,0.6012 -0.65875,1.4262 -0.65875,2.48 0,1.055 0.22,1.885 0.65875,2.4912 0.435,0.605 1.035,0.9025 1.8025,0.9025 0.75125,0 1.3425,-0.2975 1.78125,-0.9025 0.435,-0.6062 0.655,-1.4362 0.655,-2.4912 z m 8.95,-4.375 1.44,0 0,8.75 -1.44,0 0,-8.75 z m 0,-3.4175 1.44,0 0,1.8362 -1.44,0 0,-1.8362 z m 11.73875,6.875 0,5.2925 -1.44125,0 0,-5.2288 c 0,-0.8349 -0.16125,-1.455 -0.4875,-1.865 -0.3275,-0.41 -0.81125,-0.6162 -1.44625,-0.6162 -0.78125,0 -1.39625,0.25 -1.845,0.7425 -0.44875,0.4938 -0.67875,1.1675 -0.67875,2.0312 l 0,4.9363 -1.43625,0 0,-8.75 1.43625,0 0,1.3525 c 0.34625,-0.5263 0.75625,-0.9175 1.22,-1.1763 0.465,-0.2537 1.00125,-0.3862 1.61625,-0.3862 0.99625,0 1.75875,0.3125 2.28125,0.9287 0.5175,0.6201 0.78125,1.5325 0.78125,2.7388 z m 7.89,-6.875 1.44125,0 0,7.1875 4.29125,-3.77 1.83125,0 -4.64375,4.0825 4.85375,4.6675 -1.875,0 -4.4575,-4.2725 0,4.2725 -1.44125,0 0,-12.1675 z m 16.80625,7.4362 0,0.6888 -6.62,0 c 0.0675,1.0012 0.37,1.7575 0.9025,2.27 0.5375,0.5188 1.275,0.7725 2.2225,0.7725 0.55125,0 1.09375,-0.064 1.61125,-0.1963 0.5225,-0.1312 1.04,-0.3362 1.5525,-0.615 l 0,1.3726 c -0.5275,0.21 -1.065,0.3712 -1.60125,0.4925 -0.5425,0.1175 -1.09375,0.1762 -1.65125,0.1762 -1.38625,0 -2.49,-0.405 -3.31,-1.2213 -0.82,-0.8099 -1.23125,-1.9087 -1.23125,-3.2999 0,-1.4313 0.39125,-2.5638 1.1675,-3.4038 0.78125,-0.845 1.82125,-1.265 3.125,-1.265 1.18125,0 2.11375,0.3813 2.8025,1.1387 0.68875,0.7563 1.03,1.7863 1.03,3.09 z m -1.435,-0.4337 c -0.015,-0.7763 -0.23375,-1.4013 -0.66875,-1.875 -0.43,-0.4738 -0.99625,-0.7088 -1.70375,-0.7088 -0.80625,0 -1.45125,0.23 -1.92875,0.6888 -0.47875,0.4587 -0.7525,1.0937 -0.82625,1.9137 l 5.1275,-0.019 z m 7.42625,5.9763 c -0.405,1.045 -0.8,1.7237 -1.18625,2.0462 -0.39,0.3175 -0.9025,0.4775 -1.5425,0.4775 l -1.1475,0 0,-1.21 0.835,0 c 0.405,0 0.7125,-0.094 0.9275,-0.2787 0.215,-0.19 0.45375,-0.6301 0.7175,-1.3238 l 0.27375,-0.6687 -3.545,-8.6038 1.52375,0 2.72875,6.8312 2.75,-6.8312 1.5175,0 -3.8525,9.5613 z m 11.40625,-9.3113 0,1.3762 c -0.405,-0.21 -0.825,-0.3662 -1.25875,-0.4687 -0.44,-0.1025 -0.89375,-0.1563 -1.3675,-0.1563 -0.70875,0 -1.24,0.1076 -1.60125,0.3225 -0.36125,0.215 -0.5425,0.5475 -0.5425,0.9913 0,0.3325 0.1275,0.5912 0.38625,0.7812 0.25375,0.185 0.77125,0.3613 1.5525,0.5276 l 0.47875,0.1262 c 1.025,0.21 1.7575,0.5137 2.1875,0.9187 0.42875,0.4 0.64375,0.9563 0.64375,1.665 0,0.82 -0.3225,1.465 -0.96625,1.9388 -0.65,0.4738 -1.53375,0.7075 -2.65625,0.7075 -0.47375,0 -0.9625,-0.044 -1.47,-0.1362 -0.5075,-0.089 -1.04,-0.225 -1.59625,-0.4063 l 0,-1.4988 c 0.53125,0.2788 1.05,0.4838 1.5625,0.625 0.5175,0.1375 1.03,0.205 1.5425,0.205 0.66875,0 1.18625,-0.1125 1.5525,-0.3412 0.36625,-0.23 0.5525,-0.5563 0.5525,-0.9912 0,-0.3863 -0.1325,-0.6838 -0.39625,-0.8938 -0.26375,-0.21 -0.84,-0.41 -1.72875,-0.605 l -0.4975,-0.1025 c -0.89375,-0.1963 -1.53375,-0.4888 -1.92875,-0.875 -0.395,-0.39 -0.59625,-0.9175 -0.59625,-1.5862 0,-0.8301 0.29375,-1.4701 0.875,-1.9138 0.585,-0.445 1.41125,-0.67 2.48,-0.67 0.5275,0 1.03,0.04 1.49875,0.1175 0.47375,0.074 0.90375,0.1913 1.29375,0.3425 z m 6.21125,-3.6425 c -0.69375,1.1912 -1.21125,2.3775 -1.5525,3.5487 -0.34125,1.1726 -0.5075,2.3638 -0.5075,3.575 0,1.1913 0.16625,2.3825 0.5075,3.5588 0.34125,1.1825 0.85875,2.3688 1.5525,3.565 l -1.25,0 c -0.77625,-1.2213 -1.3625,-2.4212 -1.7475,-3.6038 -0.39125,-1.1812 -0.58625,-2.3537 -0.58625,-3.52 0,-1.1675 0.195,-2.3387 0.58625,-3.5112 0.385,-1.1763 0.97125,-2.3775 1.7475,-3.6125 l 1.25,0 z m 4.18,10.83 0,4.6475 -1.44,0 0,-12.085 1.44,0 0,1.3337 c 0.3025,-0.5274 0.68875,-0.9187 1.1475,-1.1674 0.45375,-0.2488 1.00625,-0.3763 1.645,-0.3763 1.07,0 1.93375,0.42 2.6025,1.265 0.665,0.84 1.00125,1.9438 1.00125,3.32 0,1.3775 -0.33625,2.4862 -1.00125,3.335 -0.66875,0.845 -1.5325,1.27 -2.6025,1.27 -0.63875,0 -1.19125,-0.1275 -1.645,-0.3862 -0.45875,-0.2588 -0.845,-0.6438 -1.1475,-1.1563 z m 4.8975,-3.0625 c 0,-1.0538 -0.22,-1.8788 -0.65875,-2.48 -0.435,-0.595 -1.03125,-0.8938 -1.7825,-0.8938 -0.7625,0 -1.3625,0.2988 -1.8025,0.8938 -0.43375,0.6012 -0.65375,1.4262 -0.65375,2.48 0,1.055 0.22,1.885 0.65375,2.4912 0.44,0.605 1.04,0.9025 1.8025,0.9025 0.75125,0 1.3475,-0.2975 1.7825,-0.9025 0.43875,-0.6062 0.65875,-1.4362 0.65875,-2.4912 z m 8.945,-3.0413 c -0.16625,-0.084 -0.34125,-0.1462 -0.5325,-0.195 -0.185,-0.049 -0.4,-0.074 -0.63375,-0.074 -0.80625,0 -1.42625,0.2638 -1.86625,0.7912 -0.43375,0.5275 -0.65375,1.2888 -0.65375,2.29 l 0,4.6038 -1.44,0 0,-8.75 1.44,0 0,1.3525 c 0.3025,-0.5263 0.69875,-0.9175 1.18625,-1.1763 0.48875,-0.2537 1.075,-0.3862 1.7725,-0.3862 0.0975,0 0.205,0.01 0.3225,0.025 0.1175,0.01 0.24375,0.034 0.38625,0.059 l 0.0187,1.4599 z m 4.8925,-0.3325 c -0.76625,0 -1.37125,0.3025 -1.82625,0.9038 -0.44875,0.605 -0.67375,1.43 -0.67375,2.47 0,1.055 0.22,1.88 0.66375,2.4812 0.445,0.595 1.055,0.8938 1.83625,0.8938 0.7625,0 1.3675,-0.3038 1.82125,-0.9038 0.45,-0.605 0.67875,-1.4312 0.67875,-2.4712 0,-1.025 -0.22875,-1.845 -0.67875,-2.455 -0.45375,-0.6163 -1.05875,-0.9188 -1.82125,-0.9188 z m 0,-1.2112 c 1.25,0 2.23125,0.4112 2.945,1.2212 0.7175,0.81 1.07375,1.9338 1.07375,3.3638 0,1.4313 -0.35625,2.5537 -1.07375,3.375 -0.71375,0.82 -1.695,1.23 -2.945,1.23 -1.25,0 -2.23625,-0.41 -2.94875,-1.23 -0.7175,-0.8213 -1.075,-1.9437 -1.075,-3.375 0,-1.43 0.3575,-2.5538 1.075,-3.3638 0.7125,-0.81 1.69875,-1.2212 2.94875,-1.2212 z m 7.78875,7.6475 0,4.6475 -1.44125,0 0,-12.085 1.44125,0 0,1.3337 c 0.3025,-0.5274 0.6875,-0.9187 1.1425,-1.1674 0.45875,-0.2488 1.01,-0.3763 1.645,-0.3763 1.07,0 1.93875,0.42 2.6075,1.265 0.66375,0.84 1.00125,1.9438 1.00125,3.32 0,1.3775 -0.3375,2.4862 -1.00125,3.335 -0.66875,0.845 -1.5375,1.27 -2.6075,1.27 -0.635,0 -1.18625,-0.1275 -1.645,-0.3862 -0.455,-0.2588 -0.84,-0.6438 -1.1425,-1.1563 z m 4.8925,-3.0625 c 0,-1.0538 -0.215,-1.8788 -0.655,-2.48 -0.43875,-0.595 -1.03,-0.8938 -1.78125,-0.8938 -0.7625,0 -1.3625,0.2988 -1.8025,0.8938 -0.435,0.6012 -0.65375,1.4262 -0.65375,2.48 0,1.055 0.21875,1.885 0.65375,2.4912 0.44,0.605 1.04,0.9025 1.8025,0.9025 0.75125,0 1.3425,-0.2975 1.78125,-0.9025 0.44,-0.6062 0.655,-1.4362 0.655,-2.4912 z m 7.26,-3.3738 c -0.76125,0 -1.37125,0.3025 -1.82125,0.9038 -0.44875,0.605 -0.67875,1.43 -0.67875,2.47 0,1.055 0.225,1.88 0.67,2.4812 0.44375,0.595 1.05375,0.8938 1.83,0.8938 0.7675,0 1.3725,-0.3038 1.82625,-0.9038 0.45,-0.605 0.67375,-1.4312 0.67375,-2.4712 0,-1.025 -0.22375,-1.845 -0.67375,-2.455 -0.45375,-0.6163 -1.05875,-0.9188 -1.82625,-0.9188 z m 0,-1.2112 c 1.25,0 2.2325,0.4112 2.95,1.2212 0.7125,0.81 1.07375,1.9338 1.07375,3.3638 0,1.4313 -0.36125,2.5537 -1.07375,3.375 -0.7175,0.82 -1.7,1.23 -2.95,1.23 -1.25,0 -2.23125,-0.41 -2.94375,-1.23 -0.7175,-0.8213 -1.07375,-1.9437 -1.07375,-3.375 0,-1.43 0.35625,-2.5538 1.07375,-3.3638 0.7125,-0.81 1.69375,-1.2212 2.94375,-1.2212 z m 11.9775,0.46 0,1.3762 c -0.4,-0.21 -0.825,-0.3662 -1.25875,-0.4687 -0.44,-0.1025 -0.89375,-0.1563 -1.3675,-0.1563 -0.70875,0 -1.24,0.1076 -1.60125,0.3225 -0.3625,0.215 -0.5425,0.5475 -0.5425,0.9913 0,0.3325 0.1275,0.5912 0.38625,0.7812 0.25875,0.185 0.77125,0.3613 1.5525,0.5276 l 0.47875,0.1262 c 1.025,0.21 1.7575,0.5137 2.1875,0.9187 0.42875,0.4 0.64375,0.9563 0.64375,1.665 0,0.82 -0.3225,1.465 -0.96625,1.9388 -0.65,0.4738 -1.53375,0.7075 -2.65625,0.7075 -0.47375,0 -0.9625,-0.044 -1.47,-0.1362 -0.5075,-0.089 -1.04,-0.225 -1.59125,-0.4063 l 0,-1.4988 c 0.52625,0.2788 1.04375,0.4838 1.5625,0.625 0.5125,0.1375 1.025,0.205 1.5375,0.205 0.66875,0 1.18625,-0.1125 1.5525,-0.3412 0.37125,-0.23 0.5525,-0.5563 0.5525,-0.9912 0,-0.3863 -0.1325,-0.6838 -0.39625,-0.8938 -0.26375,-0.21 -0.84,-0.41 -1.72875,-0.605 l -0.4975,-0.1025 c -0.88875,-0.1963 -1.53375,-0.4888 -1.92875,-0.875 -0.395,-0.39 -0.59625,-0.9175 -0.59625,-1.5862 0,-0.8301 0.29375,-1.4701 0.88,-1.9138 0.58,-0.445 1.40625,-0.67 2.475,-0.67 0.5275,0 1.03,0.04 1.49875,0.1175 0.47375,0.074 0.90375,0.1913 1.29375,0.3425 z m 6.73375,4.1062 c -1.1525,0 -1.9575,0.1313 -2.4075,0.395 -0.45375,0.2638 -0.67875,0.7138 -0.67875,1.3525 0,0.5125 0.17125,0.9238 0.5125,1.2213 0.3375,0.2975 0.79625,0.4437 1.3625,0.4437 0.80625,0 1.45,-0.2775 1.92875,-0.84 0.47875,-0.5662 0.71875,-1.3175 0.71875,-2.26 l 0,-0.3125 -1.43625,0 z m 2.87125,-0.6062 0,5 -1.435,0 0,-1.3325 c -0.3325,0.5275 -0.7425,0.9175 -1.23125,1.1763 -0.48375,0.2587 -1.08375,0.3862 -1.79125,0.3862 -0.90375,0 -1.61625,-0.2537 -2.14375,-0.7612 -0.5275,-0.5088 -0.79125,-1.1776 -0.79125,-2.0126 0,-0.9812 0.3275,-1.7287 0.98625,-2.2262 0.66375,-0.4975 1.645,-0.7525 2.94875,-0.7525 l 2.0225,0 0,-0.1463 c 0,-0.6637 -0.22,-1.1762 -0.655,-1.5375 -0.43875,-0.3612 -1.045,-0.5425 -1.82625,-0.5425 -0.4975,0 -0.98625,0.064 -1.465,0.1863 -0.4825,0.1262 -0.9375,0.3075 -1.36625,0.5413 l 0,-1.3326 c 0.52625,-0.2099 1.04,-0.3612 1.5325,-0.4587 0.49375,-0.098 0.97125,-0.1475 1.445,-0.1475 1.265,0 2.2075,0.3275 2.8325,0.9825 0.625,0.6537 0.9375,1.645 0.9375,2.9775 z m 2.95375,-7.1675 1.43625,0 0,12.1675 -1.43625,0 0,-12.1675 z m 10.025,3.6675 0,1.3762 c -0.40125,-0.21 -0.82,-0.3662 -1.26,-0.4687 -0.435,-0.1025 -0.88875,-0.1563 -1.3625,-0.1563 -0.7075,0 -1.245,0.1076 -1.60625,0.3225 -0.36125,0.215 -0.5425,0.5475 -0.5425,0.9913 0,0.3325 0.1325,0.5912 0.38625,0.7812 0.25875,0.185 0.77625,0.3613 1.5525,0.5276 l 0.47875,0.1262 c 1.03,0.21 1.7575,0.5137 2.1875,0.9187 0.435,0.4 0.65,0.9563 0.65,1.665 0,0.82 -0.3275,1.465 -0.9725,1.9388 -0.64375,0.4738 -1.5275,0.7075 -2.65625,0.7075 -0.46875,0 -0.96125,-0.044 -1.47,-0.1362 -0.5025,-0.089 -1.035,-0.225 -1.59125,-0.4063 l 0,-1.4988 c 0.5275,0.2788 1.05,0.4838 1.5625,0.625 0.5125,0.1375 1.03,0.205 1.5425,0.205 0.665,0 1.1825,-0.1125 1.5525,-0.3412 0.36625,-0.23 0.5525,-0.5563 0.5525,-0.9912 0,-0.3863 -0.1325,-0.6838 -0.395,-0.8938 -0.26375,-0.21 -0.84,-0.41 -1.72875,-0.605 l -0.50375,-0.1025 c -0.88875,-0.1963 -1.5275,-0.4888 -1.92875,-0.875 -0.395,-0.39 -0.59,-0.9175 -0.59,-1.5862 0,-0.8301 0.2925,-1.4701 0.87375,-1.9138 0.58625,-0.445 1.41125,-0.67 2.48,-0.67 0.5275,0 1.02625,0.04 1.5,0.1175 0.4725,0.074 0.9025,0.1913 1.28875,0.3425 z m 2.54875,-3.6425 1.25,0 c 0.77625,1.235 1.3575,2.4362 1.7475,3.6125 0.39125,1.1725 0.58125,2.3437 0.58125,3.5112 0,1.1663 -0.19,2.3388 -0.58125,3.52 -0.39,1.1826 -0.97125,2.3825 -1.7475,3.6038 l -1.25,0 c 0.67875,-1.1962 1.19125,-2.3825 1.5375,-3.565 0.3475,-1.1763 0.5225,-2.3675 0.5225,-3.5588 0,-1.2112 -0.175,-2.4025 -0.5225,-3.575 -0.34625,-1.1712 -0.85875,-2.3575 -1.5375,-3.5487 z m 9.82375,-0.025 0,14.2725 -3.315,0 0,-1.1037 1.855,0 0,-12.0413 -1.855,0 0,-1.1275 3.315,0 z"
       inkscape:connector-curvature="0" />
  </g>
</svg>
